<?xml version="1.0" encoding="utf-8"?>
<svg xmlns="http://www.w3.org/2000/svg" xmlns:xlink="http://www.w3.org/1999/xlink" width="1000" height="400" viewBox="0 0 4000 1600">
<defs>
  <clipPath id="clip750">
    <rect x="0" y="0" width="4000" height="1600"/>
  </clipPath>
</defs>
<path clip-path="url(#clip750)" d="
M0 1600 L4000 1600 L4000 0 L0 0  Z
  " fill="#ffffff" fill-rule="evenodd" fill-opacity="1"/>
<defs>
  <clipPath id="clip751">
    <rect x="800" y="0" width="2801" height="1600"/>
  </clipPath>
</defs>
<path clip-path="url(#clip750)" d="
M235.429 1393.02 L1223.1 1393.02 L1223.1 162.272 L235.429 162.272  Z
  " fill="#ffffff" fill-rule="evenodd" fill-opacity="1"/>
<defs>
  <clipPath id="clip752">
    <rect x="235" y="162" width="989" height="1232"/>
  </clipPath>
</defs>
<polyline clip-path="url(#clip752)" style="stroke:#000000; stroke-linecap:butt; stroke-linejoin:round; stroke-width:2; stroke-opacity:0.1; fill:none" points="
  450.882,1393.02 450.882,162.272 
  "/>
<polyline clip-path="url(#clip752)" style="stroke:#000000; stroke-linecap:butt; stroke-linejoin:round; stroke-width:2; stroke-opacity:0.1; fill:none" points="
  683.731,1393.02 683.731,162.272 
  "/>
<polyline clip-path="url(#clip752)" style="stroke:#000000; stroke-linecap:butt; stroke-linejoin:round; stroke-width:2; stroke-opacity:0.1; fill:none" points="
  916.58,1393.02 916.58,162.272 
  "/>
<polyline clip-path="url(#clip752)" style="stroke:#000000; stroke-linecap:butt; stroke-linejoin:round; stroke-width:2; stroke-opacity:0.1; fill:none" points="
  1149.43,1393.02 1149.43,162.272 
  "/>
<polyline clip-path="url(#clip750)" style="stroke:#000000; stroke-linecap:butt; stroke-linejoin:round; stroke-width:4; stroke-opacity:1; fill:none" points="
  235.429,1393.02 1223.1,1393.02 
  "/>
<polyline clip-path="url(#clip750)" style="stroke:#000000; stroke-linecap:butt; stroke-linejoin:round; stroke-width:4; stroke-opacity:1; fill:none" points="
  450.882,1393.02 450.882,1374.12 
  "/>
<polyline clip-path="url(#clip750)" style="stroke:#000000; stroke-linecap:butt; stroke-linejoin:round; stroke-width:4; stroke-opacity:1; fill:none" points="
  683.731,1393.02 683.731,1374.12 
  "/>
<polyline clip-path="url(#clip750)" style="stroke:#000000; stroke-linecap:butt; stroke-linejoin:round; stroke-width:4; stroke-opacity:1; fill:none" points="
  916.58,1393.02 916.58,1374.12 
  "/>
<polyline clip-path="url(#clip750)" style="stroke:#000000; stroke-linecap:butt; stroke-linejoin:round; stroke-width:4; stroke-opacity:1; fill:none" points="
  1149.43,1393.02 1149.43,1374.12 
  "/>
<path clip-path="url(#clip750)" d="M428.313 1435.01 Q424.702 1435.01 422.873 1438.58 Q421.068 1442.12 421.068 1449.25 Q421.068 1456.35 422.873 1459.92 Q424.702 1463.46 428.313 1463.46 Q431.947 1463.46 433.753 1459.92 Q435.581 1456.35 435.581 1449.25 Q435.581 1442.12 433.753 1438.58 Q431.947 1435.01 428.313 1435.01 M428.313 1431.31 Q434.123 1431.31 437.179 1435.91 Q440.257 1440.5 440.257 1449.25 Q440.257 1457.97 437.179 1462.58 Q434.123 1467.16 428.313 1467.16 Q422.503 1467.16 419.424 1462.58 Q416.369 1457.97 416.369 1449.25 Q416.369 1440.5 419.424 1435.91 Q422.503 1431.31 428.313 1431.31 Z" fill="#000000" fill-rule="evenodd" fill-opacity="1" /><path clip-path="url(#clip750)" d="M448.475 1460.61 L453.359 1460.61 L453.359 1466.49 L448.475 1466.49 L448.475 1460.61 Z" fill="#000000" fill-rule="evenodd" fill-opacity="1" /><path clip-path="url(#clip750)" d="M473.544 1450.08 Q470.211 1450.08 468.29 1451.86 Q466.391 1453.64 466.391 1456.77 Q466.391 1459.89 468.29 1461.68 Q470.211 1463.46 473.544 1463.46 Q476.878 1463.46 478.799 1461.68 Q480.72 1459.87 480.72 1456.77 Q480.72 1453.64 478.799 1451.86 Q476.901 1450.08 473.544 1450.08 M468.868 1448.09 Q465.859 1447.35 464.169 1445.29 Q462.503 1443.23 462.503 1440.27 Q462.503 1436.12 465.442 1433.71 Q468.405 1431.31 473.544 1431.31 Q478.706 1431.31 481.646 1433.71 Q484.586 1436.12 484.586 1440.27 Q484.586 1443.23 482.896 1445.29 Q481.229 1447.35 478.243 1448.09 Q481.623 1448.88 483.498 1451.17 Q485.396 1453.46 485.396 1456.77 Q485.396 1461.79 482.317 1464.48 Q479.262 1467.16 473.544 1467.16 Q467.827 1467.16 464.748 1464.48 Q461.692 1461.79 461.692 1456.77 Q461.692 1453.46 463.591 1451.17 Q465.489 1448.88 468.868 1448.09 M467.155 1440.7 Q467.155 1443.39 468.822 1444.89 Q470.512 1446.4 473.544 1446.4 Q476.553 1446.4 478.243 1444.89 Q479.956 1443.39 479.956 1440.7 Q479.956 1438.02 478.243 1436.52 Q476.553 1435.01 473.544 1435.01 Q470.512 1435.01 468.822 1436.52 Q467.155 1438.02 467.155 1440.7 Z" fill="#000000" fill-rule="evenodd" fill-opacity="1" /><path clip-path="url(#clip750)" d="M661.208 1435.01 Q657.597 1435.01 655.768 1438.58 Q653.963 1442.12 653.963 1449.25 Q653.963 1456.35 655.768 1459.92 Q657.597 1463.46 661.208 1463.46 Q664.842 1463.46 666.648 1459.92 Q668.476 1456.35 668.476 1449.25 Q668.476 1442.12 666.648 1438.58 Q664.842 1435.01 661.208 1435.01 M661.208 1431.31 Q667.018 1431.31 670.074 1435.91 Q673.152 1440.5 673.152 1449.25 Q673.152 1457.97 670.074 1462.58 Q667.018 1467.16 661.208 1467.16 Q655.398 1467.16 652.319 1462.58 Q649.264 1457.97 649.264 1449.25 Q649.264 1440.5 652.319 1435.91 Q655.398 1431.31 661.208 1431.31 Z" fill="#000000" fill-rule="evenodd" fill-opacity="1" /><path clip-path="url(#clip750)" d="M681.37 1460.61 L686.254 1460.61 L686.254 1466.49 L681.37 1466.49 L681.37 1460.61 Z" fill="#000000" fill-rule="evenodd" fill-opacity="1" /><path clip-path="url(#clip750)" d="M696.578 1465.77 L696.578 1461.51 Q698.337 1462.35 700.143 1462.79 Q701.949 1463.23 703.685 1463.23 Q708.314 1463.23 710.745 1460.13 Q713.198 1457 713.546 1450.66 Q712.203 1452.65 710.143 1453.71 Q708.083 1454.78 705.583 1454.78 Q700.398 1454.78 697.365 1451.65 Q694.356 1448.51 694.356 1443.07 Q694.356 1437.74 697.504 1434.52 Q700.652 1431.31 705.884 1431.31 Q711.879 1431.31 715.027 1435.91 Q718.198 1440.5 718.198 1449.25 Q718.198 1457.42 714.31 1462.3 Q710.444 1467.16 703.893 1467.16 Q702.134 1467.16 700.328 1466.82 Q698.523 1466.47 696.578 1465.77 M705.884 1451.12 Q709.032 1451.12 710.861 1448.97 Q712.712 1446.82 712.712 1443.07 Q712.712 1439.34 710.861 1437.19 Q709.032 1435.01 705.884 1435.01 Q702.736 1435.01 700.884 1437.19 Q699.055 1439.34 699.055 1443.07 Q699.055 1446.82 700.884 1448.97 Q702.736 1451.12 705.884 1451.12 Z" fill="#000000" fill-rule="evenodd" fill-opacity="1" /><path clip-path="url(#clip750)" d="M883.733 1462.56 L891.372 1462.56 L891.372 1436.19 L883.061 1437.86 L883.061 1433.6 L891.325 1431.93 L896.001 1431.93 L896.001 1462.56 L903.64 1462.56 L903.64 1466.49 L883.733 1466.49 L883.733 1462.56 Z" fill="#000000" fill-rule="evenodd" fill-opacity="1" /><path clip-path="url(#clip750)" d="M913.084 1460.61 L917.969 1460.61 L917.969 1466.49 L913.084 1466.49 L913.084 1460.61 Z" fill="#000000" fill-rule="evenodd" fill-opacity="1" /><path clip-path="url(#clip750)" d="M938.154 1435.01 Q934.543 1435.01 932.714 1438.58 Q930.908 1442.12 930.908 1449.25 Q930.908 1456.35 932.714 1459.92 Q934.543 1463.46 938.154 1463.46 Q941.788 1463.46 943.594 1459.92 Q945.422 1456.35 945.422 1449.25 Q945.422 1442.12 943.594 1438.58 Q941.788 1435.01 938.154 1435.01 M938.154 1431.31 Q943.964 1431.31 947.019 1435.91 Q950.098 1440.5 950.098 1449.25 Q950.098 1457.97 947.019 1462.58 Q943.964 1467.16 938.154 1467.16 Q932.344 1467.16 929.265 1462.58 Q926.209 1457.97 926.209 1449.25 Q926.209 1440.5 929.265 1435.91 Q932.344 1431.31 938.154 1431.31 Z" fill="#000000" fill-rule="evenodd" fill-opacity="1" /><path clip-path="url(#clip750)" d="M1117.19 1462.56 L1124.83 1462.56 L1124.83 1436.19 L1116.52 1437.86 L1116.52 1433.6 L1124.79 1431.93 L1129.46 1431.93 L1129.46 1462.56 L1137.1 1462.56 L1137.1 1466.49 L1117.19 1466.49 L1117.19 1462.56 Z" fill="#000000" fill-rule="evenodd" fill-opacity="1" /><path clip-path="url(#clip750)" d="M1146.55 1460.61 L1151.43 1460.61 L1151.43 1466.49 L1146.55 1466.49 L1146.55 1460.61 Z" fill="#000000" fill-rule="evenodd" fill-opacity="1" /><path clip-path="url(#clip750)" d="M1162.43 1462.56 L1170.06 1462.56 L1170.06 1436.19 L1161.75 1437.86 L1161.75 1433.6 L1170.02 1431.93 L1174.69 1431.93 L1174.69 1462.56 L1182.33 1462.56 L1182.33 1466.49 L1162.43 1466.49 L1162.43 1462.56 Z" fill="#000000" fill-rule="evenodd" fill-opacity="1" /><path clip-path="url(#clip750)" d="M679.531 1532.6 Q681.473 1529.35 686.279 1526.49 Q688.157 1525.38 693.949 1525.38 Q700.442 1525.38 704.485 1530.53 Q708.559 1535.69 708.559 1544.09 Q708.559 1552.49 704.485 1557.65 Q700.442 1562.81 693.949 1562.81 Q690.035 1562.81 687.202 1561.28 Q684.401 1559.72 682.555 1556.54 L682.555 1575.44 L676.667 1575.44 L676.667 1544.41 Q676.667 1537.06 679.531 1532.6 M702.48 1544.09 Q702.48 1537.63 699.806 1533.97 Q697.164 1530.28 692.517 1530.28 Q687.87 1530.28 685.197 1533.97 Q682.555 1537.63 682.555 1544.09 Q682.555 1550.55 685.197 1554.24 Q687.87 1557.91 692.517 1557.91 Q697.164 1557.91 699.806 1554.24 Q702.48 1550.55 702.48 1544.09 Z" fill="#000000" fill-rule="evenodd" fill-opacity="1" /><path clip-path="url(#clip750)" d="M745.353 1572.71 L745.353 1577.26 L711.487 1577.26 L711.487 1572.71 L745.353 1572.71 Z" fill="#000000" fill-rule="evenodd" fill-opacity="1" /><path clip-path="url(#clip750)" d="M765.436 1518.6 Q760.471 1518.6 757.957 1523.5 Q755.474 1528.37 755.474 1538.17 Q755.474 1547.94 757.957 1552.84 Q760.471 1557.71 765.436 1557.71 Q770.433 1557.71 772.916 1552.84 Q775.431 1547.94 775.431 1538.17 Q775.431 1528.37 772.916 1523.5 Q770.433 1518.6 765.436 1518.6 M765.436 1513.5 Q773.425 1513.5 777.627 1519.84 Q781.86 1526.14 781.86 1538.17 Q781.86 1550.17 777.627 1556.5 Q773.425 1562.81 765.436 1562.81 Q757.447 1562.81 753.214 1556.5 Q749.013 1550.17 749.013 1538.17 Q749.013 1526.14 753.214 1519.84 Q757.447 1513.5 765.436 1513.5 Z" fill="#000000" fill-rule="evenodd" fill-opacity="1" /><polyline clip-path="url(#clip752)" style="stroke:#000000; stroke-linecap:butt; stroke-linejoin:round; stroke-width:2; stroke-opacity:0.1; fill:none" points="
  235.429,1358.19 1223.1,1358.19 
  "/>
<polyline clip-path="url(#clip752)" style="stroke:#000000; stroke-linecap:butt; stroke-linejoin:round; stroke-width:2; stroke-opacity:0.1; fill:none" points="
  235.429,1094.3 1223.1,1094.3 
  "/>
<polyline clip-path="url(#clip752)" style="stroke:#000000; stroke-linecap:butt; stroke-linejoin:round; stroke-width:2; stroke-opacity:0.1; fill:none" points="
  235.429,830.422 1223.1,830.422 
  "/>
<polyline clip-path="url(#clip752)" style="stroke:#000000; stroke-linecap:butt; stroke-linejoin:round; stroke-width:2; stroke-opacity:0.1; fill:none" points="
  235.429,566.54 1223.1,566.54 
  "/>
<polyline clip-path="url(#clip752)" style="stroke:#000000; stroke-linecap:butt; stroke-linejoin:round; stroke-width:2; stroke-opacity:0.1; fill:none" points="
  235.429,302.658 1223.1,302.658 
  "/>
<polyline clip-path="url(#clip750)" style="stroke:#000000; stroke-linecap:butt; stroke-linejoin:round; stroke-width:4; stroke-opacity:1; fill:none" points="
  235.429,1393.02 235.429,162.272 
  "/>
<polyline clip-path="url(#clip750)" style="stroke:#000000; stroke-linecap:butt; stroke-linejoin:round; stroke-width:4; stroke-opacity:1; fill:none" points="
  235.429,1358.19 254.327,1358.19 
  "/>
<polyline clip-path="url(#clip750)" style="stroke:#000000; stroke-linecap:butt; stroke-linejoin:round; stroke-width:4; stroke-opacity:1; fill:none" points="
  235.429,1094.3 254.327,1094.3 
  "/>
<polyline clip-path="url(#clip750)" style="stroke:#000000; stroke-linecap:butt; stroke-linejoin:round; stroke-width:4; stroke-opacity:1; fill:none" points="
  235.429,830.422 254.327,830.422 
  "/>
<polyline clip-path="url(#clip750)" style="stroke:#000000; stroke-linecap:butt; stroke-linejoin:round; stroke-width:4; stroke-opacity:1; fill:none" points="
  235.429,566.54 254.327,566.54 
  "/>
<polyline clip-path="url(#clip750)" style="stroke:#000000; stroke-linecap:butt; stroke-linejoin:round; stroke-width:4; stroke-opacity:1; fill:none" points="
  235.429,302.658 254.327,302.658 
  "/>
<path clip-path="url(#clip750)" d="M163.485 1343.99 Q159.874 1343.99 158.045 1347.55 Q156.24 1351.09 156.24 1358.22 Q156.24 1365.33 158.045 1368.89 Q159.874 1372.43 163.485 1372.43 Q167.119 1372.43 168.925 1368.89 Q170.753 1365.33 170.753 1358.22 Q170.753 1351.09 168.925 1347.55 Q167.119 1343.99 163.485 1343.99 M163.485 1340.28 Q169.295 1340.28 172.351 1344.89 Q175.429 1349.47 175.429 1358.22 Q175.429 1366.95 172.351 1371.56 Q169.295 1376.14 163.485 1376.14 Q157.675 1376.14 154.596 1371.56 Q151.541 1366.95 151.541 1358.22 Q151.541 1349.47 154.596 1344.89 Q157.675 1340.28 163.485 1340.28 Z" fill="#000000" fill-rule="evenodd" fill-opacity="1" /><path clip-path="url(#clip750)" d="M155.522 1107.65 L163.161 1107.65 L163.161 1081.28 L154.851 1082.95 L154.851 1078.69 L163.115 1077.02 L167.79 1077.02 L167.79 1107.65 L175.429 1107.65 L175.429 1111.58 L155.522 1111.58 L155.522 1107.65 Z" fill="#000000" fill-rule="evenodd" fill-opacity="1" /><path clip-path="url(#clip750)" d="M159.11 843.767 L175.429 843.767 L175.429 847.702 L153.485 847.702 L153.485 843.767 Q156.147 841.013 160.73 836.383 Q165.337 831.73 166.517 830.388 Q168.763 827.865 169.642 826.129 Q170.545 824.369 170.545 822.679 Q170.545 819.925 168.601 818.189 Q166.679 816.453 163.578 816.453 Q161.378 816.453 158.925 817.217 Q156.494 817.98 153.716 819.531 L153.716 814.809 Q156.541 813.675 158.994 813.096 Q161.448 812.517 163.485 812.517 Q168.855 812.517 172.05 815.203 Q175.244 817.888 175.244 822.379 Q175.244 824.508 174.434 826.429 Q173.647 828.328 171.54 830.92 Q170.962 831.591 167.86 834.809 Q164.758 838.003 159.11 843.767 Z" fill="#000000" fill-rule="evenodd" fill-opacity="1" /><path clip-path="url(#clip750)" d="M168.3 565.186 Q171.656 565.904 173.531 568.172 Q175.429 570.441 175.429 573.774 Q175.429 578.89 171.911 581.69 Q168.392 584.491 161.911 584.491 Q159.735 584.491 157.42 584.052 Q155.129 583.635 152.675 582.778 L152.675 578.265 Q154.619 579.399 156.934 579.978 Q159.249 580.556 161.772 580.556 Q166.17 580.556 168.462 578.82 Q170.777 577.084 170.777 573.774 Q170.777 570.718 168.624 569.005 Q166.494 567.269 162.675 567.269 L158.647 567.269 L158.647 563.427 L162.86 563.427 Q166.309 563.427 168.138 562.061 Q169.966 560.672 169.966 558.079 Q169.966 555.417 168.068 554.005 Q166.193 552.57 162.675 552.57 Q160.753 552.57 158.554 552.987 Q156.355 553.404 153.716 554.283 L153.716 550.117 Q156.379 549.376 158.693 549.005 Q161.031 548.635 163.091 548.635 Q168.415 548.635 171.517 551.066 Q174.619 553.473 174.619 557.593 Q174.619 560.464 172.976 562.454 Q171.332 564.422 168.3 565.186 Z" fill="#000000" fill-rule="evenodd" fill-opacity="1" /><path clip-path="url(#clip750)" d="M165.846 289.452 L154.041 307.901 L165.846 307.901 L165.846 289.452 M164.619 285.378 L170.499 285.378 L170.499 307.901 L175.429 307.901 L175.429 311.79 L170.499 311.79 L170.499 319.938 L165.846 319.938 L165.846 311.79 L150.244 311.79 L150.244 307.276 L164.619 285.378 Z" fill="#000000" fill-rule="evenodd" fill-opacity="1" /><path clip-path="url(#clip750)" d="M40.3403 876.171 L40.3403 848.353 L45.6875 848.353 L71.3095 870.378 L71.3095 848.353 L75.9883 848.353 L75.9883 876.967 L70.6411 876.967 L45.0191 854.942 L45.0191 876.171 L40.3403 876.171 Z" fill="#000000" fill-rule="evenodd" fill-opacity="1" /><path clip-path="url(#clip750)" d="M26.5267 804.621 Q33.8473 808.886 41.0087 810.955 Q48.1701 813.023 55.5225 813.023 Q62.8749 813.023 70.1 810.955 Q77.2933 808.854 84.582 804.621 L84.582 809.713 Q77.1023 814.488 69.8772 816.875 Q62.6521 819.23 55.5225 819.23 Q48.4248 819.23 41.2315 816.875 Q34.0383 814.519 26.5267 809.713 L26.5267 804.621 Z" fill="#000000" fill-rule="evenodd" fill-opacity="1" /><path clip-path="url(#clip750)" d="M26.4631 793.481 L26.4631 787.592 L55.7135 787.592 L40.3403 770.119 L40.3403 762.639 L57.0185 781.545 L75.9883 761.843 L75.9883 769.482 L58.5781 787.592 L75.9883 787.592 L75.9883 793.481 L26.4631 793.481 Z" fill="#000000" fill-rule="evenodd" fill-opacity="1" /><path clip-path="url(#clip750)" d="M47.1835 727.755 Q43.2367 725.559 41.3588 722.503 Q39.481 719.448 39.481 715.31 Q39.481 709.74 43.3959 706.716 Q47.2789 703.692 54.4722 703.692 L75.9883 703.692 L75.9883 709.581 L54.6632 709.581 Q49.5388 709.581 47.0561 711.395 Q44.5735 713.209 44.5735 716.933 Q44.5735 721.485 47.5972 724.126 Q50.6209 726.768 55.8408 726.768 L75.9883 726.768 L75.9883 732.656 L54.6632 732.656 Q49.5069 732.656 47.0561 734.471 Q44.5735 736.285 44.5735 740.072 Q44.5735 744.56 47.6291 747.202 Q50.6528 749.844 55.8408 749.844 L75.9883 749.844 L75.9883 755.732 L40.3403 755.732 L40.3403 749.844 L45.8785 749.844 Q42.6002 747.839 41.0406 745.038 Q39.481 742.237 39.481 738.385 Q39.481 734.502 41.4543 731.797 Q43.4277 729.06 47.1835 727.755 Z" fill="#000000" fill-rule="evenodd" fill-opacity="1" /><path clip-path="url(#clip750)" d="M26.5267 692.934 L26.5267 687.842 Q34.0383 683.067 41.2315 680.712 Q48.4248 678.325 55.5225 678.325 Q62.6521 678.325 69.8772 680.712 Q77.1023 683.067 84.582 687.842 L84.582 692.934 Q77.2933 688.701 70.1 686.632 Q62.8749 684.532 55.5225 684.532 Q48.1701 684.532 41.0087 686.632 Q33.8473 688.701 26.5267 692.934 Z" fill="#000000" fill-rule="evenodd" fill-opacity="1" /><path clip-path="url(#clip750)" d="M665.968 35.3077 Q668.439 31.1758 674.556 27.5299 Q676.946 26.1121 684.318 26.1121 Q692.582 26.1121 697.727 32.6746 Q702.912 39.2371 702.912 49.9314 Q702.912 60.6258 697.727 67.1883 Q692.582 73.7508 684.318 73.7508 Q679.336 73.7508 675.731 71.8063 Q672.166 69.8214 669.816 65.7705 L669.816 89.8329 L662.322 89.8329 L662.322 50.3365 Q662.322 40.9789 665.968 35.3077 M695.175 49.9314 Q695.175 41.7081 691.772 37.0496 Q688.41 32.3505 682.496 32.3505 Q676.581 32.3505 673.178 37.0496 Q669.816 41.7081 669.816 49.9314 Q669.816 58.1548 673.178 62.8538 Q676.581 67.5124 682.496 67.5124 Q688.41 67.5124 691.772 62.8538 Q695.175 58.1548 695.175 49.9314 Z" fill="#000000" fill-rule="evenodd" fill-opacity="1" /><path clip-path="url(#clip750)" d="M749.741 86.3491 L749.741 92.1419 L706.639 92.1419 L706.639 86.3491 L749.741 86.3491 Z" fill="#000000" fill-rule="evenodd" fill-opacity="1" /><path clip-path="url(#clip750)" d="M775.302 17.4837 Q768.982 17.4837 765.782 23.7221 Q762.622 29.92 762.622 42.3968 Q762.622 54.833 765.782 61.0714 Q768.982 67.2693 775.302 67.2693 Q781.662 67.2693 784.821 61.0714 Q788.022 54.833 788.022 42.3968 Q788.022 29.92 784.821 23.7221 Q781.662 17.4837 775.302 17.4837 M775.302 11.0023 Q785.47 11.0023 790.817 19.0636 Q796.204 27.0843 796.204 42.3968 Q796.204 57.6687 790.817 65.73 Q785.47 73.7508 775.302 73.7508 Q765.134 73.7508 759.746 65.73 Q754.399 57.6687 754.399 42.3968 Q754.399 27.0843 759.746 19.0636 Q765.134 11.0023 775.302 11.0023 Z" fill="#000000" fill-rule="evenodd" fill-opacity="1" /><polyline clip-path="url(#clip752)" style="stroke:#009af9; stroke-linecap:butt; stroke-linejoin:round; stroke-width:4; stroke-opacity:1; fill:none" points="
  1189.87,1351.59 1179.34,1338.4 1168.84,1325.2 1158.36,1312.01 1147.91,1298.81 1137.48,1285.62 1127.08,1272.43 1116.7,1259.23 1106.35,1246.04 1096.03,1232.84 
  1085.73,1219.65 1075.46,1206.45 1065.21,1193.26 1054.99,1180.07 1044.79,1166.87 1032.94,1153.68 1020.59,1140.48 1008.36,1127.29 996.111,1114.1 983.911,1100.9 
  971.759,1087.71 959.653,1074.51 947.591,1061.32 935.572,1048.13 923.594,1034.93 911.656,1021.74 899.664,1008.54 887.897,995.349 876.159,982.155 864.474,968.961 
  852.833,955.767 841.458,942.572 829.827,929.378 818.27,916.184 806.785,902.99 795.364,889.796 784.004,876.602 772.701,863.408 761.564,850.214 750.204,837.02 
  739.224,823.825 728.188,810.631 717.109,797.437 706.081,784.243 695.102,771.049 684.174,757.855 673.296,744.661 662.468,731.467 651.69,718.272 640.963,705.078 
  630.287,691.884 619.66,678.69 609.084,665.496 598.607,652.302 588.003,639.108 577.491,625.914 567.276,612.719 556.942,599.525 546.656,586.331 536.416,573.137 
  526.222,559.943 516.075,546.749 505.973,533.555 495.917,520.361 485.906,507.167 475.941,493.972 466.021,480.778 456.145,467.584 446.314,454.39 436.527,441.196 
  426.785,428.002 417.086,414.808 407.431,401.614 397.82,388.419 388.252,375.225 378.727,362.031 369.176,348.837 359.739,335.643 350.346,322.449 340.998,309.255 
  331.693,296.061 322.432,282.867 313.214,269.672 304.04,256.478 294.91,243.284 285.671,230.09 276.719,216.896 267.816,203.702 
  "/>
<polyline clip-path="url(#clip752)" style="stroke:#e26f46; stroke-linecap:butt; stroke-linejoin:round; stroke-width:4; stroke-opacity:1; fill:none" points="
  1195.14,1358.19 1184.6,1344.99 1174.09,1331.8 1163.6,1318.6 1153.13,1305.41 1142.69,1292.22 1132.28,1279.02 1121.89,1265.83 1111.53,1252.63 1101.19,1239.44 
  1090.88,1226.25 1080.59,1213.05 1070.33,1199.86 1060.09,1186.66 1049.89,1173.47 1038.96,1160.28 1026.74,1147.08 1014.49,1133.89 1002.23,1120.69 990.004,1107.5 
  977.829,1094.3 965.7,1081.11 953.617,1067.92 941.577,1054.72 929.578,1041.53 917.62,1028.33 905.702,1015.14 893.822,1001.95 882.018,988.752 870.311,975.558 
  858.648,962.364 847.03,949.17 835.633,935.975 824.039,922.781 812.519,909.587 801.066,896.393 789.677,883.199 778.345,870.005 767.16,856.811 755.787,843.617 
  744.684,830.422 733.746,817.228 722.642,804.034 711.589,790.84 700.585,777.646 689.632,764.452 678.729,751.258 667.876,738.064 657.073,724.87 646.321,711.675 
  635.619,698.481 624.967,685.287 614.366,672.093 604.032,658.899 593.191,645.705 582.74,632.511 572.256,619.317 562.103,606.122 551.793,592.928 541.53,579.734 
  531.313,566.54 521.143,553.346 511.018,540.152 500.939,526.958 490.906,513.764 480.918,500.569 470.975,487.375 461.077,474.181 451.224,460.987 441.415,447.793 
  431.65,434.599 421.93,421.405 412.253,408.211 402.62,395.017 393.031,381.822 383.484,368.628 373.91,355.434 364.452,342.24 355.037,329.046 345.667,315.852 
  336.34,302.658 327.057,289.464 317.818,276.269 308.622,263.075 299.47,249.881 290.166,236.687 281.189,223.493 272.261,210.299 263.382,197.105 
  "/>
<path clip-path="url(#clip750)" d="
M908.143 358.817 L1190.17 358.817 L1190.17 203.297 L908.143 203.297  Z
  " fill="#ffffff" fill-rule="evenodd" fill-opacity="1"/>
<polyline clip-path="url(#clip750)" style="stroke:#000000; stroke-linecap:butt; stroke-linejoin:round; stroke-width:4; stroke-opacity:1; fill:none" points="
  908.143,358.817 1190.17,358.817 1190.17,203.297 908.143,203.297 908.143,358.817 
  "/>
<polyline clip-path="url(#clip750)" style="stroke:#009af9; stroke-linecap:butt; stroke-linejoin:round; stroke-width:4; stroke-opacity:1; fill:none" points="
  919.117,255.137 984.962,255.137 
  "/>
<path clip-path="url(#clip750)" d="M1016.45 247.487 L1016.45 251.468 Q1014.64 250.473 1012.81 249.987 Q1011.01 249.477 1009.15 249.477 Q1005.01 249.477 1002.72 252.116 Q1000.43 254.732 1000.43 259.477 Q1000.43 264.223 1002.72 266.862 Q1005.01 269.477 1009.15 269.477 Q1011.01 269.477 1012.81 268.991 Q1014.64 268.482 1016.45 267.487 L1016.45 271.422 Q1014.66 272.255 1012.74 272.672 Q1010.84 273.088 1008.69 273.088 Q1002.83 273.088 999.385 269.408 Q995.936 265.727 995.936 259.477 Q995.936 253.135 999.408 249.501 Q1002.9 245.866 1008.97 245.866 Q1010.94 245.866 1012.81 246.283 Q1014.69 246.677 1016.45 247.487 Z" fill="#000000" fill-rule="evenodd" fill-opacity="1" /><path clip-path="url(#clip750)" d="M1046.03 258.389 L1046.03 260.473 L1026.45 260.473 Q1026.72 264.871 1029.08 267.186 Q1031.47 269.477 1035.7 269.477 Q1038.16 269.477 1040.45 268.876 Q1042.76 268.274 1045.03 267.07 L1045.03 271.098 Q1042.74 272.07 1040.33 272.579 Q1037.93 273.088 1035.45 273.088 Q1029.25 273.088 1025.61 269.477 Q1022 265.866 1022 259.709 Q1022 253.343 1025.43 249.616 Q1028.88 245.866 1034.71 245.866 Q1039.94 245.866 1042.97 249.246 Q1046.03 252.602 1046.03 258.389 M1041.77 257.139 Q1041.72 253.644 1039.8 251.561 Q1037.9 249.477 1034.76 249.477 Q1031.19 249.477 1029.04 251.491 Q1026.91 253.505 1026.58 257.163 L1041.77 257.139 Z" fill="#000000" fill-rule="evenodd" fill-opacity="1" /><path clip-path="url(#clip750)" d="M1074.57 256.769 L1074.57 272.417 L1070.31 272.417 L1070.31 256.908 Q1070.31 253.227 1068.88 251.399 Q1067.44 249.57 1064.57 249.57 Q1061.12 249.57 1059.13 251.769 Q1057.14 253.968 1057.14 257.764 L1057.14 272.417 L1052.86 272.417 L1052.86 246.491 L1057.14 246.491 L1057.14 250.519 Q1058.67 248.181 1060.73 247.024 Q1062.81 245.866 1065.52 245.866 Q1069.99 245.866 1072.28 248.644 Q1074.57 251.399 1074.57 256.769 Z" fill="#000000" fill-rule="evenodd" fill-opacity="1" /><path clip-path="url(#clip750)" d="M1087.28 239.13 L1087.28 246.491 L1096.05 246.491 L1096.05 249.802 L1087.28 249.802 L1087.28 263.876 Q1087.28 267.047 1088.13 267.95 Q1089.01 268.852 1091.68 268.852 L1096.05 268.852 L1096.05 272.417 L1091.68 272.417 Q1086.75 272.417 1084.87 270.588 Q1083 268.737 1083 263.876 L1083 249.802 L1079.87 249.802 L1079.87 246.491 L1083 246.491 L1083 239.13 L1087.28 239.13 Z" fill="#000000" fill-rule="evenodd" fill-opacity="1" /><path clip-path="url(#clip750)" d="M1123.83 258.389 L1123.83 260.473 L1104.25 260.473 Q1104.52 264.871 1106.88 267.186 Q1109.27 269.477 1113.5 269.477 Q1115.96 269.477 1118.25 268.876 Q1120.56 268.274 1122.83 267.07 L1122.83 271.098 Q1120.54 272.07 1118.13 272.579 Q1115.73 273.088 1113.25 273.088 Q1107.05 273.088 1103.41 269.477 Q1099.8 265.866 1099.8 259.709 Q1099.8 253.343 1103.23 249.616 Q1106.68 245.866 1112.51 245.866 Q1117.74 245.866 1120.77 249.246 Q1123.83 252.602 1123.83 258.389 M1119.57 257.139 Q1119.52 253.644 1117.6 251.561 Q1115.7 249.477 1112.56 249.477 Q1108.99 249.477 1106.84 251.491 Q1104.71 253.505 1104.38 257.163 L1119.57 257.139 Z" fill="#000000" fill-rule="evenodd" fill-opacity="1" /><path clip-path="url(#clip750)" d="M1145.84 250.473 Q1145.12 250.056 1144.27 249.871 Q1143.44 249.663 1142.42 249.663 Q1138.81 249.663 1136.86 252.024 Q1134.94 254.362 1134.94 258.76 L1134.94 272.417 L1130.66 272.417 L1130.66 246.491 L1134.94 246.491 L1134.94 250.519 Q1136.28 248.158 1138.44 247.024 Q1140.59 245.866 1143.67 245.866 Q1144.11 245.866 1144.64 245.936 Q1145.17 245.982 1145.82 246.098 L1145.84 250.473 Z" fill="#000000" fill-rule="evenodd" fill-opacity="1" /><path clip-path="url(#clip750)" d="M1166.84 247.255 L1166.84 251.283 Q1165.03 250.357 1163.09 249.894 Q1161.14 249.431 1159.06 249.431 Q1155.89 249.431 1154.29 250.403 Q1152.72 251.376 1152.72 253.32 Q1152.72 254.802 1153.85 255.658 Q1154.99 256.491 1158.41 257.255 L1159.87 257.579 Q1164.41 258.552 1166.31 260.334 Q1168.23 262.093 1168.23 265.264 Q1168.23 268.876 1165.36 270.982 Q1162.51 273.088 1157.51 273.088 Q1155.43 273.088 1153.16 272.672 Q1150.91 272.278 1148.41 271.468 L1148.41 267.07 Q1150.77 268.297 1153.06 268.922 Q1155.36 269.524 1157.6 269.524 Q1160.61 269.524 1162.23 268.505 Q1163.85 267.463 1163.85 265.589 Q1163.85 263.852 1162.67 262.926 Q1161.51 262.001 1157.56 261.144 L1156.07 260.797 Q1152.12 259.964 1150.36 258.251 Q1148.6 256.514 1148.6 253.505 Q1148.6 249.848 1151.19 247.857 Q1153.78 245.866 1158.55 245.866 Q1160.91 245.866 1163 246.214 Q1165.08 246.561 1166.84 247.255 Z" fill="#000000" fill-rule="evenodd" fill-opacity="1" /><polyline clip-path="url(#clip750)" style="stroke:#e26f46; stroke-linecap:butt; stroke-linejoin:round; stroke-width:4; stroke-opacity:1; fill:none" points="
  919.117,306.977 984.962,306.977 
  "/>
<path clip-path="url(#clip750)" d="M1012.44 288.239 L1012.44 291.78 L1008.37 291.78 Q1006.07 291.78 1005.17 292.706 Q1004.29 293.632 1004.29 296.04 L1004.29 298.331 L1011.31 298.331 L1011.31 301.642 L1004.29 301.642 L1004.29 324.257 L1000.01 324.257 L1000.01 301.642 L995.936 301.642 L995.936 298.331 L1000.01 298.331 L1000.01 296.526 Q1000.01 292.197 1002.02 290.23 Q1004.04 288.239 1008.41 288.239 L1012.44 288.239 Z" fill="#000000" fill-rule="evenodd" fill-opacity="1" /><path clip-path="url(#clip750)" d="M1027.79 311.225 Q1022.63 311.225 1020.63 312.405 Q1018.64 313.586 1018.64 316.433 Q1018.64 318.702 1020.13 320.044 Q1021.63 321.364 1024.2 321.364 Q1027.74 321.364 1029.87 318.864 Q1032.02 316.341 1032.02 312.174 L1032.02 311.225 L1027.79 311.225 M1036.28 309.466 L1036.28 324.257 L1032.02 324.257 L1032.02 320.322 Q1030.57 322.683 1028.39 323.817 Q1026.21 324.928 1023.07 324.928 Q1019.08 324.928 1016.72 322.706 Q1014.38 320.461 1014.38 316.711 Q1014.38 312.336 1017.3 310.114 Q1020.24 307.892 1026.05 307.892 L1032.02 307.892 L1032.02 307.475 Q1032.02 304.535 1030.08 302.938 Q1028.16 301.317 1024.66 301.317 Q1022.44 301.317 1020.33 301.85 Q1018.23 302.382 1016.28 303.447 L1016.28 299.512 Q1018.62 298.609 1020.82 298.169 Q1023.02 297.706 1025.1 297.706 Q1030.73 297.706 1033.51 300.623 Q1036.28 303.54 1036.28 309.466 Z" fill="#000000" fill-rule="evenodd" fill-opacity="1" /><path clip-path="url(#clip750)" d="M1063.71 299.327 L1063.71 303.308 Q1061.91 302.313 1060.08 301.827 Q1058.27 301.317 1056.42 301.317 Q1052.28 301.317 1049.99 303.956 Q1047.69 306.572 1047.69 311.317 Q1047.69 316.063 1049.99 318.702 Q1052.28 321.317 1056.42 321.317 Q1058.27 321.317 1060.08 320.831 Q1061.91 320.322 1063.71 319.327 L1063.71 323.262 Q1061.93 324.095 1060.01 324.512 Q1058.11 324.928 1055.96 324.928 Q1050.1 324.928 1046.65 321.248 Q1043.2 317.567 1043.2 311.317 Q1043.2 304.975 1046.68 301.341 Q1050.17 297.706 1056.24 297.706 Q1058.2 297.706 1060.08 298.123 Q1061.95 298.517 1063.71 299.327 Z" fill="#000000" fill-rule="evenodd" fill-opacity="1" /><path clip-path="url(#clip750)" d="M1093.3 310.229 L1093.3 312.313 L1073.71 312.313 Q1073.99 316.711 1076.35 319.026 Q1078.74 321.317 1082.97 321.317 Q1085.43 321.317 1087.72 320.716 Q1090.03 320.114 1092.3 318.91 L1092.3 322.938 Q1090.01 323.91 1087.6 324.419 Q1085.19 324.928 1082.72 324.928 Q1076.51 324.928 1072.88 321.317 Q1069.27 317.706 1069.27 311.549 Q1069.27 305.183 1072.69 301.456 Q1076.14 297.706 1081.98 297.706 Q1087.21 297.706 1090.24 301.086 Q1093.3 304.442 1093.3 310.229 M1089.04 308.979 Q1088.99 305.484 1087.07 303.401 Q1085.17 301.317 1082.02 301.317 Q1078.46 301.317 1076.31 303.331 Q1074.18 305.345 1073.85 309.003 L1089.04 308.979 Z" fill="#000000" fill-rule="evenodd" fill-opacity="1" /><path clip-path="url(#clip750)" d="M1116.81 299.095 L1116.81 303.123 Q1115.01 302.197 1113.06 301.734 Q1111.12 301.271 1109.04 301.271 Q1105.87 301.271 1104.27 302.243 Q1102.69 303.216 1102.69 305.16 Q1102.69 306.642 1103.83 307.498 Q1104.96 308.331 1108.39 309.095 L1109.85 309.419 Q1114.38 310.392 1116.28 312.174 Q1118.2 313.933 1118.2 317.104 Q1118.2 320.716 1115.33 322.822 Q1112.49 324.928 1107.49 324.928 Q1105.4 324.928 1103.13 324.512 Q1100.89 324.118 1098.39 323.308 L1098.39 318.91 Q1100.75 320.137 1103.04 320.762 Q1105.33 321.364 1107.58 321.364 Q1110.59 321.364 1112.21 320.345 Q1113.83 319.303 1113.83 317.429 Q1113.83 315.692 1112.65 314.766 Q1111.49 313.841 1107.53 312.984 L1106.05 312.637 Q1102.09 311.804 1100.33 310.091 Q1098.57 308.354 1098.57 305.345 Q1098.57 301.688 1101.17 299.697 Q1103.76 297.706 1108.53 297.706 Q1110.89 297.706 1112.97 298.054 Q1115.06 298.401 1116.81 299.095 Z" fill="#000000" fill-rule="evenodd" fill-opacity="1" /><path clip-path="url(#clip750)" d="
M1568.76 1393.02 L2556.43 1393.02 L2556.43 162.272 L1568.76 162.272  Z
  " fill="#ffffff" fill-rule="evenodd" fill-opacity="1"/>
<defs>
  <clipPath id="clip753">
    <rect x="1568" y="162" width="989" height="1232"/>
  </clipPath>
</defs>
<polyline clip-path="url(#clip753)" style="stroke:#000000; stroke-linecap:butt; stroke-linejoin:round; stroke-width:2; stroke-opacity:0.1; fill:none" points="
  1657.35,1393.02 1657.35,162.272 
  "/>
<polyline clip-path="url(#clip753)" style="stroke:#000000; stroke-linecap:butt; stroke-linejoin:round; stroke-width:2; stroke-opacity:0.1; fill:none" points="
  1892.79,1393.02 1892.79,162.272 
  "/>
<polyline clip-path="url(#clip753)" style="stroke:#000000; stroke-linecap:butt; stroke-linejoin:round; stroke-width:2; stroke-opacity:0.1; fill:none" points="
  2128.23,1393.02 2128.23,162.272 
  "/>
<polyline clip-path="url(#clip753)" style="stroke:#000000; stroke-linecap:butt; stroke-linejoin:round; stroke-width:2; stroke-opacity:0.1; fill:none" points="
  2363.67,1393.02 2363.67,162.272 
  "/>
<polyline clip-path="url(#clip750)" style="stroke:#000000; stroke-linecap:butt; stroke-linejoin:round; stroke-width:4; stroke-opacity:1; fill:none" points="
  1568.76,1393.02 2556.43,1393.02 
  "/>
<polyline clip-path="url(#clip750)" style="stroke:#000000; stroke-linecap:butt; stroke-linejoin:round; stroke-width:4; stroke-opacity:1; fill:none" points="
  1657.35,1393.02 1657.35,1374.12 
  "/>
<polyline clip-path="url(#clip750)" style="stroke:#000000; stroke-linecap:butt; stroke-linejoin:round; stroke-width:4; stroke-opacity:1; fill:none" points="
  1892.79,1393.02 1892.79,1374.12 
  "/>
<polyline clip-path="url(#clip750)" style="stroke:#000000; stroke-linecap:butt; stroke-linejoin:round; stroke-width:4; stroke-opacity:1; fill:none" points="
  2128.23,1393.02 2128.23,1374.12 
  "/>
<polyline clip-path="url(#clip750)" style="stroke:#000000; stroke-linecap:butt; stroke-linejoin:round; stroke-width:4; stroke-opacity:1; fill:none" points="
  2363.67,1393.02 2363.67,1374.12 
  "/>
<path clip-path="url(#clip750)" d="M1642.76 1447.35 Q1639.61 1447.35 1637.76 1449.5 Q1635.93 1451.65 1635.93 1455.4 Q1635.93 1459.13 1637.76 1461.31 Q1639.61 1463.46 1642.76 1463.46 Q1645.9 1463.46 1647.73 1461.31 Q1649.59 1459.13 1649.59 1455.4 Q1649.59 1451.65 1647.73 1449.5 Q1645.9 1447.35 1642.76 1447.35 M1652.04 1432.7 L1652.04 1436.95 Q1650.28 1436.12 1648.47 1435.68 Q1646.69 1435.24 1644.93 1435.24 Q1640.3 1435.24 1637.85 1438.37 Q1635.42 1441.49 1635.07 1447.81 Q1636.44 1445.8 1638.5 1444.73 Q1640.56 1443.64 1643.03 1443.64 Q1648.24 1443.64 1651.25 1446.82 Q1654.28 1449.96 1654.28 1455.4 Q1654.28 1460.73 1651.14 1463.95 Q1647.99 1467.16 1642.76 1467.16 Q1636.76 1467.16 1633.59 1462.58 Q1630.42 1457.97 1630.42 1449.25 Q1630.42 1441.05 1634.31 1436.19 Q1638.2 1431.31 1644.75 1431.31 Q1646.51 1431.31 1648.29 1431.65 Q1650.09 1432 1652.04 1432.7 Z" fill="#000000" fill-rule="evenodd" fill-opacity="1" /><path clip-path="url(#clip750)" d="M1672.34 1435.01 Q1668.73 1435.01 1666.9 1438.58 Q1665.09 1442.12 1665.09 1449.25 Q1665.09 1456.35 1666.9 1459.92 Q1668.73 1463.46 1672.34 1463.46 Q1675.97 1463.46 1677.78 1459.92 Q1679.61 1456.35 1679.61 1449.25 Q1679.61 1442.12 1677.78 1438.58 Q1675.97 1435.01 1672.34 1435.01 M1672.34 1431.31 Q1678.15 1431.31 1681.21 1435.91 Q1684.28 1440.5 1684.28 1449.25 Q1684.28 1457.97 1681.21 1462.58 Q1678.15 1467.16 1672.34 1467.16 Q1666.53 1467.16 1663.45 1462.58 Q1660.4 1457.97 1660.4 1449.25 Q1660.4 1440.5 1663.45 1435.91 Q1666.53 1431.31 1672.34 1431.31 Z" fill="#000000" fill-rule="evenodd" fill-opacity="1" /><path clip-path="url(#clip750)" d="M1866.15 1431.93 L1888.37 1431.93 L1888.37 1433.92 L1875.82 1466.49 L1870.94 1466.49 L1882.74 1435.87 L1866.15 1435.87 L1866.15 1431.93 Z" fill="#000000" fill-rule="evenodd" fill-opacity="1" /><path clip-path="url(#clip750)" d="M1907.49 1435.01 Q1903.88 1435.01 1902.05 1438.58 Q1900.24 1442.12 1900.24 1449.25 Q1900.24 1456.35 1902.05 1459.92 Q1903.88 1463.46 1907.49 1463.46 Q1911.12 1463.46 1912.93 1459.92 Q1914.76 1456.35 1914.76 1449.25 Q1914.76 1442.12 1912.93 1438.58 Q1911.12 1435.01 1907.49 1435.01 M1907.49 1431.31 Q1913.3 1431.31 1916.36 1435.91 Q1919.43 1440.5 1919.43 1449.25 Q1919.43 1457.97 1916.36 1462.58 Q1913.3 1467.16 1907.49 1467.16 Q1901.68 1467.16 1898.6 1462.58 Q1895.55 1457.97 1895.55 1449.25 Q1895.55 1440.5 1898.6 1435.91 Q1901.68 1431.31 1907.49 1431.31 Z" fill="#000000" fill-rule="evenodd" fill-opacity="1" /><path clip-path="url(#clip750)" d="M2113.1 1450.08 Q2109.77 1450.08 2107.85 1451.86 Q2105.95 1453.64 2105.95 1456.77 Q2105.95 1459.89 2107.85 1461.68 Q2109.77 1463.46 2113.1 1463.46 Q2116.44 1463.46 2118.36 1461.68 Q2120.28 1459.87 2120.28 1456.77 Q2120.28 1453.64 2118.36 1451.86 Q2116.46 1450.08 2113.1 1450.08 M2108.43 1448.09 Q2105.42 1447.35 2103.73 1445.29 Q2102.06 1443.23 2102.06 1440.27 Q2102.06 1436.12 2105 1433.71 Q2107.96 1431.31 2113.1 1431.31 Q2118.27 1431.31 2121.2 1433.71 Q2124.14 1436.12 2124.14 1440.27 Q2124.14 1443.23 2122.45 1445.29 Q2120.79 1447.35 2117.8 1448.09 Q2121.18 1448.88 2123.06 1451.17 Q2124.95 1453.46 2124.95 1456.77 Q2124.95 1461.79 2121.88 1464.48 Q2118.82 1467.16 2113.1 1467.16 Q2107.39 1467.16 2104.31 1464.48 Q2101.25 1461.79 2101.25 1456.77 Q2101.25 1453.46 2103.15 1451.17 Q2105.05 1448.88 2108.43 1448.09 M2106.71 1440.7 Q2106.71 1443.39 2108.38 1444.89 Q2110.07 1446.4 2113.1 1446.4 Q2116.11 1446.4 2117.8 1444.89 Q2119.52 1443.39 2119.52 1440.7 Q2119.52 1438.02 2117.8 1436.52 Q2116.11 1435.01 2113.1 1435.01 Q2110.07 1435.01 2108.38 1436.52 Q2106.71 1438.02 2106.71 1440.7 Z" fill="#000000" fill-rule="evenodd" fill-opacity="1" /><path clip-path="url(#clip750)" d="M2143.27 1435.01 Q2139.65 1435.01 2137.83 1438.58 Q2136.02 1442.12 2136.02 1449.25 Q2136.02 1456.35 2137.83 1459.92 Q2139.65 1463.46 2143.27 1463.46 Q2146.9 1463.46 2148.7 1459.92 Q2150.53 1456.35 2150.53 1449.25 Q2150.53 1442.12 2148.7 1438.58 Q2146.9 1435.01 2143.27 1435.01 M2143.27 1431.31 Q2149.08 1431.31 2152.13 1435.91 Q2155.21 1440.5 2155.21 1449.25 Q2155.21 1457.97 2152.13 1462.58 Q2149.08 1467.16 2143.27 1467.16 Q2137.45 1467.16 2134.38 1462.58 Q2131.32 1457.97 2131.32 1449.25 Q2131.32 1440.5 2134.38 1435.91 Q2137.45 1431.31 2143.27 1431.31 Z" fill="#000000" fill-rule="evenodd" fill-opacity="1" /><path clip-path="url(#clip750)" d="M2338.8 1465.77 L2338.8 1461.51 Q2340.56 1462.35 2342.36 1462.79 Q2344.17 1463.23 2345.9 1463.23 Q2350.53 1463.23 2352.96 1460.13 Q2355.42 1457 2355.76 1450.66 Q2354.42 1452.65 2352.36 1453.71 Q2350.3 1454.78 2347.8 1454.78 Q2342.62 1454.78 2339.58 1451.65 Q2336.58 1448.51 2336.58 1443.07 Q2336.58 1437.74 2339.72 1434.52 Q2342.87 1431.31 2348.1 1431.31 Q2354.1 1431.31 2357.25 1435.91 Q2360.42 1440.5 2360.42 1449.25 Q2360.42 1457.42 2356.53 1462.3 Q2352.66 1467.16 2346.11 1467.16 Q2344.35 1467.16 2342.55 1466.82 Q2340.74 1466.47 2338.8 1465.77 M2348.1 1451.12 Q2351.25 1451.12 2353.08 1448.97 Q2354.93 1446.82 2354.93 1443.07 Q2354.93 1439.34 2353.08 1437.19 Q2351.25 1435.01 2348.1 1435.01 Q2344.95 1435.01 2343.1 1437.19 Q2341.27 1439.34 2341.27 1443.07 Q2341.27 1446.82 2343.1 1448.97 Q2344.95 1451.12 2348.1 1451.12 Z" fill="#000000" fill-rule="evenodd" fill-opacity="1" /><path clip-path="url(#clip750)" d="M2378.82 1435.01 Q2375.21 1435.01 2373.38 1438.58 Q2371.57 1442.12 2371.57 1449.25 Q2371.57 1456.35 2373.38 1459.92 Q2375.21 1463.46 2378.82 1463.46 Q2382.45 1463.46 2384.26 1459.92 Q2386.09 1456.35 2386.09 1449.25 Q2386.09 1442.12 2384.26 1438.58 Q2382.45 1435.01 2378.82 1435.01 M2378.82 1431.31 Q2384.63 1431.31 2387.69 1435.91 Q2390.76 1440.5 2390.76 1449.25 Q2390.76 1457.97 2387.69 1462.58 Q2384.63 1467.16 2378.82 1467.16 Q2373.01 1467.16 2369.93 1462.58 Q2366.88 1457.97 2366.88 1449.25 Q2366.88 1440.5 2369.93 1435.91 Q2373.01 1431.31 2378.82 1431.31 Z" fill="#000000" fill-rule="evenodd" fill-opacity="1" /><path clip-path="url(#clip750)" d="M1923.7 1556.54 L1923.7 1575.44 L1917.81 1575.44 L1917.81 1526.24 L1923.7 1526.24 L1923.7 1531.65 Q1925.54 1528.46 1928.34 1526.94 Q1931.18 1525.38 1935.09 1525.38 Q1941.58 1525.38 1945.63 1530.53 Q1949.7 1535.69 1949.7 1544.09 Q1949.7 1552.49 1945.63 1557.65 Q1941.58 1562.81 1935.09 1562.81 Q1931.18 1562.81 1928.34 1561.28 Q1925.54 1559.72 1923.7 1556.54 M1943.62 1544.09 Q1943.62 1537.63 1940.95 1533.97 Q1938.31 1530.28 1933.66 1530.28 Q1929.01 1530.28 1926.34 1533.97 Q1923.7 1537.63 1923.7 1544.09 Q1923.7 1550.55 1926.34 1554.24 Q1929.01 1557.91 1933.66 1557.91 Q1938.31 1557.91 1940.95 1554.24 Q1943.62 1550.55 1943.62 1544.09 Z" fill="#000000" fill-rule="evenodd" fill-opacity="1" /><path clip-path="url(#clip750)" d="M1986.49 1572.71 L1986.49 1577.26 L1952.63 1577.26 L1952.63 1572.71 L1986.49 1572.71 Z" fill="#000000" fill-rule="evenodd" fill-opacity="1" /><path clip-path="url(#clip750)" d="M2006.58 1518.6 Q2001.61 1518.6 1999.1 1523.5 Q1996.62 1528.37 1996.62 1538.17 Q1996.62 1547.94 1999.1 1552.84 Q2001.61 1557.71 2006.58 1557.71 Q2011.58 1557.71 2014.06 1552.84 Q2016.57 1547.94 2016.57 1538.17 Q2016.57 1528.37 2014.06 1523.5 Q2011.58 1518.6 2006.58 1518.6 M2006.58 1513.5 Q2014.57 1513.5 2018.77 1519.84 Q2023 1526.14 2023 1538.17 Q2023 1550.17 2018.77 1556.5 Q2014.57 1562.81 2006.58 1562.81 Q1998.59 1562.81 1994.36 1556.5 Q1990.15 1550.17 1990.15 1538.17 Q1990.15 1526.14 1994.36 1519.84 Q1998.59 1513.5 2006.58 1513.5 Z" fill="#000000" fill-rule="evenodd" fill-opacity="1" /><path clip-path="url(#clip750)" d="M2068.26 1512.42 Q2064 1519.74 2061.93 1526.9 Q2059.86 1534.07 2059.86 1541.42 Q2059.86 1548.77 2061.93 1556 Q2064.03 1563.19 2068.26 1570.48 L2063.17 1570.48 Q2058.4 1563 2056.01 1555.77 Q2053.65 1548.55 2053.65 1541.42 Q2053.65 1534.32 2056.01 1527.13 Q2058.36 1519.93 2063.17 1512.42 L2068.26 1512.42 Z" fill="#000000" fill-rule="evenodd" fill-opacity="1" /><path clip-path="url(#clip750)" d="M2079.4 1512.36 L2085.29 1512.36 L2085.29 1541.61 L2102.76 1526.24 L2110.24 1526.24 L2091.34 1542.91 L2111.04 1561.88 L2103.4 1561.88 L2085.29 1544.47 L2085.29 1561.88 L2079.4 1561.88 L2079.4 1512.36 Z" fill="#000000" fill-rule="evenodd" fill-opacity="1" /><path clip-path="url(#clip750)" d="M2124.06 1519.65 L2124.06 1537.5 L2132.14 1537.5 Q2136.63 1537.5 2139.08 1535.18 Q2141.53 1532.86 2141.53 1528.56 Q2141.53 1524.29 2139.08 1521.97 Q2136.63 1519.65 2132.14 1519.65 L2124.06 1519.65 M2117.63 1514.36 L2132.14 1514.36 Q2140.13 1514.36 2144.2 1517.99 Q2148.31 1521.59 2148.31 1528.56 Q2148.31 1535.59 2144.2 1539.19 Q2140.13 1542.79 2132.14 1542.79 L2124.06 1542.79 L2124.06 1561.88 L2117.63 1561.88 L2117.63 1514.36 Z" fill="#000000" fill-rule="evenodd" fill-opacity="1" /><path clip-path="url(#clip750)" d="M2169.95 1543.96 Q2162.86 1543.96 2160.12 1545.59 Q2157.38 1547.21 2157.38 1551.13 Q2157.38 1554.24 2159.42 1556.09 Q2161.49 1557.91 2165.02 1557.91 Q2169.89 1557.91 2172.82 1554.47 Q2175.78 1551 2175.78 1545.27 L2175.78 1543.96 L2169.95 1543.96 M2181.64 1541.55 L2181.64 1561.88 L2175.78 1561.88 L2175.78 1556.47 Q2173.77 1559.72 2170.78 1561.28 Q2167.79 1562.81 2163.46 1562.81 Q2157.99 1562.81 2154.74 1559.75 Q2151.53 1556.66 2151.53 1551.51 Q2151.53 1545.49 2155.54 1542.44 Q2159.58 1539.38 2167.57 1539.38 L2175.78 1539.38 L2175.78 1538.81 Q2175.78 1534.77 2173.11 1532.57 Q2170.46 1530.34 2165.66 1530.34 Q2162.6 1530.34 2159.71 1531.07 Q2156.81 1531.81 2154.14 1533.27 L2154.14 1527.86 Q2157.35 1526.62 2160.37 1526.01 Q2163.4 1525.38 2166.26 1525.38 Q2174 1525.38 2177.82 1529.39 Q2181.64 1533.4 2181.64 1541.55 Z" fill="#000000" fill-rule="evenodd" fill-opacity="1" /><path clip-path="url(#clip750)" d="M2192.78 1512.42 L2197.87 1512.42 Q2202.64 1519.93 2205 1527.13 Q2207.38 1534.32 2207.38 1541.42 Q2207.38 1548.55 2205 1555.77 Q2202.64 1563 2197.87 1570.48 L2192.78 1570.48 Q2197.01 1563.19 2199.08 1556 Q2201.18 1548.77 2201.18 1541.42 Q2201.18 1534.07 2199.08 1526.9 Q2197.01 1519.74 2192.78 1512.42 Z" fill="#000000" fill-rule="evenodd" fill-opacity="1" /><polyline clip-path="url(#clip753)" style="stroke:#000000; stroke-linecap:butt; stroke-linejoin:round; stroke-width:2; stroke-opacity:0.1; fill:none" points="
  1568.76,1358.19 2556.43,1358.19 
  "/>
<polyline clip-path="url(#clip753)" style="stroke:#000000; stroke-linecap:butt; stroke-linejoin:round; stroke-width:2; stroke-opacity:0.1; fill:none" points="
  1568.76,1094.3 2556.43,1094.3 
  "/>
<polyline clip-path="url(#clip753)" style="stroke:#000000; stroke-linecap:butt; stroke-linejoin:round; stroke-width:2; stroke-opacity:0.1; fill:none" points="
  1568.76,830.422 2556.43,830.422 
  "/>
<polyline clip-path="url(#clip753)" style="stroke:#000000; stroke-linecap:butt; stroke-linejoin:round; stroke-width:2; stroke-opacity:0.1; fill:none" points="
  1568.76,566.54 2556.43,566.54 
  "/>
<polyline clip-path="url(#clip753)" style="stroke:#000000; stroke-linecap:butt; stroke-linejoin:round; stroke-width:2; stroke-opacity:0.1; fill:none" points="
  1568.76,302.658 2556.43,302.658 
  "/>
<polyline clip-path="url(#clip750)" style="stroke:#000000; stroke-linecap:butt; stroke-linejoin:round; stroke-width:4; stroke-opacity:1; fill:none" points="
  1568.76,1393.02 1568.76,162.272 
  "/>
<polyline clip-path="url(#clip750)" style="stroke:#000000; stroke-linecap:butt; stroke-linejoin:round; stroke-width:4; stroke-opacity:1; fill:none" points="
  1568.76,1358.19 1587.66,1358.19 
  "/>
<polyline clip-path="url(#clip750)" style="stroke:#000000; stroke-linecap:butt; stroke-linejoin:round; stroke-width:4; stroke-opacity:1; fill:none" points="
  1568.76,1094.3 1587.66,1094.3 
  "/>
<polyline clip-path="url(#clip750)" style="stroke:#000000; stroke-linecap:butt; stroke-linejoin:round; stroke-width:4; stroke-opacity:1; fill:none" points="
  1568.76,830.422 1587.66,830.422 
  "/>
<polyline clip-path="url(#clip750)" style="stroke:#000000; stroke-linecap:butt; stroke-linejoin:round; stroke-width:4; stroke-opacity:1; fill:none" points="
  1568.76,566.54 1587.66,566.54 
  "/>
<polyline clip-path="url(#clip750)" style="stroke:#000000; stroke-linecap:butt; stroke-linejoin:round; stroke-width:4; stroke-opacity:1; fill:none" points="
  1568.76,302.658 1587.66,302.658 
  "/>
<path clip-path="url(#clip750)" d="M1496.82 1343.99 Q1493.21 1343.99 1491.38 1347.55 Q1489.57 1351.09 1489.57 1358.22 Q1489.57 1365.33 1491.38 1368.89 Q1493.21 1372.43 1496.82 1372.43 Q1500.45 1372.43 1502.26 1368.89 Q1504.09 1365.33 1504.09 1358.22 Q1504.09 1351.09 1502.26 1347.55 Q1500.45 1343.99 1496.82 1343.99 M1496.82 1340.28 Q1502.63 1340.28 1505.68 1344.89 Q1508.76 1349.47 1508.76 1358.22 Q1508.76 1366.95 1505.68 1371.56 Q1502.63 1376.14 1496.82 1376.14 Q1491.01 1376.14 1487.93 1371.56 Q1484.87 1366.95 1484.87 1358.22 Q1484.87 1349.47 1487.93 1344.89 Q1491.01 1340.28 1496.82 1340.28 Z" fill="#000000" fill-rule="evenodd" fill-opacity="1" /><path clip-path="url(#clip750)" d="M1488.86 1107.65 L1496.49 1107.65 L1496.49 1081.28 L1488.18 1082.95 L1488.18 1078.69 L1496.45 1077.02 L1501.12 1077.02 L1501.12 1107.65 L1508.76 1107.65 L1508.76 1111.58 L1488.86 1111.58 L1488.86 1107.65 Z" fill="#000000" fill-rule="evenodd" fill-opacity="1" /><path clip-path="url(#clip750)" d="M1492.44 843.767 L1508.76 843.767 L1508.76 847.702 L1486.82 847.702 L1486.82 843.767 Q1489.48 841.013 1494.06 836.383 Q1498.67 831.73 1499.85 830.388 Q1502.1 827.865 1502.98 826.129 Q1503.88 824.369 1503.88 822.679 Q1503.88 819.925 1501.93 818.189 Q1500.01 816.453 1496.91 816.453 Q1494.71 816.453 1492.26 817.217 Q1489.83 817.98 1487.05 819.531 L1487.05 814.809 Q1489.87 813.675 1492.33 813.096 Q1494.78 812.517 1496.82 812.517 Q1502.19 812.517 1505.38 815.203 Q1508.58 817.888 1508.58 822.379 Q1508.58 824.508 1507.77 826.429 Q1506.98 828.328 1504.87 830.92 Q1504.3 831.591 1501.19 834.809 Q1498.09 838.003 1492.44 843.767 Z" fill="#000000" fill-rule="evenodd" fill-opacity="1" /><path clip-path="url(#clip750)" d="M1501.63 565.186 Q1504.99 565.904 1506.86 568.172 Q1508.76 570.441 1508.76 573.774 Q1508.76 578.89 1505.24 581.69 Q1501.73 584.491 1495.24 584.491 Q1493.07 584.491 1490.75 584.052 Q1488.46 583.635 1486.01 582.778 L1486.01 578.265 Q1487.95 579.399 1490.27 579.978 Q1492.58 580.556 1495.11 580.556 Q1499.5 580.556 1501.8 578.82 Q1504.11 577.084 1504.11 573.774 Q1504.11 570.718 1501.96 569.005 Q1499.83 567.269 1496.01 567.269 L1491.98 567.269 L1491.98 563.427 L1496.19 563.427 Q1499.64 563.427 1501.47 562.061 Q1503.3 560.672 1503.3 558.079 Q1503.3 555.417 1501.4 554.005 Q1499.53 552.57 1496.01 552.57 Q1494.09 552.57 1491.89 552.987 Q1489.69 553.404 1487.05 554.283 L1487.05 550.117 Q1489.71 549.376 1492.03 549.005 Q1494.36 548.635 1496.42 548.635 Q1501.75 548.635 1504.85 551.066 Q1507.95 553.473 1507.95 557.593 Q1507.95 560.464 1506.31 562.454 Q1504.67 564.422 1501.63 565.186 Z" fill="#000000" fill-rule="evenodd" fill-opacity="1" /><path clip-path="url(#clip750)" d="M1499.18 289.452 L1487.37 307.901 L1499.18 307.901 L1499.18 289.452 M1497.95 285.378 L1503.83 285.378 L1503.83 307.901 L1508.76 307.901 L1508.76 311.79 L1503.83 311.79 L1503.83 319.938 L1499.18 319.938 L1499.18 311.79 L1483.58 311.79 L1483.58 307.276 L1497.95 285.378 Z" fill="#000000" fill-rule="evenodd" fill-opacity="1" /><path clip-path="url(#clip750)" d="M1373.67 876.171 L1373.67 848.353 L1379.02 848.353 L1404.64 870.378 L1404.64 848.353 L1409.32 848.353 L1409.32 876.967 L1403.97 876.967 L1378.35 854.942 L1378.35 876.171 L1373.67 876.171 Z" fill="#000000" fill-rule="evenodd" fill-opacity="1" /><path clip-path="url(#clip750)" d="M1359.86 804.621 Q1367.18 808.886 1374.34 810.955 Q1381.5 813.023 1388.86 813.023 Q1396.21 813.023 1403.43 810.955 Q1410.63 808.854 1417.92 804.621 L1417.92 809.713 Q1410.44 814.488 1403.21 816.875 Q1395.99 819.23 1388.86 819.23 Q1381.76 819.23 1374.56 816.875 Q1367.37 814.519 1359.86 809.713 L1359.86 804.621 Z" fill="#000000" fill-rule="evenodd" fill-opacity="1" /><path clip-path="url(#clip750)" d="M1359.8 793.481 L1359.8 787.592 L1389.05 787.592 L1373.67 770.119 L1373.67 762.639 L1390.35 781.545 L1409.32 761.843 L1409.32 769.482 L1391.91 787.592 L1409.32 787.592 L1409.32 793.481 L1359.8 793.481 Z" fill="#000000" fill-rule="evenodd" fill-opacity="1" /><path clip-path="url(#clip750)" d="M1380.52 727.755 Q1376.57 725.559 1374.69 722.503 Q1372.81 719.448 1372.81 715.31 Q1372.81 709.74 1376.73 706.716 Q1380.61 703.692 1387.81 703.692 L1409.32 703.692 L1409.32 709.581 L1388 709.581 Q1382.87 709.581 1380.39 711.395 Q1377.91 713.209 1377.91 716.933 Q1377.91 721.485 1380.93 724.126 Q1383.95 726.768 1389.17 726.768 L1409.32 726.768 L1409.32 732.656 L1388 732.656 Q1382.84 732.656 1380.39 734.471 Q1377.91 736.285 1377.91 740.072 Q1377.91 744.56 1380.96 747.202 Q1383.99 749.844 1389.17 749.844 L1409.32 749.844 L1409.32 755.732 L1373.67 755.732 L1373.67 749.844 L1379.21 749.844 Q1375.93 747.839 1374.37 745.038 Q1372.81 742.237 1372.81 738.385 Q1372.81 734.502 1374.79 731.797 Q1376.76 729.06 1380.52 727.755 Z" fill="#000000" fill-rule="evenodd" fill-opacity="1" /><path clip-path="url(#clip750)" d="M1359.86 692.934 L1359.86 687.842 Q1367.37 683.067 1374.56 680.712 Q1381.76 678.325 1388.86 678.325 Q1395.99 678.325 1403.21 680.712 Q1410.44 683.067 1417.92 687.842 L1417.92 692.934 Q1410.63 688.701 1403.43 686.632 Q1396.21 684.532 1388.86 684.532 Q1381.5 684.532 1374.34 686.632 Q1367.18 688.701 1359.86 692.934 Z" fill="#000000" fill-rule="evenodd" fill-opacity="1" /><path clip-path="url(#clip750)" d="M1885.82 65.7705 L1885.82 89.8329 L1878.32 89.8329 L1878.32 27.2059 L1885.82 27.2059 L1885.82 34.0924 Q1888.16 30.0415 1891.73 28.0971 Q1895.33 26.1121 1900.32 26.1121 Q1908.58 26.1121 1913.73 32.6746 Q1918.91 39.2371 1918.91 49.9314 Q1918.91 60.6258 1913.73 67.1883 Q1908.58 73.7508 1900.32 73.7508 Q1895.33 73.7508 1891.73 71.8063 Q1888.16 69.8214 1885.82 65.7705 M1911.17 49.9314 Q1911.17 41.7081 1907.77 37.0496 Q1904.41 32.3505 1898.49 32.3505 Q1892.58 32.3505 1889.18 37.0496 Q1885.82 41.7081 1885.82 49.9314 Q1885.82 58.1548 1889.18 62.8538 Q1892.58 67.5124 1898.49 67.5124 Q1904.41 67.5124 1907.77 62.8538 Q1911.17 58.1548 1911.17 49.9314 Z" fill="#000000" fill-rule="evenodd" fill-opacity="1" /><path clip-path="url(#clip750)" d="M1965.74 86.3491 L1965.74 92.1419 L1922.64 92.1419 L1922.64 86.3491 L1965.74 86.3491 Z" fill="#000000" fill-rule="evenodd" fill-opacity="1" /><path clip-path="url(#clip750)" d="M1991.3 17.4837 Q1984.98 17.4837 1981.78 23.7221 Q1978.62 29.92 1978.62 42.3968 Q1978.62 54.833 1981.78 61.0714 Q1984.98 67.2693 1991.3 67.2693 Q1997.66 67.2693 2000.82 61.0714 Q2004.02 54.833 2004.02 42.3968 Q2004.02 29.92 2000.82 23.7221 Q1997.66 17.4837 1991.3 17.4837 M1991.3 11.0023 Q2001.47 11.0023 2006.82 19.0636 Q2012.2 27.0843 2012.2 42.3968 Q2012.2 57.6687 2006.82 65.73 Q2001.47 73.7508 1991.3 73.7508 Q1981.13 73.7508 1975.75 65.73 Q1970.4 57.6687 1970.4 42.3968 Q1970.4 27.0843 1975.75 19.0636 Q1981.13 11.0023 1991.3 11.0023 Z" fill="#000000" fill-rule="evenodd" fill-opacity="1" /><path clip-path="url(#clip750)" d="M2069.81 9.62495 Q2064.38 18.942 2061.75 28.0566 Q2059.11 37.1711 2059.11 46.5287 Q2059.11 55.8863 2061.75 65.0818 Q2064.42 74.2369 2069.81 83.5134 L2063.33 83.5134 Q2057.25 73.9938 2054.21 64.7983 Q2051.21 55.6027 2051.21 46.5287 Q2051.21 37.4952 2054.21 28.3401 Q2057.21 19.1851 2063.33 9.62495 L2069.81 9.62495 Z" fill="#000000" fill-rule="evenodd" fill-opacity="1" /><path clip-path="url(#clip750)" d="M2083.99 9.54393 L2091.48 9.54393 L2091.48 46.7717 L2113.72 27.2059 L2123.24 27.2059 L2099.18 48.4326 L2124.25 72.576 L2114.53 72.576 L2091.48 50.4176 L2091.48 72.576 L2083.99 72.576 L2083.99 9.54393 Z" fill="#000000" fill-rule="evenodd" fill-opacity="1" /><path clip-path="url(#clip750)" d="M2140.82 18.8205 L2140.82 41.5461 L2151.11 41.5461 Q2156.82 41.5461 2159.94 38.5889 Q2163.06 35.6318 2163.06 30.163 Q2163.06 24.7348 2159.94 21.7777 Q2156.82 18.8205 2151.11 18.8205 L2140.82 18.8205 M2132.64 12.096 L2151.11 12.096 Q2161.28 12.096 2166.46 16.714 Q2171.69 21.2916 2171.69 30.163 Q2171.69 39.1155 2166.46 43.6931 Q2161.28 48.2706 2151.11 48.2706 L2140.82 48.2706 L2140.82 72.576 L2132.64 72.576 L2132.64 12.096 Z" fill="#000000" fill-rule="evenodd" fill-opacity="1" /><path clip-path="url(#clip750)" d="M2199.23 49.7694 Q2190.2 49.7694 2186.72 51.8354 Q2183.23 53.9013 2183.23 58.8839 Q2183.23 62.8538 2185.83 65.2034 Q2188.46 67.5124 2192.95 67.5124 Q2199.15 67.5124 2202.88 63.1374 Q2206.65 58.7219 2206.65 51.4303 L2206.65 49.7694 L2199.23 49.7694 M2214.1 46.6907 L2214.1 72.576 L2206.65 72.576 L2206.65 65.6895 Q2204.09 69.8214 2200.29 71.8063 Q2196.48 73.7508 2190.97 73.7508 Q2184 73.7508 2179.87 69.8619 Q2175.78 65.9325 2175.78 59.3701 Q2175.78 51.7138 2180.88 47.825 Q2186.03 43.9361 2196.2 43.9361 L2206.65 43.9361 L2206.65 43.2069 Q2206.65 38.0623 2203.24 35.2672 Q2199.88 32.4315 2193.76 32.4315 Q2189.88 32.4315 2186.19 33.3632 Q2182.5 34.295 2179.1 36.1584 L2179.1 29.2718 Q2183.19 27.692 2187.04 26.9223 Q2190.89 26.1121 2194.53 26.1121 Q2204.38 26.1121 2209.24 31.2163 Q2214.1 36.3204 2214.1 46.6907 Z" fill="#000000" fill-rule="evenodd" fill-opacity="1" /><path clip-path="url(#clip750)" d="M2228.28 9.62495 L2234.76 9.62495 Q2240.84 19.1851 2243.83 28.3401 Q2246.87 37.4952 2246.87 46.5287 Q2246.87 55.6027 2243.83 64.7983 Q2240.84 73.9938 2234.76 83.5134 L2228.28 83.5134 Q2233.67 74.2369 2236.3 65.0818 Q2238.97 55.8863 2238.97 46.5287 Q2238.97 37.1711 2236.3 28.0566 Q2233.67 18.942 2228.28 9.62495 Z" fill="#000000" fill-rule="evenodd" fill-opacity="1" /><polyline clip-path="url(#clip753)" style="stroke:#009af9; stroke-linecap:butt; stroke-linejoin:round; stroke-width:4; stroke-opacity:1; fill:none" points="
  2522.02,1351.59 2509.14,1338.4 2496.32,1325.2 2483.54,1312.01 2470.82,1298.81 2458.15,1285.62 2445.53,1272.43 2432.97,1259.23 2420.45,1246.04 2407.99,1232.84 
  2395.58,1219.65 2383.21,1206.45 2370.9,1193.26 2358.64,1180.07 2346.43,1166.87 2334.28,1153.68 2322.18,1140.48 2310.14,1127.29 2298.16,1114.1 2286.24,1100.9 
  2274.38,1087.71 2262.57,1074.51 2250.82,1061.32 2239.13,1048.13 2227.5,1034.93 2215.93,1021.74 2204.41,1008.54 2192.95,995.349 2181.55,982.155 2170.2,968.961 
  2158.91,955.767 2147.67,942.572 2136.49,929.378 2125.36,916.184 2114.29,902.99 2103.28,889.796 2092.32,876.602 2081.42,863.408 2070.56,850.214 2059.77,837.02 
  2049.02,823.825 2038.33,810.631 2027.7,797.437 2017.11,784.243 2006.58,771.049 1996.11,757.855 1985.68,744.661 1975.31,731.467 1964.99,718.272 1954.72,705.078 
  1944.5,691.884 1934.34,678.69 1924.23,665.496 1914.16,652.302 1904.15,639.108 1894.19,625.914 1884.28,612.719 1874.42,599.525 1864.61,586.331 1854.85,573.137 
  1845.14,559.943 1835.48,546.749 1825.86,533.555 1816.3,520.361 1806.79,507.167 1797.32,493.972 1787.9,480.778 1778.53,467.584 1769.21,454.39 1759.93,441.196 
  1750.71,428.002 1741.53,414.808 1732.39,401.614 1723.31,388.419 1714.27,375.225 1705.28,362.031 1696.33,348.837 1687.43,335.643 1678.58,322.449 1669.77,309.255 
  1661.01,296.061 1652.29,282.867 1643.62,269.672 1634.99,256.478 1626.41,243.284 1617.87,230.09 1609.37,216.896 1600.92,203.702 
  "/>
<polyline clip-path="url(#clip753)" style="stroke:#e26f46; stroke-linecap:butt; stroke-linejoin:round; stroke-width:4; stroke-opacity:1; fill:none" points="
  2528.48,1358.19 2515.57,1344.99 2502.72,1331.8 2489.92,1318.6 2477.18,1305.41 2464.48,1292.22 2451.84,1279.02 2439.24,1265.83 2426.7,1252.63 2414.21,1239.44 
  2401.78,1226.25 2389.39,1213.05 2377.05,1199.86 2364.77,1186.66 2352.53,1173.47 2340.35,1160.28 2328.22,1147.08 2316.15,1133.89 2304.14,1120.69 2292.19,1107.5 
  2280.3,1094.3 2268.47,1081.11 2256.69,1067.92 2244.97,1054.72 2233.31,1041.53 2221.71,1028.33 2210.16,1015.14 2198.67,1001.95 2187.24,988.752 2175.86,975.558 
  2164.55,962.364 2153.28,949.17 2142.07,935.975 2130.92,922.781 2119.82,909.587 2108.78,896.393 2097.79,883.199 2086.86,870.005 2075.98,856.811 2065.16,843.617 
  2054.39,830.422 2043.67,817.228 2033.01,804.034 2022.4,790.84 2011.84,777.646 2001.34,764.452 1990.89,751.258 1980.49,738.064 1970.14,724.87 1959.85,711.675 
  1949.61,698.481 1939.42,685.287 1929.28,672.093 1919.19,658.899 1909.15,645.705 1899.17,632.511 1889.23,619.317 1879.35,606.122 1869.51,592.928 1859.72,579.734 
  1849.99,566.54 1840.3,553.346 1830.67,540.152 1821.08,526.958 1811.54,513.764 1802.05,500.569 1792.6,487.375 1783.21,474.181 1773.86,460.987 1764.57,447.793 
  1755.31,434.599 1746.11,421.405 1736.95,408.211 1727.85,395.017 1718.78,381.822 1709.77,368.628 1700.8,355.434 1691.87,342.24 1683,329.046 1674.17,315.852 
  1665.38,302.658 1656.64,289.464 1647.95,276.269 1639.3,263.075 1630.69,249.881 1622.13,236.687 1613.62,223.493 1605.14,210.299 1596.72,197.105 
  "/>
<path clip-path="url(#clip750)" d="
M2241.48 358.817 L2523.51 358.817 L2523.51 203.297 L2241.48 203.297  Z
  " fill="#ffffff" fill-rule="evenodd" fill-opacity="1"/>
<polyline clip-path="url(#clip750)" style="stroke:#000000; stroke-linecap:butt; stroke-linejoin:round; stroke-width:4; stroke-opacity:1; fill:none" points="
  2241.48,358.817 2523.51,358.817 2523.51,203.297 2241.48,203.297 2241.48,358.817 
  "/>
<polyline clip-path="url(#clip750)" style="stroke:#009af9; stroke-linecap:butt; stroke-linejoin:round; stroke-width:4; stroke-opacity:1; fill:none" points="
  2252.45,255.137 2318.3,255.137 
  "/>
<path clip-path="url(#clip750)" d="M2349.78 247.487 L2349.78 251.468 Q2347.97 250.473 2346.14 249.987 Q2344.34 249.477 2342.49 249.477 Q2338.34 249.477 2336.05 252.116 Q2333.76 254.732 2333.76 259.477 Q2333.76 264.223 2336.05 266.862 Q2338.34 269.477 2342.49 269.477 Q2344.34 269.477 2346.14 268.991 Q2347.97 268.482 2349.78 267.487 L2349.78 271.422 Q2348 272.255 2346.07 272.672 Q2344.18 273.088 2342.02 273.088 Q2336.17 273.088 2332.72 269.408 Q2329.27 265.727 2329.27 259.477 Q2329.27 253.135 2332.74 249.501 Q2336.24 245.866 2342.3 245.866 Q2344.27 245.866 2346.14 246.283 Q2348.02 246.677 2349.78 247.487 Z" fill="#000000" fill-rule="evenodd" fill-opacity="1" /><path clip-path="url(#clip750)" d="M2379.36 258.389 L2379.36 260.473 L2359.78 260.473 Q2360.06 264.871 2362.42 267.186 Q2364.8 269.477 2369.04 269.477 Q2371.49 269.477 2373.78 268.876 Q2376.1 268.274 2378.37 267.07 L2378.37 271.098 Q2376.07 272.07 2373.67 272.579 Q2371.26 273.088 2368.78 273.088 Q2362.58 273.088 2358.95 269.477 Q2355.33 265.866 2355.33 259.709 Q2355.33 253.343 2358.76 249.616 Q2362.21 245.866 2368.04 245.866 Q2373.27 245.866 2376.31 249.246 Q2379.36 252.602 2379.36 258.389 M2375.1 257.139 Q2375.06 253.644 2373.13 251.561 Q2371.24 249.477 2368.09 249.477 Q2364.52 249.477 2362.37 251.491 Q2360.24 253.505 2359.92 257.163 L2375.1 257.139 Z" fill="#000000" fill-rule="evenodd" fill-opacity="1" /><path clip-path="url(#clip750)" d="M2407.9 256.769 L2407.9 272.417 L2403.64 272.417 L2403.64 256.908 Q2403.64 253.227 2402.21 251.399 Q2400.77 249.57 2397.9 249.57 Q2394.45 249.57 2392.46 251.769 Q2390.47 253.968 2390.47 257.764 L2390.47 272.417 L2386.19 272.417 L2386.19 246.491 L2390.47 246.491 L2390.47 250.519 Q2392 248.181 2394.06 247.024 Q2396.14 245.866 2398.85 245.866 Q2403.32 245.866 2405.61 248.644 Q2407.9 251.399 2407.9 256.769 Z" fill="#000000" fill-rule="evenodd" fill-opacity="1" /><path clip-path="url(#clip750)" d="M2420.61 239.13 L2420.61 246.491 L2429.38 246.491 L2429.38 249.802 L2420.61 249.802 L2420.61 263.876 Q2420.61 267.047 2421.47 267.95 Q2422.35 268.852 2425.01 268.852 L2429.38 268.852 L2429.38 272.417 L2425.01 272.417 Q2420.08 272.417 2418.2 270.588 Q2416.33 268.737 2416.33 263.876 L2416.33 249.802 L2413.2 249.802 L2413.2 246.491 L2416.33 246.491 L2416.33 239.13 L2420.61 239.13 Z" fill="#000000" fill-rule="evenodd" fill-opacity="1" /><path clip-path="url(#clip750)" d="M2457.16 258.389 L2457.16 260.473 L2437.58 260.473 Q2437.86 264.871 2440.22 267.186 Q2442.6 269.477 2446.84 269.477 Q2449.29 269.477 2451.58 268.876 Q2453.9 268.274 2456.17 267.07 L2456.17 271.098 Q2453.88 272.07 2451.47 272.579 Q2449.06 273.088 2446.58 273.088 Q2440.38 273.088 2436.75 269.477 Q2433.13 265.866 2433.13 259.709 Q2433.13 253.343 2436.56 249.616 Q2440.01 245.866 2445.84 245.866 Q2451.07 245.866 2454.11 249.246 Q2457.16 252.602 2457.16 258.389 M2452.9 257.139 Q2452.86 253.644 2450.94 251.561 Q2449.04 249.477 2445.89 249.477 Q2442.32 249.477 2440.17 251.491 Q2438.04 253.505 2437.72 257.163 L2452.9 257.139 Z" fill="#000000" fill-rule="evenodd" fill-opacity="1" /><path clip-path="url(#clip750)" d="M2479.18 250.473 Q2478.46 250.056 2477.6 249.871 Q2476.77 249.663 2475.75 249.663 Q2472.14 249.663 2470.19 252.024 Q2468.27 254.362 2468.27 258.76 L2468.27 272.417 L2463.99 272.417 L2463.99 246.491 L2468.27 246.491 L2468.27 250.519 Q2469.62 248.158 2471.77 247.024 Q2473.92 245.866 2477 245.866 Q2477.44 245.866 2477.97 245.936 Q2478.5 245.982 2479.15 246.098 L2479.18 250.473 Z" fill="#000000" fill-rule="evenodd" fill-opacity="1" /><path clip-path="url(#clip750)" d="M2500.17 247.255 L2500.17 251.283 Q2498.37 250.357 2496.42 249.894 Q2494.48 249.431 2492.39 249.431 Q2489.22 249.431 2487.62 250.403 Q2486.05 251.376 2486.05 253.32 Q2486.05 254.802 2487.19 255.658 Q2488.32 256.491 2491.75 257.255 L2493.2 257.579 Q2497.74 258.552 2499.64 260.334 Q2501.56 262.093 2501.56 265.264 Q2501.56 268.876 2498.69 270.982 Q2495.84 273.088 2490.84 273.088 Q2488.76 273.088 2486.49 272.672 Q2484.25 272.278 2481.75 271.468 L2481.75 267.07 Q2484.11 268.297 2486.4 268.922 Q2488.69 269.524 2490.94 269.524 Q2493.94 269.524 2495.56 268.505 Q2497.19 267.463 2497.19 265.589 Q2497.19 263.852 2496 262.926 Q2494.85 262.001 2490.89 261.144 L2489.41 260.797 Q2485.45 259.964 2483.69 258.251 Q2481.93 256.514 2481.93 253.505 Q2481.93 249.848 2484.52 247.857 Q2487.12 245.866 2491.88 245.866 Q2494.25 245.866 2496.33 246.214 Q2498.41 246.561 2500.17 247.255 Z" fill="#000000" fill-rule="evenodd" fill-opacity="1" /><polyline clip-path="url(#clip750)" style="stroke:#e26f46; stroke-linecap:butt; stroke-linejoin:round; stroke-width:4; stroke-opacity:1; fill:none" points="
  2252.45,306.977 2318.3,306.977 
  "/>
<path clip-path="url(#clip750)" d="M2345.77 288.239 L2345.77 291.78 L2341.7 291.78 Q2339.41 291.78 2338.51 292.706 Q2337.63 293.632 2337.63 296.04 L2337.63 298.331 L2344.64 298.331 L2344.64 301.642 L2337.63 301.642 L2337.63 324.257 L2333.34 324.257 L2333.34 301.642 L2329.27 301.642 L2329.27 298.331 L2333.34 298.331 L2333.34 296.526 Q2333.34 292.197 2335.36 290.23 Q2337.37 288.239 2341.75 288.239 L2345.77 288.239 Z" fill="#000000" fill-rule="evenodd" fill-opacity="1" /><path clip-path="url(#clip750)" d="M2361.12 311.225 Q2355.96 311.225 2353.97 312.405 Q2351.98 313.586 2351.98 316.433 Q2351.98 318.702 2353.46 320.044 Q2354.96 321.364 2357.53 321.364 Q2361.07 321.364 2363.2 318.864 Q2365.36 316.341 2365.36 312.174 L2365.36 311.225 L2361.12 311.225 M2369.62 309.466 L2369.62 324.257 L2365.36 324.257 L2365.36 320.322 Q2363.9 322.683 2361.72 323.817 Q2359.55 324.928 2356.4 324.928 Q2352.42 324.928 2350.06 322.706 Q2347.72 320.461 2347.72 316.711 Q2347.72 312.336 2350.63 310.114 Q2353.57 307.892 2359.38 307.892 L2365.36 307.892 L2365.36 307.475 Q2365.36 304.535 2363.41 302.938 Q2361.49 301.317 2358 301.317 Q2355.77 301.317 2353.67 301.85 Q2351.56 302.382 2349.62 303.447 L2349.62 299.512 Q2351.95 298.609 2354.15 298.169 Q2356.35 297.706 2358.44 297.706 Q2364.06 297.706 2366.84 300.623 Q2369.62 303.54 2369.62 309.466 Z" fill="#000000" fill-rule="evenodd" fill-opacity="1" /><path clip-path="url(#clip750)" d="M2397.05 299.327 L2397.05 303.308 Q2395.24 302.313 2393.41 301.827 Q2391.61 301.317 2389.76 301.317 Q2385.61 301.317 2383.32 303.956 Q2381.03 306.572 2381.03 311.317 Q2381.03 316.063 2383.32 318.702 Q2385.61 321.317 2389.76 321.317 Q2391.61 321.317 2393.41 320.831 Q2395.24 320.322 2397.05 319.327 L2397.05 323.262 Q2395.26 324.095 2393.34 324.512 Q2391.44 324.928 2389.29 324.928 Q2383.44 324.928 2379.99 321.248 Q2376.54 317.567 2376.54 311.317 Q2376.54 304.975 2380.01 301.341 Q2383.51 297.706 2389.57 297.706 Q2391.54 297.706 2393.41 298.123 Q2395.29 298.517 2397.05 299.327 Z" fill="#000000" fill-rule="evenodd" fill-opacity="1" /><path clip-path="url(#clip750)" d="M2426.63 310.229 L2426.63 312.313 L2407.05 312.313 Q2407.32 316.711 2409.69 319.026 Q2412.07 321.317 2416.31 321.317 Q2418.76 321.317 2421.05 320.716 Q2423.37 320.114 2425.63 318.91 L2425.63 322.938 Q2423.34 323.91 2420.94 324.419 Q2418.53 324.928 2416.05 324.928 Q2409.85 324.928 2406.21 321.317 Q2402.6 317.706 2402.6 311.549 Q2402.6 305.183 2406.03 301.456 Q2409.48 297.706 2415.31 297.706 Q2420.54 297.706 2423.57 301.086 Q2426.63 304.442 2426.63 310.229 M2422.37 308.979 Q2422.32 305.484 2420.4 303.401 Q2418.5 301.317 2415.36 301.317 Q2411.79 301.317 2409.64 303.331 Q2407.51 305.345 2407.19 309.003 L2422.37 308.979 Z" fill="#000000" fill-rule="evenodd" fill-opacity="1" /><path clip-path="url(#clip750)" d="M2450.15 299.095 L2450.15 303.123 Q2448.34 302.197 2446.4 301.734 Q2444.45 301.271 2442.37 301.271 Q2439.2 301.271 2437.6 302.243 Q2436.03 303.216 2436.03 305.16 Q2436.03 306.642 2437.16 307.498 Q2438.3 308.331 2441.72 309.095 L2443.18 309.419 Q2447.72 310.392 2449.62 312.174 Q2451.54 313.933 2451.54 317.104 Q2451.54 320.716 2448.67 322.822 Q2445.82 324.928 2440.82 324.928 Q2438.74 324.928 2436.47 324.512 Q2434.22 324.118 2431.72 323.308 L2431.72 318.91 Q2434.08 320.137 2436.38 320.762 Q2438.67 321.364 2440.91 321.364 Q2443.92 321.364 2445.54 320.345 Q2447.16 319.303 2447.16 317.429 Q2447.16 315.692 2445.98 314.766 Q2444.82 313.841 2440.87 312.984 L2439.38 312.637 Q2435.43 311.804 2433.67 310.091 Q2431.91 308.354 2431.91 305.345 Q2431.91 301.688 2434.5 299.697 Q2437.09 297.706 2441.86 297.706 Q2444.22 297.706 2446.31 298.054 Q2448.39 298.401 2450.15 299.095 Z" fill="#000000" fill-rule="evenodd" fill-opacity="1" /><path clip-path="url(#clip750)" d="
M2902.1 1393.02 L3889.76 1393.02 L3889.76 162.272 L2902.1 162.272  Z
  " fill="#ffffff" fill-rule="evenodd" fill-opacity="1"/>
<defs>
  <clipPath id="clip754">
    <rect x="2902" y="162" width="989" height="1232"/>
  </clipPath>
</defs>
<polyline clip-path="url(#clip754)" style="stroke:#000000; stroke-linecap:butt; stroke-linejoin:round; stroke-width:2; stroke-opacity:0.1; fill:none" points="
  2942.9,1393.02 2942.9,162.272 
  "/>
<polyline clip-path="url(#clip754)" style="stroke:#000000; stroke-linecap:butt; stroke-linejoin:round; stroke-width:2; stroke-opacity:0.1; fill:none" points="
  3130.47,1393.02 3130.47,162.272 
  "/>
<polyline clip-path="url(#clip754)" style="stroke:#000000; stroke-linecap:butt; stroke-linejoin:round; stroke-width:2; stroke-opacity:0.1; fill:none" points="
  3318.04,1393.02 3318.04,162.272 
  "/>
<polyline clip-path="url(#clip754)" style="stroke:#000000; stroke-linecap:butt; stroke-linejoin:round; stroke-width:2; stroke-opacity:0.1; fill:none" points="
  3505.61,1393.02 3505.61,162.272 
  "/>
<polyline clip-path="url(#clip754)" style="stroke:#000000; stroke-linecap:butt; stroke-linejoin:round; stroke-width:2; stroke-opacity:0.1; fill:none" points="
  3693.18,1393.02 3693.18,162.272 
  "/>
<polyline clip-path="url(#clip754)" style="stroke:#000000; stroke-linecap:butt; stroke-linejoin:round; stroke-width:2; stroke-opacity:0.1; fill:none" points="
  3880.75,1393.02 3880.75,162.272 
  "/>
<polyline clip-path="url(#clip750)" style="stroke:#000000; stroke-linecap:butt; stroke-linejoin:round; stroke-width:4; stroke-opacity:1; fill:none" points="
  2902.1,1393.02 3889.76,1393.02 
  "/>
<polyline clip-path="url(#clip750)" style="stroke:#000000; stroke-linecap:butt; stroke-linejoin:round; stroke-width:4; stroke-opacity:1; fill:none" points="
  2942.9,1393.02 2942.9,1374.12 
  "/>
<polyline clip-path="url(#clip750)" style="stroke:#000000; stroke-linecap:butt; stroke-linejoin:round; stroke-width:4; stroke-opacity:1; fill:none" points="
  3130.47,1393.02 3130.47,1374.12 
  "/>
<polyline clip-path="url(#clip750)" style="stroke:#000000; stroke-linecap:butt; stroke-linejoin:round; stroke-width:4; stroke-opacity:1; fill:none" points="
  3318.04,1393.02 3318.04,1374.12 
  "/>
<polyline clip-path="url(#clip750)" style="stroke:#000000; stroke-linecap:butt; stroke-linejoin:round; stroke-width:4; stroke-opacity:1; fill:none" points="
  3505.61,1393.02 3505.61,1374.12 
  "/>
<polyline clip-path="url(#clip750)" style="stroke:#000000; stroke-linecap:butt; stroke-linejoin:round; stroke-width:4; stroke-opacity:1; fill:none" points="
  3693.18,1393.02 3693.18,1374.12 
  "/>
<polyline clip-path="url(#clip750)" style="stroke:#000000; stroke-linecap:butt; stroke-linejoin:round; stroke-width:4; stroke-opacity:1; fill:none" points="
  3880.75,1393.02 3880.75,1374.12 
  "/>
<path clip-path="url(#clip750)" d="M2920.38 1435.01 Q2916.76 1435.01 2914.94 1438.58 Q2913.13 1442.12 2913.13 1449.25 Q2913.13 1456.35 2914.94 1459.92 Q2916.76 1463.46 2920.38 1463.46 Q2924.01 1463.46 2925.81 1459.92 Q2927.64 1456.35 2927.64 1449.25 Q2927.64 1442.12 2925.81 1438.58 Q2924.01 1435.01 2920.38 1435.01 M2920.38 1431.31 Q2926.19 1431.31 2929.24 1435.91 Q2932.32 1440.5 2932.32 1449.25 Q2932.32 1457.97 2929.24 1462.58 Q2926.19 1467.16 2920.38 1467.16 Q2914.57 1467.16 2911.49 1462.58 Q2908.43 1457.97 2908.43 1449.25 Q2908.43 1440.5 2911.49 1435.91 Q2914.57 1431.31 2920.38 1431.31 Z" fill="#000000" fill-rule="evenodd" fill-opacity="1" /><path clip-path="url(#clip750)" d="M2940.54 1460.61 L2945.42 1460.61 L2945.42 1466.49 L2940.54 1466.49 L2940.54 1460.61 Z" fill="#000000" fill-rule="evenodd" fill-opacity="1" /><path clip-path="url(#clip750)" d="M2955.75 1465.77 L2955.75 1461.51 Q2957.5 1462.35 2959.31 1462.79 Q2961.12 1463.23 2962.85 1463.23 Q2967.48 1463.23 2969.91 1460.13 Q2972.37 1457 2972.71 1450.66 Q2971.37 1452.65 2969.31 1453.71 Q2967.25 1454.78 2964.75 1454.78 Q2959.56 1454.78 2956.53 1451.65 Q2953.52 1448.51 2953.52 1443.07 Q2953.52 1437.74 2956.67 1434.52 Q2959.82 1431.31 2965.05 1431.31 Q2971.05 1431.31 2974.19 1435.91 Q2977.37 1440.5 2977.37 1449.25 Q2977.37 1457.42 2973.48 1462.3 Q2969.61 1467.16 2963.06 1467.16 Q2961.3 1467.16 2959.5 1466.82 Q2957.69 1466.47 2955.75 1465.77 M2965.05 1451.12 Q2968.2 1451.12 2970.03 1448.97 Q2971.88 1446.82 2971.88 1443.07 Q2971.88 1439.34 2970.03 1437.19 Q2968.2 1435.01 2965.05 1435.01 Q2961.9 1435.01 2960.05 1437.19 Q2958.22 1439.34 2958.22 1443.07 Q2958.22 1446.82 2960.05 1448.97 Q2961.9 1451.12 2965.05 1451.12 Z" fill="#000000" fill-rule="evenodd" fill-opacity="1" /><path clip-path="url(#clip750)" d="M3097.62 1462.56 L3105.26 1462.56 L3105.26 1436.19 L3096.95 1437.86 L3096.95 1433.6 L3105.21 1431.93 L3109.89 1431.93 L3109.89 1462.56 L3117.53 1462.56 L3117.53 1466.49 L3097.62 1466.49 L3097.62 1462.56 Z" fill="#000000" fill-rule="evenodd" fill-opacity="1" /><path clip-path="url(#clip750)" d="M3126.97 1460.61 L3131.86 1460.61 L3131.86 1466.49 L3126.97 1466.49 L3126.97 1460.61 Z" fill="#000000" fill-rule="evenodd" fill-opacity="1" /><path clip-path="url(#clip750)" d="M3152.04 1435.01 Q3148.43 1435.01 3146.6 1438.58 Q3144.8 1442.12 3144.8 1449.25 Q3144.8 1456.35 3146.6 1459.92 Q3148.43 1463.46 3152.04 1463.46 Q3155.68 1463.46 3157.48 1459.92 Q3159.31 1456.35 3159.31 1449.25 Q3159.31 1442.12 3157.48 1438.58 Q3155.68 1435.01 3152.04 1435.01 M3152.04 1431.31 Q3157.85 1431.31 3160.91 1435.91 Q3163.99 1440.5 3163.99 1449.25 Q3163.99 1457.97 3160.91 1462.58 Q3157.85 1467.16 3152.04 1467.16 Q3146.23 1467.16 3143.15 1462.58 Q3140.1 1457.97 3140.1 1449.25 Q3140.1 1440.5 3143.15 1435.91 Q3146.23 1431.31 3152.04 1431.31 Z" fill="#000000" fill-rule="evenodd" fill-opacity="1" /><path clip-path="url(#clip750)" d="M3285.81 1462.56 L3293.45 1462.56 L3293.45 1436.19 L3285.14 1437.86 L3285.14 1433.6 L3293.4 1431.93 L3298.08 1431.93 L3298.08 1462.56 L3305.71 1462.56 L3305.71 1466.49 L3285.81 1466.49 L3285.81 1462.56 Z" fill="#000000" fill-rule="evenodd" fill-opacity="1" /><path clip-path="url(#clip750)" d="M3315.16 1460.61 L3320.04 1460.61 L3320.04 1466.49 L3315.16 1466.49 L3315.16 1460.61 Z" fill="#000000" fill-rule="evenodd" fill-opacity="1" /><path clip-path="url(#clip750)" d="M3331.04 1462.56 L3338.68 1462.56 L3338.68 1436.19 L3330.37 1437.86 L3330.37 1433.6 L3338.63 1431.93 L3343.31 1431.93 L3343.31 1462.56 L3350.95 1462.56 L3350.95 1466.49 L3331.04 1466.49 L3331.04 1462.56 Z" fill="#000000" fill-rule="evenodd" fill-opacity="1" /><path clip-path="url(#clip750)" d="M3473.56 1462.56 L3481.2 1462.56 L3481.2 1436.19 L3472.89 1437.86 L3472.89 1433.6 L3481.16 1431.93 L3485.83 1431.93 L3485.83 1462.56 L3493.47 1462.56 L3493.47 1466.49 L3473.56 1466.49 L3473.56 1462.56 Z" fill="#000000" fill-rule="evenodd" fill-opacity="1" /><path clip-path="url(#clip750)" d="M3502.91 1460.61 L3507.8 1460.61 L3507.8 1466.49 L3502.91 1466.49 L3502.91 1460.61 Z" fill="#000000" fill-rule="evenodd" fill-opacity="1" /><path clip-path="url(#clip750)" d="M3522.01 1462.56 L3538.33 1462.56 L3538.33 1466.49 L3516.39 1466.49 L3516.39 1462.56 Q3519.05 1459.8 3523.63 1455.17 Q3528.24 1450.52 3529.42 1449.18 Q3531.66 1446.65 3532.54 1444.92 Q3533.45 1443.16 3533.45 1441.47 Q3533.45 1438.71 3531.5 1436.98 Q3529.58 1435.24 3526.48 1435.24 Q3524.28 1435.24 3521.83 1436.01 Q3519.4 1436.77 3516.62 1438.32 L3516.62 1433.6 Q3519.44 1432.46 3521.9 1431.89 Q3524.35 1431.31 3526.39 1431.31 Q3531.76 1431.31 3534.95 1433.99 Q3538.15 1436.68 3538.15 1441.17 Q3538.15 1443.3 3537.34 1445.22 Q3536.55 1447.12 3534.44 1449.71 Q3533.86 1450.38 3530.76 1453.6 Q3527.66 1456.79 3522.01 1462.56 Z" fill="#000000" fill-rule="evenodd" fill-opacity="1" /><path clip-path="url(#clip750)" d="M3660.66 1462.56 L3668.3 1462.56 L3668.3 1436.19 L3659.99 1437.86 L3659.99 1433.6 L3668.25 1431.93 L3672.93 1431.93 L3672.93 1462.56 L3680.57 1462.56 L3680.57 1466.49 L3660.66 1466.49 L3660.66 1462.56 Z" fill="#000000" fill-rule="evenodd" fill-opacity="1" /><path clip-path="url(#clip750)" d="M3690.01 1460.61 L3694.9 1460.61 L3694.9 1466.49 L3690.01 1466.49 L3690.01 1460.61 Z" fill="#000000" fill-rule="evenodd" fill-opacity="1" /><path clip-path="url(#clip750)" d="M3719.25 1447.86 Q3722.6 1448.58 3724.48 1450.84 Q3726.38 1453.11 3726.38 1456.45 Q3726.38 1461.56 3722.86 1464.36 Q3719.34 1467.16 3712.86 1467.16 Q3710.68 1467.16 3708.37 1466.72 Q3706.08 1466.31 3703.62 1465.45 L3703.62 1460.94 Q3705.57 1462.07 3707.88 1462.65 Q3710.2 1463.23 3712.72 1463.23 Q3717.12 1463.23 3719.41 1461.49 Q3721.72 1459.76 3721.72 1456.45 Q3721.72 1453.39 3719.57 1451.68 Q3717.44 1449.94 3713.62 1449.94 L3709.59 1449.94 L3709.59 1446.1 L3713.81 1446.1 Q3717.26 1446.1 3719.08 1444.73 Q3720.91 1443.34 3720.91 1440.75 Q3720.91 1438.09 3719.02 1436.68 Q3717.14 1435.24 3713.62 1435.24 Q3711.7 1435.24 3709.5 1435.66 Q3707.3 1436.08 3704.66 1436.95 L3704.66 1432.79 Q3707.33 1432.05 3709.64 1431.68 Q3711.98 1431.31 3714.04 1431.31 Q3719.36 1431.31 3722.46 1433.74 Q3725.57 1436.14 3725.57 1440.27 Q3725.57 1443.14 3723.92 1445.13 Q3722.28 1447.09 3719.25 1447.86 Z" fill="#000000" fill-rule="evenodd" fill-opacity="1" /><path clip-path="url(#clip750)" d="M3847.66 1462.56 L3855.3 1462.56 L3855.3 1436.19 L3846.99 1437.86 L3846.99 1433.6 L3855.26 1431.93 L3859.93 1431.93 L3859.93 1462.56 L3867.57 1462.56 L3867.57 1466.49 L3847.66 1466.49 L3847.66 1462.56 Z" fill="#000000" fill-rule="evenodd" fill-opacity="1" /><path clip-path="url(#clip750)" d="M3877.01 1460.61 L3881.9 1460.61 L3881.9 1466.49 L3877.01 1466.49 L3877.01 1460.61 Z" fill="#000000" fill-rule="evenodd" fill-opacity="1" /><path clip-path="url(#clip750)" d="M3904.93 1436.01 L3893.13 1454.45 L3904.93 1454.45 L3904.93 1436.01 M3903.7 1431.93 L3909.58 1431.93 L3909.58 1454.45 L3914.51 1454.45 L3914.51 1458.34 L3909.58 1458.34 L3909.58 1466.49 L3904.93 1466.49 L3904.93 1458.34 L3889.33 1458.34 L3889.33 1453.83 L3903.7 1431.93 Z" fill="#000000" fill-rule="evenodd" fill-opacity="1" /><path clip-path="url(#clip750)" d="M3364.71 1545.3 L3363.31 1537.95 Q3361.87 1530.41 3356.21 1530.41 Q3351.94 1530.41 3350 1533.91 Q3347.55 1538.3 3347.55 1544.09 Q3347.55 1551.09 3349.94 1554.44 Q3352.36 1557.84 3356.21 1557.84 Q3360.47 1557.84 3362.76 1551.06 L3364.71 1545.3 M3367.98 1535.56 L3371.14 1526.24 L3376.36 1526.24 L3369.83 1545.56 L3371.1 1552.53 Q3371.39 1554.09 3372.5 1555.39 Q3373.81 1556.92 3374.83 1556.92 L3377.63 1556.92 L3377.63 1561.88 L3374.13 1561.88 Q3371.14 1561.88 3368.46 1559.21 Q3367.16 1557.87 3366.62 1555.07 Q3365.15 1558.61 3362.16 1561.37 Q3360.76 1562.68 3356.21 1562.68 Q3348.73 1562.68 3345.1 1557.84 Q3341.38 1552.84 3341.38 1544.09 Q3341.38 1534.73 3345.42 1530.34 Q3349.91 1525.44 3356.21 1525.44 Q3366.11 1525.44 3367.98 1535.56 Z" fill="#000000" fill-rule="evenodd" fill-opacity="1" /><path clip-path="url(#clip750)" d="M3413.98 1572.71 L3413.98 1577.26 L3380.11 1577.26 L3380.11 1572.71 L3413.98 1572.71 Z" fill="#000000" fill-rule="evenodd" fill-opacity="1" /><path clip-path="url(#clip750)" d="M3434.06 1518.6 Q3429.1 1518.6 3426.58 1523.5 Q3424.1 1528.37 3424.1 1538.17 Q3424.1 1547.94 3426.58 1552.84 Q3429.1 1557.71 3434.06 1557.71 Q3439.06 1557.71 3441.54 1552.84 Q3444.05 1547.94 3444.05 1538.17 Q3444.05 1528.37 3441.54 1523.5 Q3439.06 1518.6 3434.06 1518.6 M3434.06 1513.5 Q3442.05 1513.5 3446.25 1519.84 Q3450.48 1526.14 3450.48 1538.17 Q3450.48 1550.17 3446.25 1556.5 Q3442.05 1562.81 3434.06 1562.81 Q3426.07 1562.81 3421.84 1556.5 Q3417.64 1550.17 3417.64 1538.17 Q3417.64 1526.14 3421.84 1519.84 Q3426.07 1513.5 3434.06 1513.5 Z" fill="#000000" fill-rule="evenodd" fill-opacity="1" /><polyline clip-path="url(#clip754)" style="stroke:#000000; stroke-linecap:butt; stroke-linejoin:round; stroke-width:2; stroke-opacity:0.1; fill:none" points="
  2902.1,1358.19 3889.76,1358.19 
  "/>
<polyline clip-path="url(#clip754)" style="stroke:#000000; stroke-linecap:butt; stroke-linejoin:round; stroke-width:2; stroke-opacity:0.1; fill:none" points="
  2902.1,1094.3 3889.76,1094.3 
  "/>
<polyline clip-path="url(#clip754)" style="stroke:#000000; stroke-linecap:butt; stroke-linejoin:round; stroke-width:2; stroke-opacity:0.1; fill:none" points="
  2902.1,830.422 3889.76,830.422 
  "/>
<polyline clip-path="url(#clip754)" style="stroke:#000000; stroke-linecap:butt; stroke-linejoin:round; stroke-width:2; stroke-opacity:0.1; fill:none" points="
  2902.1,566.54 3889.76,566.54 
  "/>
<polyline clip-path="url(#clip754)" style="stroke:#000000; stroke-linecap:butt; stroke-linejoin:round; stroke-width:2; stroke-opacity:0.1; fill:none" points="
  2902.1,302.658 3889.76,302.658 
  "/>
<polyline clip-path="url(#clip750)" style="stroke:#000000; stroke-linecap:butt; stroke-linejoin:round; stroke-width:4; stroke-opacity:1; fill:none" points="
  2902.1,1393.02 2902.1,162.272 
  "/>
<polyline clip-path="url(#clip750)" style="stroke:#000000; stroke-linecap:butt; stroke-linejoin:round; stroke-width:4; stroke-opacity:1; fill:none" points="
  2902.1,1358.19 2920.99,1358.19 
  "/>
<polyline clip-path="url(#clip750)" style="stroke:#000000; stroke-linecap:butt; stroke-linejoin:round; stroke-width:4; stroke-opacity:1; fill:none" points="
  2902.1,1094.3 2920.99,1094.3 
  "/>
<polyline clip-path="url(#clip750)" style="stroke:#000000; stroke-linecap:butt; stroke-linejoin:round; stroke-width:4; stroke-opacity:1; fill:none" points="
  2902.1,830.422 2920.99,830.422 
  "/>
<polyline clip-path="url(#clip750)" style="stroke:#000000; stroke-linecap:butt; stroke-linejoin:round; stroke-width:4; stroke-opacity:1; fill:none" points="
  2902.1,566.54 2920.99,566.54 
  "/>
<polyline clip-path="url(#clip750)" style="stroke:#000000; stroke-linecap:butt; stroke-linejoin:round; stroke-width:4; stroke-opacity:1; fill:none" points="
  2902.1,302.658 2920.99,302.658 
  "/>
<path clip-path="url(#clip750)" d="M2830.15 1343.99 Q2826.54 1343.99 2824.71 1347.55 Q2822.91 1351.09 2822.91 1358.22 Q2822.91 1365.33 2824.71 1368.89 Q2826.54 1372.43 2830.15 1372.43 Q2833.79 1372.43 2835.59 1368.89 Q2837.42 1365.33 2837.42 1358.22 Q2837.42 1351.09 2835.59 1347.55 Q2833.79 1343.99 2830.15 1343.99 M2830.15 1340.28 Q2835.96 1340.28 2839.02 1344.89 Q2842.1 1349.47 2842.1 1358.22 Q2842.1 1366.95 2839.02 1371.56 Q2835.96 1376.14 2830.15 1376.14 Q2824.34 1376.14 2821.26 1371.56 Q2818.21 1366.95 2818.21 1358.22 Q2818.21 1349.47 2821.26 1344.89 Q2824.34 1340.28 2830.15 1340.28 Z" fill="#000000" fill-rule="evenodd" fill-opacity="1" /><path clip-path="url(#clip750)" d="M2822.19 1107.65 L2829.83 1107.65 L2829.83 1081.28 L2821.52 1082.95 L2821.52 1078.69 L2829.78 1077.02 L2834.46 1077.02 L2834.46 1107.65 L2842.1 1107.65 L2842.1 1111.58 L2822.19 1111.58 L2822.19 1107.65 Z" fill="#000000" fill-rule="evenodd" fill-opacity="1" /><path clip-path="url(#clip750)" d="M2825.78 843.767 L2842.1 843.767 L2842.1 847.702 L2820.15 847.702 L2820.15 843.767 Q2822.81 841.013 2827.4 836.383 Q2832 831.73 2833.18 830.388 Q2835.43 827.865 2836.31 826.129 Q2837.21 824.369 2837.21 822.679 Q2837.21 819.925 2835.27 818.189 Q2833.35 816.453 2830.24 816.453 Q2828.05 816.453 2825.59 817.217 Q2823.16 817.98 2820.38 819.531 L2820.38 814.809 Q2823.21 813.675 2825.66 813.096 Q2828.11 812.517 2830.15 812.517 Q2835.52 812.517 2838.72 815.203 Q2841.91 817.888 2841.91 822.379 Q2841.91 824.508 2841.1 826.429 Q2840.31 828.328 2838.21 830.92 Q2837.63 831.591 2834.53 834.809 Q2831.42 838.003 2825.78 843.767 Z" fill="#000000" fill-rule="evenodd" fill-opacity="1" /><path clip-path="url(#clip750)" d="M2834.97 565.186 Q2838.32 565.904 2840.2 568.172 Q2842.1 570.441 2842.1 573.774 Q2842.1 578.89 2838.58 581.69 Q2835.06 584.491 2828.58 584.491 Q2826.4 584.491 2824.09 584.052 Q2821.8 583.635 2819.34 582.778 L2819.34 578.265 Q2821.29 579.399 2823.6 579.978 Q2825.92 580.556 2828.44 580.556 Q2832.84 580.556 2835.13 578.82 Q2837.44 577.084 2837.44 573.774 Q2837.44 570.718 2835.29 569.005 Q2833.16 567.269 2829.34 567.269 L2825.31 567.269 L2825.31 563.427 L2829.53 563.427 Q2832.98 563.427 2834.8 562.061 Q2836.63 560.672 2836.63 558.079 Q2836.63 555.417 2834.73 554.005 Q2832.86 552.57 2829.34 552.57 Q2827.42 552.57 2825.22 552.987 Q2823.02 553.404 2820.38 554.283 L2820.38 550.117 Q2823.05 549.376 2825.36 549.005 Q2827.7 548.635 2829.76 548.635 Q2835.08 548.635 2838.18 551.066 Q2841.29 553.473 2841.29 557.593 Q2841.29 560.464 2839.64 562.454 Q2838 564.422 2834.97 565.186 Z" fill="#000000" fill-rule="evenodd" fill-opacity="1" /><path clip-path="url(#clip750)" d="M2832.51 289.452 L2820.71 307.901 L2832.51 307.901 L2832.51 289.452 M2831.29 285.378 L2837.17 285.378 L2837.17 307.901 L2842.1 307.901 L2842.1 311.79 L2837.17 311.79 L2837.17 319.938 L2832.51 319.938 L2832.51 311.79 L2816.91 311.79 L2816.91 307.276 L2831.29 285.378 Z" fill="#000000" fill-rule="evenodd" fill-opacity="1" /><path clip-path="url(#clip750)" d="M2707.01 876.171 L2707.01 848.353 L2712.35 848.353 L2737.98 870.378 L2737.98 848.353 L2742.65 848.353 L2742.65 876.967 L2737.31 876.967 L2711.69 854.942 L2711.69 876.171 L2707.01 876.171 Z" fill="#000000" fill-rule="evenodd" fill-opacity="1" /><path clip-path="url(#clip750)" d="M2693.19 804.621 Q2700.51 808.886 2707.68 810.955 Q2714.84 813.023 2722.19 813.023 Q2729.54 813.023 2736.77 810.955 Q2743.96 808.854 2751.25 804.621 L2751.25 809.713 Q2743.77 814.488 2736.54 816.875 Q2729.32 819.23 2722.19 819.23 Q2715.09 819.23 2707.9 816.875 Q2700.7 814.519 2693.19 809.713 L2693.19 804.621 Z" fill="#000000" fill-rule="evenodd" fill-opacity="1" /><path clip-path="url(#clip750)" d="M2693.13 793.481 L2693.13 787.592 L2722.38 787.592 L2707.01 770.119 L2707.01 762.639 L2723.69 781.545 L2742.65 761.843 L2742.65 769.482 L2725.24 787.592 L2742.65 787.592 L2742.65 793.481 L2693.13 793.481 Z" fill="#000000" fill-rule="evenodd" fill-opacity="1" /><path clip-path="url(#clip750)" d="M2713.85 727.755 Q2709.9 725.559 2708.03 722.503 Q2706.15 719.448 2706.15 715.31 Q2706.15 709.74 2710.06 706.716 Q2713.95 703.692 2721.14 703.692 L2742.65 703.692 L2742.65 709.581 L2721.33 709.581 Q2716.21 709.581 2713.72 711.395 Q2711.24 713.209 2711.24 716.933 Q2711.24 721.485 2714.26 724.126 Q2717.29 726.768 2722.51 726.768 L2742.65 726.768 L2742.65 732.656 L2721.33 732.656 Q2716.17 732.656 2713.72 734.471 Q2711.24 736.285 2711.24 740.072 Q2711.24 744.56 2714.3 747.202 Q2717.32 749.844 2722.51 749.844 L2742.65 749.844 L2742.65 755.732 L2707.01 755.732 L2707.01 749.844 L2712.55 749.844 Q2709.27 747.839 2707.71 745.038 Q2706.15 742.237 2706.15 738.385 Q2706.15 734.502 2708.12 731.797 Q2710.09 729.06 2713.85 727.755 Z" fill="#000000" fill-rule="evenodd" fill-opacity="1" /><path clip-path="url(#clip750)" d="M2693.19 692.934 L2693.19 687.842 Q2700.7 683.067 2707.9 680.712 Q2715.09 678.325 2722.19 678.325 Q2729.32 678.325 2736.54 680.712 Q2743.77 683.067 2751.25 687.842 L2751.25 692.934 Q2743.96 688.701 2736.77 686.632 Q2729.54 684.532 2722.19 684.532 Q2714.84 684.532 2707.68 686.632 Q2700.51 688.701 2693.19 692.934 Z" fill="#000000" fill-rule="evenodd" fill-opacity="1" /><path clip-path="url(#clip750)" d="M3356.19 51.4708 L3354.41 42.1132 Q3352.59 32.5126 3345.37 32.5126 Q3339.95 32.5126 3337.48 36.9686 Q3334.36 42.5588 3334.36 49.9314 Q3334.36 58.8434 3337.39 63.0969 Q3340.47 67.4314 3345.37 67.4314 Q3350.8 67.4314 3353.72 58.8029 L3356.19 51.4708 M3360.36 39.075 L3364.37 27.2059 L3371.02 27.2059 L3362.71 51.7949 L3364.33 60.6663 Q3364.7 62.6513 3366.12 64.3122 Q3367.78 66.2566 3369.07 66.2566 L3372.64 66.2566 L3372.64 72.576 L3368.18 72.576 Q3364.37 72.576 3360.97 69.1732 Q3359.31 67.4719 3358.62 63.9071 Q3356.76 68.4036 3352.95 71.9279 Q3351.17 73.5887 3345.37 73.5887 Q3335.85 73.5887 3331.24 67.4314 Q3326.5 61.0714 3326.5 49.9314 Q3326.5 38.0218 3331.64 32.4315 Q3337.35 26.1931 3345.37 26.1931 Q3357.97 26.1931 3360.36 39.075 Z" fill="#000000" fill-rule="evenodd" fill-opacity="1" /><path clip-path="url(#clip750)" d="M3418.9 86.3491 L3418.9 92.1419 L3375.8 92.1419 L3375.8 86.3491 L3418.9 86.3491 Z" fill="#000000" fill-rule="evenodd" fill-opacity="1" /><path clip-path="url(#clip750)" d="M3444.46 17.4837 Q3438.14 17.4837 3434.94 23.7221 Q3431.78 29.92 3431.78 42.3968 Q3431.78 54.833 3434.94 61.0714 Q3438.14 67.2693 3444.46 67.2693 Q3450.82 67.2693 3453.98 61.0714 Q3457.18 54.833 3457.18 42.3968 Q3457.18 29.92 3453.98 23.7221 Q3450.82 17.4837 3444.46 17.4837 M3444.46 11.0023 Q3454.63 11.0023 3459.97 19.0636 Q3465.36 27.0843 3465.36 42.3968 Q3465.36 57.6687 3459.97 65.73 Q3454.63 73.7508 3444.46 73.7508 Q3434.29 73.7508 3428.9 65.73 Q3423.56 57.6687 3423.56 42.3968 Q3423.56 27.0843 3428.9 19.0636 Q3434.29 11.0023 3444.46 11.0023 Z" fill="#000000" fill-rule="evenodd" fill-opacity="1" /><polyline clip-path="url(#clip754)" style="stroke:#009af9; stroke-linecap:butt; stroke-linejoin:round; stroke-width:4; stroke-opacity:1; fill:none" points="
  2933.44,1351.59 2940.27,1338.4 2947.13,1325.2 2954.03,1312.01 2960.96,1298.81 2967.94,1285.62 2974.96,1272.43 2982.02,1259.23 2989.12,1246.04 2996.26,1232.84 
  3003.44,1219.65 3010.66,1206.45 3017.92,1193.26 3025.23,1180.07 3032.58,1166.87 3041.19,1153.68 3050.27,1140.48 3059.34,1127.29 3068.52,1114.1 3077.76,1100.9 
  3087.05,1087.71 3096.4,1074.51 3105.82,1061.32 3115.29,1048.13 3124.84,1034.93 3134.44,1021.74 3144.2,1008.54 3153.86,995.349 3163.61,982.155 3173.4,968.961 
  3183.27,955.767 3193,942.572 3203.06,929.378 3213.15,916.184 3223.29,902.99 3233.48,889.796 3243.71,876.602 3254,863.408 3264.25,850.214 3274.81,837.02 
  3285.12,823.825 3295.59,810.631 3306.21,797.437 3316.89,784.243 3327.63,771.049 3338.44,757.855 3349.31,744.661 3360.24,731.467 3371.24,718.272 3382.3,705.078 
  3393.42,691.884 3404.61,678.69 3415.86,665.496 3427.12,652.302 3438.64,639.108 3450.18,625.914 3461.51,612.719 3473.09,599.525 3484.74,586.331 3496.46,573.137 
  3508.26,559.943 3520.12,546.749 3532.05,533.555 3544.05,520.361 3556.13,507.167 3568.27,493.972 3580.5,480.778 3592.79,467.584 3605.16,454.39 3617.61,441.196 
  3630.13,428.002 3642.72,414.808 3655.39,401.614 3668.14,388.419 3680.97,375.225 3693.88,362.031 3706.96,348.837 3720.02,335.643 3733.16,322.449 3746.38,309.255 
  3759.67,296.061 3773.05,282.867 3786.5,269.672 3800.04,256.478 3813.65,243.284 3827.58,230.09 3841.22,216.896 3854.93,203.702 
  "/>
<polyline clip-path="url(#clip754)" style="stroke:#e26f46; stroke-linecap:butt; stroke-linejoin:round; stroke-width:4; stroke-opacity:1; fill:none" points="
  2930.05,1358.19 2936.85,1344.99 2943.69,1331.8 2950.57,1318.6 2957.49,1305.41 2964.45,1292.22 2971.45,1279.02 2978.48,1265.83 2985.56,1252.63 2992.68,1239.44 
  2999.84,1226.25 3007.04,1213.05 3014.29,1199.86 3021.57,1186.66 3028.9,1173.47 3036.81,1160.28 3045.74,1147.08 3054.78,1133.89 3063.92,1120.69 3073.13,1107.5 
  3082.39,1094.3 3091.72,1081.11 3101.1,1067.92 3110.55,1054.72 3120.06,1041.53 3129.63,1028.33 3139.27,1015.14 3148.98,1001.95 3158.73,988.752 3168.5,975.558 
  3178.33,962.364 3188.22,949.17 3198.02,935.975 3208.1,922.781 3218.22,909.587 3228.38,896.393 3238.59,883.199 3248.85,870.005 3259.09,856.811 3269.6,843.617 
  3279.98,830.422 3290.3,817.228 3300.89,804.034 3311.54,790.84 3322.25,777.646 3333.03,764.452 3343.87,751.258 3354.77,738.064 3365.73,724.87 3376.76,711.675 
  3387.85,698.481 3399.01,685.287 3410.23,672.093 3421.28,658.899 3432.99,645.705 3444.4,632.511 3455.97,619.317 3467.29,606.122 3478.91,592.928 3490.6,579.734 
  3502.35,566.54 3514.18,553.346 3526.07,540.152 3538.04,526.958 3550.08,513.764 3562.19,500.569 3574.38,487.375 3586.63,474.181 3598.97,460.987 3611.37,447.793 
  3623.86,434.599 3636.41,421.405 3649.05,408.211 3661.76,395.017 3674.55,381.822 3687.41,368.628 3700.45,355.434 3713.48,342.24 3726.58,329.046 3739.76,315.852 
  3753.01,302.658 3766.35,289.464 3779.77,276.269 3793.26,263.075 3806.84,249.881 3820.79,236.687 3834.39,223.493 3848.07,210.299 3861.81,197.105 
  "/>
<path clip-path="url(#clip750)" d="
M3574.81 358.817 L3856.84 358.817 L3856.84 203.297 L3574.81 203.297  Z
  " fill="#ffffff" fill-rule="evenodd" fill-opacity="1"/>
<polyline clip-path="url(#clip750)" style="stroke:#000000; stroke-linecap:butt; stroke-linejoin:round; stroke-width:4; stroke-opacity:1; fill:none" points="
  3574.81,358.817 3856.84,358.817 3856.84,203.297 3574.81,203.297 3574.81,358.817 
  "/>
<polyline clip-path="url(#clip750)" style="stroke:#009af9; stroke-linecap:butt; stroke-linejoin:round; stroke-width:4; stroke-opacity:1; fill:none" points="
  3585.78,255.137 3651.63,255.137 
  "/>
<path clip-path="url(#clip750)" d="M3683.11 247.487 L3683.11 251.468 Q3681.31 250.473 3679.48 249.987 Q3677.67 249.477 3675.82 249.477 Q3671.68 249.477 3669.38 252.116 Q3667.09 254.732 3667.09 259.477 Q3667.09 264.223 3669.38 266.862 Q3671.68 269.477 3675.82 269.477 Q3677.67 269.477 3679.48 268.991 Q3681.31 268.482 3683.11 267.487 L3683.11 271.422 Q3681.33 272.255 3679.41 272.672 Q3677.51 273.088 3675.36 273.088 Q3669.5 273.088 3666.05 269.408 Q3662.6 265.727 3662.6 259.477 Q3662.6 253.135 3666.07 249.501 Q3669.57 245.866 3675.63 245.866 Q3677.6 245.866 3679.48 246.283 Q3681.35 246.677 3683.11 247.487 Z" fill="#000000" fill-rule="evenodd" fill-opacity="1" /><path clip-path="url(#clip750)" d="M3712.69 258.389 L3712.69 260.473 L3693.11 260.473 Q3693.39 264.871 3695.75 267.186 Q3698.13 269.477 3702.37 269.477 Q3704.82 269.477 3707.12 268.876 Q3709.43 268.274 3711.7 267.07 L3711.7 271.098 Q3709.41 272.07 3707 272.579 Q3704.59 273.088 3702.12 273.088 Q3695.91 273.088 3692.28 269.477 Q3688.67 265.866 3688.67 259.709 Q3688.67 253.343 3692.09 249.616 Q3695.54 245.866 3701.38 245.866 Q3706.61 245.866 3709.64 249.246 Q3712.69 252.602 3712.69 258.389 M3708.44 257.139 Q3708.39 253.644 3706.47 251.561 Q3704.57 249.477 3701.42 249.477 Q3697.86 249.477 3695.7 251.491 Q3693.57 253.505 3693.25 257.163 L3708.44 257.139 Z" fill="#000000" fill-rule="evenodd" fill-opacity="1" /><path clip-path="url(#clip750)" d="M3741.24 256.769 L3741.24 272.417 L3736.98 272.417 L3736.98 256.908 Q3736.98 253.227 3735.54 251.399 Q3734.11 249.57 3731.24 249.57 Q3727.79 249.57 3725.8 251.769 Q3723.81 253.968 3723.81 257.764 L3723.81 272.417 L3719.52 272.417 L3719.52 246.491 L3723.81 246.491 L3723.81 250.519 Q3725.33 248.181 3727.39 247.024 Q3729.48 245.866 3732.19 245.866 Q3736.65 245.866 3738.94 248.644 Q3741.24 251.399 3741.24 256.769 Z" fill="#000000" fill-rule="evenodd" fill-opacity="1" /><path clip-path="url(#clip750)" d="M3753.94 239.13 L3753.94 246.491 L3762.72 246.491 L3762.72 249.802 L3753.94 249.802 L3753.94 263.876 Q3753.94 267.047 3754.8 267.95 Q3755.68 268.852 3758.34 268.852 L3762.72 268.852 L3762.72 272.417 L3758.34 272.417 Q3753.41 272.417 3751.54 270.588 Q3749.66 268.737 3749.66 263.876 L3749.66 249.802 L3746.54 249.802 L3746.54 246.491 L3749.66 246.491 L3749.66 239.13 L3753.94 239.13 Z" fill="#000000" fill-rule="evenodd" fill-opacity="1" /><path clip-path="url(#clip750)" d="M3790.5 258.389 L3790.5 260.473 L3770.91 260.473 Q3771.19 264.871 3773.55 267.186 Q3775.94 269.477 3780.17 269.477 Q3782.63 269.477 3784.92 268.876 Q3787.23 268.274 3789.5 267.07 L3789.5 271.098 Q3787.21 272.07 3784.8 272.579 Q3782.39 273.088 3779.92 273.088 Q3773.71 273.088 3770.08 269.477 Q3766.47 265.866 3766.47 259.709 Q3766.47 253.343 3769.89 249.616 Q3773.34 245.866 3779.18 245.866 Q3784.41 245.866 3787.44 249.246 Q3790.5 252.602 3790.5 258.389 M3786.24 257.139 Q3786.19 253.644 3784.27 251.561 Q3782.37 249.477 3779.22 249.477 Q3775.66 249.477 3773.5 251.491 Q3771.38 253.505 3771.05 257.163 L3786.24 257.139 Z" fill="#000000" fill-rule="evenodd" fill-opacity="1" /><path clip-path="url(#clip750)" d="M3812.51 250.473 Q3811.79 250.056 3810.94 249.871 Q3810.1 249.663 3809.08 249.663 Q3805.47 249.663 3803.53 252.024 Q3801.61 254.362 3801.61 258.76 L3801.61 272.417 L3797.32 272.417 L3797.32 246.491 L3801.61 246.491 L3801.61 250.519 Q3802.95 248.158 3805.1 247.024 Q3807.25 245.866 3810.33 245.866 Q3810.77 245.866 3811.31 245.936 Q3811.84 245.982 3812.49 246.098 L3812.51 250.473 Z" fill="#000000" fill-rule="evenodd" fill-opacity="1" /><path clip-path="url(#clip750)" d="M3833.5 247.255 L3833.5 251.283 Q3831.7 250.357 3829.75 249.894 Q3827.81 249.431 3825.73 249.431 Q3822.56 249.431 3820.96 250.403 Q3819.38 251.376 3819.38 253.32 Q3819.38 254.802 3820.52 255.658 Q3821.65 256.491 3825.08 257.255 L3826.54 257.579 Q3831.07 258.552 3832.97 260.334 Q3834.89 262.093 3834.89 265.264 Q3834.89 268.876 3832.02 270.982 Q3829.18 273.088 3824.18 273.088 Q3822.09 273.088 3819.82 272.672 Q3817.58 272.278 3815.08 271.468 L3815.08 267.07 Q3817.44 268.297 3819.73 268.922 Q3822.02 269.524 3824.27 269.524 Q3827.28 269.524 3828.9 268.505 Q3830.52 267.463 3830.52 265.589 Q3830.52 263.852 3829.34 262.926 Q3828.18 262.001 3824.22 261.144 L3822.74 260.797 Q3818.78 259.964 3817.02 258.251 Q3815.26 256.514 3815.26 253.505 Q3815.26 249.848 3817.86 247.857 Q3820.45 245.866 3825.22 245.866 Q3827.58 245.866 3829.66 246.214 Q3831.75 246.561 3833.5 247.255 Z" fill="#000000" fill-rule="evenodd" fill-opacity="1" /><polyline clip-path="url(#clip750)" style="stroke:#e26f46; stroke-linecap:butt; stroke-linejoin:round; stroke-width:4; stroke-opacity:1; fill:none" points="
  3585.78,306.977 3651.63,306.977 
  "/>
<path clip-path="url(#clip750)" d="M3679.11 288.239 L3679.11 291.78 L3675.03 291.78 Q3672.74 291.78 3671.84 292.706 Q3670.96 293.632 3670.96 296.04 L3670.96 298.331 L3677.97 298.331 L3677.97 301.642 L3670.96 301.642 L3670.96 324.257 L3666.68 324.257 L3666.68 301.642 L3662.6 301.642 L3662.6 298.331 L3666.68 298.331 L3666.68 296.526 Q3666.68 292.197 3668.69 290.23 Q3670.7 288.239 3675.08 288.239 L3679.11 288.239 Z" fill="#000000" fill-rule="evenodd" fill-opacity="1" /><path clip-path="url(#clip750)" d="M3694.45 311.225 Q3689.29 311.225 3687.3 312.405 Q3685.31 313.586 3685.31 316.433 Q3685.31 318.702 3686.79 320.044 Q3688.3 321.364 3690.87 321.364 Q3694.41 321.364 3696.54 318.864 Q3698.69 316.341 3698.69 312.174 L3698.69 311.225 L3694.45 311.225 M3702.95 309.466 L3702.95 324.257 L3698.69 324.257 L3698.69 320.322 Q3697.23 322.683 3695.06 323.817 Q3692.88 324.928 3689.73 324.928 Q3685.75 324.928 3683.39 322.706 Q3681.05 320.461 3681.05 316.711 Q3681.05 312.336 3683.97 310.114 Q3686.91 307.892 3692.72 307.892 L3698.69 307.892 L3698.69 307.475 Q3698.69 304.535 3696.75 302.938 Q3694.82 301.317 3691.33 301.317 Q3689.11 301.317 3687 301.85 Q3684.89 302.382 3682.95 303.447 L3682.95 299.512 Q3685.29 298.609 3687.49 298.169 Q3689.69 297.706 3691.77 297.706 Q3697.39 297.706 3700.17 300.623 Q3702.95 303.54 3702.95 309.466 Z" fill="#000000" fill-rule="evenodd" fill-opacity="1" /><path clip-path="url(#clip750)" d="M3730.38 299.327 L3730.38 303.308 Q3728.57 302.313 3726.75 301.827 Q3724.94 301.317 3723.09 301.317 Q3718.94 301.317 3716.65 303.956 Q3714.36 306.572 3714.36 311.317 Q3714.36 316.063 3716.65 318.702 Q3718.94 321.317 3723.09 321.317 Q3724.94 321.317 3726.75 320.831 Q3728.57 320.322 3730.38 319.327 L3730.38 323.262 Q3728.6 324.095 3726.68 324.512 Q3724.78 324.928 3722.63 324.928 Q3716.77 324.928 3713.32 321.248 Q3709.87 317.567 3709.87 311.317 Q3709.87 304.975 3713.34 301.341 Q3716.84 297.706 3722.9 297.706 Q3724.87 297.706 3726.75 298.123 Q3728.62 298.517 3730.38 299.327 Z" fill="#000000" fill-rule="evenodd" fill-opacity="1" /><path clip-path="url(#clip750)" d="M3759.96 310.229 L3759.96 312.313 L3740.38 312.313 Q3740.66 316.711 3743.02 319.026 Q3745.4 321.317 3749.64 321.317 Q3752.09 321.317 3754.38 320.716 Q3756.7 320.114 3758.97 318.91 L3758.97 322.938 Q3756.68 323.91 3754.27 324.419 Q3751.86 324.928 3749.38 324.928 Q3743.18 324.928 3739.55 321.317 Q3735.94 317.706 3735.94 311.549 Q3735.94 305.183 3739.36 301.456 Q3742.81 297.706 3748.64 297.706 Q3753.88 297.706 3756.91 301.086 Q3759.96 304.442 3759.96 310.229 M3755.7 308.979 Q3755.66 305.484 3753.74 303.401 Q3751.84 301.317 3748.69 301.317 Q3745.13 301.317 3742.97 303.331 Q3740.84 305.345 3740.52 309.003 L3755.7 308.979 Z" fill="#000000" fill-rule="evenodd" fill-opacity="1" /><path clip-path="url(#clip750)" d="M3783.48 299.095 L3783.48 303.123 Q3781.68 302.197 3779.73 301.734 Q3777.79 301.271 3775.7 301.271 Q3772.53 301.271 3770.94 302.243 Q3769.36 303.216 3769.36 305.16 Q3769.36 306.642 3770.5 307.498 Q3771.63 308.331 3775.06 309.095 L3776.51 309.419 Q3781.05 310.392 3782.95 312.174 Q3784.87 313.933 3784.87 317.104 Q3784.87 320.716 3782 322.822 Q3779.15 324.928 3774.15 324.928 Q3772.07 324.928 3769.8 324.512 Q3767.56 324.118 3765.06 323.308 L3765.06 318.91 Q3767.42 320.137 3769.71 320.762 Q3772 321.364 3774.25 321.364 Q3777.25 321.364 3778.88 320.345 Q3780.5 319.303 3780.5 317.429 Q3780.5 315.692 3779.31 314.766 Q3778.16 313.841 3774.2 312.984 L3772.72 312.637 Q3768.76 311.804 3767 310.091 Q3765.24 308.354 3765.24 305.345 Q3765.24 301.688 3767.83 299.697 Q3770.43 297.706 3775.19 297.706 Q3777.56 297.706 3779.64 298.054 Q3781.72 298.401 3783.48 299.095 Z" fill="#000000" fill-rule="evenodd" fill-opacity="1" /></svg>
