<?xml version="1.0" encoding="utf-8"?>
<svg xmlns="http://www.w3.org/2000/svg" xmlns:xlink="http://www.w3.org/1999/xlink" width="1000" height="400" viewBox="0 0 4000 1600">
<defs>
  <clipPath id="clip310">
    <rect x="0" y="0" width="4000" height="1600"/>
  </clipPath>
</defs>
<path clip-path="url(#clip310)" d="
M0 1600 L4000 1600 L4000 0 L0 0  Z
  " fill="#ffffff" fill-rule="evenodd" fill-opacity="1"/>
<defs>
  <clipPath id="clip311">
    <rect x="800" y="0" width="2801" height="1600"/>
  </clipPath>
</defs>
<path clip-path="url(#clip310)" d="
M235.429 1393.02 L1223.1 1393.02 L1223.1 162.272 L235.429 162.272  Z
  " fill="#ffffff" fill-rule="evenodd" fill-opacity="1"/>
<defs>
  <clipPath id="clip312">
    <rect x="235" y="162" width="989" height="1232"/>
  </clipPath>
</defs>
<polyline clip-path="url(#clip312)" style="stroke:#000000; stroke-linecap:butt; stroke-linejoin:round; stroke-width:2; stroke-opacity:0.1; fill:none" points="
  331.258,1393.02 331.258,162.272 
  "/>
<polyline clip-path="url(#clip312)" style="stroke:#000000; stroke-linecap:butt; stroke-linejoin:round; stroke-width:2; stroke-opacity:0.1; fill:none" points="
  568.313,1393.02 568.313,162.272 
  "/>
<polyline clip-path="url(#clip312)" style="stroke:#000000; stroke-linecap:butt; stroke-linejoin:round; stroke-width:2; stroke-opacity:0.1; fill:none" points="
  805.368,1393.02 805.368,162.272 
  "/>
<polyline clip-path="url(#clip312)" style="stroke:#000000; stroke-linecap:butt; stroke-linejoin:round; stroke-width:2; stroke-opacity:0.1; fill:none" points="
  1042.42,1393.02 1042.42,162.272 
  "/>
<polyline clip-path="url(#clip310)" style="stroke:#000000; stroke-linecap:butt; stroke-linejoin:round; stroke-width:4; stroke-opacity:1; fill:none" points="
  235.429,1393.02 1223.1,1393.02 
  "/>
<polyline clip-path="url(#clip310)" style="stroke:#000000; stroke-linecap:butt; stroke-linejoin:round; stroke-width:4; stroke-opacity:1; fill:none" points="
  331.258,1393.02 331.258,1374.12 
  "/>
<polyline clip-path="url(#clip310)" style="stroke:#000000; stroke-linecap:butt; stroke-linejoin:round; stroke-width:4; stroke-opacity:1; fill:none" points="
  568.313,1393.02 568.313,1374.12 
  "/>
<polyline clip-path="url(#clip310)" style="stroke:#000000; stroke-linecap:butt; stroke-linejoin:round; stroke-width:4; stroke-opacity:1; fill:none" points="
  805.368,1393.02 805.368,1374.12 
  "/>
<polyline clip-path="url(#clip310)" style="stroke:#000000; stroke-linecap:butt; stroke-linejoin:round; stroke-width:4; stroke-opacity:1; fill:none" points="
  1042.42,1393.02 1042.42,1374.12 
  "/>
<path clip-path="url(#clip310)" d="M308.689 1435.01 Q305.078 1435.01 303.249 1438.58 Q301.444 1442.12 301.444 1449.25 Q301.444 1456.35 303.249 1459.92 Q305.078 1463.46 308.689 1463.46 Q312.323 1463.46 314.129 1459.92 Q315.957 1456.35 315.957 1449.25 Q315.957 1442.12 314.129 1438.58 Q312.323 1435.01 308.689 1435.01 M308.689 1431.31 Q314.499 1431.31 317.555 1435.91 Q320.633 1440.5 320.633 1449.25 Q320.633 1457.97 317.555 1462.58 Q314.499 1467.16 308.689 1467.16 Q302.879 1467.16 299.8 1462.58 Q296.744 1457.97 296.744 1449.25 Q296.744 1440.5 299.8 1435.91 Q302.879 1431.31 308.689 1431.31 Z" fill="#000000" fill-rule="evenodd" fill-opacity="1" /><path clip-path="url(#clip310)" d="M328.851 1460.61 L333.735 1460.61 L333.735 1466.49 L328.851 1466.49 L328.851 1460.61 Z" fill="#000000" fill-rule="evenodd" fill-opacity="1" /><path clip-path="url(#clip310)" d="M353.92 1450.08 Q350.587 1450.08 348.665 1451.86 Q346.767 1453.64 346.767 1456.77 Q346.767 1459.89 348.665 1461.68 Q350.587 1463.46 353.92 1463.46 Q357.253 1463.46 359.175 1461.68 Q361.096 1459.87 361.096 1456.77 Q361.096 1453.64 359.175 1451.86 Q357.277 1450.08 353.92 1450.08 M349.244 1448.09 Q346.235 1447.35 344.545 1445.29 Q342.878 1443.23 342.878 1440.27 Q342.878 1436.12 345.818 1433.71 Q348.781 1431.31 353.92 1431.31 Q359.082 1431.31 362.022 1433.71 Q364.962 1436.12 364.962 1440.27 Q364.962 1443.23 363.272 1445.29 Q361.605 1447.35 358.619 1448.09 Q361.999 1448.88 363.874 1451.17 Q365.772 1453.46 365.772 1456.77 Q365.772 1461.79 362.693 1464.48 Q359.638 1467.16 353.92 1467.16 Q348.203 1467.16 345.124 1464.48 Q342.068 1461.79 342.068 1456.77 Q342.068 1453.46 343.966 1451.17 Q345.865 1448.88 349.244 1448.09 M347.531 1440.7 Q347.531 1443.39 349.198 1444.89 Q350.888 1446.4 353.92 1446.4 Q356.929 1446.4 358.619 1444.89 Q360.332 1443.39 360.332 1440.7 Q360.332 1438.02 358.619 1436.52 Q356.929 1435.01 353.92 1435.01 Q350.888 1435.01 349.198 1436.52 Q347.531 1438.02 347.531 1440.7 Z" fill="#000000" fill-rule="evenodd" fill-opacity="1" /><path clip-path="url(#clip310)" d="M545.79 1435.01 Q542.179 1435.01 540.35 1438.58 Q538.545 1442.12 538.545 1449.25 Q538.545 1456.35 540.35 1459.92 Q542.179 1463.46 545.79 1463.46 Q549.424 1463.46 551.23 1459.92 Q553.059 1456.35 553.059 1449.25 Q553.059 1442.12 551.23 1438.58 Q549.424 1435.01 545.79 1435.01 M545.79 1431.31 Q551.6 1431.31 554.656 1435.91 Q557.734 1440.5 557.734 1449.25 Q557.734 1457.97 554.656 1462.58 Q551.6 1467.16 545.79 1467.16 Q539.98 1467.16 536.901 1462.58 Q533.846 1457.97 533.846 1449.25 Q533.846 1440.5 536.901 1435.91 Q539.98 1431.31 545.79 1431.31 Z" fill="#000000" fill-rule="evenodd" fill-opacity="1" /><path clip-path="url(#clip310)" d="M565.952 1460.61 L570.836 1460.61 L570.836 1466.49 L565.952 1466.49 L565.952 1460.61 Z" fill="#000000" fill-rule="evenodd" fill-opacity="1" /><path clip-path="url(#clip310)" d="M581.16 1465.77 L581.16 1461.51 Q582.92 1462.35 584.725 1462.79 Q586.531 1463.23 588.267 1463.23 Q592.896 1463.23 595.327 1460.13 Q597.781 1457 598.128 1450.66 Q596.785 1452.65 594.725 1453.71 Q592.665 1454.78 590.165 1454.78 Q584.98 1454.78 581.947 1451.65 Q578.938 1448.51 578.938 1443.07 Q578.938 1437.74 582.086 1434.52 Q585.234 1431.31 590.466 1431.31 Q596.461 1431.31 599.609 1435.91 Q602.781 1440.5 602.781 1449.25 Q602.781 1457.42 598.892 1462.3 Q595.026 1467.16 588.475 1467.16 Q586.716 1467.16 584.91 1466.82 Q583.105 1466.47 581.16 1465.77 M590.466 1451.12 Q593.614 1451.12 595.443 1448.97 Q597.294 1446.82 597.294 1443.07 Q597.294 1439.34 595.443 1437.19 Q593.614 1435.01 590.466 1435.01 Q587.318 1435.01 585.466 1437.19 Q583.637 1439.34 583.637 1443.07 Q583.637 1446.82 585.466 1448.97 Q587.318 1451.12 590.466 1451.12 Z" fill="#000000" fill-rule="evenodd" fill-opacity="1" /><path clip-path="url(#clip310)" d="M772.521 1462.56 L780.16 1462.56 L780.16 1436.19 L771.85 1437.86 L771.85 1433.6 L780.114 1431.93 L784.789 1431.93 L784.789 1462.56 L792.428 1462.56 L792.428 1466.49 L772.521 1466.49 L772.521 1462.56 Z" fill="#000000" fill-rule="evenodd" fill-opacity="1" /><path clip-path="url(#clip310)" d="M801.873 1460.61 L806.757 1460.61 L806.757 1466.49 L801.873 1466.49 L801.873 1460.61 Z" fill="#000000" fill-rule="evenodd" fill-opacity="1" /><path clip-path="url(#clip310)" d="M826.942 1435.01 Q823.331 1435.01 821.502 1438.58 Q819.697 1442.12 819.697 1449.25 Q819.697 1456.35 821.502 1459.92 Q823.331 1463.46 826.942 1463.46 Q830.576 1463.46 832.382 1459.92 Q834.211 1456.35 834.211 1449.25 Q834.211 1442.12 832.382 1438.58 Q830.576 1435.01 826.942 1435.01 M826.942 1431.31 Q832.752 1431.31 835.808 1435.91 Q838.886 1440.5 838.886 1449.25 Q838.886 1457.97 835.808 1462.58 Q832.752 1467.16 826.942 1467.16 Q821.132 1467.16 818.053 1462.58 Q814.998 1457.97 814.998 1449.25 Q814.998 1440.5 818.053 1435.91 Q821.132 1431.31 826.942 1431.31 Z" fill="#000000" fill-rule="evenodd" fill-opacity="1" /><path clip-path="url(#clip310)" d="M1010.19 1462.56 L1017.83 1462.56 L1017.83 1436.19 L1009.52 1437.86 L1009.52 1433.6 L1017.78 1431.93 L1022.46 1431.93 L1022.46 1462.56 L1030.1 1462.56 L1030.1 1466.49 L1010.19 1466.49 L1010.19 1462.56 Z" fill="#000000" fill-rule="evenodd" fill-opacity="1" /><path clip-path="url(#clip310)" d="M1039.54 1460.61 L1044.43 1460.61 L1044.43 1466.49 L1039.54 1466.49 L1039.54 1460.61 Z" fill="#000000" fill-rule="evenodd" fill-opacity="1" /><path clip-path="url(#clip310)" d="M1055.42 1462.56 L1063.06 1462.56 L1063.06 1436.19 L1054.75 1437.86 L1054.75 1433.6 L1063.01 1431.93 L1067.69 1431.93 L1067.69 1462.56 L1075.33 1462.56 L1075.33 1466.49 L1055.42 1466.49 L1055.42 1462.56 Z" fill="#000000" fill-rule="evenodd" fill-opacity="1" /><path clip-path="url(#clip310)" d="M679.531 1532.6 Q681.473 1529.35 686.279 1526.49 Q688.157 1525.38 693.949 1525.38 Q700.442 1525.38 704.485 1530.53 Q708.559 1535.69 708.559 1544.09 Q708.559 1552.49 704.485 1557.65 Q700.442 1562.81 693.949 1562.81 Q690.035 1562.81 687.202 1561.28 Q684.401 1559.72 682.555 1556.54 L682.555 1575.44 L676.667 1575.44 L676.667 1544.41 Q676.667 1537.06 679.531 1532.6 M702.48 1544.09 Q702.48 1537.63 699.806 1533.97 Q697.164 1530.28 692.517 1530.28 Q687.87 1530.28 685.197 1533.97 Q682.555 1537.63 682.555 1544.09 Q682.555 1550.55 685.197 1554.24 Q687.87 1557.91 692.517 1557.91 Q697.164 1557.91 699.806 1554.24 Q702.48 1550.55 702.48 1544.09 Z" fill="#000000" fill-rule="evenodd" fill-opacity="1" /><path clip-path="url(#clip310)" d="M745.353 1572.71 L745.353 1577.26 L711.487 1577.26 L711.487 1572.71 L745.353 1572.71 Z" fill="#000000" fill-rule="evenodd" fill-opacity="1" /><path clip-path="url(#clip310)" d="M765.436 1518.6 Q760.471 1518.6 757.957 1523.5 Q755.474 1528.37 755.474 1538.17 Q755.474 1547.94 757.957 1552.84 Q760.471 1557.71 765.436 1557.71 Q770.433 1557.71 772.916 1552.84 Q775.431 1547.94 775.431 1538.17 Q775.431 1528.37 772.916 1523.5 Q770.433 1518.6 765.436 1518.6 M765.436 1513.5 Q773.425 1513.5 777.627 1519.84 Q781.86 1526.14 781.86 1538.17 Q781.86 1550.17 777.627 1556.5 Q773.425 1562.81 765.436 1562.81 Q757.447 1562.81 753.214 1556.5 Q749.013 1550.17 749.013 1538.17 Q749.013 1526.14 753.214 1519.84 Q757.447 1513.5 765.436 1513.5 Z" fill="#000000" fill-rule="evenodd" fill-opacity="1" /><polyline clip-path="url(#clip312)" style="stroke:#000000; stroke-linecap:butt; stroke-linejoin:round; stroke-width:2; stroke-opacity:0.1; fill:none" points="
  235.429,1358.19 1223.1,1358.19 
  "/>
<polyline clip-path="url(#clip312)" style="stroke:#000000; stroke-linecap:butt; stroke-linejoin:round; stroke-width:2; stroke-opacity:0.1; fill:none" points="
  235.429,1067.92 1223.1,1067.92 
  "/>
<polyline clip-path="url(#clip312)" style="stroke:#000000; stroke-linecap:butt; stroke-linejoin:round; stroke-width:2; stroke-opacity:0.1; fill:none" points="
  235.429,777.646 1223.1,777.646 
  "/>
<polyline clip-path="url(#clip312)" style="stroke:#000000; stroke-linecap:butt; stroke-linejoin:round; stroke-width:2; stroke-opacity:0.1; fill:none" points="
  235.429,487.375 1223.1,487.375 
  "/>
<polyline clip-path="url(#clip312)" style="stroke:#000000; stroke-linecap:butt; stroke-linejoin:round; stroke-width:2; stroke-opacity:0.1; fill:none" points="
  235.429,197.105 1223.1,197.105 
  "/>
<polyline clip-path="url(#clip310)" style="stroke:#000000; stroke-linecap:butt; stroke-linejoin:round; stroke-width:4; stroke-opacity:1; fill:none" points="
  235.429,1393.02 235.429,162.272 
  "/>
<polyline clip-path="url(#clip310)" style="stroke:#000000; stroke-linecap:butt; stroke-linejoin:round; stroke-width:4; stroke-opacity:1; fill:none" points="
  235.429,1358.19 254.327,1358.19 
  "/>
<polyline clip-path="url(#clip310)" style="stroke:#000000; stroke-linecap:butt; stroke-linejoin:round; stroke-width:4; stroke-opacity:1; fill:none" points="
  235.429,1067.92 254.327,1067.92 
  "/>
<polyline clip-path="url(#clip310)" style="stroke:#000000; stroke-linecap:butt; stroke-linejoin:round; stroke-width:4; stroke-opacity:1; fill:none" points="
  235.429,777.646 254.327,777.646 
  "/>
<polyline clip-path="url(#clip310)" style="stroke:#000000; stroke-linecap:butt; stroke-linejoin:round; stroke-width:4; stroke-opacity:1; fill:none" points="
  235.429,487.375 254.327,487.375 
  "/>
<polyline clip-path="url(#clip310)" style="stroke:#000000; stroke-linecap:butt; stroke-linejoin:round; stroke-width:4; stroke-opacity:1; fill:none" points="
  235.429,197.105 254.327,197.105 
  "/>
<path clip-path="url(#clip310)" d="M163.485 1343.99 Q159.874 1343.99 158.045 1347.55 Q156.24 1351.09 156.24 1358.22 Q156.24 1365.33 158.045 1368.89 Q159.874 1372.43 163.485 1372.43 Q167.119 1372.43 168.925 1368.89 Q170.753 1365.33 170.753 1358.22 Q170.753 1351.09 168.925 1347.55 Q167.119 1343.99 163.485 1343.99 M163.485 1340.28 Q169.295 1340.28 172.351 1344.89 Q175.429 1349.47 175.429 1358.22 Q175.429 1366.95 172.351 1371.56 Q169.295 1376.14 163.485 1376.14 Q157.675 1376.14 154.596 1371.56 Q151.541 1366.95 151.541 1358.22 Q151.541 1349.47 154.596 1344.89 Q157.675 1340.28 163.485 1340.28 Z" fill="#000000" fill-rule="evenodd" fill-opacity="1" /><path clip-path="url(#clip310)" d="M155.522 1081.26 L163.161 1081.26 L163.161 1054.9 L154.851 1056.56 L154.851 1052.3 L163.115 1050.64 L167.79 1050.64 L167.79 1081.26 L175.429 1081.26 L175.429 1085.2 L155.522 1085.2 L155.522 1081.26 Z" fill="#000000" fill-rule="evenodd" fill-opacity="1" /><path clip-path="url(#clip310)" d="M159.11 790.991 L175.429 790.991 L175.429 794.926 L153.485 794.926 L153.485 790.991 Q156.147 788.236 160.73 783.607 Q165.337 778.954 166.517 777.611 Q168.763 775.088 169.642 773.352 Q170.545 771.593 170.545 769.903 Q170.545 767.148 168.601 765.412 Q166.679 763.676 163.578 763.676 Q161.378 763.676 158.925 764.44 Q156.494 765.204 153.716 766.755 L153.716 762.033 Q156.541 760.898 158.994 760.32 Q161.448 759.741 163.485 759.741 Q168.855 759.741 172.05 762.426 Q175.244 765.111 175.244 769.602 Q175.244 771.732 174.434 773.653 Q173.647 775.551 171.54 778.144 Q170.962 778.815 167.86 782.033 Q164.758 785.227 159.11 790.991 Z" fill="#000000" fill-rule="evenodd" fill-opacity="1" /><path clip-path="url(#clip310)" d="M168.3 486.021 Q171.656 486.739 173.531 489.007 Q175.429 491.276 175.429 494.609 Q175.429 499.725 171.911 502.526 Q168.392 505.327 161.911 505.327 Q159.735 505.327 157.42 504.887 Q155.129 504.47 152.675 503.614 L152.675 499.1 Q154.619 500.234 156.934 500.813 Q159.249 501.391 161.772 501.391 Q166.17 501.391 168.462 499.655 Q170.777 497.919 170.777 494.609 Q170.777 491.554 168.624 489.841 Q166.494 488.105 162.675 488.105 L158.647 488.105 L158.647 484.262 L162.86 484.262 Q166.309 484.262 168.138 482.896 Q169.966 481.507 169.966 478.915 Q169.966 476.253 168.068 474.841 Q166.193 473.406 162.675 473.406 Q160.753 473.406 158.554 473.822 Q156.355 474.239 153.716 475.118 L153.716 470.952 Q156.379 470.211 158.693 469.841 Q161.031 469.47 163.091 469.47 Q168.415 469.47 171.517 471.901 Q174.619 474.308 174.619 478.429 Q174.619 481.299 172.976 483.29 Q171.332 485.257 168.3 486.021 Z" fill="#000000" fill-rule="evenodd" fill-opacity="1" /><path clip-path="url(#clip310)" d="M165.846 183.899 L154.041 202.348 L165.846 202.348 L165.846 183.899 M164.619 179.825 L170.499 179.825 L170.499 202.348 L175.429 202.348 L175.429 206.237 L170.499 206.237 L170.499 214.385 L165.846 214.385 L165.846 206.237 L150.244 206.237 L150.244 201.723 L164.619 179.825 Z" fill="#000000" fill-rule="evenodd" fill-opacity="1" /><path clip-path="url(#clip310)" d="M40.3403 876.171 L40.3403 848.353 L45.6875 848.353 L71.3095 870.378 L71.3095 848.353 L75.9883 848.353 L75.9883 876.967 L70.6411 876.967 L45.0191 854.942 L45.0191 876.171 L40.3403 876.171 Z" fill="#000000" fill-rule="evenodd" fill-opacity="1" /><path clip-path="url(#clip310)" d="M26.5267 804.621 Q33.8473 808.886 41.0087 810.955 Q48.1701 813.023 55.5225 813.023 Q62.8749 813.023 70.1 810.955 Q77.2933 808.854 84.582 804.621 L84.582 809.713 Q77.1023 814.488 69.8772 816.875 Q62.6521 819.23 55.5225 819.23 Q48.4248 819.23 41.2315 816.875 Q34.0383 814.519 26.5267 809.713 L26.5267 804.621 Z" fill="#000000" fill-rule="evenodd" fill-opacity="1" /><path clip-path="url(#clip310)" d="M26.4631 793.481 L26.4631 787.592 L55.7135 787.592 L40.3403 770.119 L40.3403 762.639 L57.0185 781.545 L75.9883 761.843 L75.9883 769.482 L58.5781 787.592 L75.9883 787.592 L75.9883 793.481 L26.4631 793.481 Z" fill="#000000" fill-rule="evenodd" fill-opacity="1" /><path clip-path="url(#clip310)" d="M47.1835 727.755 Q43.2367 725.559 41.3588 722.503 Q39.481 719.448 39.481 715.31 Q39.481 709.74 43.3959 706.716 Q47.2789 703.692 54.4722 703.692 L75.9883 703.692 L75.9883 709.581 L54.6632 709.581 Q49.5388 709.581 47.0561 711.395 Q44.5735 713.209 44.5735 716.933 Q44.5735 721.485 47.5972 724.126 Q50.6209 726.768 55.8408 726.768 L75.9883 726.768 L75.9883 732.656 L54.6632 732.656 Q49.5069 732.656 47.0561 734.471 Q44.5735 736.285 44.5735 740.072 Q44.5735 744.56 47.6291 747.202 Q50.6528 749.844 55.8408 749.844 L75.9883 749.844 L75.9883 755.732 L40.3403 755.732 L40.3403 749.844 L45.8785 749.844 Q42.6002 747.839 41.0406 745.038 Q39.481 742.237 39.481 738.385 Q39.481 734.502 41.4543 731.797 Q43.4277 729.06 47.1835 727.755 Z" fill="#000000" fill-rule="evenodd" fill-opacity="1" /><path clip-path="url(#clip310)" d="M26.5267 692.934 L26.5267 687.842 Q34.0383 683.067 41.2315 680.712 Q48.4248 678.325 55.5225 678.325 Q62.6521 678.325 69.8772 680.712 Q77.1023 683.067 84.582 687.842 L84.582 692.934 Q77.2933 688.701 70.1 686.632 Q62.8749 684.532 55.5225 684.532 Q48.1701 684.532 41.0087 686.632 Q33.8473 688.701 26.5267 692.934 Z" fill="#000000" fill-rule="evenodd" fill-opacity="1" /><path clip-path="url(#clip310)" d="M665.968 35.3077 Q668.439 31.1758 674.556 27.5299 Q676.946 26.1121 684.318 26.1121 Q692.582 26.1121 697.727 32.6746 Q702.912 39.2371 702.912 49.9314 Q702.912 60.6258 697.727 67.1883 Q692.582 73.7508 684.318 73.7508 Q679.336 73.7508 675.731 71.8063 Q672.166 69.8214 669.816 65.7705 L669.816 89.8329 L662.322 89.8329 L662.322 50.3365 Q662.322 40.9789 665.968 35.3077 M695.175 49.9314 Q695.175 41.7081 691.772 37.0496 Q688.41 32.3505 682.496 32.3505 Q676.581 32.3505 673.178 37.0496 Q669.816 41.7081 669.816 49.9314 Q669.816 58.1548 673.178 62.8538 Q676.581 67.5124 682.496 67.5124 Q688.41 67.5124 691.772 62.8538 Q695.175 58.1548 695.175 49.9314 Z" fill="#000000" fill-rule="evenodd" fill-opacity="1" /><path clip-path="url(#clip310)" d="M749.741 86.3491 L749.741 92.1419 L706.639 92.1419 L706.639 86.3491 L749.741 86.3491 Z" fill="#000000" fill-rule="evenodd" fill-opacity="1" /><path clip-path="url(#clip310)" d="M775.302 17.4837 Q768.982 17.4837 765.782 23.7221 Q762.622 29.92 762.622 42.3968 Q762.622 54.833 765.782 61.0714 Q768.982 67.2693 775.302 67.2693 Q781.662 67.2693 784.821 61.0714 Q788.022 54.833 788.022 42.3968 Q788.022 29.92 784.821 23.7221 Q781.662 17.4837 775.302 17.4837 M775.302 11.0023 Q785.47 11.0023 790.817 19.0636 Q796.204 27.0843 796.204 42.3968 Q796.204 57.6687 790.817 65.73 Q785.47 73.7508 775.302 73.7508 Q765.134 73.7508 759.746 65.73 Q754.399 57.6687 754.399 42.3968 Q754.399 27.0843 759.746 19.0636 Q765.134 11.0023 775.302 11.0023 Z" fill="#000000" fill-rule="evenodd" fill-opacity="1" /><polyline clip-path="url(#clip312)" style="stroke:#009af9; stroke-linecap:butt; stroke-linejoin:round; stroke-width:4; stroke-opacity:1; fill:none" points="
  1188.27,1350.93 1174.56,1336.42 1160.95,1321.9 1147.32,1307.39 1133.79,1292.88 1120.31,1278.36 1106.89,1263.85 1093.52,1249.34 1080.43,1234.82 1067.11,1220.31 
  1053.83,1205.8 1040.58,1191.28 1027.43,1176.77 1014.46,1162.25 1001.51,1147.74 988.818,1133.23 975.841,1118.71 962.967,1104.2 950.178,1089.69 937.462,1075.17 
  924.854,1060.66 912.142,1046.15 899.831,1031.63 887.334,1017.12 874.87,1002.61 862.461,988.092 850.108,973.579 837.811,959.065 825.571,944.552 813.387,930.038 
  801.26,915.525 789.19,901.011 777.177,886.497 765.222,871.984 753.323,857.47 741.482,842.957 729.699,828.443 717.973,813.93 706.305,799.416 694.695,784.903 
  682.926,770.389 671.376,755.876 659.876,741.362 648.427,726.849 637.028,712.335 625.68,697.822 614.382,683.308 603.134,668.794 591.937,654.281 580.789,639.767 
  569.691,625.254 558.644,610.74 547.646,596.227 536.698,581.713 525.799,567.2 514.862,552.686 504.049,538.173 493.284,523.659 482.567,509.146 471.897,494.632 
  461.275,480.119 450.7,465.605 440.172,451.092 429.88,436.578 419.428,422.064 409.021,407.551 398.658,393.037 388.339,378.524 378.064,364.01 367.833,349.497 
  357.508,334.983 347.557,320.47 337.4,305.956 327.341,291.443 317.326,276.929 307.353,262.416 297.642,247.902 287.792,233.389 277.995,218.875 268.242,204.361 
  
  "/>
<polyline clip-path="url(#clip312)" style="stroke:#e26f46; stroke-linecap:butt; stroke-linejoin:round; stroke-width:4; stroke-opacity:1; fill:none" points="
  1195.14,1358.19 1181.41,1343.67 1167.85,1329.16 1154.07,1314.65 1140.55,1300.13 1127.04,1285.62 1113.59,1271.11 1100.2,1256.59 1086.86,1242.08 1073.77,1227.57 
  1060.46,1213.05 1047.2,1198.54 1033.97,1184.02 1020.94,1169.51 1007.98,1155 995.044,1140.48 982.315,1125.97 969.392,1111.46 956.563,1096.94 943.812,1082.43 
  931.129,1067.92 918.442,1053.4 905.941,1038.89 893.587,1024.38 881.095,1009.86 868.658,995.349 856.277,980.835 843.953,966.322 831.684,951.808 819.472,937.295 
  807.317,922.781 795.218,908.268 783.182,893.754 771.192,879.241 759.265,864.727 747.396,850.214 735.583,835.7 723.829,821.187 712.132,806.673 700.493,792.16 
  688.912,777.646 677.145,763.132 665.619,748.619 654.145,734.105 642.721,719.592 631.348,705.078 620.024,690.565 608.752,676.051 597.529,661.538 586.356,647.024 
  575.234,632.511 564.161,617.997 553.139,603.484 542.166,588.97 531.242,574.457 520.287,559.943 509.45,545.429 498.661,530.916 487.92,516.402 477.226,501.889 
  466.58,487.375 455.982,472.862 445.43,458.348 434.926,443.835 424.648,429.321 414.219,414.808 403.834,400.294 393.493,385.781 383.196,371.267 372.943,356.754 
  362.503,342.24 352.527,327.727 342.6,313.213 332.365,298.699 322.328,284.186 312.334,269.672 302.579,255.159 292.707,240.645 282.888,226.132 273.113,211.618 
  263.382,197.105 
  "/>
<path clip-path="url(#clip310)" d="
M908.143 358.817 L1190.17 358.817 L1190.17 203.297 L908.143 203.297  Z
  " fill="#ffffff" fill-rule="evenodd" fill-opacity="1"/>
<polyline clip-path="url(#clip310)" style="stroke:#000000; stroke-linecap:butt; stroke-linejoin:round; stroke-width:4; stroke-opacity:1; fill:none" points="
  908.143,358.817 1190.17,358.817 1190.17,203.297 908.143,203.297 908.143,358.817 
  "/>
<polyline clip-path="url(#clip310)" style="stroke:#009af9; stroke-linecap:butt; stroke-linejoin:round; stroke-width:4; stroke-opacity:1; fill:none" points="
  919.117,255.137 984.962,255.137 
  "/>
<path clip-path="url(#clip310)" d="M1016.45 247.487 L1016.45 251.468 Q1014.64 250.473 1012.81 249.987 Q1011.01 249.477 1009.15 249.477 Q1005.01 249.477 1002.72 252.116 Q1000.43 254.732 1000.43 259.477 Q1000.43 264.223 1002.72 266.862 Q1005.01 269.477 1009.15 269.477 Q1011.01 269.477 1012.81 268.991 Q1014.64 268.482 1016.45 267.487 L1016.45 271.422 Q1014.66 272.255 1012.74 272.672 Q1010.84 273.088 1008.69 273.088 Q1002.83 273.088 999.385 269.408 Q995.936 265.727 995.936 259.477 Q995.936 253.135 999.408 249.501 Q1002.9 245.866 1008.97 245.866 Q1010.94 245.866 1012.81 246.283 Q1014.69 246.677 1016.45 247.487 Z" fill="#000000" fill-rule="evenodd" fill-opacity="1" /><path clip-path="url(#clip310)" d="M1046.03 258.389 L1046.03 260.473 L1026.45 260.473 Q1026.72 264.871 1029.08 267.186 Q1031.47 269.477 1035.7 269.477 Q1038.16 269.477 1040.45 268.876 Q1042.76 268.274 1045.03 267.07 L1045.03 271.098 Q1042.74 272.07 1040.33 272.579 Q1037.93 273.088 1035.45 273.088 Q1029.25 273.088 1025.61 269.477 Q1022 265.866 1022 259.709 Q1022 253.343 1025.43 249.616 Q1028.88 245.866 1034.71 245.866 Q1039.94 245.866 1042.97 249.246 Q1046.03 252.602 1046.03 258.389 M1041.77 257.139 Q1041.72 253.644 1039.8 251.561 Q1037.9 249.477 1034.76 249.477 Q1031.19 249.477 1029.04 251.491 Q1026.91 253.505 1026.58 257.163 L1041.77 257.139 Z" fill="#000000" fill-rule="evenodd" fill-opacity="1" /><path clip-path="url(#clip310)" d="M1074.57 256.769 L1074.57 272.417 L1070.31 272.417 L1070.31 256.908 Q1070.31 253.227 1068.88 251.399 Q1067.44 249.57 1064.57 249.57 Q1061.12 249.57 1059.13 251.769 Q1057.14 253.968 1057.14 257.764 L1057.14 272.417 L1052.86 272.417 L1052.86 246.491 L1057.14 246.491 L1057.14 250.519 Q1058.67 248.181 1060.73 247.024 Q1062.81 245.866 1065.52 245.866 Q1069.99 245.866 1072.28 248.644 Q1074.57 251.399 1074.57 256.769 Z" fill="#000000" fill-rule="evenodd" fill-opacity="1" /><path clip-path="url(#clip310)" d="M1087.28 239.13 L1087.28 246.491 L1096.05 246.491 L1096.05 249.802 L1087.28 249.802 L1087.28 263.876 Q1087.28 267.047 1088.13 267.95 Q1089.01 268.852 1091.68 268.852 L1096.05 268.852 L1096.05 272.417 L1091.68 272.417 Q1086.75 272.417 1084.87 270.588 Q1083 268.737 1083 263.876 L1083 249.802 L1079.87 249.802 L1079.87 246.491 L1083 246.491 L1083 239.13 L1087.28 239.13 Z" fill="#000000" fill-rule="evenodd" fill-opacity="1" /><path clip-path="url(#clip310)" d="M1123.83 258.389 L1123.83 260.473 L1104.25 260.473 Q1104.52 264.871 1106.88 267.186 Q1109.27 269.477 1113.5 269.477 Q1115.96 269.477 1118.25 268.876 Q1120.56 268.274 1122.83 267.07 L1122.83 271.098 Q1120.54 272.07 1118.13 272.579 Q1115.73 273.088 1113.25 273.088 Q1107.05 273.088 1103.41 269.477 Q1099.8 265.866 1099.8 259.709 Q1099.8 253.343 1103.23 249.616 Q1106.68 245.866 1112.51 245.866 Q1117.74 245.866 1120.77 249.246 Q1123.83 252.602 1123.83 258.389 M1119.57 257.139 Q1119.52 253.644 1117.6 251.561 Q1115.7 249.477 1112.56 249.477 Q1108.99 249.477 1106.84 251.491 Q1104.71 253.505 1104.38 257.163 L1119.57 257.139 Z" fill="#000000" fill-rule="evenodd" fill-opacity="1" /><path clip-path="url(#clip310)" d="M1145.84 250.473 Q1145.12 250.056 1144.27 249.871 Q1143.44 249.663 1142.42 249.663 Q1138.81 249.663 1136.86 252.024 Q1134.94 254.362 1134.94 258.76 L1134.94 272.417 L1130.66 272.417 L1130.66 246.491 L1134.94 246.491 L1134.94 250.519 Q1136.28 248.158 1138.44 247.024 Q1140.59 245.866 1143.67 245.866 Q1144.11 245.866 1144.64 245.936 Q1145.17 245.982 1145.82 246.098 L1145.84 250.473 Z" fill="#000000" fill-rule="evenodd" fill-opacity="1" /><path clip-path="url(#clip310)" d="M1166.84 247.255 L1166.84 251.283 Q1165.03 250.357 1163.09 249.894 Q1161.14 249.431 1159.06 249.431 Q1155.89 249.431 1154.29 250.403 Q1152.72 251.376 1152.72 253.32 Q1152.72 254.802 1153.85 255.658 Q1154.99 256.491 1158.41 257.255 L1159.87 257.579 Q1164.41 258.552 1166.31 260.334 Q1168.23 262.093 1168.23 265.264 Q1168.23 268.876 1165.36 270.982 Q1162.51 273.088 1157.51 273.088 Q1155.43 273.088 1153.16 272.672 Q1150.91 272.278 1148.41 271.468 L1148.41 267.07 Q1150.77 268.297 1153.06 268.922 Q1155.36 269.524 1157.6 269.524 Q1160.61 269.524 1162.23 268.505 Q1163.85 267.463 1163.85 265.589 Q1163.85 263.852 1162.67 262.926 Q1161.51 262.001 1157.56 261.144 L1156.07 260.797 Q1152.12 259.964 1150.36 258.251 Q1148.6 256.514 1148.6 253.505 Q1148.6 249.848 1151.19 247.857 Q1153.78 245.866 1158.55 245.866 Q1160.91 245.866 1163 246.214 Q1165.08 246.561 1166.84 247.255 Z" fill="#000000" fill-rule="evenodd" fill-opacity="1" /><polyline clip-path="url(#clip310)" style="stroke:#e26f46; stroke-linecap:butt; stroke-linejoin:round; stroke-width:4; stroke-opacity:1; fill:none" points="
  919.117,306.977 984.962,306.977 
  "/>
<path clip-path="url(#clip310)" d="M1012.44 288.239 L1012.44 291.78 L1008.37 291.78 Q1006.07 291.78 1005.17 292.706 Q1004.29 293.632 1004.29 296.04 L1004.29 298.331 L1011.31 298.331 L1011.31 301.642 L1004.29 301.642 L1004.29 324.257 L1000.01 324.257 L1000.01 301.642 L995.936 301.642 L995.936 298.331 L1000.01 298.331 L1000.01 296.526 Q1000.01 292.197 1002.02 290.23 Q1004.04 288.239 1008.41 288.239 L1012.44 288.239 Z" fill="#000000" fill-rule="evenodd" fill-opacity="1" /><path clip-path="url(#clip310)" d="M1027.79 311.225 Q1022.63 311.225 1020.63 312.405 Q1018.64 313.586 1018.64 316.433 Q1018.64 318.702 1020.13 320.044 Q1021.63 321.364 1024.2 321.364 Q1027.74 321.364 1029.87 318.864 Q1032.02 316.341 1032.02 312.174 L1032.02 311.225 L1027.79 311.225 M1036.28 309.466 L1036.28 324.257 L1032.02 324.257 L1032.02 320.322 Q1030.57 322.683 1028.39 323.817 Q1026.21 324.928 1023.07 324.928 Q1019.08 324.928 1016.72 322.706 Q1014.38 320.461 1014.38 316.711 Q1014.38 312.336 1017.3 310.114 Q1020.24 307.892 1026.05 307.892 L1032.02 307.892 L1032.02 307.475 Q1032.02 304.535 1030.08 302.938 Q1028.16 301.317 1024.66 301.317 Q1022.44 301.317 1020.33 301.85 Q1018.23 302.382 1016.28 303.447 L1016.28 299.512 Q1018.62 298.609 1020.82 298.169 Q1023.02 297.706 1025.1 297.706 Q1030.73 297.706 1033.51 300.623 Q1036.28 303.54 1036.28 309.466 Z" fill="#000000" fill-rule="evenodd" fill-opacity="1" /><path clip-path="url(#clip310)" d="M1063.71 299.327 L1063.71 303.308 Q1061.91 302.313 1060.08 301.827 Q1058.27 301.317 1056.42 301.317 Q1052.28 301.317 1049.99 303.956 Q1047.69 306.572 1047.69 311.317 Q1047.69 316.063 1049.99 318.702 Q1052.28 321.317 1056.42 321.317 Q1058.27 321.317 1060.08 320.831 Q1061.91 320.322 1063.71 319.327 L1063.71 323.262 Q1061.93 324.095 1060.01 324.512 Q1058.11 324.928 1055.96 324.928 Q1050.1 324.928 1046.65 321.248 Q1043.2 317.567 1043.2 311.317 Q1043.2 304.975 1046.68 301.341 Q1050.17 297.706 1056.24 297.706 Q1058.2 297.706 1060.08 298.123 Q1061.95 298.517 1063.71 299.327 Z" fill="#000000" fill-rule="evenodd" fill-opacity="1" /><path clip-path="url(#clip310)" d="M1093.3 310.229 L1093.3 312.313 L1073.71 312.313 Q1073.99 316.711 1076.35 319.026 Q1078.74 321.317 1082.97 321.317 Q1085.43 321.317 1087.72 320.716 Q1090.03 320.114 1092.3 318.91 L1092.3 322.938 Q1090.01 323.91 1087.6 324.419 Q1085.19 324.928 1082.72 324.928 Q1076.51 324.928 1072.88 321.317 Q1069.27 317.706 1069.27 311.549 Q1069.27 305.183 1072.69 301.456 Q1076.14 297.706 1081.98 297.706 Q1087.21 297.706 1090.24 301.086 Q1093.3 304.442 1093.3 310.229 M1089.04 308.979 Q1088.99 305.484 1087.07 303.401 Q1085.17 301.317 1082.02 301.317 Q1078.46 301.317 1076.31 303.331 Q1074.18 305.345 1073.85 309.003 L1089.04 308.979 Z" fill="#000000" fill-rule="evenodd" fill-opacity="1" /><path clip-path="url(#clip310)" d="M1116.81 299.095 L1116.81 303.123 Q1115.01 302.197 1113.06 301.734 Q1111.12 301.271 1109.04 301.271 Q1105.87 301.271 1104.27 302.243 Q1102.69 303.216 1102.69 305.16 Q1102.69 306.642 1103.83 307.498 Q1104.96 308.331 1108.39 309.095 L1109.85 309.419 Q1114.38 310.392 1116.28 312.174 Q1118.2 313.933 1118.2 317.104 Q1118.2 320.716 1115.33 322.822 Q1112.49 324.928 1107.49 324.928 Q1105.4 324.928 1103.13 324.512 Q1100.89 324.118 1098.39 323.308 L1098.39 318.91 Q1100.75 320.137 1103.04 320.762 Q1105.33 321.364 1107.58 321.364 Q1110.59 321.364 1112.21 320.345 Q1113.83 319.303 1113.83 317.429 Q1113.83 315.692 1112.65 314.766 Q1111.49 313.841 1107.53 312.984 L1106.05 312.637 Q1102.09 311.804 1100.33 310.091 Q1098.57 308.354 1098.57 305.345 Q1098.57 301.688 1101.17 299.697 Q1103.76 297.706 1108.53 297.706 Q1110.89 297.706 1112.97 298.054 Q1115.06 298.401 1116.81 299.095 Z" fill="#000000" fill-rule="evenodd" fill-opacity="1" /><path clip-path="url(#clip310)" d="
M1568.76 1393.02 L2556.43 1393.02 L2556.43 162.272 L1568.76 162.272  Z
  " fill="#ffffff" fill-rule="evenodd" fill-opacity="1"/>
<defs>
  <clipPath id="clip313">
    <rect x="1568" y="162" width="989" height="1232"/>
  </clipPath>
</defs>
<polyline clip-path="url(#clip313)" style="stroke:#000000; stroke-linecap:butt; stroke-linejoin:round; stroke-width:2; stroke-opacity:0.1; fill:none" points="
  1751.44,1393.02 1751.44,162.272 
  "/>
<polyline clip-path="url(#clip313)" style="stroke:#000000; stroke-linecap:butt; stroke-linejoin:round; stroke-width:2; stroke-opacity:0.1; fill:none" points="
  1997.8,1393.02 1997.8,162.272 
  "/>
<polyline clip-path="url(#clip313)" style="stroke:#000000; stroke-linecap:butt; stroke-linejoin:round; stroke-width:2; stroke-opacity:0.1; fill:none" points="
  2244.17,1393.02 2244.17,162.272 
  "/>
<polyline clip-path="url(#clip313)" style="stroke:#000000; stroke-linecap:butt; stroke-linejoin:round; stroke-width:2; stroke-opacity:0.1; fill:none" points="
  2490.54,1393.02 2490.54,162.272 
  "/>
<polyline clip-path="url(#clip310)" style="stroke:#000000; stroke-linecap:butt; stroke-linejoin:round; stroke-width:4; stroke-opacity:1; fill:none" points="
  1568.76,1393.02 2556.43,1393.02 
  "/>
<polyline clip-path="url(#clip310)" style="stroke:#000000; stroke-linecap:butt; stroke-linejoin:round; stroke-width:4; stroke-opacity:1; fill:none" points="
  1751.44,1393.02 1751.44,1374.12 
  "/>
<polyline clip-path="url(#clip310)" style="stroke:#000000; stroke-linecap:butt; stroke-linejoin:round; stroke-width:4; stroke-opacity:1; fill:none" points="
  1997.8,1393.02 1997.8,1374.12 
  "/>
<polyline clip-path="url(#clip310)" style="stroke:#000000; stroke-linecap:butt; stroke-linejoin:round; stroke-width:4; stroke-opacity:1; fill:none" points="
  2244.17,1393.02 2244.17,1374.12 
  "/>
<polyline clip-path="url(#clip310)" style="stroke:#000000; stroke-linecap:butt; stroke-linejoin:round; stroke-width:4; stroke-opacity:1; fill:none" points="
  2490.54,1393.02 2490.54,1374.12 
  "/>
<path clip-path="url(#clip310)" d="M1724.79 1431.93 L1747.02 1431.93 L1747.02 1433.92 L1734.47 1466.49 L1729.58 1466.49 L1741.39 1435.87 L1724.79 1435.87 L1724.79 1431.93 Z" fill="#000000" fill-rule="evenodd" fill-opacity="1" /><path clip-path="url(#clip310)" d="M1766.14 1435.01 Q1762.52 1435.01 1760.7 1438.58 Q1758.89 1442.12 1758.89 1449.25 Q1758.89 1456.35 1760.7 1459.92 Q1762.52 1463.46 1766.14 1463.46 Q1769.77 1463.46 1771.58 1459.92 Q1773.4 1456.35 1773.4 1449.25 Q1773.4 1442.12 1771.58 1438.58 Q1769.77 1435.01 1766.14 1435.01 M1766.14 1431.31 Q1771.95 1431.31 1775 1435.91 Q1778.08 1440.5 1778.08 1449.25 Q1778.08 1457.97 1775 1462.58 Q1771.95 1467.16 1766.14 1467.16 Q1760.33 1467.16 1757.25 1462.58 Q1754.19 1457.97 1754.19 1449.25 Q1754.19 1440.5 1757.25 1435.91 Q1760.33 1431.31 1766.14 1431.31 Z" fill="#000000" fill-rule="evenodd" fill-opacity="1" /><path clip-path="url(#clip310)" d="M1982.68 1450.08 Q1979.34 1450.08 1977.42 1451.86 Q1975.52 1453.64 1975.52 1456.77 Q1975.52 1459.89 1977.42 1461.68 Q1979.34 1463.46 1982.68 1463.46 Q1986.01 1463.46 1987.93 1461.68 Q1989.85 1459.87 1989.85 1456.77 Q1989.85 1453.64 1987.93 1451.86 Q1986.03 1450.08 1982.68 1450.08 M1978 1448.09 Q1974.99 1447.35 1973.3 1445.29 Q1971.63 1443.23 1971.63 1440.27 Q1971.63 1436.12 1974.57 1433.71 Q1977.54 1431.31 1982.68 1431.31 Q1987.84 1431.31 1990.78 1433.71 Q1993.72 1436.12 1993.72 1440.27 Q1993.72 1443.23 1992.03 1445.29 Q1990.36 1447.35 1987.38 1448.09 Q1990.75 1448.88 1992.63 1451.17 Q1994.53 1453.46 1994.53 1456.77 Q1994.53 1461.79 1991.45 1464.48 Q1988.39 1467.16 1982.68 1467.16 Q1976.96 1467.16 1973.88 1464.48 Q1970.82 1461.79 1970.82 1456.77 Q1970.82 1453.46 1972.72 1451.17 Q1974.62 1448.88 1978 1448.09 M1976.29 1440.7 Q1976.29 1443.39 1977.95 1444.89 Q1979.64 1446.4 1982.68 1446.4 Q1985.69 1446.4 1987.38 1444.89 Q1989.09 1443.39 1989.09 1440.7 Q1989.09 1438.02 1987.38 1436.52 Q1985.69 1435.01 1982.68 1435.01 Q1979.64 1435.01 1977.95 1436.52 Q1976.29 1438.02 1976.29 1440.7 Z" fill="#000000" fill-rule="evenodd" fill-opacity="1" /><path clip-path="url(#clip310)" d="M2012.84 1435.01 Q2009.23 1435.01 2007.4 1438.58 Q2005.59 1442.12 2005.59 1449.25 Q2005.59 1456.35 2007.4 1459.92 Q2009.23 1463.46 2012.84 1463.46 Q2016.47 1463.46 2018.28 1459.92 Q2020.11 1456.35 2020.11 1449.25 Q2020.11 1442.12 2018.28 1438.58 Q2016.47 1435.01 2012.84 1435.01 M2012.84 1431.31 Q2018.65 1431.31 2021.7 1435.91 Q2024.78 1440.5 2024.78 1449.25 Q2024.78 1457.97 2021.7 1462.58 Q2018.65 1467.16 2012.84 1467.16 Q2007.03 1467.16 2003.95 1462.58 Q2000.89 1457.97 2000.89 1449.25 Q2000.89 1440.5 2003.95 1435.91 Q2007.03 1431.31 2012.84 1431.31 Z" fill="#000000" fill-rule="evenodd" fill-opacity="1" /><path clip-path="url(#clip310)" d="M2219.3 1465.77 L2219.3 1461.51 Q2221.06 1462.35 2222.86 1462.79 Q2224.67 1463.23 2226.4 1463.23 Q2231.03 1463.23 2233.46 1460.13 Q2235.92 1457 2236.27 1450.66 Q2234.92 1452.65 2232.86 1453.71 Q2230.8 1454.78 2228.3 1454.78 Q2223.12 1454.78 2220.08 1451.65 Q2217.08 1448.51 2217.08 1443.07 Q2217.08 1437.74 2220.22 1434.52 Q2223.37 1431.31 2228.6 1431.31 Q2234.6 1431.31 2237.75 1435.91 Q2240.92 1440.5 2240.92 1449.25 Q2240.92 1457.42 2237.03 1462.3 Q2233.16 1467.16 2226.61 1467.16 Q2224.85 1467.16 2223.05 1466.82 Q2221.24 1466.47 2219.3 1465.77 M2228.6 1451.12 Q2231.75 1451.12 2233.58 1448.97 Q2235.43 1446.82 2235.43 1443.07 Q2235.43 1439.34 2233.58 1437.19 Q2231.75 1435.01 2228.6 1435.01 Q2225.46 1435.01 2223.6 1437.19 Q2221.77 1439.34 2221.77 1443.07 Q2221.77 1446.82 2223.6 1448.97 Q2225.46 1451.12 2228.6 1451.12 Z" fill="#000000" fill-rule="evenodd" fill-opacity="1" /><path clip-path="url(#clip310)" d="M2259.32 1435.01 Q2255.71 1435.01 2253.88 1438.58 Q2252.08 1442.12 2252.08 1449.25 Q2252.08 1456.35 2253.88 1459.92 Q2255.71 1463.46 2259.32 1463.46 Q2262.95 1463.46 2264.76 1459.92 Q2266.59 1456.35 2266.59 1449.25 Q2266.59 1442.12 2264.76 1438.58 Q2262.95 1435.01 2259.32 1435.01 M2259.32 1431.31 Q2265.13 1431.31 2268.19 1435.91 Q2271.26 1440.5 2271.26 1449.25 Q2271.26 1457.97 2268.19 1462.58 Q2265.13 1467.16 2259.32 1467.16 Q2253.51 1467.16 2250.43 1462.58 Q2247.38 1457.97 2247.38 1449.25 Q2247.38 1440.5 2250.43 1435.91 Q2253.51 1431.31 2259.32 1431.31 Z" fill="#000000" fill-rule="evenodd" fill-opacity="1" /><path clip-path="url(#clip310)" d="M2450.14 1462.56 L2457.78 1462.56 L2457.78 1436.19 L2449.47 1437.86 L2449.47 1433.6 L2457.74 1431.93 L2462.41 1431.93 L2462.41 1462.56 L2470.05 1462.56 L2470.05 1466.49 L2450.14 1466.49 L2450.14 1462.56 Z" fill="#000000" fill-rule="evenodd" fill-opacity="1" /><path clip-path="url(#clip310)" d="M2489.5 1435.01 Q2485.88 1435.01 2484.06 1438.58 Q2482.25 1442.12 2482.25 1449.25 Q2482.25 1456.35 2484.06 1459.92 Q2485.88 1463.46 2489.5 1463.46 Q2493.13 1463.46 2494.94 1459.92 Q2496.76 1456.35 2496.76 1449.25 Q2496.76 1442.12 2494.94 1438.58 Q2493.13 1435.01 2489.5 1435.01 M2489.5 1431.31 Q2495.31 1431.31 2498.36 1435.91 Q2501.44 1440.5 2501.44 1449.25 Q2501.44 1457.97 2498.36 1462.58 Q2495.31 1467.16 2489.5 1467.16 Q2483.69 1467.16 2480.61 1462.58 Q2477.55 1457.97 2477.55 1449.25 Q2477.55 1440.5 2480.61 1435.91 Q2483.69 1431.31 2489.5 1431.31 Z" fill="#000000" fill-rule="evenodd" fill-opacity="1" /><path clip-path="url(#clip310)" d="M2519.66 1435.01 Q2516.05 1435.01 2514.22 1438.58 Q2512.41 1442.12 2512.41 1449.25 Q2512.41 1456.35 2514.22 1459.92 Q2516.05 1463.46 2519.66 1463.46 Q2523.29 1463.46 2525.1 1459.92 Q2526.93 1456.35 2526.93 1449.25 Q2526.93 1442.12 2525.1 1438.58 Q2523.29 1435.01 2519.66 1435.01 M2519.66 1431.31 Q2525.47 1431.31 2528.52 1435.91 Q2531.6 1440.5 2531.6 1449.25 Q2531.6 1457.97 2528.52 1462.58 Q2525.47 1467.16 2519.66 1467.16 Q2513.85 1467.16 2510.77 1462.58 Q2507.71 1457.97 2507.71 1449.25 Q2507.71 1440.5 2510.77 1435.91 Q2513.85 1431.31 2519.66 1431.31 Z" fill="#000000" fill-rule="evenodd" fill-opacity="1" /><path clip-path="url(#clip310)" d="M1923.7 1556.54 L1923.7 1575.44 L1917.81 1575.44 L1917.81 1526.24 L1923.7 1526.24 L1923.7 1531.65 Q1925.54 1528.46 1928.34 1526.94 Q1931.18 1525.38 1935.09 1525.38 Q1941.58 1525.38 1945.63 1530.53 Q1949.7 1535.69 1949.7 1544.09 Q1949.7 1552.49 1945.63 1557.65 Q1941.58 1562.81 1935.09 1562.81 Q1931.18 1562.81 1928.34 1561.28 Q1925.54 1559.72 1923.7 1556.54 M1943.62 1544.09 Q1943.62 1537.63 1940.95 1533.97 Q1938.31 1530.28 1933.66 1530.28 Q1929.01 1530.28 1926.34 1533.97 Q1923.7 1537.63 1923.7 1544.09 Q1923.7 1550.55 1926.34 1554.24 Q1929.01 1557.91 1933.66 1557.91 Q1938.31 1557.91 1940.95 1554.24 Q1943.62 1550.55 1943.62 1544.09 Z" fill="#000000" fill-rule="evenodd" fill-opacity="1" /><path clip-path="url(#clip310)" d="M1986.49 1572.71 L1986.49 1577.26 L1952.63 1577.26 L1952.63 1572.71 L1986.49 1572.71 Z" fill="#000000" fill-rule="evenodd" fill-opacity="1" /><path clip-path="url(#clip310)" d="M2006.58 1518.6 Q2001.61 1518.6 1999.1 1523.5 Q1996.62 1528.37 1996.62 1538.17 Q1996.62 1547.94 1999.1 1552.84 Q2001.61 1557.71 2006.58 1557.71 Q2011.58 1557.71 2014.06 1552.84 Q2016.57 1547.94 2016.57 1538.17 Q2016.57 1528.37 2014.06 1523.5 Q2011.58 1518.6 2006.58 1518.6 M2006.58 1513.5 Q2014.57 1513.5 2018.77 1519.84 Q2023 1526.14 2023 1538.17 Q2023 1550.17 2018.77 1556.5 Q2014.57 1562.81 2006.58 1562.81 Q1998.59 1562.81 1994.36 1556.5 Q1990.15 1550.17 1990.15 1538.17 Q1990.15 1526.14 1994.36 1519.84 Q1998.59 1513.5 2006.58 1513.5 Z" fill="#000000" fill-rule="evenodd" fill-opacity="1" /><path clip-path="url(#clip310)" d="M2068.26 1512.42 Q2064 1519.74 2061.93 1526.9 Q2059.86 1534.07 2059.86 1541.42 Q2059.86 1548.77 2061.93 1556 Q2064.03 1563.19 2068.26 1570.48 L2063.17 1570.48 Q2058.4 1563 2056.01 1555.77 Q2053.65 1548.55 2053.65 1541.42 Q2053.65 1534.32 2056.01 1527.13 Q2058.36 1519.93 2063.17 1512.42 L2068.26 1512.42 Z" fill="#000000" fill-rule="evenodd" fill-opacity="1" /><path clip-path="url(#clip310)" d="M2079.4 1512.36 L2085.29 1512.36 L2085.29 1541.61 L2102.76 1526.24 L2110.24 1526.24 L2091.34 1542.91 L2111.04 1561.88 L2103.4 1561.88 L2085.29 1544.47 L2085.29 1561.88 L2079.4 1561.88 L2079.4 1512.36 Z" fill="#000000" fill-rule="evenodd" fill-opacity="1" /><path clip-path="url(#clip310)" d="M2124.06 1519.65 L2124.06 1537.5 L2132.14 1537.5 Q2136.63 1537.5 2139.08 1535.18 Q2141.53 1532.86 2141.53 1528.56 Q2141.53 1524.29 2139.08 1521.97 Q2136.63 1519.65 2132.14 1519.65 L2124.06 1519.65 M2117.63 1514.36 L2132.14 1514.36 Q2140.13 1514.36 2144.2 1517.99 Q2148.31 1521.59 2148.31 1528.56 Q2148.31 1535.59 2144.2 1539.19 Q2140.13 1542.79 2132.14 1542.79 L2124.06 1542.79 L2124.06 1561.88 L2117.63 1561.88 L2117.63 1514.36 Z" fill="#000000" fill-rule="evenodd" fill-opacity="1" /><path clip-path="url(#clip310)" d="M2169.95 1543.96 Q2162.86 1543.96 2160.12 1545.59 Q2157.38 1547.21 2157.38 1551.13 Q2157.38 1554.24 2159.42 1556.09 Q2161.49 1557.91 2165.02 1557.91 Q2169.89 1557.91 2172.82 1554.47 Q2175.78 1551 2175.78 1545.27 L2175.78 1543.96 L2169.95 1543.96 M2181.64 1541.55 L2181.64 1561.88 L2175.78 1561.88 L2175.78 1556.47 Q2173.77 1559.72 2170.78 1561.28 Q2167.79 1562.81 2163.46 1562.81 Q2157.99 1562.81 2154.74 1559.75 Q2151.53 1556.66 2151.53 1551.51 Q2151.53 1545.49 2155.54 1542.44 Q2159.58 1539.38 2167.57 1539.38 L2175.78 1539.38 L2175.78 1538.81 Q2175.78 1534.77 2173.11 1532.57 Q2170.46 1530.34 2165.66 1530.34 Q2162.6 1530.34 2159.71 1531.07 Q2156.81 1531.81 2154.14 1533.27 L2154.14 1527.86 Q2157.35 1526.62 2160.37 1526.01 Q2163.4 1525.38 2166.26 1525.38 Q2174 1525.38 2177.82 1529.39 Q2181.64 1533.4 2181.64 1541.55 Z" fill="#000000" fill-rule="evenodd" fill-opacity="1" /><path clip-path="url(#clip310)" d="M2192.78 1512.42 L2197.87 1512.42 Q2202.64 1519.93 2205 1527.13 Q2207.38 1534.32 2207.38 1541.42 Q2207.38 1548.55 2205 1555.77 Q2202.64 1563 2197.87 1570.48 L2192.78 1570.48 Q2197.01 1563.19 2199.08 1556 Q2201.18 1548.77 2201.18 1541.42 Q2201.18 1534.07 2199.08 1526.9 Q2197.01 1519.74 2192.78 1512.42 Z" fill="#000000" fill-rule="evenodd" fill-opacity="1" /><polyline clip-path="url(#clip313)" style="stroke:#000000; stroke-linecap:butt; stroke-linejoin:round; stroke-width:2; stroke-opacity:0.1; fill:none" points="
  1568.76,1358.19 2556.43,1358.19 
  "/>
<polyline clip-path="url(#clip313)" style="stroke:#000000; stroke-linecap:butt; stroke-linejoin:round; stroke-width:2; stroke-opacity:0.1; fill:none" points="
  1568.76,1067.92 2556.43,1067.92 
  "/>
<polyline clip-path="url(#clip313)" style="stroke:#000000; stroke-linecap:butt; stroke-linejoin:round; stroke-width:2; stroke-opacity:0.1; fill:none" points="
  1568.76,777.646 2556.43,777.646 
  "/>
<polyline clip-path="url(#clip313)" style="stroke:#000000; stroke-linecap:butt; stroke-linejoin:round; stroke-width:2; stroke-opacity:0.1; fill:none" points="
  1568.76,487.375 2556.43,487.375 
  "/>
<polyline clip-path="url(#clip313)" style="stroke:#000000; stroke-linecap:butt; stroke-linejoin:round; stroke-width:2; stroke-opacity:0.1; fill:none" points="
  1568.76,197.105 2556.43,197.105 
  "/>
<polyline clip-path="url(#clip310)" style="stroke:#000000; stroke-linecap:butt; stroke-linejoin:round; stroke-width:4; stroke-opacity:1; fill:none" points="
  1568.76,1393.02 1568.76,162.272 
  "/>
<polyline clip-path="url(#clip310)" style="stroke:#000000; stroke-linecap:butt; stroke-linejoin:round; stroke-width:4; stroke-opacity:1; fill:none" points="
  1568.76,1358.19 1587.66,1358.19 
  "/>
<polyline clip-path="url(#clip310)" style="stroke:#000000; stroke-linecap:butt; stroke-linejoin:round; stroke-width:4; stroke-opacity:1; fill:none" points="
  1568.76,1067.92 1587.66,1067.92 
  "/>
<polyline clip-path="url(#clip310)" style="stroke:#000000; stroke-linecap:butt; stroke-linejoin:round; stroke-width:4; stroke-opacity:1; fill:none" points="
  1568.76,777.646 1587.66,777.646 
  "/>
<polyline clip-path="url(#clip310)" style="stroke:#000000; stroke-linecap:butt; stroke-linejoin:round; stroke-width:4; stroke-opacity:1; fill:none" points="
  1568.76,487.375 1587.66,487.375 
  "/>
<polyline clip-path="url(#clip310)" style="stroke:#000000; stroke-linecap:butt; stroke-linejoin:round; stroke-width:4; stroke-opacity:1; fill:none" points="
  1568.76,197.105 1587.66,197.105 
  "/>
<path clip-path="url(#clip310)" d="M1496.82 1343.99 Q1493.21 1343.99 1491.38 1347.55 Q1489.57 1351.09 1489.57 1358.22 Q1489.57 1365.33 1491.38 1368.89 Q1493.21 1372.43 1496.82 1372.43 Q1500.45 1372.43 1502.26 1368.89 Q1504.09 1365.33 1504.09 1358.22 Q1504.09 1351.09 1502.26 1347.55 Q1500.45 1343.99 1496.82 1343.99 M1496.82 1340.28 Q1502.63 1340.28 1505.68 1344.89 Q1508.76 1349.47 1508.76 1358.22 Q1508.76 1366.95 1505.68 1371.56 Q1502.63 1376.14 1496.82 1376.14 Q1491.01 1376.14 1487.93 1371.56 Q1484.87 1366.95 1484.87 1358.22 Q1484.87 1349.47 1487.93 1344.89 Q1491.01 1340.28 1496.82 1340.28 Z" fill="#000000" fill-rule="evenodd" fill-opacity="1" /><path clip-path="url(#clip310)" d="M1488.86 1081.26 L1496.49 1081.26 L1496.49 1054.9 L1488.18 1056.56 L1488.18 1052.3 L1496.45 1050.64 L1501.12 1050.64 L1501.12 1081.26 L1508.76 1081.26 L1508.76 1085.2 L1488.86 1085.2 L1488.86 1081.26 Z" fill="#000000" fill-rule="evenodd" fill-opacity="1" /><path clip-path="url(#clip310)" d="M1492.44 790.991 L1508.76 790.991 L1508.76 794.926 L1486.82 794.926 L1486.82 790.991 Q1489.48 788.236 1494.06 783.607 Q1498.67 778.954 1499.85 777.611 Q1502.1 775.088 1502.98 773.352 Q1503.88 771.593 1503.88 769.903 Q1503.88 767.148 1501.93 765.412 Q1500.01 763.676 1496.91 763.676 Q1494.71 763.676 1492.26 764.44 Q1489.83 765.204 1487.05 766.755 L1487.05 762.033 Q1489.87 760.898 1492.33 760.32 Q1494.78 759.741 1496.82 759.741 Q1502.19 759.741 1505.38 762.426 Q1508.58 765.111 1508.58 769.602 Q1508.58 771.732 1507.77 773.653 Q1506.98 775.551 1504.87 778.144 Q1504.3 778.815 1501.19 782.033 Q1498.09 785.227 1492.44 790.991 Z" fill="#000000" fill-rule="evenodd" fill-opacity="1" /><path clip-path="url(#clip310)" d="M1501.63 486.021 Q1504.99 486.739 1506.86 489.007 Q1508.76 491.276 1508.76 494.609 Q1508.76 499.725 1505.24 502.526 Q1501.73 505.327 1495.24 505.327 Q1493.07 505.327 1490.75 504.887 Q1488.46 504.47 1486.01 503.614 L1486.01 499.1 Q1487.95 500.234 1490.27 500.813 Q1492.58 501.391 1495.11 501.391 Q1499.5 501.391 1501.8 499.655 Q1504.11 497.919 1504.11 494.609 Q1504.11 491.554 1501.96 489.841 Q1499.83 488.105 1496.01 488.105 L1491.98 488.105 L1491.98 484.262 L1496.19 484.262 Q1499.64 484.262 1501.47 482.896 Q1503.3 481.507 1503.3 478.915 Q1503.3 476.253 1501.4 474.841 Q1499.53 473.406 1496.01 473.406 Q1494.09 473.406 1491.89 473.822 Q1489.69 474.239 1487.05 475.118 L1487.05 470.952 Q1489.71 470.211 1492.03 469.841 Q1494.36 469.47 1496.42 469.47 Q1501.75 469.47 1504.85 471.901 Q1507.95 474.308 1507.95 478.429 Q1507.95 481.299 1506.31 483.29 Q1504.67 485.257 1501.63 486.021 Z" fill="#000000" fill-rule="evenodd" fill-opacity="1" /><path clip-path="url(#clip310)" d="M1499.18 183.899 L1487.37 202.348 L1499.18 202.348 L1499.18 183.899 M1497.95 179.825 L1503.83 179.825 L1503.83 202.348 L1508.76 202.348 L1508.76 206.237 L1503.83 206.237 L1503.83 214.385 L1499.18 214.385 L1499.18 206.237 L1483.58 206.237 L1483.58 201.723 L1497.95 179.825 Z" fill="#000000" fill-rule="evenodd" fill-opacity="1" /><path clip-path="url(#clip310)" d="M1373.67 876.171 L1373.67 848.353 L1379.02 848.353 L1404.64 870.378 L1404.64 848.353 L1409.32 848.353 L1409.32 876.967 L1403.97 876.967 L1378.35 854.942 L1378.35 876.171 L1373.67 876.171 Z" fill="#000000" fill-rule="evenodd" fill-opacity="1" /><path clip-path="url(#clip310)" d="M1359.86 804.621 Q1367.18 808.886 1374.34 810.955 Q1381.5 813.023 1388.86 813.023 Q1396.21 813.023 1403.43 810.955 Q1410.63 808.854 1417.92 804.621 L1417.92 809.713 Q1410.44 814.488 1403.21 816.875 Q1395.99 819.23 1388.86 819.23 Q1381.76 819.23 1374.56 816.875 Q1367.37 814.519 1359.86 809.713 L1359.86 804.621 Z" fill="#000000" fill-rule="evenodd" fill-opacity="1" /><path clip-path="url(#clip310)" d="M1359.8 793.481 L1359.8 787.592 L1389.05 787.592 L1373.67 770.119 L1373.67 762.639 L1390.35 781.545 L1409.32 761.843 L1409.32 769.482 L1391.91 787.592 L1409.32 787.592 L1409.32 793.481 L1359.8 793.481 Z" fill="#000000" fill-rule="evenodd" fill-opacity="1" /><path clip-path="url(#clip310)" d="M1380.52 727.755 Q1376.57 725.559 1374.69 722.503 Q1372.81 719.448 1372.81 715.31 Q1372.81 709.74 1376.73 706.716 Q1380.61 703.692 1387.81 703.692 L1409.32 703.692 L1409.32 709.581 L1388 709.581 Q1382.87 709.581 1380.39 711.395 Q1377.91 713.209 1377.91 716.933 Q1377.91 721.485 1380.93 724.126 Q1383.95 726.768 1389.17 726.768 L1409.32 726.768 L1409.32 732.656 L1388 732.656 Q1382.84 732.656 1380.39 734.471 Q1377.91 736.285 1377.91 740.072 Q1377.91 744.56 1380.96 747.202 Q1383.99 749.844 1389.17 749.844 L1409.32 749.844 L1409.32 755.732 L1373.67 755.732 L1373.67 749.844 L1379.21 749.844 Q1375.93 747.839 1374.37 745.038 Q1372.81 742.237 1372.81 738.385 Q1372.81 734.502 1374.79 731.797 Q1376.76 729.06 1380.52 727.755 Z" fill="#000000" fill-rule="evenodd" fill-opacity="1" /><path clip-path="url(#clip310)" d="M1359.86 692.934 L1359.86 687.842 Q1367.37 683.067 1374.56 680.712 Q1381.76 678.325 1388.86 678.325 Q1395.99 678.325 1403.21 680.712 Q1410.44 683.067 1417.92 687.842 L1417.92 692.934 Q1410.63 688.701 1403.43 686.632 Q1396.21 684.532 1388.86 684.532 Q1381.5 684.532 1374.34 686.632 Q1367.18 688.701 1359.86 692.934 Z" fill="#000000" fill-rule="evenodd" fill-opacity="1" /><path clip-path="url(#clip310)" d="M1885.82 65.7705 L1885.82 89.8329 L1878.32 89.8329 L1878.32 27.2059 L1885.82 27.2059 L1885.82 34.0924 Q1888.16 30.0415 1891.73 28.0971 Q1895.33 26.1121 1900.32 26.1121 Q1908.58 26.1121 1913.73 32.6746 Q1918.91 39.2371 1918.91 49.9314 Q1918.91 60.6258 1913.73 67.1883 Q1908.58 73.7508 1900.32 73.7508 Q1895.33 73.7508 1891.73 71.8063 Q1888.16 69.8214 1885.82 65.7705 M1911.17 49.9314 Q1911.17 41.7081 1907.77 37.0496 Q1904.41 32.3505 1898.49 32.3505 Q1892.58 32.3505 1889.18 37.0496 Q1885.82 41.7081 1885.82 49.9314 Q1885.82 58.1548 1889.18 62.8538 Q1892.58 67.5124 1898.49 67.5124 Q1904.41 67.5124 1907.77 62.8538 Q1911.17 58.1548 1911.17 49.9314 Z" fill="#000000" fill-rule="evenodd" fill-opacity="1" /><path clip-path="url(#clip310)" d="M1965.74 86.3491 L1965.74 92.1419 L1922.64 92.1419 L1922.64 86.3491 L1965.74 86.3491 Z" fill="#000000" fill-rule="evenodd" fill-opacity="1" /><path clip-path="url(#clip310)" d="M1991.3 17.4837 Q1984.98 17.4837 1981.78 23.7221 Q1978.62 29.92 1978.62 42.3968 Q1978.62 54.833 1981.78 61.0714 Q1984.98 67.2693 1991.3 67.2693 Q1997.66 67.2693 2000.82 61.0714 Q2004.02 54.833 2004.02 42.3968 Q2004.02 29.92 2000.82 23.7221 Q1997.66 17.4837 1991.3 17.4837 M1991.3 11.0023 Q2001.47 11.0023 2006.82 19.0636 Q2012.2 27.0843 2012.2 42.3968 Q2012.2 57.6687 2006.82 65.73 Q2001.47 73.7508 1991.3 73.7508 Q1981.13 73.7508 1975.75 65.73 Q1970.4 57.6687 1970.4 42.3968 Q1970.4 27.0843 1975.75 19.0636 Q1981.13 11.0023 1991.3 11.0023 Z" fill="#000000" fill-rule="evenodd" fill-opacity="1" /><path clip-path="url(#clip310)" d="M2069.81 9.62495 Q2064.38 18.942 2061.75 28.0566 Q2059.11 37.1711 2059.11 46.5287 Q2059.11 55.8863 2061.75 65.0818 Q2064.42 74.2369 2069.81 83.5134 L2063.33 83.5134 Q2057.25 73.9938 2054.21 64.7983 Q2051.21 55.6027 2051.21 46.5287 Q2051.21 37.4952 2054.21 28.3401 Q2057.21 19.1851 2063.33 9.62495 L2069.81 9.62495 Z" fill="#000000" fill-rule="evenodd" fill-opacity="1" /><path clip-path="url(#clip310)" d="M2083.99 9.54393 L2091.48 9.54393 L2091.48 46.7717 L2113.72 27.2059 L2123.24 27.2059 L2099.18 48.4326 L2124.25 72.576 L2114.53 72.576 L2091.48 50.4176 L2091.48 72.576 L2083.99 72.576 L2083.99 9.54393 Z" fill="#000000" fill-rule="evenodd" fill-opacity="1" /><path clip-path="url(#clip310)" d="M2140.82 18.8205 L2140.82 41.5461 L2151.11 41.5461 Q2156.82 41.5461 2159.94 38.5889 Q2163.06 35.6318 2163.06 30.163 Q2163.06 24.7348 2159.94 21.7777 Q2156.82 18.8205 2151.11 18.8205 L2140.82 18.8205 M2132.64 12.096 L2151.11 12.096 Q2161.28 12.096 2166.46 16.714 Q2171.69 21.2916 2171.69 30.163 Q2171.69 39.1155 2166.46 43.6931 Q2161.28 48.2706 2151.11 48.2706 L2140.82 48.2706 L2140.82 72.576 L2132.64 72.576 L2132.64 12.096 Z" fill="#000000" fill-rule="evenodd" fill-opacity="1" /><path clip-path="url(#clip310)" d="M2199.23 49.7694 Q2190.2 49.7694 2186.72 51.8354 Q2183.23 53.9013 2183.23 58.8839 Q2183.23 62.8538 2185.83 65.2034 Q2188.46 67.5124 2192.95 67.5124 Q2199.15 67.5124 2202.88 63.1374 Q2206.65 58.7219 2206.65 51.4303 L2206.65 49.7694 L2199.23 49.7694 M2214.1 46.6907 L2214.1 72.576 L2206.65 72.576 L2206.65 65.6895 Q2204.09 69.8214 2200.29 71.8063 Q2196.48 73.7508 2190.97 73.7508 Q2184 73.7508 2179.87 69.8619 Q2175.78 65.9325 2175.78 59.3701 Q2175.78 51.7138 2180.88 47.825 Q2186.03 43.9361 2196.2 43.9361 L2206.65 43.9361 L2206.65 43.2069 Q2206.65 38.0623 2203.24 35.2672 Q2199.88 32.4315 2193.76 32.4315 Q2189.88 32.4315 2186.19 33.3632 Q2182.5 34.295 2179.1 36.1584 L2179.1 29.2718 Q2183.19 27.692 2187.04 26.9223 Q2190.89 26.1121 2194.53 26.1121 Q2204.38 26.1121 2209.24 31.2163 Q2214.1 36.3204 2214.1 46.6907 Z" fill="#000000" fill-rule="evenodd" fill-opacity="1" /><path clip-path="url(#clip310)" d="M2228.28 9.62495 L2234.76 9.62495 Q2240.84 19.1851 2243.83 28.3401 Q2246.87 37.4952 2246.87 46.5287 Q2246.87 55.6027 2243.83 64.7983 Q2240.84 73.9938 2234.76 83.5134 L2228.28 83.5134 Q2233.67 74.2369 2236.3 65.0818 Q2238.97 55.8863 2238.97 46.5287 Q2238.97 37.1711 2236.3 28.0566 Q2233.67 18.942 2228.28 9.62495 Z" fill="#000000" fill-rule="evenodd" fill-opacity="1" /><polyline clip-path="url(#clip313)" style="stroke:#009af9; stroke-linecap:butt; stroke-linejoin:round; stroke-width:4; stroke-opacity:1; fill:none" points="
  2521.45,1350.93 2507.43,1336.42 2493.48,1321.9 2479.6,1307.39 2465.79,1292.88 2452.04,1278.36 2438.36,1263.85 2424.74,1249.34 2411.19,1234.82 2397.7,1220.31 
  2384.28,1205.8 2370.93,1191.28 2357.64,1176.77 2344.41,1162.25 2331.25,1147.74 2318.15,1133.23 2305.11,1118.71 2292.14,1104.2 2279.23,1089.69 2266.38,1075.17 
  2253.6,1060.66 2240.88,1046.15 2228.22,1031.63 2215.62,1017.12 2203.08,1002.61 2190.6,988.092 2178.19,973.579 2165.84,959.065 2153.54,944.552 2141.31,930.038 
  2129.14,915.525 2117.03,901.011 2104.97,886.497 2092.98,871.984 2081.05,857.47 2069.17,842.957 2057.35,828.443 2045.6,813.93 2033.89,799.416 2022.25,784.903 
  2010.67,770.389 1999.14,755.876 1987.67,741.362 1976.26,726.849 1964.9,712.335 1953.6,697.822 1942.36,683.308 1931.17,668.794 1920.04,654.281 1908.96,639.767 
  1897.94,625.254 1886.98,610.74 1876.07,596.227 1865.21,581.713 1854.41,567.2 1843.66,552.686 1832.97,538.173 1822.33,523.659 1811.75,509.146 1801.22,494.632 
  1790.74,480.119 1780.31,465.605 1769.94,451.092 1759.62,436.578 1749.35,422.064 1739.13,407.551 1728.97,393.037 1718.85,378.524 1708.79,364.01 1698.78,349.497 
  1688.82,334.983 1678.91,320.47 1669.06,305.956 1659.25,291.443 1649.49,276.929 1639.79,262.416 1630.13,247.902 1620.52,233.389 1610.96,218.875 1601.45,204.361 
  
  "/>
<polyline clip-path="url(#clip313)" style="stroke:#e26f46; stroke-linecap:butt; stroke-linejoin:round; stroke-width:4; stroke-opacity:1; fill:none" points="
  2528.48,1358.19 2514.43,1343.67 2500.45,1329.16 2486.53,1314.65 2472.69,1300.13 2458.9,1285.62 2445.19,1271.11 2431.54,1256.59 2417.96,1242.08 2404.44,1227.57 
  2390.98,1213.05 2377.6,1198.54 2364.27,1184.02 2351.01,1169.51 2337.82,1155 2324.69,1140.48 2311.62,1125.97 2298.62,1111.46 2285.68,1096.94 2272.8,1082.43 
  2259.98,1067.92 2247.23,1053.4 2234.54,1038.89 2221.91,1024.38 2209.34,1009.86 2196.83,995.349 2184.39,980.835 2172.01,966.322 2159.68,951.808 2147.42,937.295 
  2135.22,922.781 2123.08,908.268 2110.99,893.754 2098.97,879.241 2087.01,864.727 2075.1,850.214 2063.26,835.7 2051.47,821.187 2039.74,806.673 2028.07,792.16 
  2016.45,777.646 2004.89,763.132 1993.4,748.619 1981.96,734.105 1970.57,719.592 1959.24,705.078 1947.97,690.565 1936.76,676.051 1925.6,661.538 1914.49,647.024 
  1903.45,632.511 1892.45,617.997 1881.52,603.484 1870.63,588.97 1859.8,574.457 1849.03,559.943 1838.31,545.429 1827.65,530.916 1817.03,516.402 1806.48,501.889 
  1795.97,487.375 1785.52,472.862 1775.12,458.348 1764.77,443.835 1754.48,429.321 1744.23,414.808 1734.04,400.294 1723.9,385.781 1713.82,371.267 1703.78,356.754 
  1693.79,342.24 1683.86,327.727 1673.98,313.213 1664.15,298.699 1654.36,284.186 1644.63,269.672 1634.95,255.159 1625.32,240.645 1615.74,226.132 1606.2,211.618 
  1596.72,197.105 
  "/>
<path clip-path="url(#clip310)" d="
M2241.48 358.817 L2523.51 358.817 L2523.51 203.297 L2241.48 203.297  Z
  " fill="#ffffff" fill-rule="evenodd" fill-opacity="1"/>
<polyline clip-path="url(#clip310)" style="stroke:#000000; stroke-linecap:butt; stroke-linejoin:round; stroke-width:4; stroke-opacity:1; fill:none" points="
  2241.48,358.817 2523.51,358.817 2523.51,203.297 2241.48,203.297 2241.48,358.817 
  "/>
<polyline clip-path="url(#clip310)" style="stroke:#009af9; stroke-linecap:butt; stroke-linejoin:round; stroke-width:4; stroke-opacity:1; fill:none" points="
  2252.45,255.137 2318.3,255.137 
  "/>
<path clip-path="url(#clip310)" d="M2349.78 247.487 L2349.78 251.468 Q2347.97 250.473 2346.14 249.987 Q2344.34 249.477 2342.49 249.477 Q2338.34 249.477 2336.05 252.116 Q2333.76 254.732 2333.76 259.477 Q2333.76 264.223 2336.05 266.862 Q2338.34 269.477 2342.49 269.477 Q2344.34 269.477 2346.14 268.991 Q2347.97 268.482 2349.78 267.487 L2349.78 271.422 Q2348 272.255 2346.07 272.672 Q2344.18 273.088 2342.02 273.088 Q2336.17 273.088 2332.72 269.408 Q2329.27 265.727 2329.27 259.477 Q2329.27 253.135 2332.74 249.501 Q2336.24 245.866 2342.3 245.866 Q2344.27 245.866 2346.14 246.283 Q2348.02 246.677 2349.78 247.487 Z" fill="#000000" fill-rule="evenodd" fill-opacity="1" /><path clip-path="url(#clip310)" d="M2379.36 258.389 L2379.36 260.473 L2359.78 260.473 Q2360.06 264.871 2362.42 267.186 Q2364.8 269.477 2369.04 269.477 Q2371.49 269.477 2373.78 268.876 Q2376.1 268.274 2378.37 267.07 L2378.37 271.098 Q2376.07 272.07 2373.67 272.579 Q2371.26 273.088 2368.78 273.088 Q2362.58 273.088 2358.95 269.477 Q2355.33 265.866 2355.33 259.709 Q2355.33 253.343 2358.76 249.616 Q2362.21 245.866 2368.04 245.866 Q2373.27 245.866 2376.31 249.246 Q2379.36 252.602 2379.36 258.389 M2375.1 257.139 Q2375.06 253.644 2373.13 251.561 Q2371.24 249.477 2368.09 249.477 Q2364.52 249.477 2362.37 251.491 Q2360.24 253.505 2359.92 257.163 L2375.1 257.139 Z" fill="#000000" fill-rule="evenodd" fill-opacity="1" /><path clip-path="url(#clip310)" d="M2407.9 256.769 L2407.9 272.417 L2403.64 272.417 L2403.64 256.908 Q2403.64 253.227 2402.21 251.399 Q2400.77 249.57 2397.9 249.57 Q2394.45 249.57 2392.46 251.769 Q2390.47 253.968 2390.47 257.764 L2390.47 272.417 L2386.19 272.417 L2386.19 246.491 L2390.47 246.491 L2390.47 250.519 Q2392 248.181 2394.06 247.024 Q2396.14 245.866 2398.85 245.866 Q2403.32 245.866 2405.61 248.644 Q2407.9 251.399 2407.9 256.769 Z" fill="#000000" fill-rule="evenodd" fill-opacity="1" /><path clip-path="url(#clip310)" d="M2420.61 239.13 L2420.61 246.491 L2429.38 246.491 L2429.38 249.802 L2420.61 249.802 L2420.61 263.876 Q2420.61 267.047 2421.47 267.95 Q2422.35 268.852 2425.01 268.852 L2429.38 268.852 L2429.38 272.417 L2425.01 272.417 Q2420.08 272.417 2418.2 270.588 Q2416.33 268.737 2416.33 263.876 L2416.33 249.802 L2413.2 249.802 L2413.2 246.491 L2416.33 246.491 L2416.33 239.13 L2420.61 239.13 Z" fill="#000000" fill-rule="evenodd" fill-opacity="1" /><path clip-path="url(#clip310)" d="M2457.16 258.389 L2457.16 260.473 L2437.58 260.473 Q2437.86 264.871 2440.22 267.186 Q2442.6 269.477 2446.84 269.477 Q2449.29 269.477 2451.58 268.876 Q2453.9 268.274 2456.17 267.07 L2456.17 271.098 Q2453.88 272.07 2451.47 272.579 Q2449.06 273.088 2446.58 273.088 Q2440.38 273.088 2436.75 269.477 Q2433.13 265.866 2433.13 259.709 Q2433.13 253.343 2436.56 249.616 Q2440.01 245.866 2445.84 245.866 Q2451.07 245.866 2454.11 249.246 Q2457.16 252.602 2457.16 258.389 M2452.9 257.139 Q2452.86 253.644 2450.94 251.561 Q2449.04 249.477 2445.89 249.477 Q2442.32 249.477 2440.17 251.491 Q2438.04 253.505 2437.72 257.163 L2452.9 257.139 Z" fill="#000000" fill-rule="evenodd" fill-opacity="1" /><path clip-path="url(#clip310)" d="M2479.18 250.473 Q2478.46 250.056 2477.6 249.871 Q2476.77 249.663 2475.75 249.663 Q2472.14 249.663 2470.19 252.024 Q2468.27 254.362 2468.27 258.76 L2468.27 272.417 L2463.99 272.417 L2463.99 246.491 L2468.27 246.491 L2468.27 250.519 Q2469.62 248.158 2471.77 247.024 Q2473.92 245.866 2477 245.866 Q2477.44 245.866 2477.97 245.936 Q2478.5 245.982 2479.15 246.098 L2479.18 250.473 Z" fill="#000000" fill-rule="evenodd" fill-opacity="1" /><path clip-path="url(#clip310)" d="M2500.17 247.255 L2500.17 251.283 Q2498.37 250.357 2496.42 249.894 Q2494.48 249.431 2492.39 249.431 Q2489.22 249.431 2487.62 250.403 Q2486.05 251.376 2486.05 253.32 Q2486.05 254.802 2487.19 255.658 Q2488.32 256.491 2491.75 257.255 L2493.2 257.579 Q2497.74 258.552 2499.64 260.334 Q2501.56 262.093 2501.56 265.264 Q2501.56 268.876 2498.69 270.982 Q2495.84 273.088 2490.84 273.088 Q2488.76 273.088 2486.49 272.672 Q2484.25 272.278 2481.75 271.468 L2481.75 267.07 Q2484.11 268.297 2486.4 268.922 Q2488.69 269.524 2490.94 269.524 Q2493.94 269.524 2495.56 268.505 Q2497.19 267.463 2497.19 265.589 Q2497.19 263.852 2496 262.926 Q2494.85 262.001 2490.89 261.144 L2489.41 260.797 Q2485.45 259.964 2483.69 258.251 Q2481.93 256.514 2481.93 253.505 Q2481.93 249.848 2484.52 247.857 Q2487.12 245.866 2491.88 245.866 Q2494.25 245.866 2496.33 246.214 Q2498.41 246.561 2500.17 247.255 Z" fill="#000000" fill-rule="evenodd" fill-opacity="1" /><polyline clip-path="url(#clip310)" style="stroke:#e26f46; stroke-linecap:butt; stroke-linejoin:round; stroke-width:4; stroke-opacity:1; fill:none" points="
  2252.45,306.977 2318.3,306.977 
  "/>
<path clip-path="url(#clip310)" d="M2345.77 288.239 L2345.77 291.78 L2341.7 291.78 Q2339.41 291.78 2338.51 292.706 Q2337.63 293.632 2337.63 296.04 L2337.63 298.331 L2344.64 298.331 L2344.64 301.642 L2337.63 301.642 L2337.63 324.257 L2333.34 324.257 L2333.34 301.642 L2329.27 301.642 L2329.27 298.331 L2333.34 298.331 L2333.34 296.526 Q2333.34 292.197 2335.36 290.23 Q2337.37 288.239 2341.75 288.239 L2345.77 288.239 Z" fill="#000000" fill-rule="evenodd" fill-opacity="1" /><path clip-path="url(#clip310)" d="M2361.12 311.225 Q2355.96 311.225 2353.97 312.405 Q2351.98 313.586 2351.98 316.433 Q2351.98 318.702 2353.46 320.044 Q2354.96 321.364 2357.53 321.364 Q2361.07 321.364 2363.2 318.864 Q2365.36 316.341 2365.36 312.174 L2365.36 311.225 L2361.12 311.225 M2369.62 309.466 L2369.62 324.257 L2365.36 324.257 L2365.36 320.322 Q2363.9 322.683 2361.72 323.817 Q2359.55 324.928 2356.4 324.928 Q2352.42 324.928 2350.06 322.706 Q2347.72 320.461 2347.72 316.711 Q2347.72 312.336 2350.63 310.114 Q2353.57 307.892 2359.38 307.892 L2365.36 307.892 L2365.36 307.475 Q2365.36 304.535 2363.41 302.938 Q2361.49 301.317 2358 301.317 Q2355.77 301.317 2353.67 301.85 Q2351.56 302.382 2349.62 303.447 L2349.62 299.512 Q2351.95 298.609 2354.15 298.169 Q2356.35 297.706 2358.44 297.706 Q2364.06 297.706 2366.84 300.623 Q2369.62 303.54 2369.62 309.466 Z" fill="#000000" fill-rule="evenodd" fill-opacity="1" /><path clip-path="url(#clip310)" d="M2397.05 299.327 L2397.05 303.308 Q2395.24 302.313 2393.41 301.827 Q2391.61 301.317 2389.76 301.317 Q2385.61 301.317 2383.32 303.956 Q2381.03 306.572 2381.03 311.317 Q2381.03 316.063 2383.32 318.702 Q2385.61 321.317 2389.76 321.317 Q2391.61 321.317 2393.41 320.831 Q2395.24 320.322 2397.05 319.327 L2397.05 323.262 Q2395.26 324.095 2393.34 324.512 Q2391.44 324.928 2389.29 324.928 Q2383.44 324.928 2379.99 321.248 Q2376.54 317.567 2376.54 311.317 Q2376.54 304.975 2380.01 301.341 Q2383.51 297.706 2389.57 297.706 Q2391.54 297.706 2393.41 298.123 Q2395.29 298.517 2397.05 299.327 Z" fill="#000000" fill-rule="evenodd" fill-opacity="1" /><path clip-path="url(#clip310)" d="M2426.63 310.229 L2426.63 312.313 L2407.05 312.313 Q2407.32 316.711 2409.69 319.026 Q2412.07 321.317 2416.31 321.317 Q2418.76 321.317 2421.05 320.716 Q2423.37 320.114 2425.63 318.91 L2425.63 322.938 Q2423.34 323.91 2420.94 324.419 Q2418.53 324.928 2416.05 324.928 Q2409.85 324.928 2406.21 321.317 Q2402.6 317.706 2402.6 311.549 Q2402.6 305.183 2406.03 301.456 Q2409.48 297.706 2415.31 297.706 Q2420.54 297.706 2423.57 301.086 Q2426.63 304.442 2426.63 310.229 M2422.37 308.979 Q2422.32 305.484 2420.4 303.401 Q2418.5 301.317 2415.36 301.317 Q2411.79 301.317 2409.64 303.331 Q2407.51 305.345 2407.19 309.003 L2422.37 308.979 Z" fill="#000000" fill-rule="evenodd" fill-opacity="1" /><path clip-path="url(#clip310)" d="M2450.15 299.095 L2450.15 303.123 Q2448.34 302.197 2446.4 301.734 Q2444.45 301.271 2442.37 301.271 Q2439.2 301.271 2437.6 302.243 Q2436.03 303.216 2436.03 305.16 Q2436.03 306.642 2437.16 307.498 Q2438.3 308.331 2441.72 309.095 L2443.18 309.419 Q2447.72 310.392 2449.62 312.174 Q2451.54 313.933 2451.54 317.104 Q2451.54 320.716 2448.67 322.822 Q2445.82 324.928 2440.82 324.928 Q2438.74 324.928 2436.47 324.512 Q2434.22 324.118 2431.72 323.308 L2431.72 318.91 Q2434.08 320.137 2436.38 320.762 Q2438.67 321.364 2440.91 321.364 Q2443.92 321.364 2445.54 320.345 Q2447.16 319.303 2447.16 317.429 Q2447.16 315.692 2445.98 314.766 Q2444.82 313.841 2440.87 312.984 L2439.38 312.637 Q2435.43 311.804 2433.67 310.091 Q2431.91 308.354 2431.91 305.345 Q2431.91 301.688 2434.5 299.697 Q2437.09 297.706 2441.86 297.706 Q2444.22 297.706 2446.31 298.054 Q2448.39 298.401 2450.15 299.095 Z" fill="#000000" fill-rule="evenodd" fill-opacity="1" /><path clip-path="url(#clip310)" d="
M2902.1 1393.02 L3889.76 1393.02 L3889.76 162.272 L2902.1 162.272  Z
  " fill="#ffffff" fill-rule="evenodd" fill-opacity="1"/>
<defs>
  <clipPath id="clip314">
    <rect x="2902" y="162" width="989" height="1232"/>
  </clipPath>
</defs>
<polyline clip-path="url(#clip314)" style="stroke:#000000; stroke-linecap:butt; stroke-linejoin:round; stroke-width:2; stroke-opacity:0.1; fill:none" points="
  3017.79,1393.02 3017.79,162.272 
  "/>
<polyline clip-path="url(#clip314)" style="stroke:#000000; stroke-linecap:butt; stroke-linejoin:round; stroke-width:2; stroke-opacity:0.1; fill:none" points="
  3230.71,1393.02 3230.71,162.272 
  "/>
<polyline clip-path="url(#clip314)" style="stroke:#000000; stroke-linecap:butt; stroke-linejoin:round; stroke-width:2; stroke-opacity:0.1; fill:none" points="
  3443.63,1393.02 3443.63,162.272 
  "/>
<polyline clip-path="url(#clip314)" style="stroke:#000000; stroke-linecap:butt; stroke-linejoin:round; stroke-width:2; stroke-opacity:0.1; fill:none" points="
  3656.55,1393.02 3656.55,162.272 
  "/>
<polyline clip-path="url(#clip314)" style="stroke:#000000; stroke-linecap:butt; stroke-linejoin:round; stroke-width:2; stroke-opacity:0.1; fill:none" points="
  3869.48,1393.02 3869.48,162.272 
  "/>
<polyline clip-path="url(#clip310)" style="stroke:#000000; stroke-linecap:butt; stroke-linejoin:round; stroke-width:4; stroke-opacity:1; fill:none" points="
  2902.1,1393.02 3889.76,1393.02 
  "/>
<polyline clip-path="url(#clip310)" style="stroke:#000000; stroke-linecap:butt; stroke-linejoin:round; stroke-width:4; stroke-opacity:1; fill:none" points="
  3017.79,1393.02 3017.79,1374.12 
  "/>
<polyline clip-path="url(#clip310)" style="stroke:#000000; stroke-linecap:butt; stroke-linejoin:round; stroke-width:4; stroke-opacity:1; fill:none" points="
  3230.71,1393.02 3230.71,1374.12 
  "/>
<polyline clip-path="url(#clip310)" style="stroke:#000000; stroke-linecap:butt; stroke-linejoin:round; stroke-width:4; stroke-opacity:1; fill:none" points="
  3443.63,1393.02 3443.63,1374.12 
  "/>
<polyline clip-path="url(#clip310)" style="stroke:#000000; stroke-linecap:butt; stroke-linejoin:round; stroke-width:4; stroke-opacity:1; fill:none" points="
  3656.55,1393.02 3656.55,1374.12 
  "/>
<polyline clip-path="url(#clip310)" style="stroke:#000000; stroke-linecap:butt; stroke-linejoin:round; stroke-width:4; stroke-opacity:1; fill:none" points="
  3869.48,1393.02 3869.48,1374.12 
  "/>
<path clip-path="url(#clip310)" d="M2995.26 1435.01 Q2991.65 1435.01 2989.82 1438.58 Q2988.02 1442.12 2988.02 1449.25 Q2988.02 1456.35 2989.82 1459.92 Q2991.65 1463.46 2995.26 1463.46 Q2998.9 1463.46 3000.7 1459.92 Q3002.53 1456.35 3002.53 1449.25 Q3002.53 1442.12 3000.7 1438.58 Q2998.9 1435.01 2995.26 1435.01 M2995.26 1431.31 Q3001.07 1431.31 3004.13 1435.91 Q3007.21 1440.5 3007.21 1449.25 Q3007.21 1457.97 3004.13 1462.58 Q3001.07 1467.16 2995.26 1467.16 Q2989.45 1467.16 2986.38 1462.58 Q2983.32 1457.97 2983.32 1449.25 Q2983.32 1440.5 2986.38 1435.91 Q2989.45 1431.31 2995.26 1431.31 Z" fill="#000000" fill-rule="evenodd" fill-opacity="1" /><path clip-path="url(#clip310)" d="M3015.43 1460.61 L3020.31 1460.61 L3020.31 1466.49 L3015.43 1466.49 L3015.43 1460.61 Z" fill="#000000" fill-rule="evenodd" fill-opacity="1" /><path clip-path="url(#clip310)" d="M3030.63 1465.77 L3030.63 1461.51 Q3032.39 1462.35 3034.2 1462.79 Q3036 1463.23 3037.74 1463.23 Q3042.37 1463.23 3044.8 1460.13 Q3047.25 1457 3047.6 1450.66 Q3046.26 1452.65 3044.2 1453.71 Q3042.14 1454.78 3039.64 1454.78 Q3034.45 1454.78 3031.42 1451.65 Q3028.41 1448.51 3028.41 1443.07 Q3028.41 1437.74 3031.56 1434.52 Q3034.71 1431.31 3039.94 1431.31 Q3045.93 1431.31 3049.08 1435.91 Q3052.25 1440.5 3052.25 1449.25 Q3052.25 1457.42 3048.37 1462.3 Q3044.5 1467.16 3037.95 1467.16 Q3036.19 1467.16 3034.38 1466.82 Q3032.58 1466.47 3030.63 1465.77 M3039.94 1451.12 Q3043.09 1451.12 3044.92 1448.97 Q3046.77 1446.82 3046.77 1443.07 Q3046.77 1439.34 3044.92 1437.19 Q3043.09 1435.01 3039.94 1435.01 Q3036.79 1435.01 3034.94 1437.19 Q3033.11 1439.34 3033.11 1443.07 Q3033.11 1446.82 3034.94 1448.97 Q3036.79 1451.12 3039.94 1451.12 Z" fill="#000000" fill-rule="evenodd" fill-opacity="1" /><path clip-path="url(#clip310)" d="M3197.86 1462.56 L3205.5 1462.56 L3205.5 1436.19 L3197.19 1437.86 L3197.19 1433.6 L3205.45 1431.93 L3210.13 1431.93 L3210.13 1462.56 L3217.77 1462.56 L3217.77 1466.49 L3197.86 1466.49 L3197.86 1462.56 Z" fill="#000000" fill-rule="evenodd" fill-opacity="1" /><path clip-path="url(#clip310)" d="M3227.21 1460.61 L3232.1 1460.61 L3232.1 1466.49 L3227.21 1466.49 L3227.21 1460.61 Z" fill="#000000" fill-rule="evenodd" fill-opacity="1" /><path clip-path="url(#clip310)" d="M3252.28 1435.01 Q3248.67 1435.01 3246.84 1438.58 Q3245.04 1442.12 3245.04 1449.25 Q3245.04 1456.35 3246.84 1459.92 Q3248.67 1463.46 3252.28 1463.46 Q3255.92 1463.46 3257.72 1459.92 Q3259.55 1456.35 3259.55 1449.25 Q3259.55 1442.12 3257.72 1438.58 Q3255.92 1435.01 3252.28 1435.01 M3252.28 1431.31 Q3258.09 1431.31 3261.15 1435.91 Q3264.23 1440.5 3264.23 1449.25 Q3264.23 1457.97 3261.15 1462.58 Q3258.09 1467.16 3252.28 1467.16 Q3246.47 1467.16 3243.39 1462.58 Q3240.34 1457.97 3240.34 1449.25 Q3240.34 1440.5 3243.39 1435.91 Q3246.47 1431.31 3252.28 1431.31 Z" fill="#000000" fill-rule="evenodd" fill-opacity="1" /><path clip-path="url(#clip310)" d="M3411.4 1462.56 L3419.04 1462.56 L3419.04 1436.19 L3410.73 1437.86 L3410.73 1433.6 L3418.99 1431.93 L3423.67 1431.93 L3423.67 1462.56 L3431.31 1462.56 L3431.31 1466.49 L3411.4 1466.49 L3411.4 1462.56 Z" fill="#000000" fill-rule="evenodd" fill-opacity="1" /><path clip-path="url(#clip310)" d="M3440.75 1460.61 L3445.63 1460.61 L3445.63 1466.49 L3440.75 1466.49 L3440.75 1460.61 Z" fill="#000000" fill-rule="evenodd" fill-opacity="1" /><path clip-path="url(#clip310)" d="M3456.63 1462.56 L3464.27 1462.56 L3464.27 1436.19 L3455.96 1437.86 L3455.96 1433.6 L3464.22 1431.93 L3468.9 1431.93 L3468.9 1462.56 L3476.54 1462.56 L3476.54 1466.49 L3456.63 1466.49 L3456.63 1462.56 Z" fill="#000000" fill-rule="evenodd" fill-opacity="1" /><path clip-path="url(#clip310)" d="M3624.51 1462.56 L3632.14 1462.56 L3632.14 1436.19 L3623.83 1437.86 L3623.83 1433.6 L3632.1 1431.93 L3636.77 1431.93 L3636.77 1462.56 L3644.41 1462.56 L3644.41 1466.49 L3624.51 1466.49 L3624.51 1462.56 Z" fill="#000000" fill-rule="evenodd" fill-opacity="1" /><path clip-path="url(#clip310)" d="M3653.86 1460.61 L3658.74 1460.61 L3658.74 1466.49 L3653.86 1466.49 L3653.86 1460.61 Z" fill="#000000" fill-rule="evenodd" fill-opacity="1" /><path clip-path="url(#clip310)" d="M3672.95 1462.56 L3689.27 1462.56 L3689.27 1466.49 L3667.33 1466.49 L3667.33 1462.56 Q3669.99 1459.8 3674.57 1455.17 Q3679.18 1450.52 3680.36 1449.18 Q3682.61 1446.65 3683.49 1444.92 Q3684.39 1443.16 3684.39 1441.47 Q3684.39 1438.71 3682.45 1436.98 Q3680.52 1435.24 3677.42 1435.24 Q3675.22 1435.24 3672.77 1436.01 Q3670.34 1436.77 3667.56 1438.32 L3667.56 1433.6 Q3670.39 1432.46 3672.84 1431.89 Q3675.29 1431.31 3677.33 1431.31 Q3682.7 1431.31 3685.89 1433.99 Q3689.09 1436.68 3689.09 1441.17 Q3689.09 1443.3 3688.28 1445.22 Q3687.49 1447.12 3685.39 1449.71 Q3684.81 1450.38 3681.7 1453.6 Q3678.6 1456.79 3672.95 1462.56 Z" fill="#000000" fill-rule="evenodd" fill-opacity="1" /><path clip-path="url(#clip310)" d="M3836.95 1462.56 L3844.59 1462.56 L3844.59 1436.19 L3836.28 1437.86 L3836.28 1433.6 L3844.55 1431.93 L3849.22 1431.93 L3849.22 1462.56 L3856.86 1462.56 L3856.86 1466.49 L3836.95 1466.49 L3836.95 1462.56 Z" fill="#000000" fill-rule="evenodd" fill-opacity="1" /><path clip-path="url(#clip310)" d="M3866.31 1460.61 L3871.19 1460.61 L3871.19 1466.49 L3866.31 1466.49 L3866.31 1460.61 Z" fill="#000000" fill-rule="evenodd" fill-opacity="1" /><path clip-path="url(#clip310)" d="M3895.54 1447.86 Q3898.9 1448.58 3900.77 1450.84 Q3902.67 1453.11 3902.67 1456.45 Q3902.67 1461.56 3899.15 1464.36 Q3895.63 1467.16 3889.15 1467.16 Q3886.98 1467.16 3884.66 1466.72 Q3882.37 1466.31 3879.92 1465.45 L3879.92 1460.94 Q3881.86 1462.07 3884.18 1462.65 Q3886.49 1463.23 3889.01 1463.23 Q3893.41 1463.23 3895.7 1461.49 Q3898.02 1459.76 3898.02 1456.45 Q3898.02 1453.39 3895.87 1451.68 Q3893.74 1449.94 3889.92 1449.94 L3885.89 1449.94 L3885.89 1446.1 L3890.1 1446.1 Q3893.55 1446.1 3895.38 1444.73 Q3897.21 1443.34 3897.21 1440.75 Q3897.21 1438.09 3895.31 1436.68 Q3893.43 1435.24 3889.92 1435.24 Q3887.99 1435.24 3885.8 1435.66 Q3883.6 1436.08 3880.96 1436.95 L3880.96 1432.79 Q3883.62 1432.05 3885.93 1431.68 Q3888.27 1431.31 3890.33 1431.31 Q3895.66 1431.31 3898.76 1433.74 Q3901.86 1436.14 3901.86 1440.27 Q3901.86 1443.14 3900.22 1445.13 Q3898.57 1447.09 3895.54 1447.86 Z" fill="#000000" fill-rule="evenodd" fill-opacity="1" /><path clip-path="url(#clip310)" d="M3364.71 1545.3 L3363.31 1537.95 Q3361.87 1530.41 3356.21 1530.41 Q3351.94 1530.41 3350 1533.91 Q3347.55 1538.3 3347.55 1544.09 Q3347.55 1551.09 3349.94 1554.44 Q3352.36 1557.84 3356.21 1557.84 Q3360.47 1557.84 3362.76 1551.06 L3364.71 1545.3 M3367.98 1535.56 L3371.14 1526.24 L3376.36 1526.24 L3369.83 1545.56 L3371.1 1552.53 Q3371.39 1554.09 3372.5 1555.39 Q3373.81 1556.92 3374.83 1556.92 L3377.63 1556.92 L3377.63 1561.88 L3374.13 1561.88 Q3371.14 1561.88 3368.46 1559.21 Q3367.16 1557.87 3366.62 1555.07 Q3365.15 1558.61 3362.16 1561.37 Q3360.76 1562.68 3356.21 1562.68 Q3348.73 1562.68 3345.1 1557.84 Q3341.38 1552.84 3341.38 1544.09 Q3341.38 1534.73 3345.42 1530.34 Q3349.91 1525.44 3356.21 1525.44 Q3366.11 1525.44 3367.98 1535.56 Z" fill="#000000" fill-rule="evenodd" fill-opacity="1" /><path clip-path="url(#clip310)" d="M3413.98 1572.71 L3413.98 1577.26 L3380.11 1577.26 L3380.11 1572.71 L3413.98 1572.71 Z" fill="#000000" fill-rule="evenodd" fill-opacity="1" /><path clip-path="url(#clip310)" d="M3434.06 1518.6 Q3429.1 1518.6 3426.58 1523.5 Q3424.1 1528.37 3424.1 1538.17 Q3424.1 1547.94 3426.58 1552.84 Q3429.1 1557.71 3434.06 1557.71 Q3439.06 1557.71 3441.54 1552.84 Q3444.05 1547.94 3444.05 1538.17 Q3444.05 1528.37 3441.54 1523.5 Q3439.06 1518.6 3434.06 1518.6 M3434.06 1513.5 Q3442.05 1513.5 3446.25 1519.84 Q3450.48 1526.14 3450.48 1538.17 Q3450.48 1550.17 3446.25 1556.5 Q3442.05 1562.81 3434.06 1562.81 Q3426.07 1562.81 3421.84 1556.5 Q3417.64 1550.17 3417.64 1538.17 Q3417.64 1526.14 3421.84 1519.84 Q3426.07 1513.5 3434.06 1513.5 Z" fill="#000000" fill-rule="evenodd" fill-opacity="1" /><polyline clip-path="url(#clip314)" style="stroke:#000000; stroke-linecap:butt; stroke-linejoin:round; stroke-width:2; stroke-opacity:0.1; fill:none" points="
  2902.1,1358.19 3889.76,1358.19 
  "/>
<polyline clip-path="url(#clip314)" style="stroke:#000000; stroke-linecap:butt; stroke-linejoin:round; stroke-width:2; stroke-opacity:0.1; fill:none" points="
  2902.1,1067.92 3889.76,1067.92 
  "/>
<polyline clip-path="url(#clip314)" style="stroke:#000000; stroke-linecap:butt; stroke-linejoin:round; stroke-width:2; stroke-opacity:0.1; fill:none" points="
  2902.1,777.646 3889.76,777.646 
  "/>
<polyline clip-path="url(#clip314)" style="stroke:#000000; stroke-linecap:butt; stroke-linejoin:round; stroke-width:2; stroke-opacity:0.1; fill:none" points="
  2902.1,487.375 3889.76,487.375 
  "/>
<polyline clip-path="url(#clip314)" style="stroke:#000000; stroke-linecap:butt; stroke-linejoin:round; stroke-width:2; stroke-opacity:0.1; fill:none" points="
  2902.1,197.105 3889.76,197.105 
  "/>
<polyline clip-path="url(#clip310)" style="stroke:#000000; stroke-linecap:butt; stroke-linejoin:round; stroke-width:4; stroke-opacity:1; fill:none" points="
  2902.1,1393.02 2902.1,162.272 
  "/>
<polyline clip-path="url(#clip310)" style="stroke:#000000; stroke-linecap:butt; stroke-linejoin:round; stroke-width:4; stroke-opacity:1; fill:none" points="
  2902.1,1358.19 2920.99,1358.19 
  "/>
<polyline clip-path="url(#clip310)" style="stroke:#000000; stroke-linecap:butt; stroke-linejoin:round; stroke-width:4; stroke-opacity:1; fill:none" points="
  2902.1,1067.92 2920.99,1067.92 
  "/>
<polyline clip-path="url(#clip310)" style="stroke:#000000; stroke-linecap:butt; stroke-linejoin:round; stroke-width:4; stroke-opacity:1; fill:none" points="
  2902.1,777.646 2920.99,777.646 
  "/>
<polyline clip-path="url(#clip310)" style="stroke:#000000; stroke-linecap:butt; stroke-linejoin:round; stroke-width:4; stroke-opacity:1; fill:none" points="
  2902.1,487.375 2920.99,487.375 
  "/>
<polyline clip-path="url(#clip310)" style="stroke:#000000; stroke-linecap:butt; stroke-linejoin:round; stroke-width:4; stroke-opacity:1; fill:none" points="
  2902.1,197.105 2920.99,197.105 
  "/>
<path clip-path="url(#clip310)" d="M2830.15 1343.99 Q2826.54 1343.99 2824.71 1347.55 Q2822.91 1351.09 2822.91 1358.22 Q2822.91 1365.33 2824.71 1368.89 Q2826.54 1372.43 2830.15 1372.43 Q2833.79 1372.43 2835.59 1368.89 Q2837.42 1365.33 2837.42 1358.22 Q2837.42 1351.09 2835.59 1347.55 Q2833.79 1343.99 2830.15 1343.99 M2830.15 1340.28 Q2835.96 1340.28 2839.02 1344.89 Q2842.1 1349.47 2842.1 1358.22 Q2842.1 1366.95 2839.02 1371.56 Q2835.96 1376.14 2830.15 1376.14 Q2824.34 1376.14 2821.26 1371.56 Q2818.21 1366.95 2818.21 1358.22 Q2818.21 1349.47 2821.26 1344.89 Q2824.34 1340.28 2830.15 1340.28 Z" fill="#000000" fill-rule="evenodd" fill-opacity="1" /><path clip-path="url(#clip310)" d="M2822.19 1081.26 L2829.83 1081.26 L2829.83 1054.9 L2821.52 1056.56 L2821.52 1052.3 L2829.78 1050.64 L2834.46 1050.64 L2834.46 1081.26 L2842.1 1081.26 L2842.1 1085.2 L2822.19 1085.2 L2822.19 1081.26 Z" fill="#000000" fill-rule="evenodd" fill-opacity="1" /><path clip-path="url(#clip310)" d="M2825.78 790.991 L2842.1 790.991 L2842.1 794.926 L2820.15 794.926 L2820.15 790.991 Q2822.81 788.236 2827.4 783.607 Q2832 778.954 2833.18 777.611 Q2835.43 775.088 2836.31 773.352 Q2837.21 771.593 2837.21 769.903 Q2837.21 767.148 2835.27 765.412 Q2833.35 763.676 2830.24 763.676 Q2828.05 763.676 2825.59 764.44 Q2823.16 765.204 2820.38 766.755 L2820.38 762.033 Q2823.21 760.898 2825.66 760.32 Q2828.11 759.741 2830.15 759.741 Q2835.52 759.741 2838.72 762.426 Q2841.91 765.111 2841.91 769.602 Q2841.91 771.732 2841.1 773.653 Q2840.31 775.551 2838.21 778.144 Q2837.63 778.815 2834.53 782.033 Q2831.42 785.227 2825.78 790.991 Z" fill="#000000" fill-rule="evenodd" fill-opacity="1" /><path clip-path="url(#clip310)" d="M2834.97 486.021 Q2838.32 486.739 2840.2 489.007 Q2842.1 491.276 2842.1 494.609 Q2842.1 499.725 2838.58 502.526 Q2835.06 505.327 2828.58 505.327 Q2826.4 505.327 2824.09 504.887 Q2821.8 504.47 2819.34 503.614 L2819.34 499.1 Q2821.29 500.234 2823.6 500.813 Q2825.92 501.391 2828.44 501.391 Q2832.84 501.391 2835.13 499.655 Q2837.44 497.919 2837.44 494.609 Q2837.44 491.554 2835.29 489.841 Q2833.16 488.105 2829.34 488.105 L2825.31 488.105 L2825.31 484.262 L2829.53 484.262 Q2832.98 484.262 2834.8 482.896 Q2836.63 481.507 2836.63 478.915 Q2836.63 476.253 2834.73 474.841 Q2832.86 473.406 2829.34 473.406 Q2827.42 473.406 2825.22 473.822 Q2823.02 474.239 2820.38 475.118 L2820.38 470.952 Q2823.05 470.211 2825.36 469.841 Q2827.7 469.47 2829.76 469.47 Q2835.08 469.47 2838.18 471.901 Q2841.29 474.308 2841.29 478.429 Q2841.29 481.299 2839.64 483.29 Q2838 485.257 2834.97 486.021 Z" fill="#000000" fill-rule="evenodd" fill-opacity="1" /><path clip-path="url(#clip310)" d="M2832.51 183.899 L2820.71 202.348 L2832.51 202.348 L2832.51 183.899 M2831.29 179.825 L2837.17 179.825 L2837.17 202.348 L2842.1 202.348 L2842.1 206.237 L2837.17 206.237 L2837.17 214.385 L2832.51 214.385 L2832.51 206.237 L2816.91 206.237 L2816.91 201.723 L2831.29 179.825 Z" fill="#000000" fill-rule="evenodd" fill-opacity="1" /><path clip-path="url(#clip310)" d="M2707.01 876.171 L2707.01 848.353 L2712.35 848.353 L2737.98 870.378 L2737.98 848.353 L2742.65 848.353 L2742.65 876.967 L2737.31 876.967 L2711.69 854.942 L2711.69 876.171 L2707.01 876.171 Z" fill="#000000" fill-rule="evenodd" fill-opacity="1" /><path clip-path="url(#clip310)" d="M2693.19 804.621 Q2700.51 808.886 2707.68 810.955 Q2714.84 813.023 2722.19 813.023 Q2729.54 813.023 2736.77 810.955 Q2743.96 808.854 2751.25 804.621 L2751.25 809.713 Q2743.77 814.488 2736.54 816.875 Q2729.32 819.23 2722.19 819.23 Q2715.09 819.23 2707.9 816.875 Q2700.7 814.519 2693.19 809.713 L2693.19 804.621 Z" fill="#000000" fill-rule="evenodd" fill-opacity="1" /><path clip-path="url(#clip310)" d="M2693.13 793.481 L2693.13 787.592 L2722.38 787.592 L2707.01 770.119 L2707.01 762.639 L2723.69 781.545 L2742.65 761.843 L2742.65 769.482 L2725.24 787.592 L2742.65 787.592 L2742.65 793.481 L2693.13 793.481 Z" fill="#000000" fill-rule="evenodd" fill-opacity="1" /><path clip-path="url(#clip310)" d="M2713.85 727.755 Q2709.9 725.559 2708.03 722.503 Q2706.15 719.448 2706.15 715.31 Q2706.15 709.74 2710.06 706.716 Q2713.95 703.692 2721.14 703.692 L2742.65 703.692 L2742.65 709.581 L2721.33 709.581 Q2716.21 709.581 2713.72 711.395 Q2711.24 713.209 2711.24 716.933 Q2711.24 721.485 2714.26 724.126 Q2717.29 726.768 2722.51 726.768 L2742.65 726.768 L2742.65 732.656 L2721.33 732.656 Q2716.17 732.656 2713.72 734.471 Q2711.24 736.285 2711.24 740.072 Q2711.24 744.56 2714.3 747.202 Q2717.32 749.844 2722.51 749.844 L2742.65 749.844 L2742.65 755.732 L2707.01 755.732 L2707.01 749.844 L2712.55 749.844 Q2709.27 747.839 2707.71 745.038 Q2706.15 742.237 2706.15 738.385 Q2706.15 734.502 2708.12 731.797 Q2710.09 729.06 2713.85 727.755 Z" fill="#000000" fill-rule="evenodd" fill-opacity="1" /><path clip-path="url(#clip310)" d="M2693.19 692.934 L2693.19 687.842 Q2700.7 683.067 2707.9 680.712 Q2715.09 678.325 2722.19 678.325 Q2729.32 678.325 2736.54 680.712 Q2743.77 683.067 2751.25 687.842 L2751.25 692.934 Q2743.96 688.701 2736.77 686.632 Q2729.54 684.532 2722.19 684.532 Q2714.84 684.532 2707.68 686.632 Q2700.51 688.701 2693.19 692.934 Z" fill="#000000" fill-rule="evenodd" fill-opacity="1" /><path clip-path="url(#clip310)" d="M3356.19 51.4708 L3354.41 42.1132 Q3352.59 32.5126 3345.37 32.5126 Q3339.95 32.5126 3337.48 36.9686 Q3334.36 42.5588 3334.36 49.9314 Q3334.36 58.8434 3337.39 63.0969 Q3340.47 67.4314 3345.37 67.4314 Q3350.8 67.4314 3353.72 58.8029 L3356.19 51.4708 M3360.36 39.075 L3364.37 27.2059 L3371.02 27.2059 L3362.71 51.7949 L3364.33 60.6663 Q3364.7 62.6513 3366.12 64.3122 Q3367.78 66.2566 3369.07 66.2566 L3372.64 66.2566 L3372.64 72.576 L3368.18 72.576 Q3364.37 72.576 3360.97 69.1732 Q3359.31 67.4719 3358.62 63.9071 Q3356.76 68.4036 3352.95 71.9279 Q3351.17 73.5887 3345.37 73.5887 Q3335.85 73.5887 3331.24 67.4314 Q3326.5 61.0714 3326.5 49.9314 Q3326.5 38.0218 3331.64 32.4315 Q3337.35 26.1931 3345.37 26.1931 Q3357.97 26.1931 3360.36 39.075 Z" fill="#000000" fill-rule="evenodd" fill-opacity="1" /><path clip-path="url(#clip310)" d="M3418.9 86.3491 L3418.9 92.1419 L3375.8 92.1419 L3375.8 86.3491 L3418.9 86.3491 Z" fill="#000000" fill-rule="evenodd" fill-opacity="1" /><path clip-path="url(#clip310)" d="M3444.46 17.4837 Q3438.14 17.4837 3434.94 23.7221 Q3431.78 29.92 3431.78 42.3968 Q3431.78 54.833 3434.94 61.0714 Q3438.14 67.2693 3444.46 67.2693 Q3450.82 67.2693 3453.98 61.0714 Q3457.18 54.833 3457.18 42.3968 Q3457.18 29.92 3453.98 23.7221 Q3450.82 17.4837 3444.46 17.4837 M3444.46 11.0023 Q3454.63 11.0023 3459.97 19.0636 Q3465.36 27.0843 3465.36 42.3968 Q3465.36 57.6687 3459.97 65.73 Q3454.63 73.7508 3444.46 73.7508 Q3434.29 73.7508 3428.9 65.73 Q3423.56 57.6687 3423.56 42.3968 Q3423.56 27.0843 3428.9 19.0636 Q3434.29 11.0023 3444.46 11.0023 Z" fill="#000000" fill-rule="evenodd" fill-opacity="1" /><polyline clip-path="url(#clip314)" style="stroke:#009af9; stroke-linecap:butt; stroke-linejoin:round; stroke-width:4; stroke-opacity:1; fill:none" points="
  2934.61,1350.93 2943.79,1336.42 2952.98,1321.9 2962.29,1307.39 2971.62,1292.88 2981,1278.36 2990.45,1263.85 2999.94,1249.34 3009.34,1234.82 3018.99,1220.31 
  3028.72,1205.8 3038.51,1191.28 3048.34,1176.77 3058.13,1162.25 3068,1147.74 3077.77,1133.23 3087.86,1118.71 3097.98,1104.2 3108.13,1089.69 3118.32,1075.17 
  3128.54,1060.66 3138.94,1046.15 3149.11,1031.63 3159.55,1017.12 3170.06,1002.61 3180.63,988.092 3191.27,973.579 3201.96,959.065 3212.72,944.552 3223.53,930.038 
  3234.41,915.525 3245.34,901.011 3256.33,886.497 3267.39,871.984 3278.51,857.47 3289.68,842.957 3300.92,828.443 3312.21,813.93 3323.57,799.416 3334.98,784.903 
  3346.68,770.389 3358.27,755.876 3369.94,741.362 3381.67,726.849 3393.47,712.335 3405.34,697.822 3417.28,683.308 3429.3,668.794 3441.38,654.281 3453.54,639.767 
  3465.76,625.254 3478.06,610.74 3490.43,596.227 3502.88,581.713 3515.39,567.2 3528.08,552.686 3540.76,538.173 3553.52,523.659 3566.35,509.146 3579.26,494.632 
  3592.25,480.119 3605.32,465.605 3618.46,451.092 3631.45,436.578 3644.77,422.064 3658.18,407.551 3671.67,393.037 3685.25,378.524 3698.91,364.01 3712.66,349.497 
  3726.68,334.983 3740.34,320.47 3754.42,305.956 3768.52,291.443 3782.71,276.929 3796.99,262.416 3811.04,247.902 3825.45,233.389 3839.93,218.875 3854.49,204.361 
  
  "/>
<polyline clip-path="url(#clip314)" style="stroke:#e26f46; stroke-linecap:butt; stroke-linejoin:round; stroke-width:4; stroke-opacity:1; fill:none" points="
  2930.05,1358.19 2939.19,1343.67 2948.31,1329.16 2957.67,1314.65 2966.94,1300.13 2976.3,1285.62 2985.72,1271.11 2995.19,1256.59 3004.71,1242.08 3014.15,1227.57 
  3023.84,1213.05 3033.61,1198.54 3043.44,1184.02 3053.22,1169.51 3063.06,1155 3072.96,1140.48 3082.82,1125.97 3092.92,1111.46 3103.05,1096.94 3113.22,1082.43 
  3123.44,1067.92 3133.77,1053.4 3144.05,1038.89 3154.31,1024.38 3164.8,1009.86 3175.34,995.349 3185.94,980.835 3196.61,966.322 3207.33,951.808 3218.12,937.295 
  3228.96,922.781 3239.87,908.268 3250.82,893.754 3261.85,879.241 3272.94,864.727 3284.09,850.214 3295.29,835.7 3306.56,821.187 3317.88,806.673 3329.27,792.16 
  3340.71,777.646 3352.47,763.132 3364.09,748.619 3375.79,734.105 3387.56,719.592 3399.4,705.078 3411.3,690.565 3423.28,676.051 3435.33,661.538 3447.45,647.024 
  3459.64,632.511 3471.9,617.997 3484.24,603.484 3496.64,588.97 3509.12,574.457 3521.77,559.943 3534.41,545.429 3547.13,530.916 3559.93,516.402 3572.8,501.889 
  3585.75,487.375 3598.78,472.862 3611.88,458.348 3625.07,443.835 3638.1,429.321 3651.47,414.808 3664.91,400.294 3678.45,385.781 3692.07,371.267 3705.77,356.754 
  3719.88,342.24 3733.5,327.727 3747.19,313.213 3761.46,298.699 3775.61,284.186 3789.84,269.672 3803.88,255.159 3818.24,240.645 3832.68,226.132 3847.2,211.618 
  3861.81,197.105 
  "/>
<path clip-path="url(#clip310)" d="
M3574.81 358.817 L3856.84 358.817 L3856.84 203.297 L3574.81 203.297  Z
  " fill="#ffffff" fill-rule="evenodd" fill-opacity="1"/>
<polyline clip-path="url(#clip310)" style="stroke:#000000; stroke-linecap:butt; stroke-linejoin:round; stroke-width:4; stroke-opacity:1; fill:none" points="
  3574.81,358.817 3856.84,358.817 3856.84,203.297 3574.81,203.297 3574.81,358.817 
  "/>
<polyline clip-path="url(#clip310)" style="stroke:#009af9; stroke-linecap:butt; stroke-linejoin:round; stroke-width:4; stroke-opacity:1; fill:none" points="
  3585.78,255.137 3651.63,255.137 
  "/>
<path clip-path="url(#clip310)" d="M3683.11 247.487 L3683.11 251.468 Q3681.31 250.473 3679.48 249.987 Q3677.67 249.477 3675.82 249.477 Q3671.68 249.477 3669.38 252.116 Q3667.09 254.732 3667.09 259.477 Q3667.09 264.223 3669.38 266.862 Q3671.68 269.477 3675.82 269.477 Q3677.67 269.477 3679.48 268.991 Q3681.31 268.482 3683.11 267.487 L3683.11 271.422 Q3681.33 272.255 3679.41 272.672 Q3677.51 273.088 3675.36 273.088 Q3669.5 273.088 3666.05 269.408 Q3662.6 265.727 3662.6 259.477 Q3662.6 253.135 3666.07 249.501 Q3669.57 245.866 3675.63 245.866 Q3677.6 245.866 3679.48 246.283 Q3681.35 246.677 3683.11 247.487 Z" fill="#000000" fill-rule="evenodd" fill-opacity="1" /><path clip-path="url(#clip310)" d="M3712.69 258.389 L3712.69 260.473 L3693.11 260.473 Q3693.39 264.871 3695.75 267.186 Q3698.13 269.477 3702.37 269.477 Q3704.82 269.477 3707.12 268.876 Q3709.43 268.274 3711.7 267.07 L3711.7 271.098 Q3709.41 272.07 3707 272.579 Q3704.59 273.088 3702.12 273.088 Q3695.91 273.088 3692.28 269.477 Q3688.67 265.866 3688.67 259.709 Q3688.67 253.343 3692.09 249.616 Q3695.54 245.866 3701.38 245.866 Q3706.61 245.866 3709.64 249.246 Q3712.69 252.602 3712.69 258.389 M3708.44 257.139 Q3708.39 253.644 3706.47 251.561 Q3704.57 249.477 3701.42 249.477 Q3697.86 249.477 3695.7 251.491 Q3693.57 253.505 3693.25 257.163 L3708.44 257.139 Z" fill="#000000" fill-rule="evenodd" fill-opacity="1" /><path clip-path="url(#clip310)" d="M3741.24 256.769 L3741.24 272.417 L3736.98 272.417 L3736.98 256.908 Q3736.98 253.227 3735.54 251.399 Q3734.11 249.57 3731.24 249.57 Q3727.79 249.57 3725.8 251.769 Q3723.81 253.968 3723.81 257.764 L3723.81 272.417 L3719.52 272.417 L3719.52 246.491 L3723.81 246.491 L3723.81 250.519 Q3725.33 248.181 3727.39 247.024 Q3729.48 245.866 3732.19 245.866 Q3736.65 245.866 3738.94 248.644 Q3741.24 251.399 3741.24 256.769 Z" fill="#000000" fill-rule="evenodd" fill-opacity="1" /><path clip-path="url(#clip310)" d="M3753.94 239.13 L3753.94 246.491 L3762.72 246.491 L3762.72 249.802 L3753.94 249.802 L3753.94 263.876 Q3753.94 267.047 3754.8 267.95 Q3755.68 268.852 3758.34 268.852 L3762.72 268.852 L3762.72 272.417 L3758.34 272.417 Q3753.41 272.417 3751.54 270.588 Q3749.66 268.737 3749.66 263.876 L3749.66 249.802 L3746.54 249.802 L3746.54 246.491 L3749.66 246.491 L3749.66 239.13 L3753.94 239.13 Z" fill="#000000" fill-rule="evenodd" fill-opacity="1" /><path clip-path="url(#clip310)" d="M3790.5 258.389 L3790.5 260.473 L3770.91 260.473 Q3771.19 264.871 3773.55 267.186 Q3775.94 269.477 3780.17 269.477 Q3782.63 269.477 3784.92 268.876 Q3787.23 268.274 3789.5 267.07 L3789.5 271.098 Q3787.21 272.07 3784.8 272.579 Q3782.39 273.088 3779.92 273.088 Q3773.71 273.088 3770.08 269.477 Q3766.47 265.866 3766.47 259.709 Q3766.47 253.343 3769.89 249.616 Q3773.34 245.866 3779.18 245.866 Q3784.41 245.866 3787.44 249.246 Q3790.5 252.602 3790.5 258.389 M3786.24 257.139 Q3786.19 253.644 3784.27 251.561 Q3782.37 249.477 3779.22 249.477 Q3775.66 249.477 3773.5 251.491 Q3771.38 253.505 3771.05 257.163 L3786.24 257.139 Z" fill="#000000" fill-rule="evenodd" fill-opacity="1" /><path clip-path="url(#clip310)" d="M3812.51 250.473 Q3811.79 250.056 3810.94 249.871 Q3810.1 249.663 3809.08 249.663 Q3805.47 249.663 3803.53 252.024 Q3801.61 254.362 3801.61 258.76 L3801.61 272.417 L3797.32 272.417 L3797.32 246.491 L3801.61 246.491 L3801.61 250.519 Q3802.95 248.158 3805.1 247.024 Q3807.25 245.866 3810.33 245.866 Q3810.77 245.866 3811.31 245.936 Q3811.84 245.982 3812.49 246.098 L3812.51 250.473 Z" fill="#000000" fill-rule="evenodd" fill-opacity="1" /><path clip-path="url(#clip310)" d="M3833.5 247.255 L3833.5 251.283 Q3831.7 250.357 3829.75 249.894 Q3827.81 249.431 3825.73 249.431 Q3822.56 249.431 3820.96 250.403 Q3819.38 251.376 3819.38 253.32 Q3819.38 254.802 3820.52 255.658 Q3821.65 256.491 3825.08 257.255 L3826.54 257.579 Q3831.07 258.552 3832.97 260.334 Q3834.89 262.093 3834.89 265.264 Q3834.89 268.876 3832.02 270.982 Q3829.18 273.088 3824.18 273.088 Q3822.09 273.088 3819.82 272.672 Q3817.58 272.278 3815.08 271.468 L3815.08 267.07 Q3817.44 268.297 3819.73 268.922 Q3822.02 269.524 3824.27 269.524 Q3827.28 269.524 3828.9 268.505 Q3830.52 267.463 3830.52 265.589 Q3830.52 263.852 3829.34 262.926 Q3828.18 262.001 3824.22 261.144 L3822.74 260.797 Q3818.78 259.964 3817.02 258.251 Q3815.26 256.514 3815.26 253.505 Q3815.26 249.848 3817.86 247.857 Q3820.45 245.866 3825.22 245.866 Q3827.58 245.866 3829.66 246.214 Q3831.75 246.561 3833.5 247.255 Z" fill="#000000" fill-rule="evenodd" fill-opacity="1" /><polyline clip-path="url(#clip310)" style="stroke:#e26f46; stroke-linecap:butt; stroke-linejoin:round; stroke-width:4; stroke-opacity:1; fill:none" points="
  3585.78,306.977 3651.63,306.977 
  "/>
<path clip-path="url(#clip310)" d="M3679.11 288.239 L3679.11 291.78 L3675.03 291.78 Q3672.74 291.78 3671.84 292.706 Q3670.96 293.632 3670.96 296.04 L3670.96 298.331 L3677.97 298.331 L3677.97 301.642 L3670.96 301.642 L3670.96 324.257 L3666.68 324.257 L3666.68 301.642 L3662.6 301.642 L3662.6 298.331 L3666.68 298.331 L3666.68 296.526 Q3666.68 292.197 3668.69 290.23 Q3670.7 288.239 3675.08 288.239 L3679.11 288.239 Z" fill="#000000" fill-rule="evenodd" fill-opacity="1" /><path clip-path="url(#clip310)" d="M3694.45 311.225 Q3689.29 311.225 3687.3 312.405 Q3685.31 313.586 3685.31 316.433 Q3685.31 318.702 3686.79 320.044 Q3688.3 321.364 3690.87 321.364 Q3694.41 321.364 3696.54 318.864 Q3698.69 316.341 3698.69 312.174 L3698.69 311.225 L3694.45 311.225 M3702.95 309.466 L3702.95 324.257 L3698.69 324.257 L3698.69 320.322 Q3697.23 322.683 3695.06 323.817 Q3692.88 324.928 3689.73 324.928 Q3685.75 324.928 3683.39 322.706 Q3681.05 320.461 3681.05 316.711 Q3681.05 312.336 3683.97 310.114 Q3686.91 307.892 3692.72 307.892 L3698.69 307.892 L3698.69 307.475 Q3698.69 304.535 3696.75 302.938 Q3694.82 301.317 3691.33 301.317 Q3689.11 301.317 3687 301.85 Q3684.89 302.382 3682.95 303.447 L3682.95 299.512 Q3685.29 298.609 3687.49 298.169 Q3689.69 297.706 3691.77 297.706 Q3697.39 297.706 3700.17 300.623 Q3702.95 303.54 3702.95 309.466 Z" fill="#000000" fill-rule="evenodd" fill-opacity="1" /><path clip-path="url(#clip310)" d="M3730.38 299.327 L3730.38 303.308 Q3728.57 302.313 3726.75 301.827 Q3724.94 301.317 3723.09 301.317 Q3718.94 301.317 3716.65 303.956 Q3714.36 306.572 3714.36 311.317 Q3714.36 316.063 3716.65 318.702 Q3718.94 321.317 3723.09 321.317 Q3724.94 321.317 3726.75 320.831 Q3728.57 320.322 3730.38 319.327 L3730.38 323.262 Q3728.6 324.095 3726.68 324.512 Q3724.78 324.928 3722.63 324.928 Q3716.77 324.928 3713.32 321.248 Q3709.87 317.567 3709.87 311.317 Q3709.87 304.975 3713.34 301.341 Q3716.84 297.706 3722.9 297.706 Q3724.87 297.706 3726.75 298.123 Q3728.62 298.517 3730.38 299.327 Z" fill="#000000" fill-rule="evenodd" fill-opacity="1" /><path clip-path="url(#clip310)" d="M3759.96 310.229 L3759.96 312.313 L3740.38 312.313 Q3740.66 316.711 3743.02 319.026 Q3745.4 321.317 3749.64 321.317 Q3752.09 321.317 3754.38 320.716 Q3756.7 320.114 3758.97 318.91 L3758.97 322.938 Q3756.68 323.91 3754.27 324.419 Q3751.86 324.928 3749.38 324.928 Q3743.18 324.928 3739.55 321.317 Q3735.94 317.706 3735.94 311.549 Q3735.94 305.183 3739.36 301.456 Q3742.81 297.706 3748.64 297.706 Q3753.88 297.706 3756.91 301.086 Q3759.96 304.442 3759.96 310.229 M3755.7 308.979 Q3755.66 305.484 3753.74 303.401 Q3751.84 301.317 3748.69 301.317 Q3745.13 301.317 3742.97 303.331 Q3740.84 305.345 3740.52 309.003 L3755.7 308.979 Z" fill="#000000" fill-rule="evenodd" fill-opacity="1" /><path clip-path="url(#clip310)" d="M3783.48 299.095 L3783.48 303.123 Q3781.68 302.197 3779.73 301.734 Q3777.79 301.271 3775.7 301.271 Q3772.53 301.271 3770.94 302.243 Q3769.36 303.216 3769.36 305.16 Q3769.36 306.642 3770.5 307.498 Q3771.63 308.331 3775.06 309.095 L3776.51 309.419 Q3781.05 310.392 3782.95 312.174 Q3784.87 313.933 3784.87 317.104 Q3784.87 320.716 3782 322.822 Q3779.15 324.928 3774.15 324.928 Q3772.07 324.928 3769.8 324.512 Q3767.56 324.118 3765.06 323.308 L3765.06 318.91 Q3767.42 320.137 3769.71 320.762 Q3772 321.364 3774.25 321.364 Q3777.25 321.364 3778.88 320.345 Q3780.5 319.303 3780.5 317.429 Q3780.5 315.692 3779.31 314.766 Q3778.16 313.841 3774.2 312.984 L3772.72 312.637 Q3768.76 311.804 3767 310.091 Q3765.24 308.354 3765.24 305.345 Q3765.24 301.688 3767.83 299.697 Q3770.43 297.706 3775.19 297.706 Q3777.56 297.706 3779.64 298.054 Q3781.72 298.401 3783.48 299.095 Z" fill="#000000" fill-rule="evenodd" fill-opacity="1" /></svg>
