<?xml version="1.0" encoding="utf-8"?>
<svg xmlns="http://www.w3.org/2000/svg" xmlns:xlink="http://www.w3.org/1999/xlink" width="1000" height="400" viewBox="0 0 4000 1600">
<defs>
  <clipPath id="clip710">
    <rect x="0" y="0" width="4000" height="1600"/>
  </clipPath>
</defs>
<path clip-path="url(#clip710)" d="
M0 1600 L4000 1600 L4000 0 L0 0  Z
  " fill="#ffffff" fill-rule="evenodd" fill-opacity="1"/>
<defs>
  <clipPath id="clip711">
    <rect x="800" y="0" width="2801" height="1600"/>
  </clipPath>
</defs>
<path clip-path="url(#clip710)" d="
M235.429 1393.02 L1223.1 1393.02 L1223.1 162.272 L235.429 162.272  Z
  " fill="#ffffff" fill-rule="evenodd" fill-opacity="1"/>
<defs>
  <clipPath id="clip712">
    <rect x="235" y="162" width="989" height="1232"/>
  </clipPath>
</defs>
<polyline clip-path="url(#clip712)" style="stroke:#000000; stroke-linecap:butt; stroke-linejoin:round; stroke-width:2; stroke-opacity:0.1; fill:none" points="
  433.007,1393.02 433.007,162.272 
  "/>
<polyline clip-path="url(#clip712)" style="stroke:#000000; stroke-linecap:butt; stroke-linejoin:round; stroke-width:2; stroke-opacity:0.1; fill:none" points="
  673.149,1393.02 673.149,162.272 
  "/>
<polyline clip-path="url(#clip712)" style="stroke:#000000; stroke-linecap:butt; stroke-linejoin:round; stroke-width:2; stroke-opacity:0.1; fill:none" points="
  913.292,1393.02 913.292,162.272 
  "/>
<polyline clip-path="url(#clip712)" style="stroke:#000000; stroke-linecap:butt; stroke-linejoin:round; stroke-width:2; stroke-opacity:0.1; fill:none" points="
  1153.43,1393.02 1153.43,162.272 
  "/>
<polyline clip-path="url(#clip710)" style="stroke:#000000; stroke-linecap:butt; stroke-linejoin:round; stroke-width:4; stroke-opacity:1; fill:none" points="
  235.429,1393.02 1223.1,1393.02 
  "/>
<polyline clip-path="url(#clip710)" style="stroke:#000000; stroke-linecap:butt; stroke-linejoin:round; stroke-width:4; stroke-opacity:1; fill:none" points="
  433.007,1393.02 433.007,1374.12 
  "/>
<polyline clip-path="url(#clip710)" style="stroke:#000000; stroke-linecap:butt; stroke-linejoin:round; stroke-width:4; stroke-opacity:1; fill:none" points="
  673.149,1393.02 673.149,1374.12 
  "/>
<polyline clip-path="url(#clip710)" style="stroke:#000000; stroke-linecap:butt; stroke-linejoin:round; stroke-width:4; stroke-opacity:1; fill:none" points="
  913.292,1393.02 913.292,1374.12 
  "/>
<polyline clip-path="url(#clip710)" style="stroke:#000000; stroke-linecap:butt; stroke-linejoin:round; stroke-width:4; stroke-opacity:1; fill:none" points="
  1153.43,1393.02 1153.43,1374.12 
  "/>
<path clip-path="url(#clip710)" d="M410.438 1435.01 Q406.827 1435.01 404.998 1438.58 Q403.192 1442.12 403.192 1449.25 Q403.192 1456.35 404.998 1459.92 Q406.827 1463.46 410.438 1463.46 Q414.072 1463.46 415.878 1459.92 Q417.706 1456.35 417.706 1449.25 Q417.706 1442.12 415.878 1438.58 Q414.072 1435.01 410.438 1435.01 M410.438 1431.31 Q416.248 1431.31 419.303 1435.91 Q422.382 1440.5 422.382 1449.25 Q422.382 1457.97 419.303 1462.58 Q416.248 1467.16 410.438 1467.16 Q404.628 1467.16 401.549 1462.58 Q398.493 1457.97 398.493 1449.25 Q398.493 1440.5 401.549 1435.91 Q404.628 1431.31 410.438 1431.31 Z" fill="#000000" fill-rule="evenodd" fill-opacity="1" /><path clip-path="url(#clip710)" d="M430.6 1460.61 L435.484 1460.61 L435.484 1466.49 L430.6 1466.49 L430.6 1460.61 Z" fill="#000000" fill-rule="evenodd" fill-opacity="1" /><path clip-path="url(#clip710)" d="M455.669 1450.08 Q452.336 1450.08 450.414 1451.86 Q448.516 1453.64 448.516 1456.77 Q448.516 1459.89 450.414 1461.68 Q452.336 1463.46 455.669 1463.46 Q459.002 1463.46 460.924 1461.68 Q462.845 1459.87 462.845 1456.77 Q462.845 1453.64 460.924 1451.86 Q459.025 1450.08 455.669 1450.08 M450.993 1448.09 Q447.984 1447.35 446.294 1445.29 Q444.627 1443.23 444.627 1440.27 Q444.627 1436.12 447.567 1433.71 Q450.53 1431.31 455.669 1431.31 Q460.831 1431.31 463.771 1433.71 Q466.711 1436.12 466.711 1440.27 Q466.711 1443.23 465.021 1445.29 Q463.354 1447.35 460.368 1448.09 Q463.748 1448.88 465.623 1451.17 Q467.521 1453.46 467.521 1456.77 Q467.521 1461.79 464.442 1464.48 Q461.387 1467.16 455.669 1467.16 Q449.951 1467.16 446.873 1464.48 Q443.817 1461.79 443.817 1456.77 Q443.817 1453.46 445.715 1451.17 Q447.613 1448.88 450.993 1448.09 M449.28 1440.7 Q449.28 1443.39 450.947 1444.89 Q452.637 1446.4 455.669 1446.4 Q458.678 1446.4 460.368 1444.89 Q462.081 1443.39 462.081 1440.7 Q462.081 1438.02 460.368 1436.52 Q458.678 1435.01 455.669 1435.01 Q452.637 1435.01 450.947 1436.52 Q449.28 1438.02 449.28 1440.7 Z" fill="#000000" fill-rule="evenodd" fill-opacity="1" /><path clip-path="url(#clip710)" d="M650.626 1435.01 Q647.015 1435.01 645.187 1438.58 Q643.381 1442.12 643.381 1449.25 Q643.381 1456.35 645.187 1459.92 Q647.015 1463.46 650.626 1463.46 Q654.261 1463.46 656.066 1459.92 Q657.895 1456.35 657.895 1449.25 Q657.895 1442.12 656.066 1438.58 Q654.261 1435.01 650.626 1435.01 M650.626 1431.31 Q656.437 1431.31 659.492 1435.91 Q662.571 1440.5 662.571 1449.25 Q662.571 1457.97 659.492 1462.58 Q656.437 1467.16 650.626 1467.16 Q644.816 1467.16 641.738 1462.58 Q638.682 1457.97 638.682 1449.25 Q638.682 1440.5 641.738 1435.91 Q644.816 1431.31 650.626 1431.31 Z" fill="#000000" fill-rule="evenodd" fill-opacity="1" /><path clip-path="url(#clip710)" d="M670.788 1460.61 L675.673 1460.61 L675.673 1466.49 L670.788 1466.49 L670.788 1460.61 Z" fill="#000000" fill-rule="evenodd" fill-opacity="1" /><path clip-path="url(#clip710)" d="M685.997 1465.77 L685.997 1461.51 Q687.756 1462.35 689.561 1462.79 Q691.367 1463.23 693.103 1463.23 Q697.733 1463.23 700.163 1460.13 Q702.617 1457 702.964 1450.66 Q701.621 1452.65 699.561 1453.71 Q697.501 1454.78 695.001 1454.78 Q689.816 1454.78 686.784 1451.65 Q683.774 1448.51 683.774 1443.07 Q683.774 1437.74 686.922 1434.52 Q690.071 1431.31 695.302 1431.31 Q701.297 1431.31 704.446 1435.91 Q707.617 1440.5 707.617 1449.25 Q707.617 1457.42 703.728 1462.3 Q699.862 1467.16 693.311 1467.16 Q691.552 1467.16 689.747 1466.82 Q687.941 1466.47 685.997 1465.77 M695.302 1451.12 Q698.45 1451.12 700.279 1448.97 Q702.131 1446.82 702.131 1443.07 Q702.131 1439.34 700.279 1437.19 Q698.45 1435.01 695.302 1435.01 Q692.154 1435.01 690.302 1437.19 Q688.473 1439.34 688.473 1443.07 Q688.473 1446.82 690.302 1448.97 Q692.154 1451.12 695.302 1451.12 Z" fill="#000000" fill-rule="evenodd" fill-opacity="1" /><path clip-path="url(#clip710)" d="M880.445 1462.56 L888.084 1462.56 L888.084 1436.19 L879.773 1437.86 L879.773 1433.6 L888.037 1431.93 L892.713 1431.93 L892.713 1462.56 L900.352 1462.56 L900.352 1466.49 L880.445 1466.49 L880.445 1462.56 Z" fill="#000000" fill-rule="evenodd" fill-opacity="1" /><path clip-path="url(#clip710)" d="M909.796 1460.61 L914.681 1460.61 L914.681 1466.49 L909.796 1466.49 L909.796 1460.61 Z" fill="#000000" fill-rule="evenodd" fill-opacity="1" /><path clip-path="url(#clip710)" d="M934.866 1435.01 Q931.255 1435.01 929.426 1438.58 Q927.62 1442.12 927.62 1449.25 Q927.62 1456.35 929.426 1459.92 Q931.255 1463.46 934.866 1463.46 Q938.5 1463.46 940.305 1459.92 Q942.134 1456.35 942.134 1449.25 Q942.134 1442.12 940.305 1438.58 Q938.5 1435.01 934.866 1435.01 M934.866 1431.31 Q940.676 1431.31 943.731 1435.91 Q946.81 1440.5 946.81 1449.25 Q946.81 1457.97 943.731 1462.58 Q940.676 1467.16 934.866 1467.16 Q929.056 1467.16 925.977 1462.58 Q922.921 1457.97 922.921 1449.25 Q922.921 1440.5 925.977 1435.91 Q929.056 1431.31 934.866 1431.31 Z" fill="#000000" fill-rule="evenodd" fill-opacity="1" /><path clip-path="url(#clip710)" d="M1121.2 1462.56 L1128.84 1462.56 L1128.84 1436.19 L1120.53 1437.86 L1120.53 1433.6 L1128.79 1431.93 L1133.47 1431.93 L1133.47 1462.56 L1141.11 1462.56 L1141.11 1466.49 L1121.2 1466.49 L1121.2 1462.56 Z" fill="#000000" fill-rule="evenodd" fill-opacity="1" /><path clip-path="url(#clip710)" d="M1150.55 1460.61 L1155.44 1460.61 L1155.44 1466.49 L1150.55 1466.49 L1150.55 1460.61 Z" fill="#000000" fill-rule="evenodd" fill-opacity="1" /><path clip-path="url(#clip710)" d="M1166.43 1462.56 L1174.07 1462.56 L1174.07 1436.19 L1165.76 1437.86 L1165.76 1433.6 L1174.02 1431.93 L1178.7 1431.93 L1178.7 1462.56 L1186.34 1462.56 L1186.34 1466.49 L1166.43 1466.49 L1166.43 1462.56 Z" fill="#000000" fill-rule="evenodd" fill-opacity="1" /><path clip-path="url(#clip710)" d="M679.531 1532.6 Q681.473 1529.35 686.279 1526.49 Q688.157 1525.38 693.949 1525.38 Q700.442 1525.38 704.485 1530.53 Q708.559 1535.69 708.559 1544.09 Q708.559 1552.49 704.485 1557.65 Q700.442 1562.81 693.949 1562.81 Q690.035 1562.81 687.202 1561.28 Q684.401 1559.72 682.555 1556.54 L682.555 1575.44 L676.667 1575.44 L676.667 1544.41 Q676.667 1537.06 679.531 1532.6 M702.48 1544.09 Q702.48 1537.63 699.806 1533.97 Q697.164 1530.28 692.517 1530.28 Q687.87 1530.28 685.197 1533.97 Q682.555 1537.63 682.555 1544.09 Q682.555 1550.55 685.197 1554.24 Q687.87 1557.91 692.517 1557.91 Q697.164 1557.91 699.806 1554.24 Q702.48 1550.55 702.48 1544.09 Z" fill="#000000" fill-rule="evenodd" fill-opacity="1" /><path clip-path="url(#clip710)" d="M745.353 1572.71 L745.353 1577.26 L711.487 1577.26 L711.487 1572.71 L745.353 1572.71 Z" fill="#000000" fill-rule="evenodd" fill-opacity="1" /><path clip-path="url(#clip710)" d="M765.436 1518.6 Q760.471 1518.6 757.957 1523.5 Q755.474 1528.37 755.474 1538.17 Q755.474 1547.94 757.957 1552.84 Q760.471 1557.71 765.436 1557.71 Q770.433 1557.71 772.916 1552.84 Q775.431 1547.94 775.431 1538.17 Q775.431 1528.37 772.916 1523.5 Q770.433 1518.6 765.436 1518.6 M765.436 1513.5 Q773.425 1513.5 777.627 1519.84 Q781.86 1526.14 781.86 1538.17 Q781.86 1550.17 777.627 1556.5 Q773.425 1562.81 765.436 1562.81 Q757.447 1562.81 753.214 1556.5 Q749.013 1550.17 749.013 1538.17 Q749.013 1526.14 753.214 1519.84 Q757.447 1513.5 765.436 1513.5 Z" fill="#000000" fill-rule="evenodd" fill-opacity="1" /><polyline clip-path="url(#clip712)" style="stroke:#000000; stroke-linecap:butt; stroke-linejoin:round; stroke-width:2; stroke-opacity:0.1; fill:none" points="
  235.429,1364.82 1223.1,1364.82 
  "/>
<polyline clip-path="url(#clip712)" style="stroke:#000000; stroke-linecap:butt; stroke-linejoin:round; stroke-width:2; stroke-opacity:0.1; fill:none" points="
  235.429,1099.43 1223.1,1099.43 
  "/>
<polyline clip-path="url(#clip712)" style="stroke:#000000; stroke-linecap:butt; stroke-linejoin:round; stroke-width:2; stroke-opacity:0.1; fill:none" points="
  235.429,834.041 1223.1,834.041 
  "/>
<polyline clip-path="url(#clip712)" style="stroke:#000000; stroke-linecap:butt; stroke-linejoin:round; stroke-width:2; stroke-opacity:0.1; fill:none" points="
  235.429,568.651 1223.1,568.651 
  "/>
<polyline clip-path="url(#clip712)" style="stroke:#000000; stroke-linecap:butt; stroke-linejoin:round; stroke-width:2; stroke-opacity:0.1; fill:none" points="
  235.429,303.261 1223.1,303.261 
  "/>
<polyline clip-path="url(#clip710)" style="stroke:#000000; stroke-linecap:butt; stroke-linejoin:round; stroke-width:4; stroke-opacity:1; fill:none" points="
  235.429,1393.02 235.429,162.272 
  "/>
<polyline clip-path="url(#clip710)" style="stroke:#000000; stroke-linecap:butt; stroke-linejoin:round; stroke-width:4; stroke-opacity:1; fill:none" points="
  235.429,1364.82 254.327,1364.82 
  "/>
<polyline clip-path="url(#clip710)" style="stroke:#000000; stroke-linecap:butt; stroke-linejoin:round; stroke-width:4; stroke-opacity:1; fill:none" points="
  235.429,1099.43 254.327,1099.43 
  "/>
<polyline clip-path="url(#clip710)" style="stroke:#000000; stroke-linecap:butt; stroke-linejoin:round; stroke-width:4; stroke-opacity:1; fill:none" points="
  235.429,834.041 254.327,834.041 
  "/>
<polyline clip-path="url(#clip710)" style="stroke:#000000; stroke-linecap:butt; stroke-linejoin:round; stroke-width:4; stroke-opacity:1; fill:none" points="
  235.429,568.651 254.327,568.651 
  "/>
<polyline clip-path="url(#clip710)" style="stroke:#000000; stroke-linecap:butt; stroke-linejoin:round; stroke-width:4; stroke-opacity:1; fill:none" points="
  235.429,303.261 254.327,303.261 
  "/>
<path clip-path="url(#clip710)" d="M163.485 1350.62 Q159.874 1350.62 158.045 1354.19 Q156.24 1357.73 156.24 1364.86 Q156.24 1371.96 158.045 1375.53 Q159.874 1379.07 163.485 1379.07 Q167.119 1379.07 168.925 1375.53 Q170.753 1371.96 170.753 1364.86 Q170.753 1357.73 168.925 1354.19 Q167.119 1350.62 163.485 1350.62 M163.485 1346.92 Q169.295 1346.92 172.351 1351.52 Q175.429 1356.11 175.429 1364.86 Q175.429 1373.58 172.351 1378.19 Q169.295 1382.77 163.485 1382.77 Q157.675 1382.77 154.596 1378.19 Q151.541 1373.58 151.541 1364.86 Q151.541 1356.11 154.596 1351.52 Q157.675 1346.92 163.485 1346.92 Z" fill="#000000" fill-rule="evenodd" fill-opacity="1" /><path clip-path="url(#clip710)" d="M155.522 1112.78 L163.161 1112.78 L163.161 1086.41 L154.851 1088.08 L154.851 1083.82 L163.115 1082.15 L167.79 1082.15 L167.79 1112.78 L175.429 1112.78 L175.429 1116.71 L155.522 1116.71 L155.522 1112.78 Z" fill="#000000" fill-rule="evenodd" fill-opacity="1" /><path clip-path="url(#clip710)" d="M159.11 847.386 L175.429 847.386 L175.429 851.321 L153.485 851.321 L153.485 847.386 Q156.147 844.632 160.73 840.002 Q165.337 835.349 166.517 834.007 Q168.763 831.484 169.642 829.747 Q170.545 827.988 170.545 826.298 Q170.545 823.544 168.601 821.808 Q166.679 820.072 163.578 820.072 Q161.378 820.072 158.925 820.835 Q156.494 821.599 153.716 823.15 L153.716 818.428 Q156.541 817.294 158.994 816.715 Q161.448 816.136 163.485 816.136 Q168.855 816.136 172.05 818.822 Q175.244 821.507 175.244 825.997 Q175.244 828.127 174.434 830.048 Q173.647 831.947 171.54 834.539 Q170.962 835.21 167.86 838.428 Q164.758 841.622 159.11 847.386 Z" fill="#000000" fill-rule="evenodd" fill-opacity="1" /><path clip-path="url(#clip710)" d="M168.3 567.297 Q171.656 568.015 173.531 570.283 Q175.429 572.552 175.429 575.885 Q175.429 581.001 171.911 583.802 Q168.392 586.602 161.911 586.602 Q159.735 586.602 157.42 586.163 Q155.129 585.746 152.675 584.889 L152.675 580.376 Q154.619 581.51 156.934 582.089 Q159.249 582.667 161.772 582.667 Q166.17 582.667 168.462 580.931 Q170.777 579.195 170.777 575.885 Q170.777 572.829 168.624 571.116 Q166.494 569.38 162.675 569.38 L158.647 569.38 L158.647 565.538 L162.86 565.538 Q166.309 565.538 168.138 564.172 Q169.966 562.783 169.966 560.191 Q169.966 557.529 168.068 556.116 Q166.193 554.681 162.675 554.681 Q160.753 554.681 158.554 555.098 Q156.355 555.515 153.716 556.394 L153.716 552.228 Q156.379 551.487 158.693 551.117 Q161.031 550.746 163.091 550.746 Q168.415 550.746 171.517 553.177 Q174.619 555.584 174.619 559.704 Q174.619 562.575 172.976 564.566 Q171.332 566.533 168.3 567.297 Z" fill="#000000" fill-rule="evenodd" fill-opacity="1" /><path clip-path="url(#clip710)" d="M165.846 290.055 L154.041 308.504 L165.846 308.504 L165.846 290.055 M164.619 285.981 L170.499 285.981 L170.499 308.504 L175.429 308.504 L175.429 312.393 L170.499 312.393 L170.499 320.541 L165.846 320.541 L165.846 312.393 L150.244 312.393 L150.244 307.879 L164.619 285.981 Z" fill="#000000" fill-rule="evenodd" fill-opacity="1" /><path clip-path="url(#clip710)" d="M40.3403 876.171 L40.3403 848.353 L45.6875 848.353 L71.3095 870.378 L71.3095 848.353 L75.9883 848.353 L75.9883 876.967 L70.6411 876.967 L45.0191 854.942 L45.0191 876.171 L40.3403 876.171 Z" fill="#000000" fill-rule="evenodd" fill-opacity="1" /><path clip-path="url(#clip710)" d="M26.5267 804.621 Q33.8473 808.886 41.0087 810.955 Q48.1701 813.023 55.5225 813.023 Q62.8749 813.023 70.1 810.955 Q77.2933 808.854 84.582 804.621 L84.582 809.713 Q77.1023 814.488 69.8772 816.875 Q62.6521 819.23 55.5225 819.23 Q48.4248 819.23 41.2315 816.875 Q34.0383 814.519 26.5267 809.713 L26.5267 804.621 Z" fill="#000000" fill-rule="evenodd" fill-opacity="1" /><path clip-path="url(#clip710)" d="M26.4631 793.481 L26.4631 787.592 L55.7135 787.592 L40.3403 770.119 L40.3403 762.639 L57.0185 781.545 L75.9883 761.843 L75.9883 769.482 L58.5781 787.592 L75.9883 787.592 L75.9883 793.481 L26.4631 793.481 Z" fill="#000000" fill-rule="evenodd" fill-opacity="1" /><path clip-path="url(#clip710)" d="M47.1835 727.755 Q43.2367 725.559 41.3588 722.503 Q39.481 719.448 39.481 715.31 Q39.481 709.74 43.3959 706.716 Q47.2789 703.692 54.4722 703.692 L75.9883 703.692 L75.9883 709.581 L54.6632 709.581 Q49.5388 709.581 47.0561 711.395 Q44.5735 713.209 44.5735 716.933 Q44.5735 721.485 47.5972 724.126 Q50.6209 726.768 55.8408 726.768 L75.9883 726.768 L75.9883 732.656 L54.6632 732.656 Q49.5069 732.656 47.0561 734.471 Q44.5735 736.285 44.5735 740.072 Q44.5735 744.56 47.6291 747.202 Q50.6528 749.844 55.8408 749.844 L75.9883 749.844 L75.9883 755.732 L40.3403 755.732 L40.3403 749.844 L45.8785 749.844 Q42.6002 747.839 41.0406 745.038 Q39.481 742.237 39.481 738.385 Q39.481 734.502 41.4543 731.797 Q43.4277 729.06 47.1835 727.755 Z" fill="#000000" fill-rule="evenodd" fill-opacity="1" /><path clip-path="url(#clip710)" d="M26.5267 692.934 L26.5267 687.842 Q34.0383 683.067 41.2315 680.712 Q48.4248 678.325 55.5225 678.325 Q62.6521 678.325 69.8772 680.712 Q77.1023 683.067 84.582 687.842 L84.582 692.934 Q77.2933 688.701 70.1 686.632 Q62.8749 684.532 55.5225 684.532 Q48.1701 684.532 41.0087 686.632 Q33.8473 688.701 26.5267 692.934 Z" fill="#000000" fill-rule="evenodd" fill-opacity="1" /><path clip-path="url(#clip710)" d="M665.968 35.3077 Q668.439 31.1758 674.556 27.5299 Q676.946 26.1121 684.318 26.1121 Q692.582 26.1121 697.727 32.6746 Q702.912 39.2371 702.912 49.9314 Q702.912 60.6258 697.727 67.1883 Q692.582 73.7508 684.318 73.7508 Q679.336 73.7508 675.731 71.8063 Q672.166 69.8214 669.816 65.7705 L669.816 89.8329 L662.322 89.8329 L662.322 50.3365 Q662.322 40.9789 665.968 35.3077 M695.175 49.9314 Q695.175 41.7081 691.772 37.0496 Q688.41 32.3505 682.496 32.3505 Q676.581 32.3505 673.178 37.0496 Q669.816 41.7081 669.816 49.9314 Q669.816 58.1548 673.178 62.8538 Q676.581 67.5124 682.496 67.5124 Q688.41 67.5124 691.772 62.8538 Q695.175 58.1548 695.175 49.9314 Z" fill="#000000" fill-rule="evenodd" fill-opacity="1" /><path clip-path="url(#clip710)" d="M749.741 86.3491 L749.741 92.1419 L706.639 92.1419 L706.639 86.3491 L749.741 86.3491 Z" fill="#000000" fill-rule="evenodd" fill-opacity="1" /><path clip-path="url(#clip710)" d="M775.302 17.4837 Q768.982 17.4837 765.782 23.7221 Q762.622 29.92 762.622 42.3968 Q762.622 54.833 765.782 61.0714 Q768.982 67.2693 775.302 67.2693 Q781.662 67.2693 784.821 61.0714 Q788.022 54.833 788.022 42.3968 Q788.022 29.92 784.821 23.7221 Q781.662 17.4837 775.302 17.4837 M775.302 11.0023 Q785.47 11.0023 790.817 19.0636 Q796.204 27.0843 796.204 42.3968 Q796.204 57.6687 790.817 65.73 Q785.47 73.7508 775.302 73.7508 Q765.134 73.7508 759.746 65.73 Q754.399 57.6687 754.399 42.3968 Q754.399 27.0843 759.746 19.0636 Q765.134 11.0023 775.302 11.0023 Z" fill="#000000" fill-rule="evenodd" fill-opacity="1" /><polyline clip-path="url(#clip712)" style="stroke:#009af9; stroke-linecap:butt; stroke-linejoin:round; stroke-width:4; stroke-opacity:1; fill:none" points="
  1195.14,1358.19 1184.29,1344.92 1173.46,1331.65 1162.66,1318.38 1151.88,1305.11 1141.13,1291.84 1130.41,1278.57 1119.71,1265.3 1109.04,1252.03 1098.4,1238.76 
  1087.78,1225.49 1077.19,1212.22 1066.62,1198.95 1056.08,1185.68 1045.57,1172.41 1033.63,1159.14 1021.29,1145.88 1009,1132.61 996.758,1119.34 984.571,1106.07 
  972.435,1092.8 960.35,1079.53 948.316,1066.26 936.332,1052.99 924.4,1039.72 912.517,1026.45 900.685,1013.18 888.903,999.91 877.171,986.641 865.488,973.371 
  853.855,960.102 842.275,946.832 830.741,933.563 819.257,920.293 807.822,907.024 796.435,893.754 785.097,880.485 773.808,867.215 762.567,853.946 751.374,840.676 
  740.229,827.407 729.133,814.137 718.084,800.868 707.082,787.598 696.128,774.329 685.222,761.059 674.362,747.79 663.55,734.52 652.784,721.251 642.066,707.981 
  631.393,694.712 620.767,681.442 610.188,668.172 599.654,654.903 589.166,641.633 578.725,628.364 568.328,615.094 557.978,601.825 547.672,588.555 537.412,575.286 
  527.197,562.016 517.027,548.747 506.902,535.477 496.821,522.208 486.785,508.938 476.793,495.669 466.845,482.399 456.941,469.13 447.081,455.86 437.265,442.591 
  427.491,429.321 417.762,416.052 408.076,402.782 398.433,389.513 388.834,376.243 379.277,362.974 369.763,349.704 360.292,336.435 350.863,323.165 341.477,309.896 
  332.133,296.626 322.83,283.357 313.57,270.087 304.352,256.818 295.175,243.548 286.04,230.279 276.946,217.009 267.893,203.739 
  "/>
<polyline clip-path="url(#clip712)" style="stroke:#e26f46; stroke-linecap:butt; stroke-linejoin:round; stroke-width:4; stroke-opacity:1; fill:none" points="
  1189.71,1351.55 1178.87,1338.28 1168.06,1325.01 1157.27,1311.74 1146.5,1298.47 1135.77,1285.2 1125.06,1271.94 1114.37,1258.67 1103.72,1245.4 1093.09,1232.13 
  1082.48,1218.86 1071.9,1205.59 1061.35,1192.32 1050.82,1179.05 1039.82,1165.78 1027.45,1152.51 1015.14,1139.24 1002.87,1125.97 990.658,1112.7 978.496,1099.43 
  966.386,1086.16 954.326,1072.89 942.318,1059.62 930.36,1046.35 918.452,1033.08 906.595,1019.81 894.788,1006.55 883.031,993.276 871.323,980.006 859.665,966.737 
  848.06,953.467 836.502,940.198 824.993,926.928 813.533,913.659 802.122,900.389 790.76,887.119 779.446,873.85 768.181,860.58 756.964,847.311 745.796,834.041 
  734.675,820.772 723.602,807.502 712.577,794.233 701.599,780.963 690.669,767.694 679.786,754.424 668.95,741.155 658.161,727.885 647.419,714.616 636.724,701.346 
  626.074,688.077 615.472,674.807 604.915,661.538 594.404,648.268 583.94,634.999 573.521,621.729 563.147,608.46 552.819,595.19 542.537,581.921 532.299,568.651 
  522.106,555.382 511.959,542.112 501.856,528.843 491.797,515.573 481.783,502.304 471.813,489.034 461.887,475.765 452.006,462.495 442.168,449.226 432.371,435.956 
  422.621,422.686 412.913,409.417 403.249,396.147 393.628,382.878 384.05,369.608 374.515,356.339 365.022,343.069 355.572,329.8 346.165,316.53 336.799,303.261 
  327.476,289.991 318.195,276.722 308.956,263.452 299.758,250.183 290.602,236.913 281.488,223.644 272.414,210.374 263.382,197.105 
  "/>
<path clip-path="url(#clip710)" d="
M908.143 358.817 L1190.17 358.817 L1190.17 203.297 L908.143 203.297  Z
  " fill="#ffffff" fill-rule="evenodd" fill-opacity="1"/>
<polyline clip-path="url(#clip710)" style="stroke:#000000; stroke-linecap:butt; stroke-linejoin:round; stroke-width:4; stroke-opacity:1; fill:none" points="
  908.143,358.817 1190.17,358.817 1190.17,203.297 908.143,203.297 908.143,358.817 
  "/>
<polyline clip-path="url(#clip710)" style="stroke:#009af9; stroke-linecap:butt; stroke-linejoin:round; stroke-width:4; stroke-opacity:1; fill:none" points="
  919.117,255.137 984.962,255.137 
  "/>
<path clip-path="url(#clip710)" d="M1016.45 247.487 L1016.45 251.468 Q1014.64 250.473 1012.81 249.987 Q1011.01 249.477 1009.15 249.477 Q1005.01 249.477 1002.72 252.116 Q1000.43 254.732 1000.43 259.477 Q1000.43 264.223 1002.72 266.862 Q1005.01 269.477 1009.15 269.477 Q1011.01 269.477 1012.81 268.991 Q1014.64 268.482 1016.45 267.487 L1016.45 271.422 Q1014.66 272.255 1012.74 272.672 Q1010.84 273.088 1008.69 273.088 Q1002.83 273.088 999.385 269.408 Q995.936 265.727 995.936 259.477 Q995.936 253.135 999.408 249.501 Q1002.9 245.866 1008.97 245.866 Q1010.94 245.866 1012.81 246.283 Q1014.69 246.677 1016.45 247.487 Z" fill="#000000" fill-rule="evenodd" fill-opacity="1" /><path clip-path="url(#clip710)" d="M1046.03 258.389 L1046.03 260.473 L1026.45 260.473 Q1026.72 264.871 1029.08 267.186 Q1031.47 269.477 1035.7 269.477 Q1038.16 269.477 1040.45 268.876 Q1042.76 268.274 1045.03 267.07 L1045.03 271.098 Q1042.74 272.07 1040.33 272.579 Q1037.93 273.088 1035.45 273.088 Q1029.25 273.088 1025.61 269.477 Q1022 265.866 1022 259.709 Q1022 253.343 1025.43 249.616 Q1028.88 245.866 1034.71 245.866 Q1039.94 245.866 1042.97 249.246 Q1046.03 252.602 1046.03 258.389 M1041.77 257.139 Q1041.72 253.644 1039.8 251.561 Q1037.9 249.477 1034.76 249.477 Q1031.19 249.477 1029.04 251.491 Q1026.91 253.505 1026.58 257.163 L1041.77 257.139 Z" fill="#000000" fill-rule="evenodd" fill-opacity="1" /><path clip-path="url(#clip710)" d="M1074.57 256.769 L1074.57 272.417 L1070.31 272.417 L1070.31 256.908 Q1070.31 253.227 1068.88 251.399 Q1067.44 249.57 1064.57 249.57 Q1061.12 249.57 1059.13 251.769 Q1057.14 253.968 1057.14 257.764 L1057.14 272.417 L1052.86 272.417 L1052.86 246.491 L1057.14 246.491 L1057.14 250.519 Q1058.67 248.181 1060.73 247.024 Q1062.81 245.866 1065.52 245.866 Q1069.99 245.866 1072.28 248.644 Q1074.57 251.399 1074.57 256.769 Z" fill="#000000" fill-rule="evenodd" fill-opacity="1" /><path clip-path="url(#clip710)" d="M1087.28 239.13 L1087.28 246.491 L1096.05 246.491 L1096.05 249.802 L1087.28 249.802 L1087.28 263.876 Q1087.28 267.047 1088.13 267.95 Q1089.01 268.852 1091.68 268.852 L1096.05 268.852 L1096.05 272.417 L1091.68 272.417 Q1086.75 272.417 1084.87 270.588 Q1083 268.737 1083 263.876 L1083 249.802 L1079.87 249.802 L1079.87 246.491 L1083 246.491 L1083 239.13 L1087.28 239.13 Z" fill="#000000" fill-rule="evenodd" fill-opacity="1" /><path clip-path="url(#clip710)" d="M1123.83 258.389 L1123.83 260.473 L1104.25 260.473 Q1104.52 264.871 1106.88 267.186 Q1109.27 269.477 1113.5 269.477 Q1115.96 269.477 1118.25 268.876 Q1120.56 268.274 1122.83 267.07 L1122.83 271.098 Q1120.54 272.07 1118.13 272.579 Q1115.73 273.088 1113.25 273.088 Q1107.05 273.088 1103.41 269.477 Q1099.8 265.866 1099.8 259.709 Q1099.8 253.343 1103.23 249.616 Q1106.68 245.866 1112.51 245.866 Q1117.74 245.866 1120.77 249.246 Q1123.83 252.602 1123.83 258.389 M1119.57 257.139 Q1119.52 253.644 1117.6 251.561 Q1115.7 249.477 1112.56 249.477 Q1108.99 249.477 1106.84 251.491 Q1104.71 253.505 1104.38 257.163 L1119.57 257.139 Z" fill="#000000" fill-rule="evenodd" fill-opacity="1" /><path clip-path="url(#clip710)" d="M1145.84 250.473 Q1145.12 250.056 1144.27 249.871 Q1143.44 249.663 1142.42 249.663 Q1138.81 249.663 1136.86 252.024 Q1134.94 254.362 1134.94 258.76 L1134.94 272.417 L1130.66 272.417 L1130.66 246.491 L1134.94 246.491 L1134.94 250.519 Q1136.28 248.158 1138.44 247.024 Q1140.59 245.866 1143.67 245.866 Q1144.11 245.866 1144.64 245.936 Q1145.17 245.982 1145.82 246.098 L1145.84 250.473 Z" fill="#000000" fill-rule="evenodd" fill-opacity="1" /><path clip-path="url(#clip710)" d="M1166.84 247.255 L1166.84 251.283 Q1165.03 250.357 1163.09 249.894 Q1161.14 249.431 1159.06 249.431 Q1155.89 249.431 1154.29 250.403 Q1152.72 251.376 1152.72 253.32 Q1152.72 254.802 1153.85 255.658 Q1154.99 256.491 1158.41 257.255 L1159.87 257.579 Q1164.41 258.552 1166.31 260.334 Q1168.23 262.093 1168.23 265.264 Q1168.23 268.876 1165.36 270.982 Q1162.51 273.088 1157.51 273.088 Q1155.43 273.088 1153.16 272.672 Q1150.91 272.278 1148.41 271.468 L1148.41 267.07 Q1150.77 268.297 1153.06 268.922 Q1155.36 269.524 1157.6 269.524 Q1160.61 269.524 1162.23 268.505 Q1163.85 267.463 1163.85 265.589 Q1163.85 263.852 1162.67 262.926 Q1161.51 262.001 1157.56 261.144 L1156.07 260.797 Q1152.12 259.964 1150.36 258.251 Q1148.6 256.514 1148.6 253.505 Q1148.6 249.848 1151.19 247.857 Q1153.78 245.866 1158.55 245.866 Q1160.91 245.866 1163 246.214 Q1165.08 246.561 1166.84 247.255 Z" fill="#000000" fill-rule="evenodd" fill-opacity="1" /><polyline clip-path="url(#clip710)" style="stroke:#e26f46; stroke-linecap:butt; stroke-linejoin:round; stroke-width:4; stroke-opacity:1; fill:none" points="
  919.117,306.977 984.962,306.977 
  "/>
<path clip-path="url(#clip710)" d="M1012.44 288.239 L1012.44 291.78 L1008.37 291.78 Q1006.07 291.78 1005.17 292.706 Q1004.29 293.632 1004.29 296.04 L1004.29 298.331 L1011.31 298.331 L1011.31 301.642 L1004.29 301.642 L1004.29 324.257 L1000.01 324.257 L1000.01 301.642 L995.936 301.642 L995.936 298.331 L1000.01 298.331 L1000.01 296.526 Q1000.01 292.197 1002.02 290.23 Q1004.04 288.239 1008.41 288.239 L1012.44 288.239 Z" fill="#000000" fill-rule="evenodd" fill-opacity="1" /><path clip-path="url(#clip710)" d="M1027.79 311.225 Q1022.63 311.225 1020.63 312.405 Q1018.64 313.586 1018.64 316.433 Q1018.64 318.702 1020.13 320.044 Q1021.63 321.364 1024.2 321.364 Q1027.74 321.364 1029.87 318.864 Q1032.02 316.341 1032.02 312.174 L1032.02 311.225 L1027.79 311.225 M1036.28 309.466 L1036.28 324.257 L1032.02 324.257 L1032.02 320.322 Q1030.57 322.683 1028.39 323.817 Q1026.21 324.928 1023.07 324.928 Q1019.08 324.928 1016.72 322.706 Q1014.38 320.461 1014.38 316.711 Q1014.38 312.336 1017.3 310.114 Q1020.24 307.892 1026.05 307.892 L1032.02 307.892 L1032.02 307.475 Q1032.02 304.535 1030.08 302.938 Q1028.16 301.317 1024.66 301.317 Q1022.44 301.317 1020.33 301.85 Q1018.23 302.382 1016.28 303.447 L1016.28 299.512 Q1018.62 298.609 1020.82 298.169 Q1023.02 297.706 1025.1 297.706 Q1030.73 297.706 1033.51 300.623 Q1036.28 303.54 1036.28 309.466 Z" fill="#000000" fill-rule="evenodd" fill-opacity="1" /><path clip-path="url(#clip710)" d="M1063.71 299.327 L1063.71 303.308 Q1061.91 302.313 1060.08 301.827 Q1058.27 301.317 1056.42 301.317 Q1052.28 301.317 1049.99 303.956 Q1047.69 306.572 1047.69 311.317 Q1047.69 316.063 1049.99 318.702 Q1052.28 321.317 1056.42 321.317 Q1058.27 321.317 1060.08 320.831 Q1061.91 320.322 1063.71 319.327 L1063.71 323.262 Q1061.93 324.095 1060.01 324.512 Q1058.11 324.928 1055.96 324.928 Q1050.1 324.928 1046.65 321.248 Q1043.2 317.567 1043.2 311.317 Q1043.2 304.975 1046.68 301.341 Q1050.17 297.706 1056.24 297.706 Q1058.2 297.706 1060.08 298.123 Q1061.95 298.517 1063.71 299.327 Z" fill="#000000" fill-rule="evenodd" fill-opacity="1" /><path clip-path="url(#clip710)" d="M1093.3 310.229 L1093.3 312.313 L1073.71 312.313 Q1073.99 316.711 1076.35 319.026 Q1078.74 321.317 1082.97 321.317 Q1085.43 321.317 1087.72 320.716 Q1090.03 320.114 1092.3 318.91 L1092.3 322.938 Q1090.01 323.91 1087.6 324.419 Q1085.19 324.928 1082.72 324.928 Q1076.51 324.928 1072.88 321.317 Q1069.27 317.706 1069.27 311.549 Q1069.27 305.183 1072.69 301.456 Q1076.14 297.706 1081.98 297.706 Q1087.21 297.706 1090.24 301.086 Q1093.3 304.442 1093.3 310.229 M1089.04 308.979 Q1088.99 305.484 1087.07 303.401 Q1085.17 301.317 1082.02 301.317 Q1078.46 301.317 1076.31 303.331 Q1074.18 305.345 1073.85 309.003 L1089.04 308.979 Z" fill="#000000" fill-rule="evenodd" fill-opacity="1" /><path clip-path="url(#clip710)" d="M1116.81 299.095 L1116.81 303.123 Q1115.01 302.197 1113.06 301.734 Q1111.12 301.271 1109.04 301.271 Q1105.87 301.271 1104.27 302.243 Q1102.69 303.216 1102.69 305.16 Q1102.69 306.642 1103.83 307.498 Q1104.96 308.331 1108.39 309.095 L1109.85 309.419 Q1114.38 310.392 1116.28 312.174 Q1118.2 313.933 1118.2 317.104 Q1118.2 320.716 1115.33 322.822 Q1112.49 324.928 1107.49 324.928 Q1105.4 324.928 1103.13 324.512 Q1100.89 324.118 1098.39 323.308 L1098.39 318.91 Q1100.75 320.137 1103.04 320.762 Q1105.33 321.364 1107.58 321.364 Q1110.59 321.364 1112.21 320.345 Q1113.83 319.303 1113.83 317.429 Q1113.83 315.692 1112.65 314.766 Q1111.49 313.841 1107.53 312.984 L1106.05 312.637 Q1102.09 311.804 1100.33 310.091 Q1098.57 308.354 1098.57 305.345 Q1098.57 301.688 1101.17 299.697 Q1103.76 297.706 1108.53 297.706 Q1110.89 297.706 1112.97 298.054 Q1115.06 298.401 1116.81 299.095 Z" fill="#000000" fill-rule="evenodd" fill-opacity="1" /><path clip-path="url(#clip710)" d="
M1568.76 1393.02 L2556.43 1393.02 L2556.43 162.272 L1568.76 162.272  Z
  " fill="#ffffff" fill-rule="evenodd" fill-opacity="1"/>
<defs>
  <clipPath id="clip713">
    <rect x="1568" y="162" width="989" height="1232"/>
  </clipPath>
</defs>
<polyline clip-path="url(#clip713)" style="stroke:#000000; stroke-linecap:butt; stroke-linejoin:round; stroke-width:2; stroke-opacity:0.1; fill:none" points="
  1657.12,1393.02 1657.12,162.272 
  "/>
<polyline clip-path="url(#clip713)" style="stroke:#000000; stroke-linecap:butt; stroke-linejoin:round; stroke-width:2; stroke-opacity:0.1; fill:none" points="
  1894.38,1393.02 1894.38,162.272 
  "/>
<polyline clip-path="url(#clip713)" style="stroke:#000000; stroke-linecap:butt; stroke-linejoin:round; stroke-width:2; stroke-opacity:0.1; fill:none" points="
  2131.64,1393.02 2131.64,162.272 
  "/>
<polyline clip-path="url(#clip713)" style="stroke:#000000; stroke-linecap:butt; stroke-linejoin:round; stroke-width:2; stroke-opacity:0.1; fill:none" points="
  2368.9,1393.02 2368.9,162.272 
  "/>
<polyline clip-path="url(#clip710)" style="stroke:#000000; stroke-linecap:butt; stroke-linejoin:round; stroke-width:4; stroke-opacity:1; fill:none" points="
  1568.76,1393.02 2556.43,1393.02 
  "/>
<polyline clip-path="url(#clip710)" style="stroke:#000000; stroke-linecap:butt; stroke-linejoin:round; stroke-width:4; stroke-opacity:1; fill:none" points="
  1657.12,1393.02 1657.12,1374.12 
  "/>
<polyline clip-path="url(#clip710)" style="stroke:#000000; stroke-linecap:butt; stroke-linejoin:round; stroke-width:4; stroke-opacity:1; fill:none" points="
  1894.38,1393.02 1894.38,1374.12 
  "/>
<polyline clip-path="url(#clip710)" style="stroke:#000000; stroke-linecap:butt; stroke-linejoin:round; stroke-width:4; stroke-opacity:1; fill:none" points="
  2131.64,1393.02 2131.64,1374.12 
  "/>
<polyline clip-path="url(#clip710)" style="stroke:#000000; stroke-linecap:butt; stroke-linejoin:round; stroke-width:4; stroke-opacity:1; fill:none" points="
  2368.9,1393.02 2368.9,1374.12 
  "/>
<path clip-path="url(#clip710)" d="M1642.53 1447.35 Q1639.38 1447.35 1637.53 1449.5 Q1635.7 1451.65 1635.7 1455.4 Q1635.7 1459.13 1637.53 1461.31 Q1639.38 1463.46 1642.53 1463.46 Q1645.68 1463.46 1647.5 1461.31 Q1649.36 1459.13 1649.36 1455.4 Q1649.36 1451.65 1647.5 1449.5 Q1645.68 1447.35 1642.53 1447.35 M1651.81 1432.7 L1651.81 1436.95 Q1650.05 1436.12 1648.24 1435.68 Q1646.46 1435.24 1644.7 1435.24 Q1640.07 1435.24 1637.62 1438.37 Q1635.19 1441.49 1634.84 1447.81 Q1636.21 1445.8 1638.27 1444.73 Q1640.33 1443.64 1642.8 1443.64 Q1648.01 1443.64 1651.02 1446.82 Q1654.05 1449.96 1654.05 1455.4 Q1654.05 1460.73 1650.91 1463.95 Q1647.76 1467.16 1642.53 1467.16 Q1636.53 1467.16 1633.36 1462.58 Q1630.19 1457.97 1630.19 1449.25 Q1630.19 1441.05 1634.08 1436.19 Q1637.97 1431.31 1644.52 1431.31 Q1646.28 1431.31 1648.06 1431.65 Q1649.87 1432 1651.81 1432.7 Z" fill="#000000" fill-rule="evenodd" fill-opacity="1" /><path clip-path="url(#clip710)" d="M1672.11 1435.01 Q1668.5 1435.01 1666.67 1438.58 Q1664.87 1442.12 1664.87 1449.25 Q1664.87 1456.35 1666.67 1459.92 Q1668.5 1463.46 1672.11 1463.46 Q1675.74 1463.46 1677.55 1459.92 Q1679.38 1456.35 1679.38 1449.25 Q1679.38 1442.12 1677.55 1438.58 Q1675.74 1435.01 1672.11 1435.01 M1672.11 1431.31 Q1677.92 1431.31 1680.98 1435.91 Q1684.05 1440.5 1684.05 1449.25 Q1684.05 1457.97 1680.98 1462.58 Q1677.92 1467.16 1672.11 1467.16 Q1666.3 1467.16 1663.22 1462.58 Q1660.17 1457.97 1660.17 1449.25 Q1660.17 1440.5 1663.22 1435.91 Q1666.3 1431.31 1672.11 1431.31 Z" fill="#000000" fill-rule="evenodd" fill-opacity="1" /><path clip-path="url(#clip710)" d="M1867.74 1431.93 L1889.96 1431.93 L1889.96 1433.92 L1877.41 1466.49 L1872.53 1466.49 L1884.34 1435.87 L1867.74 1435.87 L1867.74 1431.93 Z" fill="#000000" fill-rule="evenodd" fill-opacity="1" /><path clip-path="url(#clip710)" d="M1909.08 1435.01 Q1905.47 1435.01 1903.64 1438.58 Q1901.84 1442.12 1901.84 1449.25 Q1901.84 1456.35 1903.64 1459.92 Q1905.47 1463.46 1909.08 1463.46 Q1912.72 1463.46 1914.52 1459.92 Q1916.35 1456.35 1916.35 1449.25 Q1916.35 1442.12 1914.52 1438.58 Q1912.72 1435.01 1909.08 1435.01 M1909.08 1431.31 Q1914.89 1431.31 1917.95 1435.91 Q1921.03 1440.5 1921.03 1449.25 Q1921.03 1457.97 1917.95 1462.58 Q1914.89 1467.16 1909.08 1467.16 Q1903.27 1467.16 1900.19 1462.58 Q1897.14 1457.97 1897.14 1449.25 Q1897.14 1440.5 1900.19 1435.91 Q1903.27 1431.31 1909.08 1431.31 Z" fill="#000000" fill-rule="evenodd" fill-opacity="1" /><path clip-path="url(#clip710)" d="M2116.51 1450.08 Q2113.18 1450.08 2111.26 1451.86 Q2109.36 1453.64 2109.36 1456.77 Q2109.36 1459.89 2111.26 1461.68 Q2113.18 1463.46 2116.51 1463.46 Q2119.85 1463.46 2121.77 1461.68 Q2123.69 1459.87 2123.69 1456.77 Q2123.69 1453.64 2121.77 1451.86 Q2119.87 1450.08 2116.51 1450.08 M2111.84 1448.09 Q2108.83 1447.35 2107.14 1445.29 Q2105.47 1443.23 2105.47 1440.27 Q2105.47 1436.12 2108.41 1433.71 Q2111.38 1431.31 2116.51 1431.31 Q2121.68 1431.31 2124.62 1433.71 Q2127.56 1436.12 2127.56 1440.27 Q2127.56 1443.23 2125.87 1445.29 Q2124.2 1447.35 2121.21 1448.09 Q2124.59 1448.88 2126.47 1451.17 Q2128.37 1453.46 2128.37 1456.77 Q2128.37 1461.79 2125.29 1464.48 Q2122.23 1467.16 2116.51 1467.16 Q2110.8 1467.16 2107.72 1464.48 Q2104.66 1461.79 2104.66 1456.77 Q2104.66 1453.46 2106.56 1451.17 Q2108.46 1448.88 2111.84 1448.09 M2110.13 1440.7 Q2110.13 1443.39 2111.79 1444.89 Q2113.48 1446.4 2116.51 1446.4 Q2119.52 1446.4 2121.21 1444.89 Q2122.93 1443.39 2122.93 1440.7 Q2122.93 1438.02 2121.21 1436.52 Q2119.52 1435.01 2116.51 1435.01 Q2113.48 1435.01 2111.79 1436.52 Q2110.13 1438.02 2110.13 1440.7 Z" fill="#000000" fill-rule="evenodd" fill-opacity="1" /><path clip-path="url(#clip710)" d="M2146.68 1435.01 Q2143.07 1435.01 2141.24 1438.58 Q2139.43 1442.12 2139.43 1449.25 Q2139.43 1456.35 2141.24 1459.92 Q2143.07 1463.46 2146.68 1463.46 Q2150.31 1463.46 2152.12 1459.92 Q2153.94 1456.35 2153.94 1449.25 Q2153.94 1442.12 2152.12 1438.58 Q2150.31 1435.01 2146.68 1435.01 M2146.68 1431.31 Q2152.49 1431.31 2155.54 1435.91 Q2158.62 1440.5 2158.62 1449.25 Q2158.62 1457.97 2155.54 1462.58 Q2152.49 1467.16 2146.68 1467.16 Q2140.87 1467.16 2137.79 1462.58 Q2134.73 1457.97 2134.73 1449.25 Q2134.73 1440.5 2137.79 1435.91 Q2140.87 1431.31 2146.68 1431.31 Z" fill="#000000" fill-rule="evenodd" fill-opacity="1" /><path clip-path="url(#clip710)" d="M2344.03 1465.77 L2344.03 1461.51 Q2345.79 1462.35 2347.59 1462.79 Q2349.4 1463.23 2351.14 1463.23 Q2355.77 1463.23 2358.2 1460.13 Q2360.65 1457 2361 1450.66 Q2359.65 1452.65 2357.59 1453.71 Q2355.53 1454.78 2353.03 1454.78 Q2347.85 1454.78 2344.82 1451.65 Q2341.81 1448.51 2341.81 1443.07 Q2341.81 1437.74 2344.96 1434.52 Q2348.1 1431.31 2353.33 1431.31 Q2359.33 1431.31 2362.48 1435.91 Q2365.65 1440.5 2365.65 1449.25 Q2365.65 1457.42 2361.76 1462.3 Q2357.89 1467.16 2351.34 1467.16 Q2349.58 1467.16 2347.78 1466.82 Q2345.97 1466.47 2344.03 1465.77 M2353.33 1451.12 Q2356.48 1451.12 2358.31 1448.97 Q2360.16 1446.82 2360.16 1443.07 Q2360.16 1439.34 2358.31 1437.19 Q2356.48 1435.01 2353.33 1435.01 Q2350.19 1435.01 2348.33 1437.19 Q2346.51 1439.34 2346.51 1443.07 Q2346.51 1446.82 2348.33 1448.97 Q2350.19 1451.12 2353.33 1451.12 Z" fill="#000000" fill-rule="evenodd" fill-opacity="1" /><path clip-path="url(#clip710)" d="M2384.05 1435.01 Q2380.44 1435.01 2378.61 1438.58 Q2376.81 1442.12 2376.81 1449.25 Q2376.81 1456.35 2378.61 1459.92 Q2380.44 1463.46 2384.05 1463.46 Q2387.69 1463.46 2389.49 1459.92 Q2391.32 1456.35 2391.32 1449.25 Q2391.32 1442.12 2389.49 1438.58 Q2387.69 1435.01 2384.05 1435.01 M2384.05 1431.31 Q2389.86 1431.31 2392.92 1435.91 Q2396 1440.5 2396 1449.25 Q2396 1457.97 2392.92 1462.58 Q2389.86 1467.16 2384.05 1467.16 Q2378.24 1467.16 2375.16 1462.58 Q2372.11 1457.97 2372.11 1449.25 Q2372.11 1440.5 2375.16 1435.91 Q2378.24 1431.31 2384.05 1431.31 Z" fill="#000000" fill-rule="evenodd" fill-opacity="1" /><path clip-path="url(#clip710)" d="M1923.7 1556.54 L1923.7 1575.44 L1917.81 1575.44 L1917.81 1526.24 L1923.7 1526.24 L1923.7 1531.65 Q1925.54 1528.46 1928.34 1526.94 Q1931.18 1525.38 1935.09 1525.38 Q1941.58 1525.38 1945.63 1530.53 Q1949.7 1535.69 1949.7 1544.09 Q1949.7 1552.49 1945.63 1557.65 Q1941.58 1562.81 1935.09 1562.81 Q1931.18 1562.81 1928.34 1561.28 Q1925.54 1559.72 1923.7 1556.54 M1943.62 1544.09 Q1943.62 1537.63 1940.95 1533.97 Q1938.31 1530.28 1933.66 1530.28 Q1929.01 1530.28 1926.34 1533.97 Q1923.7 1537.63 1923.7 1544.09 Q1923.7 1550.55 1926.34 1554.24 Q1929.01 1557.91 1933.66 1557.91 Q1938.31 1557.91 1940.95 1554.24 Q1943.62 1550.55 1943.62 1544.09 Z" fill="#000000" fill-rule="evenodd" fill-opacity="1" /><path clip-path="url(#clip710)" d="M1986.49 1572.71 L1986.49 1577.26 L1952.63 1577.26 L1952.63 1572.71 L1986.49 1572.71 Z" fill="#000000" fill-rule="evenodd" fill-opacity="1" /><path clip-path="url(#clip710)" d="M2006.58 1518.6 Q2001.61 1518.6 1999.1 1523.5 Q1996.62 1528.37 1996.62 1538.17 Q1996.62 1547.94 1999.1 1552.84 Q2001.61 1557.71 2006.58 1557.71 Q2011.58 1557.71 2014.06 1552.84 Q2016.57 1547.94 2016.57 1538.17 Q2016.57 1528.37 2014.06 1523.5 Q2011.58 1518.6 2006.58 1518.6 M2006.58 1513.5 Q2014.57 1513.5 2018.77 1519.84 Q2023 1526.14 2023 1538.17 Q2023 1550.17 2018.77 1556.5 Q2014.57 1562.81 2006.58 1562.81 Q1998.59 1562.81 1994.36 1556.5 Q1990.15 1550.17 1990.15 1538.17 Q1990.15 1526.14 1994.36 1519.84 Q1998.59 1513.5 2006.58 1513.5 Z" fill="#000000" fill-rule="evenodd" fill-opacity="1" /><path clip-path="url(#clip710)" d="M2068.26 1512.42 Q2064 1519.74 2061.93 1526.9 Q2059.86 1534.07 2059.86 1541.42 Q2059.86 1548.77 2061.93 1556 Q2064.03 1563.19 2068.26 1570.48 L2063.17 1570.48 Q2058.4 1563 2056.01 1555.77 Q2053.65 1548.55 2053.65 1541.42 Q2053.65 1534.32 2056.01 1527.13 Q2058.36 1519.93 2063.17 1512.42 L2068.26 1512.42 Z" fill="#000000" fill-rule="evenodd" fill-opacity="1" /><path clip-path="url(#clip710)" d="M2079.4 1512.36 L2085.29 1512.36 L2085.29 1541.61 L2102.76 1526.24 L2110.24 1526.24 L2091.34 1542.91 L2111.04 1561.88 L2103.4 1561.88 L2085.29 1544.47 L2085.29 1561.88 L2079.4 1561.88 L2079.4 1512.36 Z" fill="#000000" fill-rule="evenodd" fill-opacity="1" /><path clip-path="url(#clip710)" d="M2124.06 1519.65 L2124.06 1537.5 L2132.14 1537.5 Q2136.63 1537.5 2139.08 1535.18 Q2141.53 1532.86 2141.53 1528.56 Q2141.53 1524.29 2139.08 1521.97 Q2136.63 1519.65 2132.14 1519.65 L2124.06 1519.65 M2117.63 1514.36 L2132.14 1514.36 Q2140.13 1514.36 2144.2 1517.99 Q2148.31 1521.59 2148.31 1528.56 Q2148.31 1535.59 2144.2 1539.19 Q2140.13 1542.79 2132.14 1542.79 L2124.06 1542.79 L2124.06 1561.88 L2117.63 1561.88 L2117.63 1514.36 Z" fill="#000000" fill-rule="evenodd" fill-opacity="1" /><path clip-path="url(#clip710)" d="M2169.95 1543.96 Q2162.86 1543.96 2160.12 1545.59 Q2157.38 1547.21 2157.38 1551.13 Q2157.38 1554.24 2159.42 1556.09 Q2161.49 1557.91 2165.02 1557.91 Q2169.89 1557.91 2172.82 1554.47 Q2175.78 1551 2175.78 1545.27 L2175.78 1543.96 L2169.95 1543.96 M2181.64 1541.55 L2181.64 1561.88 L2175.78 1561.88 L2175.78 1556.47 Q2173.77 1559.72 2170.78 1561.28 Q2167.79 1562.81 2163.46 1562.81 Q2157.99 1562.81 2154.74 1559.75 Q2151.53 1556.66 2151.53 1551.51 Q2151.53 1545.49 2155.54 1542.44 Q2159.58 1539.38 2167.57 1539.38 L2175.78 1539.38 L2175.78 1538.81 Q2175.78 1534.77 2173.11 1532.57 Q2170.46 1530.34 2165.66 1530.34 Q2162.6 1530.34 2159.71 1531.07 Q2156.81 1531.81 2154.14 1533.27 L2154.14 1527.86 Q2157.35 1526.62 2160.37 1526.01 Q2163.4 1525.38 2166.26 1525.38 Q2174 1525.38 2177.82 1529.39 Q2181.64 1533.4 2181.64 1541.55 Z" fill="#000000" fill-rule="evenodd" fill-opacity="1" /><path clip-path="url(#clip710)" d="M2192.78 1512.42 L2197.87 1512.42 Q2202.64 1519.93 2205 1527.13 Q2207.38 1534.32 2207.38 1541.42 Q2207.38 1548.55 2205 1555.77 Q2202.64 1563 2197.87 1570.48 L2192.78 1570.48 Q2197.01 1563.19 2199.08 1556 Q2201.18 1548.77 2201.18 1541.42 Q2201.18 1534.07 2199.08 1526.9 Q2197.01 1519.74 2192.78 1512.42 Z" fill="#000000" fill-rule="evenodd" fill-opacity="1" /><polyline clip-path="url(#clip713)" style="stroke:#000000; stroke-linecap:butt; stroke-linejoin:round; stroke-width:2; stroke-opacity:0.1; fill:none" points="
  1568.76,1364.82 2556.43,1364.82 
  "/>
<polyline clip-path="url(#clip713)" style="stroke:#000000; stroke-linecap:butt; stroke-linejoin:round; stroke-width:2; stroke-opacity:0.1; fill:none" points="
  1568.76,1099.43 2556.43,1099.43 
  "/>
<polyline clip-path="url(#clip713)" style="stroke:#000000; stroke-linecap:butt; stroke-linejoin:round; stroke-width:2; stroke-opacity:0.1; fill:none" points="
  1568.76,834.041 2556.43,834.041 
  "/>
<polyline clip-path="url(#clip713)" style="stroke:#000000; stroke-linecap:butt; stroke-linejoin:round; stroke-width:2; stroke-opacity:0.1; fill:none" points="
  1568.76,568.651 2556.43,568.651 
  "/>
<polyline clip-path="url(#clip713)" style="stroke:#000000; stroke-linecap:butt; stroke-linejoin:round; stroke-width:2; stroke-opacity:0.1; fill:none" points="
  1568.76,303.261 2556.43,303.261 
  "/>
<polyline clip-path="url(#clip710)" style="stroke:#000000; stroke-linecap:butt; stroke-linejoin:round; stroke-width:4; stroke-opacity:1; fill:none" points="
  1568.76,1393.02 1568.76,162.272 
  "/>
<polyline clip-path="url(#clip710)" style="stroke:#000000; stroke-linecap:butt; stroke-linejoin:round; stroke-width:4; stroke-opacity:1; fill:none" points="
  1568.76,1364.82 1587.66,1364.82 
  "/>
<polyline clip-path="url(#clip710)" style="stroke:#000000; stroke-linecap:butt; stroke-linejoin:round; stroke-width:4; stroke-opacity:1; fill:none" points="
  1568.76,1099.43 1587.66,1099.43 
  "/>
<polyline clip-path="url(#clip710)" style="stroke:#000000; stroke-linecap:butt; stroke-linejoin:round; stroke-width:4; stroke-opacity:1; fill:none" points="
  1568.76,834.041 1587.66,834.041 
  "/>
<polyline clip-path="url(#clip710)" style="stroke:#000000; stroke-linecap:butt; stroke-linejoin:round; stroke-width:4; stroke-opacity:1; fill:none" points="
  1568.76,568.651 1587.66,568.651 
  "/>
<polyline clip-path="url(#clip710)" style="stroke:#000000; stroke-linecap:butt; stroke-linejoin:round; stroke-width:4; stroke-opacity:1; fill:none" points="
  1568.76,303.261 1587.66,303.261 
  "/>
<path clip-path="url(#clip710)" d="M1496.82 1350.62 Q1493.21 1350.62 1491.38 1354.19 Q1489.57 1357.73 1489.57 1364.86 Q1489.57 1371.96 1491.38 1375.53 Q1493.21 1379.07 1496.82 1379.07 Q1500.45 1379.07 1502.26 1375.53 Q1504.09 1371.96 1504.09 1364.86 Q1504.09 1357.73 1502.26 1354.19 Q1500.45 1350.62 1496.82 1350.62 M1496.82 1346.92 Q1502.63 1346.92 1505.68 1351.52 Q1508.76 1356.11 1508.76 1364.86 Q1508.76 1373.58 1505.68 1378.19 Q1502.63 1382.77 1496.82 1382.77 Q1491.01 1382.77 1487.93 1378.19 Q1484.87 1373.58 1484.87 1364.86 Q1484.87 1356.11 1487.93 1351.52 Q1491.01 1346.92 1496.82 1346.92 Z" fill="#000000" fill-rule="evenodd" fill-opacity="1" /><path clip-path="url(#clip710)" d="M1488.86 1112.78 L1496.49 1112.78 L1496.49 1086.41 L1488.18 1088.08 L1488.18 1083.82 L1496.45 1082.15 L1501.12 1082.15 L1501.12 1112.78 L1508.76 1112.78 L1508.76 1116.71 L1488.86 1116.71 L1488.86 1112.78 Z" fill="#000000" fill-rule="evenodd" fill-opacity="1" /><path clip-path="url(#clip710)" d="M1492.44 847.386 L1508.76 847.386 L1508.76 851.321 L1486.82 851.321 L1486.82 847.386 Q1489.48 844.632 1494.06 840.002 Q1498.67 835.349 1499.85 834.007 Q1502.1 831.484 1502.98 829.747 Q1503.88 827.988 1503.88 826.298 Q1503.88 823.544 1501.93 821.808 Q1500.01 820.072 1496.91 820.072 Q1494.71 820.072 1492.26 820.835 Q1489.83 821.599 1487.05 823.15 L1487.05 818.428 Q1489.87 817.294 1492.33 816.715 Q1494.78 816.136 1496.82 816.136 Q1502.19 816.136 1505.38 818.822 Q1508.58 821.507 1508.58 825.997 Q1508.58 828.127 1507.77 830.048 Q1506.98 831.947 1504.87 834.539 Q1504.3 835.21 1501.19 838.428 Q1498.09 841.622 1492.44 847.386 Z" fill="#000000" fill-rule="evenodd" fill-opacity="1" /><path clip-path="url(#clip710)" d="M1501.63 567.297 Q1504.99 568.015 1506.86 570.283 Q1508.76 572.552 1508.76 575.885 Q1508.76 581.001 1505.24 583.802 Q1501.73 586.602 1495.24 586.602 Q1493.07 586.602 1490.75 586.163 Q1488.46 585.746 1486.01 584.889 L1486.01 580.376 Q1487.95 581.51 1490.27 582.089 Q1492.58 582.667 1495.11 582.667 Q1499.5 582.667 1501.8 580.931 Q1504.11 579.195 1504.11 575.885 Q1504.11 572.829 1501.96 571.116 Q1499.83 569.38 1496.01 569.38 L1491.98 569.38 L1491.98 565.538 L1496.19 565.538 Q1499.64 565.538 1501.47 564.172 Q1503.3 562.783 1503.3 560.191 Q1503.3 557.529 1501.4 556.116 Q1499.53 554.681 1496.01 554.681 Q1494.09 554.681 1491.89 555.098 Q1489.69 555.515 1487.05 556.394 L1487.05 552.228 Q1489.71 551.487 1492.03 551.117 Q1494.36 550.746 1496.42 550.746 Q1501.75 550.746 1504.85 553.177 Q1507.95 555.584 1507.95 559.704 Q1507.95 562.575 1506.31 564.566 Q1504.67 566.533 1501.63 567.297 Z" fill="#000000" fill-rule="evenodd" fill-opacity="1" /><path clip-path="url(#clip710)" d="M1499.18 290.055 L1487.37 308.504 L1499.18 308.504 L1499.18 290.055 M1497.95 285.981 L1503.83 285.981 L1503.83 308.504 L1508.76 308.504 L1508.76 312.393 L1503.83 312.393 L1503.83 320.541 L1499.18 320.541 L1499.18 312.393 L1483.58 312.393 L1483.58 307.879 L1497.95 285.981 Z" fill="#000000" fill-rule="evenodd" fill-opacity="1" /><path clip-path="url(#clip710)" d="M1373.67 876.171 L1373.67 848.353 L1379.02 848.353 L1404.64 870.378 L1404.64 848.353 L1409.32 848.353 L1409.32 876.967 L1403.97 876.967 L1378.35 854.942 L1378.35 876.171 L1373.67 876.171 Z" fill="#000000" fill-rule="evenodd" fill-opacity="1" /><path clip-path="url(#clip710)" d="M1359.86 804.621 Q1367.18 808.886 1374.34 810.955 Q1381.5 813.023 1388.86 813.023 Q1396.21 813.023 1403.43 810.955 Q1410.63 808.854 1417.92 804.621 L1417.92 809.713 Q1410.44 814.488 1403.21 816.875 Q1395.99 819.23 1388.86 819.23 Q1381.76 819.23 1374.56 816.875 Q1367.37 814.519 1359.86 809.713 L1359.86 804.621 Z" fill="#000000" fill-rule="evenodd" fill-opacity="1" /><path clip-path="url(#clip710)" d="M1359.8 793.481 L1359.8 787.592 L1389.05 787.592 L1373.67 770.119 L1373.67 762.639 L1390.35 781.545 L1409.32 761.843 L1409.32 769.482 L1391.91 787.592 L1409.32 787.592 L1409.32 793.481 L1359.8 793.481 Z" fill="#000000" fill-rule="evenodd" fill-opacity="1" /><path clip-path="url(#clip710)" d="M1380.52 727.755 Q1376.57 725.559 1374.69 722.503 Q1372.81 719.448 1372.81 715.31 Q1372.81 709.74 1376.73 706.716 Q1380.61 703.692 1387.81 703.692 L1409.32 703.692 L1409.32 709.581 L1388 709.581 Q1382.87 709.581 1380.39 711.395 Q1377.91 713.209 1377.91 716.933 Q1377.91 721.485 1380.93 724.126 Q1383.95 726.768 1389.17 726.768 L1409.32 726.768 L1409.32 732.656 L1388 732.656 Q1382.84 732.656 1380.39 734.471 Q1377.91 736.285 1377.91 740.072 Q1377.91 744.56 1380.96 747.202 Q1383.99 749.844 1389.17 749.844 L1409.32 749.844 L1409.32 755.732 L1373.67 755.732 L1373.67 749.844 L1379.21 749.844 Q1375.93 747.839 1374.37 745.038 Q1372.81 742.237 1372.81 738.385 Q1372.81 734.502 1374.79 731.797 Q1376.76 729.06 1380.52 727.755 Z" fill="#000000" fill-rule="evenodd" fill-opacity="1" /><path clip-path="url(#clip710)" d="M1359.86 692.934 L1359.86 687.842 Q1367.37 683.067 1374.56 680.712 Q1381.76 678.325 1388.86 678.325 Q1395.99 678.325 1403.21 680.712 Q1410.44 683.067 1417.92 687.842 L1417.92 692.934 Q1410.63 688.701 1403.43 686.632 Q1396.21 684.532 1388.86 684.532 Q1381.5 684.532 1374.34 686.632 Q1367.18 688.701 1359.86 692.934 Z" fill="#000000" fill-rule="evenodd" fill-opacity="1" /><path clip-path="url(#clip710)" d="M1885.82 65.7705 L1885.82 89.8329 L1878.32 89.8329 L1878.32 27.2059 L1885.82 27.2059 L1885.82 34.0924 Q1888.16 30.0415 1891.73 28.0971 Q1895.33 26.1121 1900.32 26.1121 Q1908.58 26.1121 1913.73 32.6746 Q1918.91 39.2371 1918.91 49.9314 Q1918.91 60.6258 1913.73 67.1883 Q1908.58 73.7508 1900.32 73.7508 Q1895.33 73.7508 1891.73 71.8063 Q1888.16 69.8214 1885.82 65.7705 M1911.17 49.9314 Q1911.17 41.7081 1907.77 37.0496 Q1904.41 32.3505 1898.49 32.3505 Q1892.58 32.3505 1889.18 37.0496 Q1885.82 41.7081 1885.82 49.9314 Q1885.82 58.1548 1889.18 62.8538 Q1892.58 67.5124 1898.49 67.5124 Q1904.41 67.5124 1907.77 62.8538 Q1911.17 58.1548 1911.17 49.9314 Z" fill="#000000" fill-rule="evenodd" fill-opacity="1" /><path clip-path="url(#clip710)" d="M1965.74 86.3491 L1965.74 92.1419 L1922.64 92.1419 L1922.64 86.3491 L1965.74 86.3491 Z" fill="#000000" fill-rule="evenodd" fill-opacity="1" /><path clip-path="url(#clip710)" d="M1991.3 17.4837 Q1984.98 17.4837 1981.78 23.7221 Q1978.62 29.92 1978.62 42.3968 Q1978.62 54.833 1981.78 61.0714 Q1984.98 67.2693 1991.3 67.2693 Q1997.66 67.2693 2000.82 61.0714 Q2004.02 54.833 2004.02 42.3968 Q2004.02 29.92 2000.82 23.7221 Q1997.66 17.4837 1991.3 17.4837 M1991.3 11.0023 Q2001.47 11.0023 2006.82 19.0636 Q2012.2 27.0843 2012.2 42.3968 Q2012.2 57.6687 2006.82 65.73 Q2001.47 73.7508 1991.3 73.7508 Q1981.13 73.7508 1975.75 65.73 Q1970.4 57.6687 1970.4 42.3968 Q1970.4 27.0843 1975.75 19.0636 Q1981.13 11.0023 1991.3 11.0023 Z" fill="#000000" fill-rule="evenodd" fill-opacity="1" /><path clip-path="url(#clip710)" d="M2069.81 9.62495 Q2064.38 18.942 2061.75 28.0566 Q2059.11 37.1711 2059.11 46.5287 Q2059.11 55.8863 2061.75 65.0818 Q2064.42 74.2369 2069.81 83.5134 L2063.33 83.5134 Q2057.25 73.9938 2054.21 64.7983 Q2051.21 55.6027 2051.21 46.5287 Q2051.21 37.4952 2054.21 28.3401 Q2057.21 19.1851 2063.33 9.62495 L2069.81 9.62495 Z" fill="#000000" fill-rule="evenodd" fill-opacity="1" /><path clip-path="url(#clip710)" d="M2083.99 9.54393 L2091.48 9.54393 L2091.48 46.7717 L2113.72 27.2059 L2123.24 27.2059 L2099.18 48.4326 L2124.25 72.576 L2114.53 72.576 L2091.48 50.4176 L2091.48 72.576 L2083.99 72.576 L2083.99 9.54393 Z" fill="#000000" fill-rule="evenodd" fill-opacity="1" /><path clip-path="url(#clip710)" d="M2140.82 18.8205 L2140.82 41.5461 L2151.11 41.5461 Q2156.82 41.5461 2159.94 38.5889 Q2163.06 35.6318 2163.06 30.163 Q2163.06 24.7348 2159.94 21.7777 Q2156.82 18.8205 2151.11 18.8205 L2140.82 18.8205 M2132.64 12.096 L2151.11 12.096 Q2161.28 12.096 2166.46 16.714 Q2171.69 21.2916 2171.69 30.163 Q2171.69 39.1155 2166.46 43.6931 Q2161.28 48.2706 2151.11 48.2706 L2140.82 48.2706 L2140.82 72.576 L2132.64 72.576 L2132.64 12.096 Z" fill="#000000" fill-rule="evenodd" fill-opacity="1" /><path clip-path="url(#clip710)" d="M2199.23 49.7694 Q2190.2 49.7694 2186.72 51.8354 Q2183.23 53.9013 2183.23 58.8839 Q2183.23 62.8538 2185.83 65.2034 Q2188.46 67.5124 2192.95 67.5124 Q2199.15 67.5124 2202.88 63.1374 Q2206.65 58.7219 2206.65 51.4303 L2206.65 49.7694 L2199.23 49.7694 M2214.1 46.6907 L2214.1 72.576 L2206.65 72.576 L2206.65 65.6895 Q2204.09 69.8214 2200.29 71.8063 Q2196.48 73.7508 2190.97 73.7508 Q2184 73.7508 2179.87 69.8619 Q2175.78 65.9325 2175.78 59.3701 Q2175.78 51.7138 2180.88 47.825 Q2186.03 43.9361 2196.2 43.9361 L2206.65 43.9361 L2206.65 43.2069 Q2206.65 38.0623 2203.24 35.2672 Q2199.88 32.4315 2193.76 32.4315 Q2189.88 32.4315 2186.19 33.3632 Q2182.5 34.295 2179.1 36.1584 L2179.1 29.2718 Q2183.19 27.692 2187.04 26.9223 Q2190.89 26.1121 2194.53 26.1121 Q2204.38 26.1121 2209.24 31.2163 Q2214.1 36.3204 2214.1 46.6907 Z" fill="#000000" fill-rule="evenodd" fill-opacity="1" /><path clip-path="url(#clip710)" d="M2228.28 9.62495 L2234.76 9.62495 Q2240.84 19.1851 2243.83 28.3401 Q2246.87 37.4952 2246.87 46.5287 Q2246.87 55.6027 2243.83 64.7983 Q2240.84 73.9938 2234.76 83.5134 L2228.28 83.5134 Q2233.67 74.2369 2236.3 65.0818 Q2238.97 55.8863 2238.97 46.5287 Q2238.97 37.1711 2236.3 28.0566 Q2233.67 18.942 2228.28 9.62495 Z" fill="#000000" fill-rule="evenodd" fill-opacity="1" /><polyline clip-path="url(#clip713)" style="stroke:#009af9; stroke-linecap:butt; stroke-linejoin:round; stroke-width:4; stroke-opacity:1; fill:none" points="
  2528.48,1358.19 2515.5,1344.92 2502.58,1331.65 2489.72,1318.38 2476.9,1305.11 2464.14,1291.84 2451.43,1278.57 2438.77,1265.3 2426.16,1252.03 2413.6,1238.76 
  2401.1,1225.49 2388.65,1212.22 2376.24,1198.95 2363.89,1185.68 2351.59,1172.41 2339.35,1159.14 2327.16,1145.88 2315.03,1132.61 2302.97,1119.34 2290.96,1106.07 
  2279.01,1092.8 2267.12,1079.53 2255.29,1066.26 2243.52,1052.99 2231.8,1039.72 2220.15,1026.45 2208.55,1013.18 2197.01,999.91 2185.52,986.641 2174.09,973.371 
  2162.72,960.102 2151.41,946.832 2140.15,933.563 2128.95,920.293 2117.81,907.024 2106.72,893.754 2095.68,880.485 2084.7,867.215 2073.78,853.946 2062.91,840.676 
  2052.09,827.407 2041.33,814.137 2030.62,800.868 2019.97,787.598 2009.37,774.329 1998.82,761.059 1988.32,747.79 1977.88,734.52 1967.49,721.251 1957.15,707.981 
  1946.87,694.712 1936.64,681.442 1926.46,668.172 1916.33,654.903 1906.25,641.633 1896.22,628.364 1886.24,615.094 1876.32,601.825 1866.44,588.555 1856.61,575.286 
  1846.84,562.016 1837.11,548.747 1827.43,535.477 1817.81,522.208 1808.23,508.938 1798.7,495.669 1789.21,482.399 1779.78,469.13 1770.4,455.86 1761.06,442.591 
  1751.77,429.321 1742.53,416.052 1733.33,402.782 1724.19,389.513 1715.09,376.243 1706.03,362.974 1697.02,349.704 1688.06,336.435 1679.15,323.165 1670.28,309.896 
  1661.46,296.626 1652.68,283.357 1643.95,270.087 1635.26,256.818 1626.61,243.548 1618.02,230.279 1609.46,217.009 1600.95,203.739 
  "/>
<polyline clip-path="url(#clip713)" style="stroke:#e26f46; stroke-linecap:butt; stroke-linejoin:round; stroke-width:4; stroke-opacity:1; fill:none" points="
  2521.98,1351.55 2509.04,1338.28 2496.14,1325.01 2483.3,1311.74 2470.51,1298.47 2457.78,1285.2 2445.09,1271.94 2432.46,1258.67 2419.88,1245.4 2407.35,1232.13 
  2394.87,1218.86 2382.44,1205.59 2370.06,1192.32 2357.74,1179.05 2345.46,1165.78 2333.25,1152.51 2321.09,1139.24 2308.99,1125.97 2296.96,1112.7 2284.98,1099.43 
  2273.06,1086.16 2261.2,1072.89 2249.4,1059.62 2237.65,1046.35 2225.97,1033.08 2214.34,1019.81 2202.77,1006.55 2191.26,993.276 2179.8,980.006 2168.4,966.737 
  2157.06,953.467 2145.78,940.198 2134.55,926.928 2123.37,913.659 2112.25,900.389 2101.19,887.119 2090.18,873.85 2079.23,860.58 2068.33,847.311 2057.49,834.041 
  2046.7,820.772 2035.97,807.502 2025.29,794.233 2014.66,780.963 2004.08,767.694 1993.56,754.424 1983.1,741.155 1972.68,727.885 1962.32,714.616 1952.01,701.346 
  1941.75,688.077 1931.54,674.807 1921.38,661.538 1911.28,648.268 1901.23,634.999 1891.22,621.729 1881.27,608.46 1871.37,595.19 1861.52,581.921 1851.72,568.651 
  1841.97,555.382 1832.27,542.112 1822.61,528.843 1813.01,515.573 1803.46,502.304 1793.95,489.034 1784.49,475.765 1775.08,462.495 1765.72,449.226 1756.41,435.956 
  1747.14,422.686 1737.93,409.417 1728.75,396.147 1719.63,382.878 1710.55,369.608 1701.52,356.339 1692.54,343.069 1683.6,329.8 1674.71,316.53 1665.86,303.261 
  1657.06,289.991 1648.31,276.722 1639.6,263.452 1630.93,250.183 1622.31,236.913 1613.73,223.644 1605.2,210.374 1596.72,197.105 
  "/>
<path clip-path="url(#clip710)" d="
M2241.48 358.817 L2523.51 358.817 L2523.51 203.297 L2241.48 203.297  Z
  " fill="#ffffff" fill-rule="evenodd" fill-opacity="1"/>
<polyline clip-path="url(#clip710)" style="stroke:#000000; stroke-linecap:butt; stroke-linejoin:round; stroke-width:4; stroke-opacity:1; fill:none" points="
  2241.48,358.817 2523.51,358.817 2523.51,203.297 2241.48,203.297 2241.48,358.817 
  "/>
<polyline clip-path="url(#clip710)" style="stroke:#009af9; stroke-linecap:butt; stroke-linejoin:round; stroke-width:4; stroke-opacity:1; fill:none" points="
  2252.45,255.137 2318.3,255.137 
  "/>
<path clip-path="url(#clip710)" d="M2349.78 247.487 L2349.78 251.468 Q2347.97 250.473 2346.14 249.987 Q2344.34 249.477 2342.49 249.477 Q2338.34 249.477 2336.05 252.116 Q2333.76 254.732 2333.76 259.477 Q2333.76 264.223 2336.05 266.862 Q2338.34 269.477 2342.49 269.477 Q2344.34 269.477 2346.14 268.991 Q2347.97 268.482 2349.78 267.487 L2349.78 271.422 Q2348 272.255 2346.07 272.672 Q2344.18 273.088 2342.02 273.088 Q2336.17 273.088 2332.72 269.408 Q2329.27 265.727 2329.27 259.477 Q2329.27 253.135 2332.74 249.501 Q2336.24 245.866 2342.3 245.866 Q2344.27 245.866 2346.14 246.283 Q2348.02 246.677 2349.78 247.487 Z" fill="#000000" fill-rule="evenodd" fill-opacity="1" /><path clip-path="url(#clip710)" d="M2379.36 258.389 L2379.36 260.473 L2359.78 260.473 Q2360.06 264.871 2362.42 267.186 Q2364.8 269.477 2369.04 269.477 Q2371.49 269.477 2373.78 268.876 Q2376.1 268.274 2378.37 267.07 L2378.37 271.098 Q2376.07 272.07 2373.67 272.579 Q2371.26 273.088 2368.78 273.088 Q2362.58 273.088 2358.95 269.477 Q2355.33 265.866 2355.33 259.709 Q2355.33 253.343 2358.76 249.616 Q2362.21 245.866 2368.04 245.866 Q2373.27 245.866 2376.31 249.246 Q2379.36 252.602 2379.36 258.389 M2375.1 257.139 Q2375.06 253.644 2373.13 251.561 Q2371.24 249.477 2368.09 249.477 Q2364.52 249.477 2362.37 251.491 Q2360.24 253.505 2359.92 257.163 L2375.1 257.139 Z" fill="#000000" fill-rule="evenodd" fill-opacity="1" /><path clip-path="url(#clip710)" d="M2407.9 256.769 L2407.9 272.417 L2403.64 272.417 L2403.64 256.908 Q2403.64 253.227 2402.21 251.399 Q2400.77 249.57 2397.9 249.57 Q2394.45 249.57 2392.46 251.769 Q2390.47 253.968 2390.47 257.764 L2390.47 272.417 L2386.19 272.417 L2386.19 246.491 L2390.47 246.491 L2390.47 250.519 Q2392 248.181 2394.06 247.024 Q2396.14 245.866 2398.85 245.866 Q2403.32 245.866 2405.61 248.644 Q2407.9 251.399 2407.9 256.769 Z" fill="#000000" fill-rule="evenodd" fill-opacity="1" /><path clip-path="url(#clip710)" d="M2420.61 239.13 L2420.61 246.491 L2429.38 246.491 L2429.38 249.802 L2420.61 249.802 L2420.61 263.876 Q2420.61 267.047 2421.47 267.95 Q2422.35 268.852 2425.01 268.852 L2429.38 268.852 L2429.38 272.417 L2425.01 272.417 Q2420.08 272.417 2418.2 270.588 Q2416.33 268.737 2416.33 263.876 L2416.33 249.802 L2413.2 249.802 L2413.2 246.491 L2416.33 246.491 L2416.33 239.13 L2420.61 239.13 Z" fill="#000000" fill-rule="evenodd" fill-opacity="1" /><path clip-path="url(#clip710)" d="M2457.16 258.389 L2457.16 260.473 L2437.58 260.473 Q2437.86 264.871 2440.22 267.186 Q2442.6 269.477 2446.84 269.477 Q2449.29 269.477 2451.58 268.876 Q2453.9 268.274 2456.17 267.07 L2456.17 271.098 Q2453.88 272.07 2451.47 272.579 Q2449.06 273.088 2446.58 273.088 Q2440.38 273.088 2436.75 269.477 Q2433.13 265.866 2433.13 259.709 Q2433.13 253.343 2436.56 249.616 Q2440.01 245.866 2445.84 245.866 Q2451.07 245.866 2454.11 249.246 Q2457.16 252.602 2457.16 258.389 M2452.9 257.139 Q2452.86 253.644 2450.94 251.561 Q2449.04 249.477 2445.89 249.477 Q2442.32 249.477 2440.17 251.491 Q2438.04 253.505 2437.72 257.163 L2452.9 257.139 Z" fill="#000000" fill-rule="evenodd" fill-opacity="1" /><path clip-path="url(#clip710)" d="M2479.18 250.473 Q2478.46 250.056 2477.6 249.871 Q2476.77 249.663 2475.75 249.663 Q2472.14 249.663 2470.19 252.024 Q2468.27 254.362 2468.27 258.76 L2468.27 272.417 L2463.99 272.417 L2463.99 246.491 L2468.27 246.491 L2468.27 250.519 Q2469.62 248.158 2471.77 247.024 Q2473.92 245.866 2477 245.866 Q2477.44 245.866 2477.97 245.936 Q2478.5 245.982 2479.15 246.098 L2479.18 250.473 Z" fill="#000000" fill-rule="evenodd" fill-opacity="1" /><path clip-path="url(#clip710)" d="M2500.17 247.255 L2500.17 251.283 Q2498.37 250.357 2496.42 249.894 Q2494.48 249.431 2492.39 249.431 Q2489.22 249.431 2487.62 250.403 Q2486.05 251.376 2486.05 253.32 Q2486.05 254.802 2487.19 255.658 Q2488.32 256.491 2491.75 257.255 L2493.2 257.579 Q2497.74 258.552 2499.64 260.334 Q2501.56 262.093 2501.56 265.264 Q2501.56 268.876 2498.69 270.982 Q2495.84 273.088 2490.84 273.088 Q2488.76 273.088 2486.49 272.672 Q2484.25 272.278 2481.75 271.468 L2481.75 267.07 Q2484.11 268.297 2486.4 268.922 Q2488.69 269.524 2490.94 269.524 Q2493.94 269.524 2495.56 268.505 Q2497.19 267.463 2497.19 265.589 Q2497.19 263.852 2496 262.926 Q2494.85 262.001 2490.89 261.144 L2489.41 260.797 Q2485.45 259.964 2483.69 258.251 Q2481.93 256.514 2481.93 253.505 Q2481.93 249.848 2484.52 247.857 Q2487.12 245.866 2491.88 245.866 Q2494.25 245.866 2496.33 246.214 Q2498.41 246.561 2500.17 247.255 Z" fill="#000000" fill-rule="evenodd" fill-opacity="1" /><polyline clip-path="url(#clip710)" style="stroke:#e26f46; stroke-linecap:butt; stroke-linejoin:round; stroke-width:4; stroke-opacity:1; fill:none" points="
  2252.45,306.977 2318.3,306.977 
  "/>
<path clip-path="url(#clip710)" d="M2345.77 288.239 L2345.77 291.78 L2341.7 291.78 Q2339.41 291.78 2338.51 292.706 Q2337.63 293.632 2337.63 296.04 L2337.63 298.331 L2344.64 298.331 L2344.64 301.642 L2337.63 301.642 L2337.63 324.257 L2333.34 324.257 L2333.34 301.642 L2329.27 301.642 L2329.27 298.331 L2333.34 298.331 L2333.34 296.526 Q2333.34 292.197 2335.36 290.23 Q2337.37 288.239 2341.75 288.239 L2345.77 288.239 Z" fill="#000000" fill-rule="evenodd" fill-opacity="1" /><path clip-path="url(#clip710)" d="M2361.12 311.225 Q2355.96 311.225 2353.97 312.405 Q2351.98 313.586 2351.98 316.433 Q2351.98 318.702 2353.46 320.044 Q2354.96 321.364 2357.53 321.364 Q2361.07 321.364 2363.2 318.864 Q2365.36 316.341 2365.36 312.174 L2365.36 311.225 L2361.12 311.225 M2369.62 309.466 L2369.62 324.257 L2365.36 324.257 L2365.36 320.322 Q2363.9 322.683 2361.72 323.817 Q2359.55 324.928 2356.4 324.928 Q2352.42 324.928 2350.06 322.706 Q2347.72 320.461 2347.72 316.711 Q2347.72 312.336 2350.63 310.114 Q2353.57 307.892 2359.38 307.892 L2365.36 307.892 L2365.36 307.475 Q2365.36 304.535 2363.41 302.938 Q2361.49 301.317 2358 301.317 Q2355.77 301.317 2353.67 301.85 Q2351.56 302.382 2349.62 303.447 L2349.62 299.512 Q2351.95 298.609 2354.15 298.169 Q2356.35 297.706 2358.44 297.706 Q2364.06 297.706 2366.84 300.623 Q2369.62 303.54 2369.62 309.466 Z" fill="#000000" fill-rule="evenodd" fill-opacity="1" /><path clip-path="url(#clip710)" d="M2397.05 299.327 L2397.05 303.308 Q2395.24 302.313 2393.41 301.827 Q2391.61 301.317 2389.76 301.317 Q2385.61 301.317 2383.32 303.956 Q2381.03 306.572 2381.03 311.317 Q2381.03 316.063 2383.32 318.702 Q2385.61 321.317 2389.76 321.317 Q2391.61 321.317 2393.41 320.831 Q2395.24 320.322 2397.05 319.327 L2397.05 323.262 Q2395.26 324.095 2393.34 324.512 Q2391.44 324.928 2389.29 324.928 Q2383.44 324.928 2379.99 321.248 Q2376.54 317.567 2376.54 311.317 Q2376.54 304.975 2380.01 301.341 Q2383.51 297.706 2389.57 297.706 Q2391.54 297.706 2393.41 298.123 Q2395.29 298.517 2397.05 299.327 Z" fill="#000000" fill-rule="evenodd" fill-opacity="1" /><path clip-path="url(#clip710)" d="M2426.63 310.229 L2426.63 312.313 L2407.05 312.313 Q2407.32 316.711 2409.69 319.026 Q2412.07 321.317 2416.31 321.317 Q2418.76 321.317 2421.05 320.716 Q2423.37 320.114 2425.63 318.91 L2425.63 322.938 Q2423.34 323.91 2420.94 324.419 Q2418.53 324.928 2416.05 324.928 Q2409.85 324.928 2406.21 321.317 Q2402.6 317.706 2402.6 311.549 Q2402.6 305.183 2406.03 301.456 Q2409.48 297.706 2415.31 297.706 Q2420.54 297.706 2423.57 301.086 Q2426.63 304.442 2426.63 310.229 M2422.37 308.979 Q2422.32 305.484 2420.4 303.401 Q2418.5 301.317 2415.36 301.317 Q2411.79 301.317 2409.64 303.331 Q2407.51 305.345 2407.19 309.003 L2422.37 308.979 Z" fill="#000000" fill-rule="evenodd" fill-opacity="1" /><path clip-path="url(#clip710)" d="M2450.15 299.095 L2450.15 303.123 Q2448.34 302.197 2446.4 301.734 Q2444.45 301.271 2442.37 301.271 Q2439.2 301.271 2437.6 302.243 Q2436.03 303.216 2436.03 305.16 Q2436.03 306.642 2437.16 307.498 Q2438.3 308.331 2441.72 309.095 L2443.18 309.419 Q2447.72 310.392 2449.62 312.174 Q2451.54 313.933 2451.54 317.104 Q2451.54 320.716 2448.67 322.822 Q2445.82 324.928 2440.82 324.928 Q2438.74 324.928 2436.47 324.512 Q2434.22 324.118 2431.72 323.308 L2431.72 318.91 Q2434.08 320.137 2436.38 320.762 Q2438.67 321.364 2440.91 321.364 Q2443.92 321.364 2445.54 320.345 Q2447.16 319.303 2447.16 317.429 Q2447.16 315.692 2445.98 314.766 Q2444.82 313.841 2440.87 312.984 L2439.38 312.637 Q2435.43 311.804 2433.67 310.091 Q2431.91 308.354 2431.91 305.345 Q2431.91 301.688 2434.5 299.697 Q2437.09 297.706 2441.86 297.706 Q2444.22 297.706 2446.31 298.054 Q2448.39 298.401 2450.15 299.095 Z" fill="#000000" fill-rule="evenodd" fill-opacity="1" /><path clip-path="url(#clip710)" d="
M2902.1 1393.02 L3889.76 1393.02 L3889.76 162.272 L2902.1 162.272  Z
  " fill="#ffffff" fill-rule="evenodd" fill-opacity="1"/>
<defs>
  <clipPath id="clip714">
    <rect x="2902" y="162" width="989" height="1232"/>
  </clipPath>
</defs>
<polyline clip-path="url(#clip714)" style="stroke:#000000; stroke-linecap:butt; stroke-linejoin:round; stroke-width:2; stroke-opacity:0.1; fill:none" points="
  2939.91,1393.02 2939.91,162.272 
  "/>
<polyline clip-path="url(#clip714)" style="stroke:#000000; stroke-linecap:butt; stroke-linejoin:round; stroke-width:2; stroke-opacity:0.1; fill:none" points="
  3135.62,1393.02 3135.62,162.272 
  "/>
<polyline clip-path="url(#clip714)" style="stroke:#000000; stroke-linecap:butt; stroke-linejoin:round; stroke-width:2; stroke-opacity:0.1; fill:none" points="
  3331.33,1393.02 3331.33,162.272 
  "/>
<polyline clip-path="url(#clip714)" style="stroke:#000000; stroke-linecap:butt; stroke-linejoin:round; stroke-width:2; stroke-opacity:0.1; fill:none" points="
  3527.04,1393.02 3527.04,162.272 
  "/>
<polyline clip-path="url(#clip714)" style="stroke:#000000; stroke-linecap:butt; stroke-linejoin:round; stroke-width:2; stroke-opacity:0.1; fill:none" points="
  3722.75,1393.02 3722.75,162.272 
  "/>
<polyline clip-path="url(#clip710)" style="stroke:#000000; stroke-linecap:butt; stroke-linejoin:round; stroke-width:4; stroke-opacity:1; fill:none" points="
  2902.1,1393.02 3889.76,1393.02 
  "/>
<polyline clip-path="url(#clip710)" style="stroke:#000000; stroke-linecap:butt; stroke-linejoin:round; stroke-width:4; stroke-opacity:1; fill:none" points="
  2939.91,1393.02 2939.91,1374.12 
  "/>
<polyline clip-path="url(#clip710)" style="stroke:#000000; stroke-linecap:butt; stroke-linejoin:round; stroke-width:4; stroke-opacity:1; fill:none" points="
  3135.62,1393.02 3135.62,1374.12 
  "/>
<polyline clip-path="url(#clip710)" style="stroke:#000000; stroke-linecap:butt; stroke-linejoin:round; stroke-width:4; stroke-opacity:1; fill:none" points="
  3331.33,1393.02 3331.33,1374.12 
  "/>
<polyline clip-path="url(#clip710)" style="stroke:#000000; stroke-linecap:butt; stroke-linejoin:round; stroke-width:4; stroke-opacity:1; fill:none" points="
  3527.04,1393.02 3527.04,1374.12 
  "/>
<polyline clip-path="url(#clip710)" style="stroke:#000000; stroke-linecap:butt; stroke-linejoin:round; stroke-width:4; stroke-opacity:1; fill:none" points="
  3722.75,1393.02 3722.75,1374.12 
  "/>
<path clip-path="url(#clip710)" d="M2917.39 1435.01 Q2913.78 1435.01 2911.95 1438.58 Q2910.15 1442.12 2910.15 1449.25 Q2910.15 1456.35 2911.95 1459.92 Q2913.78 1463.46 2917.39 1463.46 Q2921.02 1463.46 2922.83 1459.92 Q2924.66 1456.35 2924.66 1449.25 Q2924.66 1442.12 2922.83 1438.58 Q2921.02 1435.01 2917.39 1435.01 M2917.39 1431.31 Q2923.2 1431.31 2926.26 1435.91 Q2929.33 1440.5 2929.33 1449.25 Q2929.33 1457.97 2926.26 1462.58 Q2923.2 1467.16 2917.39 1467.16 Q2911.58 1467.16 2908.5 1462.58 Q2905.45 1457.97 2905.45 1449.25 Q2905.45 1440.5 2908.5 1435.91 Q2911.58 1431.31 2917.39 1431.31 Z" fill="#000000" fill-rule="evenodd" fill-opacity="1" /><path clip-path="url(#clip710)" d="M2937.55 1460.61 L2942.44 1460.61 L2942.44 1466.49 L2937.55 1466.49 L2937.55 1460.61 Z" fill="#000000" fill-rule="evenodd" fill-opacity="1" /><path clip-path="url(#clip710)" d="M2952.76 1465.77 L2952.76 1461.51 Q2954.52 1462.35 2956.33 1462.79 Q2958.13 1463.23 2959.87 1463.23 Q2964.5 1463.23 2966.93 1460.13 Q2969.38 1457 2969.73 1450.66 Q2968.39 1452.65 2966.33 1453.71 Q2964.27 1454.78 2961.77 1454.78 Q2956.58 1454.78 2953.55 1451.65 Q2950.54 1448.51 2950.54 1443.07 Q2950.54 1437.74 2953.69 1434.52 Q2956.83 1431.31 2962.07 1431.31 Q2968.06 1431.31 2971.21 1435.91 Q2974.38 1440.5 2974.38 1449.25 Q2974.38 1457.42 2970.49 1462.3 Q2966.63 1467.16 2960.08 1467.16 Q2958.32 1467.16 2956.51 1466.82 Q2954.71 1466.47 2952.76 1465.77 M2962.07 1451.12 Q2965.21 1451.12 2967.04 1448.97 Q2968.89 1446.82 2968.89 1443.07 Q2968.89 1439.34 2967.04 1437.19 Q2965.21 1435.01 2962.07 1435.01 Q2958.92 1435.01 2957.07 1437.19 Q2955.24 1439.34 2955.24 1443.07 Q2955.24 1446.82 2957.07 1448.97 Q2958.92 1451.12 2962.07 1451.12 Z" fill="#000000" fill-rule="evenodd" fill-opacity="1" /><path clip-path="url(#clip710)" d="M3102.78 1462.56 L3110.41 1462.56 L3110.41 1436.19 L3102.1 1437.86 L3102.1 1433.6 L3110.37 1431.93 L3115.04 1431.93 L3115.04 1462.56 L3122.68 1462.56 L3122.68 1466.49 L3102.78 1466.49 L3102.78 1462.56 Z" fill="#000000" fill-rule="evenodd" fill-opacity="1" /><path clip-path="url(#clip710)" d="M3132.13 1460.61 L3137.01 1460.61 L3137.01 1466.49 L3132.13 1466.49 L3132.13 1460.61 Z" fill="#000000" fill-rule="evenodd" fill-opacity="1" /><path clip-path="url(#clip710)" d="M3157.2 1435.01 Q3153.59 1435.01 3151.76 1438.58 Q3149.95 1442.12 3149.95 1449.25 Q3149.95 1456.35 3151.76 1459.92 Q3153.59 1463.46 3157.2 1463.46 Q3160.83 1463.46 3162.64 1459.92 Q3164.46 1456.35 3164.46 1449.25 Q3164.46 1442.12 3162.64 1438.58 Q3160.83 1435.01 3157.2 1435.01 M3157.2 1431.31 Q3163.01 1431.31 3166.06 1435.91 Q3169.14 1440.5 3169.14 1449.25 Q3169.14 1457.97 3166.06 1462.58 Q3163.01 1467.16 3157.2 1467.16 Q3151.39 1467.16 3148.31 1462.58 Q3145.25 1457.97 3145.25 1449.25 Q3145.25 1440.5 3148.31 1435.91 Q3151.39 1431.31 3157.2 1431.31 Z" fill="#000000" fill-rule="evenodd" fill-opacity="1" /><path clip-path="url(#clip710)" d="M3299.1 1462.56 L3306.74 1462.56 L3306.74 1436.19 L3298.43 1437.86 L3298.43 1433.6 L3306.69 1431.93 L3311.37 1431.93 L3311.37 1462.56 L3319 1462.56 L3319 1466.49 L3299.1 1466.49 L3299.1 1462.56 Z" fill="#000000" fill-rule="evenodd" fill-opacity="1" /><path clip-path="url(#clip710)" d="M3328.45 1460.61 L3333.33 1460.61 L3333.33 1466.49 L3328.45 1466.49 L3328.45 1460.61 Z" fill="#000000" fill-rule="evenodd" fill-opacity="1" /><path clip-path="url(#clip710)" d="M3344.33 1462.56 L3351.97 1462.56 L3351.97 1436.19 L3343.66 1437.86 L3343.66 1433.6 L3351.92 1431.93 L3356.6 1431.93 L3356.6 1462.56 L3364.24 1462.56 L3364.24 1466.49 L3344.33 1466.49 L3344.33 1462.56 Z" fill="#000000" fill-rule="evenodd" fill-opacity="1" /><path clip-path="url(#clip710)" d="M3494.99 1462.56 L3502.63 1462.56 L3502.63 1436.19 L3494.32 1437.86 L3494.32 1433.6 L3502.58 1431.93 L3507.26 1431.93 L3507.26 1462.56 L3514.9 1462.56 L3514.9 1466.49 L3494.99 1466.49 L3494.99 1462.56 Z" fill="#000000" fill-rule="evenodd" fill-opacity="1" /><path clip-path="url(#clip710)" d="M3524.34 1460.61 L3529.23 1460.61 L3529.23 1466.49 L3524.34 1466.49 L3524.34 1460.61 Z" fill="#000000" fill-rule="evenodd" fill-opacity="1" /><path clip-path="url(#clip710)" d="M3543.44 1462.56 L3559.76 1462.56 L3559.76 1466.49 L3537.81 1466.49 L3537.81 1462.56 Q3540.48 1459.8 3545.06 1455.17 Q3549.67 1450.52 3550.85 1449.18 Q3553.09 1446.65 3553.97 1444.92 Q3554.88 1443.16 3554.88 1441.47 Q3554.88 1438.71 3552.93 1436.98 Q3551.01 1435.24 3547.91 1435.24 Q3545.71 1435.24 3543.25 1436.01 Q3540.82 1436.77 3538.05 1438.32 L3538.05 1433.6 Q3540.87 1432.46 3543.32 1431.89 Q3545.78 1431.31 3547.81 1431.31 Q3553.19 1431.31 3556.38 1433.99 Q3559.57 1436.68 3559.57 1441.17 Q3559.57 1443.3 3558.76 1445.22 Q3557.98 1447.12 3555.87 1449.71 Q3555.29 1450.38 3552.19 1453.6 Q3549.09 1456.79 3543.44 1462.56 Z" fill="#000000" fill-rule="evenodd" fill-opacity="1" /><path clip-path="url(#clip710)" d="M3690.23 1462.56 L3697.86 1462.56 L3697.86 1436.19 L3689.55 1437.86 L3689.55 1433.6 L3697.82 1431.93 L3702.49 1431.93 L3702.49 1462.56 L3710.13 1462.56 L3710.13 1466.49 L3690.23 1466.49 L3690.23 1462.56 Z" fill="#000000" fill-rule="evenodd" fill-opacity="1" /><path clip-path="url(#clip710)" d="M3719.58 1460.61 L3724.46 1460.61 L3724.46 1466.49 L3719.58 1466.49 L3719.58 1460.61 Z" fill="#000000" fill-rule="evenodd" fill-opacity="1" /><path clip-path="url(#clip710)" d="M3748.81 1447.86 Q3752.17 1448.58 3754.04 1450.84 Q3755.94 1453.11 3755.94 1456.45 Q3755.94 1461.56 3752.42 1464.36 Q3748.91 1467.16 3742.42 1467.16 Q3740.25 1467.16 3737.93 1466.72 Q3735.64 1466.31 3733.19 1465.45 L3733.19 1460.94 Q3735.13 1462.07 3737.45 1462.65 Q3739.76 1463.23 3742.29 1463.23 Q3746.68 1463.23 3748.98 1461.49 Q3751.29 1459.76 3751.29 1456.45 Q3751.29 1453.39 3749.14 1451.68 Q3747.01 1449.94 3743.19 1449.94 L3739.16 1449.94 L3739.16 1446.1 L3743.37 1446.1 Q3746.82 1446.1 3748.65 1444.73 Q3750.48 1443.34 3750.48 1440.75 Q3750.48 1438.09 3748.58 1436.68 Q3746.71 1435.24 3743.19 1435.24 Q3741.27 1435.24 3739.07 1435.66 Q3736.87 1436.08 3734.23 1436.95 L3734.23 1432.79 Q3736.89 1432.05 3739.21 1431.68 Q3741.54 1431.31 3743.6 1431.31 Q3748.93 1431.31 3752.03 1433.74 Q3755.13 1436.14 3755.13 1440.27 Q3755.13 1443.14 3753.49 1445.13 Q3751.85 1447.09 3748.81 1447.86 Z" fill="#000000" fill-rule="evenodd" fill-opacity="1" /><path clip-path="url(#clip710)" d="M3364.71 1545.3 L3363.31 1537.95 Q3361.87 1530.41 3356.21 1530.41 Q3351.94 1530.41 3350 1533.91 Q3347.55 1538.3 3347.55 1544.09 Q3347.55 1551.09 3349.94 1554.44 Q3352.36 1557.84 3356.21 1557.84 Q3360.47 1557.84 3362.76 1551.06 L3364.71 1545.3 M3367.98 1535.56 L3371.14 1526.24 L3376.36 1526.24 L3369.83 1545.56 L3371.1 1552.53 Q3371.39 1554.09 3372.5 1555.39 Q3373.81 1556.92 3374.83 1556.92 L3377.63 1556.92 L3377.63 1561.88 L3374.13 1561.88 Q3371.14 1561.88 3368.46 1559.21 Q3367.16 1557.87 3366.62 1555.07 Q3365.15 1558.61 3362.16 1561.37 Q3360.76 1562.68 3356.21 1562.68 Q3348.73 1562.68 3345.1 1557.84 Q3341.38 1552.84 3341.38 1544.09 Q3341.38 1534.73 3345.42 1530.34 Q3349.91 1525.44 3356.21 1525.44 Q3366.11 1525.44 3367.98 1535.56 Z" fill="#000000" fill-rule="evenodd" fill-opacity="1" /><path clip-path="url(#clip710)" d="M3413.98 1572.71 L3413.98 1577.26 L3380.11 1577.26 L3380.11 1572.71 L3413.98 1572.71 Z" fill="#000000" fill-rule="evenodd" fill-opacity="1" /><path clip-path="url(#clip710)" d="M3434.06 1518.6 Q3429.1 1518.6 3426.58 1523.5 Q3424.1 1528.37 3424.1 1538.17 Q3424.1 1547.94 3426.58 1552.84 Q3429.1 1557.71 3434.06 1557.71 Q3439.06 1557.71 3441.54 1552.84 Q3444.05 1547.94 3444.05 1538.17 Q3444.05 1528.37 3441.54 1523.5 Q3439.06 1518.6 3434.06 1518.6 M3434.06 1513.5 Q3442.05 1513.5 3446.25 1519.84 Q3450.48 1526.14 3450.48 1538.17 Q3450.48 1550.17 3446.25 1556.5 Q3442.05 1562.81 3434.06 1562.81 Q3426.07 1562.81 3421.84 1556.5 Q3417.64 1550.17 3417.64 1538.17 Q3417.64 1526.14 3421.84 1519.84 Q3426.07 1513.5 3434.06 1513.5 Z" fill="#000000" fill-rule="evenodd" fill-opacity="1" /><polyline clip-path="url(#clip714)" style="stroke:#000000; stroke-linecap:butt; stroke-linejoin:round; stroke-width:2; stroke-opacity:0.1; fill:none" points="
  2902.1,1364.82 3889.76,1364.82 
  "/>
<polyline clip-path="url(#clip714)" style="stroke:#000000; stroke-linecap:butt; stroke-linejoin:round; stroke-width:2; stroke-opacity:0.1; fill:none" points="
  2902.1,1099.43 3889.76,1099.43 
  "/>
<polyline clip-path="url(#clip714)" style="stroke:#000000; stroke-linecap:butt; stroke-linejoin:round; stroke-width:2; stroke-opacity:0.1; fill:none" points="
  2902.1,834.041 3889.76,834.041 
  "/>
<polyline clip-path="url(#clip714)" style="stroke:#000000; stroke-linecap:butt; stroke-linejoin:round; stroke-width:2; stroke-opacity:0.1; fill:none" points="
  2902.1,568.651 3889.76,568.651 
  "/>
<polyline clip-path="url(#clip714)" style="stroke:#000000; stroke-linecap:butt; stroke-linejoin:round; stroke-width:2; stroke-opacity:0.1; fill:none" points="
  2902.1,303.261 3889.76,303.261 
  "/>
<polyline clip-path="url(#clip710)" style="stroke:#000000; stroke-linecap:butt; stroke-linejoin:round; stroke-width:4; stroke-opacity:1; fill:none" points="
  2902.1,1393.02 2902.1,162.272 
  "/>
<polyline clip-path="url(#clip710)" style="stroke:#000000; stroke-linecap:butt; stroke-linejoin:round; stroke-width:4; stroke-opacity:1; fill:none" points="
  2902.1,1364.82 2920.99,1364.82 
  "/>
<polyline clip-path="url(#clip710)" style="stroke:#000000; stroke-linecap:butt; stroke-linejoin:round; stroke-width:4; stroke-opacity:1; fill:none" points="
  2902.1,1099.43 2920.99,1099.43 
  "/>
<polyline clip-path="url(#clip710)" style="stroke:#000000; stroke-linecap:butt; stroke-linejoin:round; stroke-width:4; stroke-opacity:1; fill:none" points="
  2902.1,834.041 2920.99,834.041 
  "/>
<polyline clip-path="url(#clip710)" style="stroke:#000000; stroke-linecap:butt; stroke-linejoin:round; stroke-width:4; stroke-opacity:1; fill:none" points="
  2902.1,568.651 2920.99,568.651 
  "/>
<polyline clip-path="url(#clip710)" style="stroke:#000000; stroke-linecap:butt; stroke-linejoin:round; stroke-width:4; stroke-opacity:1; fill:none" points="
  2902.1,303.261 2920.99,303.261 
  "/>
<path clip-path="url(#clip710)" d="M2830.15 1350.62 Q2826.54 1350.62 2824.71 1354.19 Q2822.91 1357.73 2822.91 1364.86 Q2822.91 1371.96 2824.71 1375.53 Q2826.54 1379.07 2830.15 1379.07 Q2833.79 1379.07 2835.59 1375.53 Q2837.42 1371.96 2837.42 1364.86 Q2837.42 1357.73 2835.59 1354.19 Q2833.79 1350.62 2830.15 1350.62 M2830.15 1346.92 Q2835.96 1346.92 2839.02 1351.52 Q2842.1 1356.11 2842.1 1364.86 Q2842.1 1373.58 2839.02 1378.19 Q2835.96 1382.77 2830.15 1382.77 Q2824.34 1382.77 2821.26 1378.19 Q2818.21 1373.58 2818.21 1364.86 Q2818.21 1356.11 2821.26 1351.52 Q2824.34 1346.92 2830.15 1346.92 Z" fill="#000000" fill-rule="evenodd" fill-opacity="1" /><path clip-path="url(#clip710)" d="M2822.19 1112.78 L2829.83 1112.78 L2829.83 1086.41 L2821.52 1088.08 L2821.52 1083.82 L2829.78 1082.15 L2834.46 1082.15 L2834.46 1112.78 L2842.1 1112.78 L2842.1 1116.71 L2822.19 1116.71 L2822.19 1112.78 Z" fill="#000000" fill-rule="evenodd" fill-opacity="1" /><path clip-path="url(#clip710)" d="M2825.78 847.386 L2842.1 847.386 L2842.1 851.321 L2820.15 851.321 L2820.15 847.386 Q2822.81 844.632 2827.4 840.002 Q2832 835.349 2833.18 834.007 Q2835.43 831.484 2836.31 829.747 Q2837.21 827.988 2837.21 826.298 Q2837.21 823.544 2835.27 821.808 Q2833.35 820.072 2830.24 820.072 Q2828.05 820.072 2825.59 820.835 Q2823.16 821.599 2820.38 823.15 L2820.38 818.428 Q2823.21 817.294 2825.66 816.715 Q2828.11 816.136 2830.15 816.136 Q2835.52 816.136 2838.72 818.822 Q2841.91 821.507 2841.91 825.997 Q2841.91 828.127 2841.1 830.048 Q2840.31 831.947 2838.21 834.539 Q2837.63 835.21 2834.53 838.428 Q2831.42 841.622 2825.78 847.386 Z" fill="#000000" fill-rule="evenodd" fill-opacity="1" /><path clip-path="url(#clip710)" d="M2834.97 567.297 Q2838.32 568.015 2840.2 570.283 Q2842.1 572.552 2842.1 575.885 Q2842.1 581.001 2838.58 583.802 Q2835.06 586.602 2828.58 586.602 Q2826.4 586.602 2824.09 586.163 Q2821.8 585.746 2819.34 584.889 L2819.34 580.376 Q2821.29 581.51 2823.6 582.089 Q2825.92 582.667 2828.44 582.667 Q2832.84 582.667 2835.13 580.931 Q2837.44 579.195 2837.44 575.885 Q2837.44 572.829 2835.29 571.116 Q2833.16 569.38 2829.34 569.38 L2825.31 569.38 L2825.31 565.538 L2829.53 565.538 Q2832.98 565.538 2834.8 564.172 Q2836.63 562.783 2836.63 560.191 Q2836.63 557.529 2834.73 556.116 Q2832.86 554.681 2829.34 554.681 Q2827.42 554.681 2825.22 555.098 Q2823.02 555.515 2820.38 556.394 L2820.38 552.228 Q2823.05 551.487 2825.36 551.117 Q2827.7 550.746 2829.76 550.746 Q2835.08 550.746 2838.18 553.177 Q2841.29 555.584 2841.29 559.704 Q2841.29 562.575 2839.64 564.566 Q2838 566.533 2834.97 567.297 Z" fill="#000000" fill-rule="evenodd" fill-opacity="1" /><path clip-path="url(#clip710)" d="M2832.51 290.055 L2820.71 308.504 L2832.51 308.504 L2832.51 290.055 M2831.29 285.981 L2837.17 285.981 L2837.17 308.504 L2842.1 308.504 L2842.1 312.393 L2837.17 312.393 L2837.17 320.541 L2832.51 320.541 L2832.51 312.393 L2816.91 312.393 L2816.91 307.879 L2831.29 285.981 Z" fill="#000000" fill-rule="evenodd" fill-opacity="1" /><path clip-path="url(#clip710)" d="M2707.01 876.171 L2707.01 848.353 L2712.35 848.353 L2737.98 870.378 L2737.98 848.353 L2742.65 848.353 L2742.65 876.967 L2737.31 876.967 L2711.69 854.942 L2711.69 876.171 L2707.01 876.171 Z" fill="#000000" fill-rule="evenodd" fill-opacity="1" /><path clip-path="url(#clip710)" d="M2693.19 804.621 Q2700.51 808.886 2707.68 810.955 Q2714.84 813.023 2722.19 813.023 Q2729.54 813.023 2736.77 810.955 Q2743.96 808.854 2751.25 804.621 L2751.25 809.713 Q2743.77 814.488 2736.54 816.875 Q2729.32 819.23 2722.19 819.23 Q2715.09 819.23 2707.9 816.875 Q2700.7 814.519 2693.19 809.713 L2693.19 804.621 Z" fill="#000000" fill-rule="evenodd" fill-opacity="1" /><path clip-path="url(#clip710)" d="M2693.13 793.481 L2693.13 787.592 L2722.38 787.592 L2707.01 770.119 L2707.01 762.639 L2723.69 781.545 L2742.65 761.843 L2742.65 769.482 L2725.24 787.592 L2742.65 787.592 L2742.65 793.481 L2693.13 793.481 Z" fill="#000000" fill-rule="evenodd" fill-opacity="1" /><path clip-path="url(#clip710)" d="M2713.85 727.755 Q2709.9 725.559 2708.03 722.503 Q2706.15 719.448 2706.15 715.31 Q2706.15 709.74 2710.06 706.716 Q2713.95 703.692 2721.14 703.692 L2742.65 703.692 L2742.65 709.581 L2721.33 709.581 Q2716.21 709.581 2713.72 711.395 Q2711.24 713.209 2711.24 716.933 Q2711.24 721.485 2714.26 724.126 Q2717.29 726.768 2722.51 726.768 L2742.65 726.768 L2742.65 732.656 L2721.33 732.656 Q2716.17 732.656 2713.72 734.471 Q2711.24 736.285 2711.24 740.072 Q2711.24 744.56 2714.3 747.202 Q2717.32 749.844 2722.51 749.844 L2742.65 749.844 L2742.65 755.732 L2707.01 755.732 L2707.01 749.844 L2712.55 749.844 Q2709.27 747.839 2707.71 745.038 Q2706.15 742.237 2706.15 738.385 Q2706.15 734.502 2708.12 731.797 Q2710.09 729.06 2713.85 727.755 Z" fill="#000000" fill-rule="evenodd" fill-opacity="1" /><path clip-path="url(#clip710)" d="M2693.19 692.934 L2693.19 687.842 Q2700.7 683.067 2707.9 680.712 Q2715.09 678.325 2722.19 678.325 Q2729.32 678.325 2736.54 680.712 Q2743.77 683.067 2751.25 687.842 L2751.25 692.934 Q2743.96 688.701 2736.77 686.632 Q2729.54 684.532 2722.19 684.532 Q2714.84 684.532 2707.68 686.632 Q2700.51 688.701 2693.19 692.934 Z" fill="#000000" fill-rule="evenodd" fill-opacity="1" /><path clip-path="url(#clip710)" d="M3356.19 51.4708 L3354.41 42.1132 Q3352.59 32.5126 3345.37 32.5126 Q3339.95 32.5126 3337.48 36.9686 Q3334.36 42.5588 3334.36 49.9314 Q3334.36 58.8434 3337.39 63.0969 Q3340.47 67.4314 3345.37 67.4314 Q3350.8 67.4314 3353.72 58.8029 L3356.19 51.4708 M3360.36 39.075 L3364.37 27.2059 L3371.02 27.2059 L3362.71 51.7949 L3364.33 60.6663 Q3364.7 62.6513 3366.12 64.3122 Q3367.78 66.2566 3369.07 66.2566 L3372.64 66.2566 L3372.64 72.576 L3368.18 72.576 Q3364.37 72.576 3360.97 69.1732 Q3359.31 67.4719 3358.62 63.9071 Q3356.76 68.4036 3352.95 71.9279 Q3351.17 73.5887 3345.37 73.5887 Q3335.85 73.5887 3331.24 67.4314 Q3326.5 61.0714 3326.5 49.9314 Q3326.5 38.0218 3331.64 32.4315 Q3337.35 26.1931 3345.37 26.1931 Q3357.97 26.1931 3360.36 39.075 Z" fill="#000000" fill-rule="evenodd" fill-opacity="1" /><path clip-path="url(#clip710)" d="M3418.9 86.3491 L3418.9 92.1419 L3375.8 92.1419 L3375.8 86.3491 L3418.9 86.3491 Z" fill="#000000" fill-rule="evenodd" fill-opacity="1" /><path clip-path="url(#clip710)" d="M3444.46 17.4837 Q3438.14 17.4837 3434.94 23.7221 Q3431.78 29.92 3431.78 42.3968 Q3431.78 54.833 3434.94 61.0714 Q3438.14 67.2693 3444.46 67.2693 Q3450.82 67.2693 3453.98 61.0714 Q3457.18 54.833 3457.18 42.3968 Q3457.18 29.92 3453.98 23.7221 Q3450.82 17.4837 3444.46 17.4837 M3444.46 11.0023 Q3454.63 11.0023 3459.97 19.0636 Q3465.36 27.0843 3465.36 42.3968 Q3465.36 57.6687 3459.97 65.73 Q3454.63 73.7508 3444.46 73.7508 Q3434.29 73.7508 3428.9 65.73 Q3423.56 57.6687 3423.56 42.3968 Q3423.56 27.0843 3428.9 19.0636 Q3434.29 11.0023 3444.46 11.0023 Z" fill="#000000" fill-rule="evenodd" fill-opacity="1" /><polyline clip-path="url(#clip714)" style="stroke:#009af9; stroke-linecap:butt; stroke-linejoin:round; stroke-width:4; stroke-opacity:1; fill:none" points="
  2930.05,1358.19 2937.16,1344.92 2944.32,1331.65 2951.51,1318.38 2958.75,1305.11 2966.03,1291.84 2973.35,1278.57 2980.71,1265.3 2988.12,1252.03 2995.56,1238.76 
  3003.05,1225.49 3010.58,1212.22 3018.16,1198.95 3025.78,1185.68 3033.45,1172.41 3042.23,1159.14 3051.4,1145.88 3060.61,1132.61 3069.88,1119.34 3079.21,1106.07 
  3088.58,1092.8 3098.01,1079.53 3107.49,1066.26 3117.02,1052.99 3126.61,1039.72 3136.25,1026.45 3145.95,1013.18 3155.7,999.91 3165.51,986.641 3175.37,973.371 
  3185.29,960.102 3195.26,946.832 3205.29,933.563 3215.38,920.293 3225.53,907.024 3235.73,893.754 3245.99,880.485 3256.31,867.215 3266.68,853.946 3277.12,840.676 
  3287.62,827.407 3298.17,814.137 3308.79,800.868 3319.46,787.598 3330.2,774.329 3341,761.059 3351.86,747.79 3362.78,734.52 3373.76,721.251 3384.81,707.981 
  3395.92,694.712 3407.09,681.442 3418.33,668.172 3429.63,654.903 3440.99,641.633 3452.42,628.364 3463.92,615.094 3475.48,601.825 3487.1,588.555 3498.8,575.286 
  3510.56,562.016 3522.39,548.747 3534.28,535.477 3546.25,522.208 3558.28,508.938 3570.38,495.669 3582.55,482.399 3594.79,469.13 3607.1,455.86 3619.48,442.591 
  3631.94,429.321 3644.46,416.052 3657.06,402.782 3669.73,389.513 3682.47,376.243 3695.28,362.974 3708.17,349.704 3721.13,336.435 3734.17,323.165 3747.28,309.896 
  3760.47,296.626 3773.73,283.357 3787.07,270.087 3800.48,256.818 3813.97,243.548 3827.54,230.279 3841.19,217.009 3854.92,203.739 
  "/>
<polyline clip-path="url(#clip714)" style="stroke:#e26f46; stroke-linecap:butt; stroke-linejoin:round; stroke-width:4; stroke-opacity:1; fill:none" points="
  2933.6,1351.55 2940.74,1338.28 2947.91,1325.01 2955.13,1311.74 2962.39,1298.47 2969.68,1285.2 2977.02,1271.94 2984.41,1258.67 2991.83,1245.4 2999.3,1232.13 
  3006.81,1218.86 3014.37,1205.59 3021.97,1192.32 3029.61,1179.05 3037.67,1165.78 3046.81,1152.51 3056,1139.24 3065.24,1125.97 3074.54,1112.7 3083.89,1099.43 
  3093.29,1086.16 3102.74,1072.89 3112.25,1059.62 3121.81,1046.35 3131.43,1033.08 3141.1,1019.81 3150.82,1006.55 3160.6,993.276 3170.43,980.006 3180.32,966.737 
  3190.27,953.467 3200.27,940.198 3210.33,926.928 3220.45,913.659 3230.62,900.389 3240.85,887.119 3251.14,873.85 3261.49,860.58 3271.9,847.311 3282.36,834.041 
  3292.89,820.772 3303.47,807.502 3314.12,794.233 3324.82,780.963 3335.59,767.694 3346.42,754.424 3357.31,741.155 3368.26,727.885 3379.28,714.616 3390.35,701.346 
  3401.49,688.077 3412.7,674.807 3423.97,661.538 3435.3,648.268 3446.7,634.999 3458.16,621.729 3469.69,608.46 3481.28,595.19 3492.94,581.921 3504.67,568.651 
  3516.46,555.382 3528.33,542.112 3540.26,528.843 3552.25,515.573 3564.32,502.304 3576.46,489.034 3588.66,475.765 3600.94,462.495 3613.28,449.226 3625.7,435.956 
  3638.19,422.686 3650.75,409.417 3663.38,396.147 3676.09,382.878 3688.87,369.608 3701.72,356.339 3714.64,343.069 3727.64,329.8 3740.71,316.53 3753.86,303.261 
  3767.09,289.991 3780.39,276.722 3793.76,263.452 3807.22,250.183 3820.75,236.913 3834.36,223.644 3848.04,210.374 3861.81,197.105 
  "/>
<path clip-path="url(#clip710)" d="
M3574.81 358.817 L3856.84 358.817 L3856.84 203.297 L3574.81 203.297  Z
  " fill="#ffffff" fill-rule="evenodd" fill-opacity="1"/>
<polyline clip-path="url(#clip710)" style="stroke:#000000; stroke-linecap:butt; stroke-linejoin:round; stroke-width:4; stroke-opacity:1; fill:none" points="
  3574.81,358.817 3856.84,358.817 3856.84,203.297 3574.81,203.297 3574.81,358.817 
  "/>
<polyline clip-path="url(#clip710)" style="stroke:#009af9; stroke-linecap:butt; stroke-linejoin:round; stroke-width:4; stroke-opacity:1; fill:none" points="
  3585.78,255.137 3651.63,255.137 
  "/>
<path clip-path="url(#clip710)" d="M3683.11 247.487 L3683.11 251.468 Q3681.31 250.473 3679.48 249.987 Q3677.67 249.477 3675.82 249.477 Q3671.68 249.477 3669.38 252.116 Q3667.09 254.732 3667.09 259.477 Q3667.09 264.223 3669.38 266.862 Q3671.68 269.477 3675.82 269.477 Q3677.67 269.477 3679.48 268.991 Q3681.31 268.482 3683.11 267.487 L3683.11 271.422 Q3681.33 272.255 3679.41 272.672 Q3677.51 273.088 3675.36 273.088 Q3669.5 273.088 3666.05 269.408 Q3662.6 265.727 3662.6 259.477 Q3662.6 253.135 3666.07 249.501 Q3669.57 245.866 3675.63 245.866 Q3677.6 245.866 3679.48 246.283 Q3681.35 246.677 3683.11 247.487 Z" fill="#000000" fill-rule="evenodd" fill-opacity="1" /><path clip-path="url(#clip710)" d="M3712.69 258.389 L3712.69 260.473 L3693.11 260.473 Q3693.39 264.871 3695.75 267.186 Q3698.13 269.477 3702.37 269.477 Q3704.82 269.477 3707.12 268.876 Q3709.43 268.274 3711.7 267.07 L3711.7 271.098 Q3709.41 272.07 3707 272.579 Q3704.59 273.088 3702.12 273.088 Q3695.91 273.088 3692.28 269.477 Q3688.67 265.866 3688.67 259.709 Q3688.67 253.343 3692.09 249.616 Q3695.54 245.866 3701.38 245.866 Q3706.61 245.866 3709.64 249.246 Q3712.69 252.602 3712.69 258.389 M3708.44 257.139 Q3708.39 253.644 3706.47 251.561 Q3704.57 249.477 3701.42 249.477 Q3697.86 249.477 3695.7 251.491 Q3693.57 253.505 3693.25 257.163 L3708.44 257.139 Z" fill="#000000" fill-rule="evenodd" fill-opacity="1" /><path clip-path="url(#clip710)" d="M3741.24 256.769 L3741.24 272.417 L3736.98 272.417 L3736.98 256.908 Q3736.98 253.227 3735.54 251.399 Q3734.11 249.57 3731.24 249.57 Q3727.79 249.57 3725.8 251.769 Q3723.81 253.968 3723.81 257.764 L3723.81 272.417 L3719.52 272.417 L3719.52 246.491 L3723.81 246.491 L3723.81 250.519 Q3725.33 248.181 3727.39 247.024 Q3729.48 245.866 3732.19 245.866 Q3736.65 245.866 3738.94 248.644 Q3741.24 251.399 3741.24 256.769 Z" fill="#000000" fill-rule="evenodd" fill-opacity="1" /><path clip-path="url(#clip710)" d="M3753.94 239.13 L3753.94 246.491 L3762.72 246.491 L3762.72 249.802 L3753.94 249.802 L3753.94 263.876 Q3753.94 267.047 3754.8 267.95 Q3755.68 268.852 3758.34 268.852 L3762.72 268.852 L3762.72 272.417 L3758.34 272.417 Q3753.41 272.417 3751.54 270.588 Q3749.66 268.737 3749.66 263.876 L3749.66 249.802 L3746.54 249.802 L3746.54 246.491 L3749.66 246.491 L3749.66 239.13 L3753.94 239.13 Z" fill="#000000" fill-rule="evenodd" fill-opacity="1" /><path clip-path="url(#clip710)" d="M3790.5 258.389 L3790.5 260.473 L3770.91 260.473 Q3771.19 264.871 3773.55 267.186 Q3775.94 269.477 3780.17 269.477 Q3782.63 269.477 3784.92 268.876 Q3787.23 268.274 3789.5 267.07 L3789.5 271.098 Q3787.21 272.07 3784.8 272.579 Q3782.39 273.088 3779.92 273.088 Q3773.71 273.088 3770.08 269.477 Q3766.47 265.866 3766.47 259.709 Q3766.47 253.343 3769.89 249.616 Q3773.34 245.866 3779.18 245.866 Q3784.41 245.866 3787.44 249.246 Q3790.5 252.602 3790.5 258.389 M3786.24 257.139 Q3786.19 253.644 3784.27 251.561 Q3782.37 249.477 3779.22 249.477 Q3775.66 249.477 3773.5 251.491 Q3771.38 253.505 3771.05 257.163 L3786.24 257.139 Z" fill="#000000" fill-rule="evenodd" fill-opacity="1" /><path clip-path="url(#clip710)" d="M3812.51 250.473 Q3811.79 250.056 3810.94 249.871 Q3810.1 249.663 3809.08 249.663 Q3805.47 249.663 3803.53 252.024 Q3801.61 254.362 3801.61 258.76 L3801.61 272.417 L3797.32 272.417 L3797.32 246.491 L3801.61 246.491 L3801.61 250.519 Q3802.95 248.158 3805.1 247.024 Q3807.25 245.866 3810.33 245.866 Q3810.77 245.866 3811.31 245.936 Q3811.84 245.982 3812.49 246.098 L3812.51 250.473 Z" fill="#000000" fill-rule="evenodd" fill-opacity="1" /><path clip-path="url(#clip710)" d="M3833.5 247.255 L3833.5 251.283 Q3831.7 250.357 3829.75 249.894 Q3827.81 249.431 3825.73 249.431 Q3822.56 249.431 3820.96 250.403 Q3819.38 251.376 3819.38 253.32 Q3819.38 254.802 3820.52 255.658 Q3821.65 256.491 3825.08 257.255 L3826.54 257.579 Q3831.07 258.552 3832.97 260.334 Q3834.89 262.093 3834.89 265.264 Q3834.89 268.876 3832.02 270.982 Q3829.18 273.088 3824.18 273.088 Q3822.09 273.088 3819.82 272.672 Q3817.58 272.278 3815.08 271.468 L3815.08 267.07 Q3817.44 268.297 3819.73 268.922 Q3822.02 269.524 3824.27 269.524 Q3827.28 269.524 3828.9 268.505 Q3830.52 267.463 3830.52 265.589 Q3830.52 263.852 3829.34 262.926 Q3828.18 262.001 3824.22 261.144 L3822.74 260.797 Q3818.78 259.964 3817.02 258.251 Q3815.26 256.514 3815.26 253.505 Q3815.26 249.848 3817.86 247.857 Q3820.45 245.866 3825.22 245.866 Q3827.58 245.866 3829.66 246.214 Q3831.75 246.561 3833.5 247.255 Z" fill="#000000" fill-rule="evenodd" fill-opacity="1" /><polyline clip-path="url(#clip710)" style="stroke:#e26f46; stroke-linecap:butt; stroke-linejoin:round; stroke-width:4; stroke-opacity:1; fill:none" points="
  3585.78,306.977 3651.63,306.977 
  "/>
<path clip-path="url(#clip710)" d="M3679.11 288.239 L3679.11 291.78 L3675.03 291.78 Q3672.74 291.78 3671.84 292.706 Q3670.96 293.632 3670.96 296.04 L3670.96 298.331 L3677.97 298.331 L3677.97 301.642 L3670.96 301.642 L3670.96 324.257 L3666.68 324.257 L3666.68 301.642 L3662.6 301.642 L3662.6 298.331 L3666.68 298.331 L3666.68 296.526 Q3666.68 292.197 3668.69 290.23 Q3670.7 288.239 3675.08 288.239 L3679.11 288.239 Z" fill="#000000" fill-rule="evenodd" fill-opacity="1" /><path clip-path="url(#clip710)" d="M3694.45 311.225 Q3689.29 311.225 3687.3 312.405 Q3685.31 313.586 3685.31 316.433 Q3685.31 318.702 3686.79 320.044 Q3688.3 321.364 3690.87 321.364 Q3694.41 321.364 3696.54 318.864 Q3698.69 316.341 3698.69 312.174 L3698.69 311.225 L3694.45 311.225 M3702.95 309.466 L3702.95 324.257 L3698.69 324.257 L3698.69 320.322 Q3697.23 322.683 3695.06 323.817 Q3692.88 324.928 3689.73 324.928 Q3685.75 324.928 3683.39 322.706 Q3681.05 320.461 3681.05 316.711 Q3681.05 312.336 3683.97 310.114 Q3686.91 307.892 3692.72 307.892 L3698.69 307.892 L3698.69 307.475 Q3698.69 304.535 3696.75 302.938 Q3694.82 301.317 3691.33 301.317 Q3689.11 301.317 3687 301.85 Q3684.89 302.382 3682.95 303.447 L3682.95 299.512 Q3685.29 298.609 3687.49 298.169 Q3689.69 297.706 3691.77 297.706 Q3697.39 297.706 3700.17 300.623 Q3702.95 303.54 3702.95 309.466 Z" fill="#000000" fill-rule="evenodd" fill-opacity="1" /><path clip-path="url(#clip710)" d="M3730.38 299.327 L3730.38 303.308 Q3728.57 302.313 3726.75 301.827 Q3724.94 301.317 3723.09 301.317 Q3718.94 301.317 3716.65 303.956 Q3714.36 306.572 3714.36 311.317 Q3714.36 316.063 3716.65 318.702 Q3718.94 321.317 3723.09 321.317 Q3724.94 321.317 3726.75 320.831 Q3728.57 320.322 3730.38 319.327 L3730.38 323.262 Q3728.6 324.095 3726.68 324.512 Q3724.78 324.928 3722.63 324.928 Q3716.77 324.928 3713.32 321.248 Q3709.87 317.567 3709.87 311.317 Q3709.87 304.975 3713.34 301.341 Q3716.84 297.706 3722.9 297.706 Q3724.87 297.706 3726.75 298.123 Q3728.62 298.517 3730.38 299.327 Z" fill="#000000" fill-rule="evenodd" fill-opacity="1" /><path clip-path="url(#clip710)" d="M3759.96 310.229 L3759.96 312.313 L3740.38 312.313 Q3740.66 316.711 3743.02 319.026 Q3745.4 321.317 3749.64 321.317 Q3752.09 321.317 3754.38 320.716 Q3756.7 320.114 3758.97 318.91 L3758.97 322.938 Q3756.68 323.91 3754.27 324.419 Q3751.86 324.928 3749.38 324.928 Q3743.18 324.928 3739.55 321.317 Q3735.94 317.706 3735.94 311.549 Q3735.94 305.183 3739.36 301.456 Q3742.81 297.706 3748.64 297.706 Q3753.88 297.706 3756.91 301.086 Q3759.96 304.442 3759.96 310.229 M3755.7 308.979 Q3755.66 305.484 3753.74 303.401 Q3751.84 301.317 3748.69 301.317 Q3745.13 301.317 3742.97 303.331 Q3740.84 305.345 3740.52 309.003 L3755.7 308.979 Z" fill="#000000" fill-rule="evenodd" fill-opacity="1" /><path clip-path="url(#clip710)" d="M3783.48 299.095 L3783.48 303.123 Q3781.68 302.197 3779.73 301.734 Q3777.79 301.271 3775.7 301.271 Q3772.53 301.271 3770.94 302.243 Q3769.36 303.216 3769.36 305.16 Q3769.36 306.642 3770.5 307.498 Q3771.63 308.331 3775.06 309.095 L3776.51 309.419 Q3781.05 310.392 3782.95 312.174 Q3784.87 313.933 3784.87 317.104 Q3784.87 320.716 3782 322.822 Q3779.15 324.928 3774.15 324.928 Q3772.07 324.928 3769.8 324.512 Q3767.56 324.118 3765.06 323.308 L3765.06 318.91 Q3767.42 320.137 3769.71 320.762 Q3772 321.364 3774.25 321.364 Q3777.25 321.364 3778.88 320.345 Q3780.5 319.303 3780.5 317.429 Q3780.5 315.692 3779.31 314.766 Q3778.16 313.841 3774.2 312.984 L3772.72 312.637 Q3768.76 311.804 3767 310.091 Q3765.24 308.354 3765.24 305.345 Q3765.24 301.688 3767.83 299.697 Q3770.43 297.706 3775.19 297.706 Q3777.56 297.706 3779.64 298.054 Q3781.72 298.401 3783.48 299.095 Z" fill="#000000" fill-rule="evenodd" fill-opacity="1" /></svg>
